<?xml version="1.0" encoding="utf-8" standalone="no"?>
<!DOCTYPE svg PUBLIC "-//W3C//DTD SVG 1.1//EN"
  "http://www.w3.org/Graphics/SVG/1.1/DTD/svg11.dtd">
<svg xmlns:xlink="http://www.w3.org/1999/xlink" width="576pt" height="432pt" viewBox="0 0 576 432" xmlns="http://www.w3.org/2000/svg" version="1.1">
 <metadata>
  <rdf:RDF xmlns:dc="http://purl.org/dc/elements/1.1/" xmlns:cc="http://creativecommons.org/ns#" xmlns:rdf="http://www.w3.org/1999/02/22-rdf-syntax-ns#">
   <cc:Work>
    <dc:type rdf:resource="http://purl.org/dc/dcmitype/StillImage"/>
    <dc:date>2024-11-15T12:34:32.429679</dc:date>
    <dc:format>image/svg+xml</dc:format>
    <dc:creator>
     <cc:Agent>
      <dc:title>Matplotlib v3.9.2, https://matplotlib.org/</dc:title>
     </cc:Agent>
    </dc:creator>
   </cc:Work>
  </rdf:RDF>
 </metadata>
 <defs>
  <style type="text/css">*{stroke-linejoin: round; stroke-linecap: butt}</style>
 </defs>
 <g id="figure_1">
  <g id="patch_1">
   <path d="M 0 432 
L 576 432 
L 576 0 
L 0 0 
z
" style="fill: #ffffff"/>
  </g>
  <g id="patch_2">
   <path d="M 128.88 384.48 
L 461.52 384.48 
L 461.52 51.84 
L 128.88 51.84 
z
" style="fill: #ffffff"/>
  </g>
  <g id="pane3d_1">
   <g id="patch_3">
    <path d="M 153.996614 302.461636 
L 263.845206 210.384369 
L 262.318205 77.592489 
L 147.212792 161.591176 
" style="fill: #f2f2f2; opacity: 0.5; stroke: #f2f2f2; stroke-linejoin: miter"/>
   </g>
  </g>
  <g id="pane3d_2">
   <g id="patch_4">
    <path d="M 263.845206 210.384369 
L 440.113001 261.618458 
L 446.403377 124.252714 
L 262.318205 77.592489 
" style="fill: #e6e6e6; opacity: 0.5; stroke: #e6e6e6; stroke-linejoin: miter"/>
   </g>
  </g>
  <g id="pane3d_3">
   <g id="patch_5">
    <path d="M 153.996614 302.461636 
L 340.849086 363.487653 
L 440.113001 261.618458 
L 263.845206 210.384369 
" style="fill: #ececec; opacity: 0.5; stroke: #ececec; stroke-linejoin: miter"/>
   </g>
  </g>
  <g id="grid3d_1">
   <g id="Line3DCollection_1">
    <path d="M 185.743295 312.830102 
L 293.903443 219.121112 
L 293.654578 85.535346 
" style="fill: none; stroke: #b0b0b0; stroke-width: 0.8"/>
    <path d="M 220.334345 324.127539 
L 326.603402 228.625699 
L 327.770619 94.182768 
" style="fill: none; stroke: #b0b0b0; stroke-width: 0.8"/>
    <path d="M 255.619532 335.651681 
L 359.904487 238.305009 
L 362.541284 102.996118 
" style="fill: none; stroke: #b0b0b0; stroke-width: 0.8"/>
    <path d="M 291.61996 347.409421 
L 393.823428 248.163906 
L 397.985596 111.980218 
" style="fill: none; stroke: #b0b0b0; stroke-width: 0.8"/>
    <path d="M 328.357601 359.407934 
L 428.377579 258.207434 
L 434.123324 121.140078 
" style="fill: none; stroke: #b0b0b0; stroke-width: 0.8"/>
   </g>
  </g>
  <g id="grid3d_2">
   <g id="Line3DCollection_2">
    <path d="M 155.172616 155.782459 
L 161.56611 296.116734 
L 347.717381 356.439093 
" style="fill: none; stroke: #b0b0b0; stroke-width: 0.8"/>
    <path d="M 168.602023 145.98229 
L 174.345976 285.404398 
L 359.303884 344.548491 
" style="fill: none; stroke: #b0b0b0; stroke-width: 0.8"/>
    <path d="M 181.765557 136.376142 
L 186.883809 274.894937 
L 370.659378 332.894961 
" style="fill: none; stroke: #b0b0b0; stroke-width: 0.8"/>
    <path d="M 194.671036 126.958312 
L 199.18642 264.582644 
L 381.790703 321.471482 
" style="fill: none; stroke: #b0b0b0; stroke-width: 0.8"/>
    <path d="M 207.325974 117.723314 
L 211.260369 254.462022 
L 392.704434 310.27131 
" style="fill: none; stroke: #b0b0b0; stroke-width: 0.8"/>
    <path d="M 219.737598 108.665876 
L 223.11197 244.527775 
L 403.406887 299.28796 
" style="fill: none; stroke: #b0b0b0; stroke-width: 0.8"/>
    <path d="M 231.912858 99.780926 
L 234.74731 234.774802 
L 413.90414 288.515197 
" style="fill: none; stroke: #b0b0b0; stroke-width: 0.8"/>
    <path d="M 243.858441 91.063583 
L 246.172254 225.198187 
L 424.202037 277.94702 
" style="fill: none; stroke: #b0b0b0; stroke-width: 0.8"/>
    <path d="M 255.580787 82.509149 
L 257.392459 215.793189 
L 434.306206 267.577658 
" style="fill: none; stroke: #b0b0b0; stroke-width: 0.8"/>
   </g>
  </g>
  <g id="grid3d_3">
   <g id="Line3DCollection_3">
    <path d="M 440.883161 244.800117 
L 263.657901 194.095883 
L 153.167267 285.2397 
" style="fill: none; stroke: #b0b0b0; stroke-width: 0.8"/>
    <path d="M 441.67376 227.535467 
L 263.465727 177.383913 
L 152.315555 267.553353 
" style="fill: none; stroke: #b0b0b0; stroke-width: 0.8"/>
    <path d="M 442.473262 210.076378 
L 263.271492 160.492749 
L 151.453884 249.660195 
" style="fill: none; stroke: #b0b0b0; stroke-width: 0.8"/>
    <path d="M 443.28182 192.419546 
L 263.075163 143.419493 
L 150.582078 231.556579 
" style="fill: none; stroke: #b0b0b0; stroke-width: 0.8"/>
    <path d="M 444.099587 174.561593 
L 262.876706 126.161185 
L 149.699957 213.238768 
" style="fill: none; stroke: #b0b0b0; stroke-width: 0.8"/>
    <path d="M 444.926723 156.499062 
L 262.676087 108.7148 
L 148.807337 194.702938 
" style="fill: none; stroke: #b0b0b0; stroke-width: 0.8"/>
    <path d="M 445.763389 138.228418 
L 262.473269 91.077247 
L 147.90403 175.945175 
" style="fill: none; stroke: #b0b0b0; stroke-width: 0.8"/>
   </g>
  </g>
  <g id="axis3d_1">
   <g id="line2d_1">
    <path d="M 153.996614 302.461636 
L 340.849086 363.487653 
" style="fill: none; stroke: #000000; stroke-width: 0.8; stroke-linecap: square"/>
   </g>
   <g id="xtick_1">
    <g id="line2d_2">
     <path d="M 186.685599 312.013698 
L 183.85462 314.466434 
" style="fill: none; stroke: #000000; stroke-width: 0.8; stroke-linecap: square"/>
    </g>
    <g id="text_1">
     <!-- 1.0 -->
     <g transform="translate(170.284812 336.240452) scale(0.1 -0.1)">
      <defs>
       <path id="DejaVuSans-31" d="M 794 531 
L 1825 531 
L 1825 4091 
L 703 3866 
L 703 4441 
L 1819 4666 
L 2450 4666 
L 2450 531 
L 3481 531 
L 3481 0 
L 794 0 
L 794 531 
z
" transform="scale(0.015625)"/>
       <path id="DejaVuSans-2e" d="M 684 794 
L 1344 794 
L 1344 0 
L 684 0 
L 684 794 
z
" transform="scale(0.015625)"/>
       <path id="DejaVuSans-30" d="M 2034 4250 
Q 1547 4250 1301 3770 
Q 1056 3291 1056 2328 
Q 1056 1369 1301 889 
Q 1547 409 2034 409 
Q 2525 409 2770 889 
Q 3016 1369 3016 2328 
Q 3016 3291 2770 3770 
Q 2525 4250 2034 4250 
z
M 2034 4750 
Q 2819 4750 3233 4129 
Q 3647 3509 3647 2328 
Q 3647 1150 3233 529 
Q 2819 -91 2034 -91 
Q 1250 -91 836 529 
Q 422 1150 422 2328 
Q 422 3509 836 4129 
Q 1250 4750 2034 4750 
z
" transform="scale(0.015625)"/>
      </defs>
      <use xlink:href="#DejaVuSans-31"/>
      <use xlink:href="#DejaVuSans-2e" x="63.623047"/>
      <use xlink:href="#DejaVuSans-30" x="95.410156"/>
     </g>
    </g>
   </g>
   <g id="xtick_2">
    <g id="line2d_3">
     <path d="M 221.260925 323.294841 
L 218.477146 325.796566 
" style="fill: none; stroke: #000000; stroke-width: 0.8; stroke-linecap: square"/>
    </g>
    <g id="text_2">
     <!-- 1.5 -->
     <g transform="translate(204.905494 347.729542) scale(0.1 -0.1)">
      <defs>
       <path id="DejaVuSans-35" d="M 691 4666 
L 3169 4666 
L 3169 4134 
L 1269 4134 
L 1269 2991 
Q 1406 3038 1543 3061 
Q 1681 3084 1819 3084 
Q 2600 3084 3056 2656 
Q 3513 2228 3513 1497 
Q 3513 744 3044 326 
Q 2575 -91 1722 -91 
Q 1428 -91 1123 -41 
Q 819 9 494 109 
L 494 744 
Q 775 591 1075 516 
Q 1375 441 1709 441 
Q 2250 441 2565 725 
Q 2881 1009 2881 1497 
Q 2881 1984 2565 2268 
Q 2250 2553 1709 2553 
Q 1456 2553 1204 2497 
Q 953 2441 691 2322 
L 691 4666 
z
" transform="scale(0.015625)"/>
      </defs>
      <use xlink:href="#DejaVuSans-31"/>
      <use xlink:href="#DejaVuSans-2e" x="63.623047"/>
      <use xlink:href="#DejaVuSans-35" x="95.410156"/>
     </g>
    </g>
   </g>
   <g id="xtick_3">
    <g id="line2d_4">
     <path d="M 256.529564 334.802195 
L 253.79546 337.354393 
" style="fill: none; stroke: #000000; stroke-width: 0.8; stroke-linecap: square"/>
    </g>
    <g id="text_3">
     <!-- 2.0 -->
     <g transform="translate(240.223025 359.449886) scale(0.1 -0.1)">
      <defs>
       <path id="DejaVuSans-32" d="M 1228 531 
L 3431 531 
L 3431 0 
L 469 0 
L 469 531 
Q 828 903 1448 1529 
Q 2069 2156 2228 2338 
Q 2531 2678 2651 2914 
Q 2772 3150 2772 3378 
Q 2772 3750 2511 3984 
Q 2250 4219 1831 4219 
Q 1534 4219 1204 4116 
Q 875 4013 500 3803 
L 500 4441 
Q 881 4594 1212 4672 
Q 1544 4750 1819 4750 
Q 2544 4750 2975 4387 
Q 3406 4025 3406 3419 
Q 3406 3131 3298 2873 
Q 3191 2616 2906 2266 
Q 2828 2175 2409 1742 
Q 1991 1309 1228 531 
z
" transform="scale(0.015625)"/>
      </defs>
      <use xlink:href="#DejaVuSans-32"/>
      <use xlink:href="#DejaVuSans-2e" x="63.623047"/>
      <use xlink:href="#DejaVuSans-30" x="95.410156"/>
     </g>
    </g>
   </g>
   <g id="xtick_4">
    <g id="line2d_5">
     <path d="M 292.51258 346.542635 
L 289.83075 349.146848 
" style="fill: none; stroke: #000000; stroke-width: 0.8; stroke-linecap: square"/>
    </g>
    <g id="text_4">
     <!-- 2.5 -->
     <g transform="translate(276.25866 371.408537) scale(0.1 -0.1)">
      <use xlink:href="#DejaVuSans-32"/>
      <use xlink:href="#DejaVuSans-2e" x="63.623047"/>
      <use xlink:href="#DejaVuSans-35" x="95.410156"/>
     </g>
    </g>
   </g>
   <g id="xtick_5">
    <g id="line2d_6">
     <path d="M 329.231902 358.523314 
L 326.605071 361.18115 
" style="fill: none; stroke: #000000; stroke-width: 0.8; stroke-linecap: square"/>
    </g>
    <g id="text_5">
     <!-- 3.0 -->
     <g transform="translate(313.034524 383.612838) scale(0.1 -0.1)">
      <defs>
       <path id="DejaVuSans-33" d="M 2597 2516 
Q 3050 2419 3304 2112 
Q 3559 1806 3559 1356 
Q 3559 666 3084 287 
Q 2609 -91 1734 -91 
Q 1441 -91 1130 -33 
Q 819 25 488 141 
L 488 750 
Q 750 597 1062 519 
Q 1375 441 1716 441 
Q 2309 441 2620 675 
Q 2931 909 2931 1356 
Q 2931 1769 2642 2001 
Q 2353 2234 1838 2234 
L 1294 2234 
L 1294 2753 
L 1863 2753 
Q 2328 2753 2575 2939 
Q 2822 3125 2822 3475 
Q 2822 3834 2567 4026 
Q 2313 4219 1838 4219 
Q 1578 4219 1281 4162 
Q 984 4106 628 3988 
L 628 4550 
Q 988 4650 1302 4700 
Q 1616 4750 1894 4750 
Q 2613 4750 3031 4423 
Q 3450 4097 3450 3541 
Q 3450 3153 3228 2886 
Q 3006 2619 2597 2516 
z
" transform="scale(0.015625)"/>
      </defs>
      <use xlink:href="#DejaVuSans-33"/>
      <use xlink:href="#DejaVuSans-2e" x="63.623047"/>
      <use xlink:href="#DejaVuSans-30" x="95.410156"/>
     </g>
    </g>
   </g>
   <g id="text_6">
    <!-- $\eta [-]$ -->
    <g transform="translate(217.100022 366.489671) rotate(-341.912962) scale(0.1 -0.1)">
     <defs>
      <path id="DejaVuSans-Oblique-3b7" d="M 3703 2113 
L 3034 -1331 
L 2459 -1331 
L 3125 2094 
Q 3222 2591 3075 2838 
Q 2931 3084 2544 3084 
Q 2078 3084 1750 2788 
Q 1425 2491 1325 1978 
L 941 0 
L 363 0 
L 1044 3500 
L 1622 3500 
L 1516 2956 
Q 1781 3272 2094 3428 
Q 2403 3584 2769 3584 
Q 3372 3584 3609 3213 
Q 3844 2838 3703 2113 
z
" transform="scale(0.015625)"/>
      <path id="DejaVuSans-5b" d="M 550 4863 
L 1875 4863 
L 1875 4416 
L 1125 4416 
L 1125 -397 
L 1875 -397 
L 1875 -844 
L 550 -844 
L 550 4863 
z
" transform="scale(0.015625)"/>
      <path id="DejaVuSans-2212" d="M 678 2272 
L 4684 2272 
L 4684 1741 
L 678 1741 
L 678 2272 
z
" transform="scale(0.015625)"/>
      <path id="DejaVuSans-5d" d="M 1947 4863 
L 1947 -844 
L 622 -844 
L 622 -397 
L 1369 -397 
L 1369 4416 
L 622 4416 
L 622 4863 
L 1947 4863 
z
" transform="scale(0.015625)"/>
     </defs>
     <use xlink:href="#DejaVuSans-Oblique-3b7" transform="translate(0 0.015625)"/>
     <use xlink:href="#DejaVuSans-5b" transform="translate(63.378906 0.015625)"/>
     <use xlink:href="#DejaVuSans-2212" transform="translate(102.392578 0.015625)"/>
     <use xlink:href="#DejaVuSans-5d" transform="translate(186.181641 0.015625)"/>
    </g>
   </g>
  </g>
  <g id="axis3d_2">
   <g id="line2d_7">
    <path d="M 440.113001 261.618458 
L 340.849086 363.487653 
" style="fill: none; stroke: #000000; stroke-width: 0.8; stroke-linecap: square"/>
   </g>
   <g id="xtick_6">
    <g id="line2d_8">
     <path d="M 346.148678 355.930755 
L 350.858842 357.457085 
" style="fill: none; stroke: #000000; stroke-width: 0.8; stroke-linecap: square"/>
    </g>
    <g id="text_7">
     <!-- 0.2 -->
     <g transform="translate(352.64491 377.459216) scale(0.1 -0.1)">
      <use xlink:href="#DejaVuSans-30"/>
      <use xlink:href="#DejaVuSans-2e" x="63.623047"/>
      <use xlink:href="#DejaVuSans-32" x="95.410156"/>
     </g>
    </g>
   </g>
   <g id="xtick_7">
    <g id="line2d_9">
     <path d="M 357.746033 344.050336 
L 362.423574 345.546076 
" style="fill: none; stroke: #000000; stroke-width: 0.8; stroke-linecap: square"/>
    </g>
    <g id="text_8">
     <!-- 0.3 -->
     <g transform="translate(364.107162 365.427765) scale(0.1 -0.1)">
      <use xlink:href="#DejaVuSans-30"/>
      <use xlink:href="#DejaVuSans-2e" x="63.623047"/>
      <use xlink:href="#DejaVuSans-33" x="95.410156"/>
     </g>
    </g>
   </g>
   <g id="xtick_8">
    <g id="line2d_10">
     <path d="M 369.11226 332.406686 
L 373.757536 333.872747 
" style="fill: none; stroke: #000000; stroke-width: 0.8; stroke-linecap: square"/>
    </g>
    <g id="text_9">
     <!-- 0.4 -->
     <g transform="translate(375.340775 353.636308) scale(0.1 -0.1)">
      <defs>
       <path id="DejaVuSans-34" d="M 2419 4116 
L 825 1625 
L 2419 1625 
L 2419 4116 
z
M 2253 4666 
L 3047 4666 
L 3047 1625 
L 3713 1625 
L 3713 1100 
L 3047 1100 
L 3047 0 
L 2419 0 
L 2419 1100 
L 313 1100 
L 313 1709 
L 2253 4666 
z
" transform="scale(0.015625)"/>
      </defs>
      <use xlink:href="#DejaVuSans-30"/>
      <use xlink:href="#DejaVuSans-2e" x="63.623047"/>
      <use xlink:href="#DejaVuSans-34" x="95.410156"/>
     </g>
    </g>
   </g>
   <g id="xtick_9">
    <g id="line2d_11">
     <path d="M 380.2542 320.992797 
L 384.867567 322.430053 
" style="fill: none; stroke: #000000; stroke-width: 0.8; stroke-linecap: square"/>
    </g>
    <g id="text_10">
     <!-- 0.5 -->
     <g transform="translate(386.352523 342.077733) scale(0.1 -0.1)">
      <use xlink:href="#DejaVuSans-30"/>
      <use xlink:href="#DejaVuSans-2e" x="63.623047"/>
      <use xlink:href="#DejaVuSans-35" x="95.410156"/>
     </g>
    </g>
   </g>
   <g id="xtick_10">
    <g id="line2d_12">
     <path d="M 391.178427 309.801935 
L 395.760239 311.211227 
" style="fill: none; stroke: #000000; stroke-width: 0.8; stroke-linecap: square"/>
    </g>
    <g id="text_11">
     <!-- 0.6 -->
     <g transform="translate(397.148914 330.745209) scale(0.1 -0.1)">
      <defs>
       <path id="DejaVuSans-36" d="M 2113 2584 
Q 1688 2584 1439 2293 
Q 1191 2003 1191 1497 
Q 1191 994 1439 701 
Q 1688 409 2113 409 
Q 2538 409 2786 701 
Q 3034 994 3034 1497 
Q 3034 2003 2786 2293 
Q 2538 2584 2113 2584 
z
M 3366 4563 
L 3366 3988 
Q 3128 4100 2886 4159 
Q 2644 4219 2406 4219 
Q 1781 4219 1451 3797 
Q 1122 3375 1075 2522 
Q 1259 2794 1537 2939 
Q 1816 3084 2150 3084 
Q 2853 3084 3261 2657 
Q 3669 2231 3669 1497 
Q 3669 778 3244 343 
Q 2819 -91 2113 -91 
Q 1303 -91 875 529 
Q 447 1150 447 2328 
Q 447 3434 972 4092 
Q 1497 4750 2381 4750 
Q 2619 4750 2861 4703 
Q 3103 4656 3366 4563 
z
" transform="scale(0.015625)"/>
      </defs>
      <use xlink:href="#DejaVuSans-30"/>
      <use xlink:href="#DejaVuSans-2e" x="63.623047"/>
      <use xlink:href="#DejaVuSans-36" x="95.410156"/>
     </g>
    </g>
   </g>
   <g id="xtick_11">
    <g id="line2d_13">
     <path d="M 401.891261 298.827626 
L 406.441869 300.209762 
" style="fill: none; stroke: #000000; stroke-width: 0.8; stroke-linecap: square"/>
    </g>
    <g id="text_12">
     <!-- 0.7 -->
     <g transform="translate(407.736204 319.63217) scale(0.1 -0.1)">
      <defs>
       <path id="DejaVuSans-37" d="M 525 4666 
L 3525 4666 
L 3525 4397 
L 1831 0 
L 1172 0 
L 2766 4134 
L 525 4134 
L 525 4666 
z
" transform="scale(0.015625)"/>
      </defs>
      <use xlink:href="#DejaVuSans-30"/>
      <use xlink:href="#DejaVuSans-2e" x="63.623047"/>
      <use xlink:href="#DejaVuSans-37" x="95.410156"/>
     </g>
    </g>
   </g>
   <g id="xtick_12">
    <g id="line2d_14">
     <path d="M 412.398778 288.063644 
L 416.918531 289.419402 
" style="fill: none; stroke: #000000; stroke-width: 0.8; stroke-linecap: square"/>
    </g>
    <g id="text_13">
     <!-- 0.8 -->
     <g transform="translate(418.12041 308.732299) scale(0.1 -0.1)">
      <defs>
       <path id="DejaVuSans-38" d="M 2034 2216 
Q 1584 2216 1326 1975 
Q 1069 1734 1069 1313 
Q 1069 891 1326 650 
Q 1584 409 2034 409 
Q 2484 409 2743 651 
Q 3003 894 3003 1313 
Q 3003 1734 2745 1975 
Q 2488 2216 2034 2216 
z
M 1403 2484 
Q 997 2584 770 2862 
Q 544 3141 544 3541 
Q 544 4100 942 4425 
Q 1341 4750 2034 4750 
Q 2731 4750 3128 4425 
Q 3525 4100 3525 3541 
Q 3525 3141 3298 2862 
Q 3072 2584 2669 2484 
Q 3125 2378 3379 2068 
Q 3634 1759 3634 1313 
Q 3634 634 3220 271 
Q 2806 -91 2034 -91 
Q 1263 -91 848 271 
Q 434 634 434 1313 
Q 434 1759 690 2068 
Q 947 2378 1403 2484 
z
M 1172 3481 
Q 1172 3119 1398 2916 
Q 1625 2713 2034 2713 
Q 2441 2713 2670 2916 
Q 2900 3119 2900 3481 
Q 2900 3844 2670 4047 
Q 2441 4250 2034 4250 
Q 1625 4250 1398 4047 
Q 1172 3844 1172 3481 
z
" transform="scale(0.015625)"/>
      </defs>
      <use xlink:href="#DejaVuSans-30"/>
      <use xlink:href="#DejaVuSans-2e" x="63.623047"/>
      <use xlink:href="#DejaVuSans-38" x="95.410156"/>
     </g>
    </g>
   </g>
   <g id="xtick_13">
    <g id="line2d_15">
     <path d="M 422.706826 277.504001 
L 427.196069 278.834128 
" style="fill: none; stroke: #000000; stroke-width: 0.8; stroke-linecap: square"/>
    </g>
    <g id="text_14">
     <!-- 0.9 -->
     <g transform="translate(428.30732 298.039523) scale(0.1 -0.1)">
      <defs>
       <path id="DejaVuSans-39" d="M 703 97 
L 703 672 
Q 941 559 1184 500 
Q 1428 441 1663 441 
Q 2288 441 2617 861 
Q 2947 1281 2994 2138 
Q 2813 1869 2534 1725 
Q 2256 1581 1919 1581 
Q 1219 1581 811 2004 
Q 403 2428 403 3163 
Q 403 3881 828 4315 
Q 1253 4750 1959 4750 
Q 2769 4750 3195 4129 
Q 3622 3509 3622 2328 
Q 3622 1225 3098 567 
Q 2575 -91 1691 -91 
Q 1453 -91 1209 -44 
Q 966 3 703 97 
z
M 1959 2075 
Q 2384 2075 2632 2365 
Q 2881 2656 2881 3163 
Q 2881 3666 2632 3958 
Q 2384 4250 1959 4250 
Q 1534 4250 1286 3958 
Q 1038 3666 1038 3163 
Q 1038 2656 1286 2365 
Q 1534 2075 1959 2075 
z
" transform="scale(0.015625)"/>
      </defs>
      <use xlink:href="#DejaVuSans-30"/>
      <use xlink:href="#DejaVuSans-2e" x="63.623047"/>
      <use xlink:href="#DejaVuSans-39" x="95.410156"/>
     </g>
    </g>
   </g>
   <g id="xtick_14">
    <g id="line2d_16">
     <path d="M 432.821031 267.142932 
L 437.280107 268.448149 
" style="fill: none; stroke: #000000; stroke-width: 0.8; stroke-linecap: square"/>
    </g>
    <g id="text_15">
     <!-- 1.0 -->
     <g transform="translate(438.302503 287.547993) scale(0.1 -0.1)">
      <use xlink:href="#DejaVuSans-31"/>
      <use xlink:href="#DejaVuSans-2e" x="63.623047"/>
      <use xlink:href="#DejaVuSans-30" x="95.410156"/>
     </g>
    </g>
   </g>
   <g id="text_16">
    <!-- $\zeta [-]$ -->
    <g transform="translate(414.064389 347.966602) rotate(-45.742112) scale(0.1 -0.1)">
     <defs>
      <path id="DejaVuSans-Oblique-3b6" d="M 1966 397 
Q 2378 394 2578 159 
Q 2794 -88 2722 -463 
Q 2650 -822 2372 -1072 
Q 2069 -1344 1559 -1344 
Q 1606 -1109 1650 -872 
Q 1863 -888 2022 -750 
Q 2144 -641 2166 -525 
Q 2197 -359 2125 -222 
Q 2050 -91 1872 -91 
Q -22 -91 316 1669 
Q 616 3206 2609 4284 
L 947 4284 
L 1059 4863 
L 3778 4863 
L 3666 4284 
Q 1181 3147 894 1669 
Q 647 397 1966 397 
z
" transform="scale(0.015625)"/>
     </defs>
     <use xlink:href="#DejaVuSans-Oblique-3b6" transform="translate(0 0.015625)"/>
     <use xlink:href="#DejaVuSans-5b" transform="translate(54.394531 0.015625)"/>
     <use xlink:href="#DejaVuSans-2212" transform="translate(93.408203 0.015625)"/>
     <use xlink:href="#DejaVuSans-5d" transform="translate(177.197266 0.015625)"/>
    </g>
   </g>
  </g>
  <g id="axis3d_3">
   <g id="line2d_17">
    <path d="M 440.113001 261.618458 
L 446.403377 124.252714 
" style="fill: none; stroke: #000000; stroke-width: 0.8; stroke-linecap: square"/>
   </g>
   <g id="xtick_15">
    <g id="line2d_18">
     <path d="M 439.395372 244.374459 
L 443.862299 245.652449 
" style="fill: none; stroke: #000000; stroke-width: 0.8; stroke-linecap: square"/>
    </g>
    <g id="text_17">
     <!-- −0.75 -->
     <g transform="translate(443.918143 249.818317) scale(0.1 -0.1)">
      <use xlink:href="#DejaVuSans-2212"/>
      <use xlink:href="#DejaVuSans-30" x="83.789062"/>
      <use xlink:href="#DejaVuSans-2e" x="147.412109"/>
      <use xlink:href="#DejaVuSans-37" x="179.199219"/>
      <use xlink:href="#DejaVuSans-35" x="242.822266"/>
     </g>
    </g>
   </g>
   <g id="xtick_16">
    <g id="line2d_19">
     <path d="M 440.177326 227.114339 
L 444.670226 228.378737 
" style="fill: none; stroke: #000000; stroke-width: 0.8; stroke-linecap: square"/>
    </g>
    <g id="text_18">
     <!-- −0.50 -->
     <g transform="translate(444.809369 232.581149) scale(0.1 -0.1)">
      <use xlink:href="#DejaVuSans-2212"/>
      <use xlink:href="#DejaVuSans-30" x="83.789062"/>
      <use xlink:href="#DejaVuSans-2e" x="147.412109"/>
      <use xlink:href="#DejaVuSans-35" x="179.199219"/>
      <use xlink:href="#DejaVuSans-30" x="242.822266"/>
     </g>
    </g>
   </g>
   <g id="xtick_17">
    <g id="line2d_20">
     <path d="M 440.968083 209.659908 
L 445.48726 210.910326 
" style="fill: none; stroke: #000000; stroke-width: 0.8; stroke-linecap: square"/>
    </g>
    <g id="text_19">
     <!-- −0.25 -->
     <g transform="translate(445.710608 215.150325) scale(0.1 -0.1)">
      <use xlink:href="#DejaVuSans-2212"/>
      <use xlink:href="#DejaVuSans-30" x="83.789062"/>
      <use xlink:href="#DejaVuSans-2e" x="147.412109"/>
      <use xlink:href="#DejaVuSans-32" x="179.199219"/>
      <use xlink:href="#DejaVuSans-35" x="242.822266"/>
     </g>
    </g>
   </g>
   <g id="xtick_18">
    <g id="line2d_21">
     <path d="M 441.767793 192.007867 
L 446.313556 193.243907 
" style="fill: none; stroke: #000000; stroke-width: 0.8; stroke-linecap: square"/>
    </g>
    <g id="text_20">
     <!-- 0.00 -->
     <g transform="translate(450.811873 197.522563) scale(0.1 -0.1)">
      <use xlink:href="#DejaVuSans-30"/>
      <use xlink:href="#DejaVuSans-2e" x="63.623047"/>
      <use xlink:href="#DejaVuSans-30" x="95.410156"/>
      <use xlink:href="#DejaVuSans-30" x="159.033203"/>
     </g>
    </g>
   </g>
   <g id="xtick_19">
    <g id="line2d_22">
     <path d="M 442.576608 174.154841 
L 447.149271 175.376092 
" style="fill: none; stroke: #000000; stroke-width: 0.8; stroke-linecap: square"/>
    </g>
    <g id="text_21">
     <!-- 0.25 -->
     <g transform="translate(451.733651 179.694505) scale(0.1 -0.1)">
      <use xlink:href="#DejaVuSans-30"/>
      <use xlink:href="#DejaVuSans-2e" x="63.623047"/>
      <use xlink:href="#DejaVuSans-32" x="95.410156"/>
      <use xlink:href="#DejaVuSans-35" x="159.033203"/>
     </g>
    </g>
   </g>
   <g id="xtick_20">
    <g id="line2d_23">
     <path d="M 443.394685 156.097378 
L 447.994567 157.30342 
" style="fill: none; stroke: #000000; stroke-width: 0.8; stroke-linecap: square"/>
    </g>
    <g id="text_22">
     <!-- 0.50 -->
     <g transform="translate(452.665962 161.66272) scale(0.1 -0.1)">
      <use xlink:href="#DejaVuSans-30"/>
      <use xlink:href="#DejaVuSans-2e" x="63.623047"/>
      <use xlink:href="#DejaVuSans-35" x="95.410156"/>
      <use xlink:href="#DejaVuSans-30" x="159.033203"/>
     </g>
    </g>
   </g>
   <g id="xtick_21">
    <g id="line2d_24">
     <path d="M 444.222184 137.831945 
L 448.849611 139.022345 
" style="fill: none; stroke: #000000; stroke-width: 0.8; stroke-linecap: square"/>
    </g>
    <g id="text_23">
     <!-- 0.75 -->
     <g transform="translate(453.608988 143.423694) scale(0.1 -0.1)">
      <use xlink:href="#DejaVuSans-30"/>
      <use xlink:href="#DejaVuSans-2e" x="63.623047"/>
      <use xlink:href="#DejaVuSans-37" x="95.410156"/>
      <use xlink:href="#DejaVuSans-35" x="159.033203"/>
     </g>
    </g>
   </g>
   <g id="text_24">
    <!-- $\theta [\mathrm{rad}]$ -->
    <g transform="translate(485.675336 204.433984) rotate(-87.378092) scale(0.1 -0.1)">
     <defs>
      <path id="DejaVuSans-Oblique-3b8" d="M 2913 2219 
L 925 2219 
Q 791 1284 928 888 
Q 1100 400 1566 400 
Q 2034 400 2391 891 
Q 2703 1322 2913 2219 
z
M 3009 2750 
Q 3094 3638 2984 3950 
Q 2813 4444 2353 4444 
Q 1875 4444 1525 3956 
Q 1250 3563 1034 2750 
L 3009 2750 
z
M 2444 4913 
Q 3194 4913 3494 4250 
Q 3794 3591 3566 2422 
Q 3341 1256 2781 594 
Q 2225 -72 1475 -72 
Q 722 -72 425 594 
Q 128 1256 353 2422 
Q 581 3591 1134 4250 
Q 1691 4913 2444 4913 
z
" transform="scale(0.015625)"/>
      <path id="DejaVuSans-72" d="M 2631 2963 
Q 2534 3019 2420 3045 
Q 2306 3072 2169 3072 
Q 1681 3072 1420 2755 
Q 1159 2438 1159 1844 
L 1159 0 
L 581 0 
L 581 3500 
L 1159 3500 
L 1159 2956 
Q 1341 3275 1631 3429 
Q 1922 3584 2338 3584 
Q 2397 3584 2469 3576 
Q 2541 3569 2628 3553 
L 2631 2963 
z
" transform="scale(0.015625)"/>
      <path id="DejaVuSans-61" d="M 2194 1759 
Q 1497 1759 1228 1600 
Q 959 1441 959 1056 
Q 959 750 1161 570 
Q 1363 391 1709 391 
Q 2188 391 2477 730 
Q 2766 1069 2766 1631 
L 2766 1759 
L 2194 1759 
z
M 3341 1997 
L 3341 0 
L 2766 0 
L 2766 531 
Q 2569 213 2275 61 
Q 1981 -91 1556 -91 
Q 1019 -91 701 211 
Q 384 513 384 1019 
Q 384 1609 779 1909 
Q 1175 2209 1959 2209 
L 2766 2209 
L 2766 2266 
Q 2766 2663 2505 2880 
Q 2244 3097 1772 3097 
Q 1472 3097 1187 3025 
Q 903 2953 641 2809 
L 641 3341 
Q 956 3463 1253 3523 
Q 1550 3584 1831 3584 
Q 2591 3584 2966 3190 
Q 3341 2797 3341 1997 
z
" transform="scale(0.015625)"/>
      <path id="DejaVuSans-64" d="M 2906 2969 
L 2906 4863 
L 3481 4863 
L 3481 0 
L 2906 0 
L 2906 525 
Q 2725 213 2448 61 
Q 2172 -91 1784 -91 
Q 1150 -91 751 415 
Q 353 922 353 1747 
Q 353 2572 751 3078 
Q 1150 3584 1784 3584 
Q 2172 3584 2448 3432 
Q 2725 3281 2906 2969 
z
M 947 1747 
Q 947 1113 1208 752 
Q 1469 391 1925 391 
Q 2381 391 2643 752 
Q 2906 1113 2906 1747 
Q 2906 2381 2643 2742 
Q 2381 3103 1925 3103 
Q 1469 3103 1208 2742 
Q 947 2381 947 1747 
z
" transform="scale(0.015625)"/>
     </defs>
     <use xlink:href="#DejaVuSans-Oblique-3b8" transform="translate(0 0.234375)"/>
     <use xlink:href="#DejaVuSans-5b" transform="translate(61.181641 0.234375)"/>
     <use xlink:href="#DejaVuSans-72" transform="translate(100.195312 0.234375)"/>
     <use xlink:href="#DejaVuSans-61" transform="translate(141.308594 0.234375)"/>
     <use xlink:href="#DejaVuSans-64" transform="translate(202.587891 0.234375)"/>
     <use xlink:href="#DejaVuSans-5d" transform="translate(266.064453 0.234375)"/>
    </g>
   </g>
  </g>
  <g id="axes_1">
   <g id="QuadContourSet3D_1">
    <path d="M 278.085558 205.473822 
L 273.673656 206.63782 
L 269.241452 208.209894 
L 260.367064 210.965442 
L 256.775325 211.917838 
" clip-path="url(#pf4e032919c)" style="fill: none; stroke-dasharray: 7.4,3.2; stroke-dashoffset: 0; stroke: #000000; stroke-width: 2"/>
    <path d="M 380.144237 200.121084 
L 371.764609 199.91499 
L 361.043237 199.683521 
L 359.505361 199.667326 
L 350.324257 199.454344 
L 339.600576 199.233658 
L 338.939248 199.229314 
L 328.877837 199.016288 
L 318.501826 198.823127 
L 318.145739 198.811072 
L 307.411075 198.611838 
L 298.312871 198.483353 
L 296.660426 198.429846 
L 285.898017 198.261062 
L 278.383418 198.214208 
L 275.107731 198.118606 
L 264.285338 198.005279 
L 258.857477 198.058239 
L 253.406676 197.940155 
L 242.439493 197.948227 
L 239.946379 198.078374 
L 231.320993 198.07827 
" clip-path="url(#pf4e032919c)" style="fill: none; stroke-dasharray: 7.4,3.2; stroke-dashoffset: 0; stroke: #000000; stroke-width: 2"/>
    <path d="M 380.919943 236.980527 
L 372.015337 234.410306 
L 363.153753 231.852504 
L 354.334878 229.307028 
L 345.558405 226.773791 
L 336.824029 224.252704 
L 328.131448 221.743681 
L 319.480362 219.246634 
L 310.870475 216.761479 
L 302.301494 214.288129 
L 293.773129 211.826501 
L 285.285091 209.376512 
L 276.837096 206.938079 
L 268.428862 204.51112 
L 260.06011 202.095552 
L 251.730565 199.691294 
L 243.439956 197.298264 
L 235.188018 194.916377 
L 226.974498 192.545543 
L 218.799172 190.185651 
" clip-path="url(#pf4e032919c)" style="fill: none; stroke: #000000; stroke-width: 2"/>
    <path d="M 277.267735 242.993935 
L 274.211402 240.55458 
L 268.093498 235.526161 
L 265.542212 233.348806 
L 262.040014 230.539098 
L 256.052636 225.590788 
L 254.111786 223.901544 
L 250.130539 220.680831 
L 244.279015 215.803765 
L 242.999615 214.65556 
L 238.495915 210.960447 
L 232.792978 206.140391 
L 232.240379 205.617551 
L 227.166962 201.345581 
L 221.999088 196.831893 
L 221.641955 196.556076 
L 216.220218 191.76994 
L 212.812897 188.44938 
L 210.951255 186.948197 
L 205.891277 182.048008 
" clip-path="url(#pf4e032919c)" style="fill: none; stroke: #000000; stroke-width: 2"/>
    <path d="M 175.279498 175.683219 
L 176.694834 170.243006 
L 177.082317 166.311398 
" clip-path="url(#pf4e032919c)" style="fill: none; stroke: #000000; stroke-width: 2"/>
   </g>
   <g id="Poly3DCollection_1">
    <path d="M 263.380178 214.683322 
L 271.125742 206.128807 
L 275.845845 207.071773 
L 268.123186 216.378334 
z
" clip-path="url(#pf4e032919c)" style="fill: #440154"/>
    <path d="M 271.125742 206.128807 
L 278.984289 201.132807 
L 283.680189 201.482263 
L 275.845845 207.071773 
z
" clip-path="url(#pf4e032919c)" style="fill: #482071"/>
    <path d="M 258.580389 212.734395 
L 266.352943 205.03894 
L 271.125742 206.128807 
L 263.380178 214.683322 
z
" clip-path="url(#pf4e032919c)" style="fill: #471365"/>
    <path d="M 278.984289 201.132807 
L 286.923067 198.127435 
L 291.594623 198.004367 
L 283.680189 201.482263 
z
" clip-path="url(#pf4e032919c)" style="fill: #46337f"/>
    <path d="M 266.352943 205.03894 
L 274.238378 200.692665 
L 278.984289 201.132807 
L 271.125742 206.128807 
z
" clip-path="url(#pf4e032919c)" style="fill: #472e7c"/>
    <path d="M 253.72189 210.536557 
L 261.526055 203.808618 
L 266.352943 205.03894 
L 258.580389 212.734395 
z
" clip-path="url(#pf4e032919c)" style="fill: #482475"/>
    <path d="M 286.923067 198.127435 
L 294.92631 196.369447 
L 299.573627 195.862593 
L 291.594623 198.004367 
z
" clip-path="url(#pf4e032919c)" style="fill: #424186"/>
    <path d="M 274.238378 200.692665 
L 282.203425 198.192729 
L 286.923067 198.127435 
L 278.984289 201.132807 
z
" clip-path="url(#pf4e032919c)" style="fill: #423f85"/>
    <path d="M 261.526055 203.808618 
L 269.441329 200.167254 
L 274.238378 200.692665 
L 266.352943 205.03894 
z
" clip-path="url(#pf4e032919c)" style="fill: #443b84"/>
    <path d="M 294.92631 196.369447 
L 302.985374 195.453847 
L 307.608577 194.629002 
L 299.573627 195.862593 
z
" clip-path="url(#pf4e032919c)" style="fill: #3e4c8a"/>
    <path d="M 248.80282 208.099434 
L 256.643729 202.446383 
L 261.526055 203.808618 
L 253.72189 210.536557 
z
" clip-path="url(#pf4e032919c)" style="fill: #453581"/>
    <path d="M 282.203425 198.192729 
L 290.232372 196.839384 
L 294.92631 196.369447 
L 286.923067 198.127435 
z
" clip-path="url(#pf4e032919c)" style="fill: #3e4a89"/>
    <path d="M 269.441329 200.167254 
L 277.434722 198.204526 
L 282.203425 198.192729 
L 274.238378 200.692665 
z
" clip-path="url(#pf4e032919c)" style="fill: #3e4a89"/>
    <path d="M 302.985374 195.453847 
L 311.095107 195.138474 
L 315.694282 194.045407 
L 307.608577 194.629002 
z
" clip-path="url(#pf4e032919c)" style="fill: #3a538b"/>
    <path d="M 256.643729 202.446383 
L 264.592036 199.56306 
L 269.441329 200.167254 
L 261.526055 203.808618 
z
" clip-path="url(#pf4e032919c)" style="fill: #3f4889"/>
    <path d="M 290.232372 196.839384 
L 298.316714 196.255817 
L 302.985374 195.453847 
L 294.92631 196.369447 
z
" clip-path="url(#pf4e032919c)" style="fill: #3a538b"/>
    <path d="M 243.821422 205.437687 
L 251.70467 200.962923 
L 256.643729 202.446383 
L 248.80282 208.099434 
z
" clip-path="url(#pf4e032919c)" style="fill: #404688"/>
    <path d="M 311.095107 195.138474 
L 319.252259 195.268538 
L 323.827443 193.94567 
L 315.694282 194.045407 
z
" clip-path="url(#pf4e032919c)" style="fill: #38598c"/>
    <path d="M 277.434722 198.204526 
L 285.490935 197.275773 
L 290.232372 196.839384 
L 282.203425 198.192729 
z
" clip-path="url(#pf4e032919c)" style="fill: #3a548c"/>
    <path d="M 298.316714 196.255817 
L 306.45143 196.218588 
L 311.095107 195.138474 
L 302.985374 195.453847 
z
" clip-path="url(#pf4e032919c)" style="fill: #375b8d"/>
    <path d="M 264.592036 199.56306 
L 272.615994 198.167699 
L 277.434722 198.204526 
L 269.441329 200.167254 
z
" clip-path="url(#pf4e032919c)" style="fill: #39558c"/>
    <path d="M 319.252259 195.268538 
L 327.454706 195.739967 
L 332.005889 194.217519 
L 323.827443 193.94567 
z
" clip-path="url(#pf4e032919c)" style="fill: #355e8d"/>
    <path d="M 285.490935 197.275773 
L 293.601788 197.037603 
L 298.316714 196.255817 
L 290.232372 196.839384 
z
" clip-path="url(#pf4e032919c)" style="fill: #365c8d"/>
    <path d="M 251.70467 200.962923 
L 259.689421 198.887617 
L 264.592036 199.56306 
L 256.643729 202.446383 
z
" clip-path="url(#pf4e032919c)" style="fill: #39558c"/>
    <path d="M 306.45143 196.218588 
L 314.633381 196.585741 
L 319.252259 195.268538 
L 311.095107 195.138474 
z
" clip-path="url(#pf4e032919c)" style="fill: #34608d"/>
    <path d="M 272.615994 198.167699 
L 280.701127 197.682339 
L 285.490935 197.275773 
L 277.434722 198.204526 
z
" clip-path="url(#pf4e032919c)" style="fill: #355e8d"/>
    <path d="M 238.776097 202.571243 
L 246.707655 199.371042 
L 251.70467 200.962923 
L 243.821422 205.437687 
z
" clip-path="url(#pf4e032919c)" style="fill: #39558c"/>
    <path d="M 327.454706 195.739967 
L 335.701022 196.479959 
L 340.228153 194.782103 
L 332.005889 194.217519 
z
" clip-path="url(#pf4e032919c)" style="fill: #33628d"/>
    <path d="M 293.601788 197.037603 
L 301.762495 197.287934 
L 306.45143 196.218588 
L 298.316714 196.255817 
z
" clip-path="url(#pf4e032919c)" style="fill: #33628d"/>
    <path d="M 259.689421 198.887617 
L 267.746288 198.087692 
L 272.615994 198.167699 
L 264.592036 199.56306 
z
" clip-path="url(#pf4e032919c)" style="fill: #34608d"/>
    <path d="M 314.633381 196.585741 
L 322.860524 197.262282 
L 327.454706 195.739967 
L 319.252259 195.268538 
z
" clip-path="url(#pf4e032919c)" style="fill: #32648e"/>
    <path d="M 335.701022 196.479959 
L 343.99024 197.435929 
L 348.493235 195.582286 
L 340.228153 194.782103 
z
" clip-path="url(#pf4e032919c)" style="fill: #31668e"/>
    <path d="M 280.701127 197.682339 
L 288.839787 197.802122 
L 293.601788 197.037603 
L 285.490935 197.275773 
z
" clip-path="url(#pf4e032919c)" style="fill: #32648e"/>
    <path d="M 246.707655 199.371042 
L 254.732444 198.14947 
L 259.689421 198.887617 
L 251.70467 200.962923 
z
" clip-path="url(#pf4e032919c)" style="fill: #33628d"/>
    <path d="M 301.762495 197.287934 
L 309.970089 197.89909 
L 314.633381 196.585741 
L 306.45143 196.218588 
z
" clip-path="url(#pf4e032919c)" style="fill: #31668e"/>
    <path d="M 322.860524 197.262282 
L 331.131501 198.181999 
L 335.701022 196.479959 
L 327.454706 195.739967 
z
" clip-path="url(#pf4e032919c)" style="fill: #31688e"/>
    <path d="M 267.746288 198.087692 
L 275.862081 198.063148 
L 280.701127 197.682339 
L 272.615994 198.167699 
z
" clip-path="url(#pf4e032919c)" style="fill: #31678e"/>
    <path d="M 343.99024 197.435929 
L 352.321706 198.568877 
L 356.80045 196.57558 
L 348.493235 195.582286 
z
" clip-path="url(#pf4e032919c)" style="fill: #30698e"/>
    <path d="M 233.665442 199.525277 
L 241.651553 197.685563 
L 246.707655 199.371042 
L 238.776097 202.571243 
z
" clip-path="url(#pf4e032919c)" style="fill: #32658e"/>
    <path d="M 288.839787 197.802122 
L 297.02754 198.348851 
L 301.762495 197.287934 
L 293.601788 197.037603 
z
" clip-path="url(#pf4e032919c)" style="fill: #30698e"/>
    <path d="M 309.970089 197.89909 
L 318.222655 198.785993 
L 322.860524 197.262282 
L 314.633381 196.585741 
z
" clip-path="url(#pf4e032919c)" style="fill: #306a8e"/>
    <path d="M 254.732444 198.14947 
L 262.824677 197.970498 
L 267.746288 198.087692 
L 259.689421 198.887617 
z
" clip-path="url(#pf4e032919c)" style="fill: #306a8e"/>
    <path d="M 331.131501 198.181999 
L 339.4454 199.297208 
L 343.99024 197.435929 
L 335.701022 196.479959 
z
" clip-path="url(#pf4e032919c)" style="fill: #2f6b8e"/>
    <path d="M 275.862081 198.063148 
L 284.029906 198.552503 
L 288.839787 197.802122 
L 280.701127 197.682339 
z
" clip-path="url(#pf4e032919c)" style="fill: #2f6c8e"/>
    <path d="M 352.321706 198.568877 
L 360.694984 199.849231 
L 365.149341 197.729698 
L 356.80045 196.57558 
z
" clip-path="url(#pf4e032919c)" style="fill: #2f6c8e"/>
    <path d="M 297.02754 198.348851 
L 305.261661 199.210503 
L 309.970089 197.89909 
L 301.762495 197.287934 
z
" clip-path="url(#pf4e032919c)" style="fill: #2e6d8e"/>
    <path d="M 241.651553 197.685563 
L 249.720112 197.358113 
L 254.732444 198.14947 
L 246.707655 199.371042 
z
" clip-path="url(#pf4e032919c)" style="fill: #2e6e8e"/>
    <path d="M 318.222655 198.785993 
L 326.51893 199.889537 
L 331.131501 198.181999 
L 322.860524 197.262282 
z
" clip-path="url(#pf4e032919c)" style="fill: #2e6e8e"/>
    <path d="M 339.4454 199.297208 
L 347.801607 200.57263 
L 352.321706 198.568877 
L 343.99024 197.435929 
z
" clip-path="url(#pf4e032919c)" style="fill: #2e6e8e"/>
    <path d="M 262.824677 197.970498 
L 270.972941 198.422585 
L 275.862081 198.063148 
L 267.746288 198.087692 
z
" clip-path="url(#pf4e032919c)" style="fill: #2e6f8e"/>
    <path d="M 360.694984 199.849231 
L 369.109797 201.254136 
L 373.539607 199.019641 
L 365.149341 197.729698 
z
" clip-path="url(#pf4e032919c)" style="fill: #2e6e8e"/>
    <path d="M 284.029906 198.552503 
L 292.245805 199.40382 
L 297.02754 198.348851 
L 288.839787 197.802122 
z
" clip-path="url(#pf4e032919c)" style="fill: #2d708e"/>
    <path d="M 305.261661 199.210503 
L 313.540406 200.312705 
L 318.222655 198.785993 
L 309.970089 197.89909 
z
" clip-path="url(#pf4e032919c)" style="fill: #2d708e"/>
    <path d="M 228.488292 196.32991 
L 236.535334 195.923151 
L 241.651553 197.685563 
L 233.665442 199.525277 
z
" clip-path="url(#pf4e032919c)" style="fill: #2c738e"/>
    <path d="M 326.51893 199.889537 
L 334.858073 201.167273 
L 339.4454 199.297208 
L 331.131501 198.181999 
z
" clip-path="url(#pf4e032919c)" style="fill: #2d708e"/>
    <path d="M 249.720112 197.358113 
L 257.850252 197.82261 
L 262.824677 197.970498 
L 254.732444 198.14947 
z
" clip-path="url(#pf4e032919c)" style="fill: #2c738e"/>
    <path d="M 347.801607 200.57263 
L 356.199721 201.981566 
L 360.694984 199.849231 
L 352.321706 198.568877 
z
" clip-path="url(#pf4e032919c)" style="fill: #2d708e"/>
    <path d="M 270.972941 198.422585 
L 279.17134 199.29208 
L 284.029906 198.552503 
L 275.862081 198.063148 
z
" clip-path="url(#pf4e032919c)" style="fill: #2c738e"/>
    <path d="M 369.109797 201.254136 
L 377.565983 202.76564 
L 381.971072 200.425742 
L 373.539607 199.019641 
z
" clip-path="url(#pf4e032919c)" style="fill: #2d708e"/>
    <path d="M 292.245805 199.40382 
L 300.50737 200.521996 
L 305.261661 199.210503 
L 297.02754 198.348851 
z
" clip-path="url(#pf4e032919c)" style="fill: #2c728e"/>
    <path d="M 313.540406 200.312705 
L 321.862638 201.603946 
L 326.51893 199.889537 
L 318.222655 198.785993 
z
" clip-path="url(#pf4e032919c)" style="fill: #2c728e"/>
    <path d="M 334.858073 201.167273 
L 343.239529 202.587857 
L 347.801607 200.57263 
L 339.4454 199.297208 
z
" clip-path="url(#pf4e032919c)" style="fill: #2c728e"/>
    <path d="M 236.535334 195.923151 
L 244.651482 196.523889 
L 249.720112 197.358113 
L 241.651553 197.685563 
z
" clip-path="url(#pf4e032919c)" style="fill: #29798e"/>
    <path d="M 356.199721 201.981566 
L 364.639492 203.503416 
L 369.109797 201.254136 
L 360.694984 199.849231 
z
" clip-path="url(#pf4e032919c)" style="fill: #2c728e"/>
    <path d="M 257.850252 197.82261 
L 266.032862 198.765333 
L 270.972941 198.422585 
L 262.824677 197.970498 
z
" clip-path="url(#pf4e032919c)" style="fill: #2a778e"/>
    <path d="M 279.17134 199.29208 
L 287.416527 200.455458 
L 292.245805 199.40382 
L 284.029906 198.552503 
z
" clip-path="url(#pf4e032919c)" style="fill: #2a768e"/>
    <path d="M 377.565983 202.76564 
L 386.063468 204.369437 
L 390.443646 201.932307 
L 381.971072 200.425742 
z
" clip-path="url(#pf4e032919c)" style="fill: #2c718e"/>
    <path d="M 300.50737 200.521996 
L 308.813078 201.844097 
L 313.540406 200.312705 
L 305.261661 199.210503 
z
" clip-path="url(#pf4e032919c)" style="fill: #2b758e"/>
    <path d="M 321.862638 201.603946 
L 330.22761 203.047313 
L 334.858073 201.167273 
L 326.51893 199.889537 
z
" clip-path="url(#pf4e032919c)" style="fill: #2b758e"/>
    <path d="M 343.239529 202.587857 
L 351.66294 204.127617 
L 356.199721 201.981566 
L 347.801607 200.57263 
z
" clip-path="url(#pf4e032919c)" style="fill: #2b748e"/>
    <path d="M 223.243745 193.019592 
L 231.358086 194.102053 
L 236.535334 195.923151 
L 228.488292 196.32991 
z
" clip-path="url(#pf4e032919c)" style="fill: #26828e"/>
    <path d="M 364.639492 203.503416 
L 373.120782 205.122026 
L 377.565983 202.76564 
L 369.109797 201.254136 
z
" clip-path="url(#pf4e032919c)" style="fill: #2c738e"/>
    <path d="M 244.651482 196.523889 
L 252.822134 197.650976 
L 257.850252 197.82261 
L 249.720112 197.358113 
z
" clip-path="url(#pf4e032919c)" style="fill: #287d8e"/>
    <path d="M 266.032862 198.765333 
L 274.263293 200.024374 
L 279.17134 199.29208 
L 270.972941 198.422585 
z
" clip-path="url(#pf4e032919c)" style="fill: #297b8e"/>
    <path d="M 386.063468 204.369437 
L 394.602247 206.053986 
L 398.957311 203.526659 
L 390.443646 201.932307 
z
" clip-path="url(#pf4e032919c)" style="fill: #2c738e"/>
    <path d="M 287.416527 200.455458 
L 295.706487 201.835682 
L 300.50737 200.521996 
L 292.245805 199.40382 
z
" clip-path="url(#pf4e032919c)" style="fill: #29798e"/>
    <path d="M 308.813078 201.844097 
L 317.161949 203.32665 
L 321.862638 201.603946 
L 313.540406 200.312705 
z
" clip-path="url(#pf4e032919c)" style="fill: #2a788e"/>
    <path d="M 330.22761 203.047313 
L 338.634839 204.615612 
L 343.239529 202.587857 
L 334.858073 201.167273 
z
" clip-path="url(#pf4e032919c)" style="fill: #2a778e"/>
    <path d="M 351.66294 204.127617 
L 360.128095 205.768317 
L 364.639492 203.503416 
L 356.199721 201.981566 
z
" clip-path="url(#pf4e032919c)" style="fill: #2a768e"/>
    <path d="M 373.120782 205.122026 
L 381.643538 206.824538 
L 386.063468 204.369437 
L 377.565983 202.76564 
z
" clip-path="url(#pf4e032919c)" style="fill: #2b758e"/>
    <path d="M 252.822134 197.650976 
L 261.041012 199.096339 
L 266.032862 198.765333 
L 257.850252 197.82261 
z
" clip-path="url(#pf4e032919c)" style="fill: #26818e"/>
    <path d="M 231.358086 194.102053 
L 239.525669 195.657872 
L 244.651482 196.523889 
L 236.535334 195.923151 
z
" clip-path="url(#pf4e032919c)" style="fill: #25848e"/>
    <path d="M 274.263293 200.024374 
L 282.538945 201.506506 
L 287.416527 200.455458 
L 279.17134 199.29208 
z
" clip-path="url(#pf4e032919c)" style="fill: #287d8e"/>
    <path d="M 394.602247 206.053986 
L 403.182368 207.809871 
L 407.512103 205.198443 
L 398.957311 203.526659 
z
" clip-path="url(#pf4e032919c)" style="fill: #2b758e"/>
    <path d="M 295.706487 201.835682 
L 304.039969 203.381918 
L 308.813078 201.844097 
L 300.50737 200.521996 
z
" clip-path="url(#pf4e032919c)" style="fill: #297b8e"/>
    <path d="M 317.161949 203.32665 
L 325.553355 204.938567 
L 330.22761 203.047313 
L 321.862638 201.603946 
z
" clip-path="url(#pf4e032919c)" style="fill: #297a8e"/>
    <path d="M 338.634839 204.615612 
L 347.084026 206.288331 
L 351.66294 204.127617 
L 343.239529 202.587857 
z
" clip-path="url(#pf4e032919c)" style="fill: #29798e"/>
    <path d="M 360.128095 205.768317 
L 368.634885 207.495671 
L 373.120782 205.122026 
L 364.639492 203.503416 
z
" clip-path="url(#pf4e032919c)" style="fill: #2a788e"/>
    <path d="M 381.643538 206.824538 
L 390.207771 208.600591 
L 394.602247 206.053986 
L 386.063468 204.369437 
z
" clip-path="url(#pf4e032919c)" style="fill: #2a778e"/>
    <path d="M 261.041012 199.096339 
L 269.304972 200.753074 
L 274.263293 200.024374 
L 266.032862 198.765333 
z
" clip-path="url(#pf4e032919c)" style="fill: #26828e"/>
    <path d="M 239.525669 195.657872 
L 247.739474 197.462936 
L 252.822134 197.650976 
L 244.651482 196.523889 
z
" clip-path="url(#pf4e032919c)" style="fill: #24878e"/>
    <path d="M 282.538945 201.506506 
L 290.858281 203.153761 
L 295.706487 201.835682 
L 287.416527 200.455458 
z
" clip-path="url(#pf4e032919c)" style="fill: #27808e"/>
    <path d="M 403.182368 207.809871 
L 411.803918 209.629334 
L 416.1081 206.93912 
L 407.512103 205.198443 
z
" clip-path="url(#pf4e032919c)" style="fill: #2a768e"/>
    <path d="M 304.039969 203.381918 
L 312.416185 205.059129 
L 317.161949 203.32665 
L 308.813078 201.844097 
z
" clip-path="url(#pf4e032919c)" style="fill: #287d8e"/>
    <path d="M 217.931182 189.632204 
L 226.119016 192.241782 
L 231.358086 194.102053 
L 223.243745 193.019592 
z
" clip-path="url(#pf4e032919c)" style="fill: #21908d"/>
    <path d="M 325.553355 204.938567 
L 333.986899 206.656982 
L 338.634839 204.615612 
L 330.22761 203.047313 
z
" clip-path="url(#pf4e032919c)" style="fill: #287c8e"/>
    <path d="M 347.084026 206.288331 
L 355.575003 208.049696 
L 360.128095 205.768317 
L 351.66294 204.127617 
z
" clip-path="url(#pf4e032919c)" style="fill: #297a8e"/>
    <path d="M 368.634885 207.495671 
L 377.183281 209.298329 
L 381.643538 206.824538 
L 373.120782 205.122026 
z
" clip-path="url(#pf4e032919c)" style="fill: #29798e"/>
    <path d="M 390.207771 208.600591 
L 398.813542 210.441741 
L 403.182368 207.809871 
L 394.602247 206.053986 
z
" clip-path="url(#pf4e032919c)" style="fill: #2a788e"/>
    <path d="M 269.304972 200.753074 
L 277.612298 202.559819 
L 282.538945 201.506506 
L 274.263293 200.024374 
z
" clip-path="url(#pf4e032919c)" style="fill: #25848e"/>
    <path d="M 247.739474 197.462936 
L 255.996578 199.420783 
L 261.041012 199.096339 
L 252.822134 197.650976 
z
" clip-path="url(#pf4e032919c)" style="fill: #23898e"/>
    <path d="M 411.803918 209.629334 
L 420.467022 211.505926 
L 424.745417 208.741584 
L 416.1081 206.93912 
z
" clip-path="url(#pf4e032919c)" style="fill: #2a778e"/>
    <path d="M 290.858281 203.153761 
L 299.220371 204.92798 
L 304.039969 203.381918 
L 295.706487 201.835682 
z
" clip-path="url(#pf4e032919c)" style="fill: #26818e"/>
    <path d="M 312.416185 205.059129 
L 320.834645 206.842308 
L 325.553355 204.938567 
L 317.161949 203.32665 
z
" clip-path="url(#pf4e032919c)" style="fill: #277f8e"/>
    <path d="M 226.119016 192.241782 
L 234.34185 194.77173 
L 239.525669 195.657872 
L 231.358086 194.102053 
z
" clip-path="url(#pf4e032919c)" style="fill: #21918c"/>
    <path d="M 333.986899 206.656982 
L 342.462353 208.464681 
L 347.084026 206.288331 
L 338.634839 204.615612 
z
" clip-path="url(#pf4e032919c)" style="fill: #287d8e"/>
    <path d="M 355.575003 208.049696 
L 364.107698 209.887365 
L 368.634885 207.495671 
L 360.128095 205.768317 
z
" clip-path="url(#pf4e032919c)" style="fill: #287c8e"/>
    <path d="M 377.183281 209.298329 
L 385.773315 211.167149 
L 390.207771 208.600591 
L 381.643538 206.824538 
z
" clip-path="url(#pf4e032919c)" style="fill: #297a8e"/>
    <path d="M 398.813542 210.441741 
L 407.460953 212.341038 
L 411.803918 209.629334 
L 403.182368 207.809871 
z
" clip-path="url(#pf4e032919c)" style="fill: #297a8e"/>
    <path d="M 277.612298 202.559819 
L 285.962016 204.478513 
L 290.858281 203.153761 
L 282.538945 201.506506 
z
" clip-path="url(#pf4e032919c)" style="fill: #25858e"/>
    <path d="M 255.996578 199.420783 
L 264.295593 201.482016 
L 269.304972 200.753074 
L 261.041012 199.096339 
z
" clip-path="url(#pf4e032919c)" style="fill: #238a8d"/>
    <path d="M 299.220371 204.92798 
L 307.624656 206.802912 
L 312.416185 205.059129 
L 304.039969 203.381918 
z
" clip-path="url(#pf4e032919c)" style="fill: #26828e"/>
    <path d="M 320.834645 206.842308 
L 329.295063 208.713089 
L 333.986899 206.656982 
L 325.553355 204.938567 
z
" clip-path="url(#pf4e032919c)" style="fill: #27808e"/>
    <path d="M 234.34185 194.77173 
L 242.601456 197.266149 
L 247.739474 197.462936 
L 239.525669 195.657872 
z
" clip-path="url(#pf4e032919c)" style="fill: #21918c"/>
    <path d="M 342.462353 208.464681 
L 350.979603 210.348437 
L 355.575003 208.049696 
L 347.084026 206.288331 
z
" clip-path="url(#pf4e032919c)" style="fill: #277f8e"/>
    <path d="M 364.107698 209.887365 
L 372.682114 211.791542 
L 377.183281 209.298329 
L 368.634885 207.495671 
z
" clip-path="url(#pf4e032919c)" style="fill: #287d8e"/>
    <path d="M 385.773315 211.167149 
L 394.405067 213.094693 
L 398.813542 210.441741 
L 390.207771 208.600591 
z
" clip-path="url(#pf4e032919c)" style="fill: #287c8e"/>
    <path d="M 212.550268 186.207921 
L 220.817459 190.362731 
L 226.119016 192.241782 
L 217.931182 189.632204 
z
" clip-path="url(#pf4e032919c)" style="fill: #1f9e89"/>
    <path d="M 407.460953 212.341038 
L 416.150139 214.292709 
L 420.467022 211.505926 
L 411.803918 209.629334 
z
" clip-path="url(#pf4e032919c)" style="fill: #297b8e"/>
    <path d="M 285.962016 204.478513 
L 294.353573 206.484154 
L 299.220371 204.92798 
L 290.858281 203.153761 
z
" clip-path="url(#pf4e032919c)" style="fill: #24878e"/>
    <path d="M 264.295593 201.482016 
L 272.63583 203.618352 
L 277.612298 202.559819 
L 269.304972 200.753074 
z
" clip-path="url(#pf4e032919c)" style="fill: #228b8d"/>
    <path d="M 307.624656 206.802912 
L 316.070813 208.759852 
L 320.834645 206.842308 
L 312.416185 205.059129 
z
" clip-path="url(#pf4e032919c)" style="fill: #25838e"/>
    <path d="M 242.601456 197.266149 
L 250.898762 199.744039 
L 255.996578 199.420783 
L 247.739474 197.462936 
z
" clip-path="url(#pf4e032919c)" style="fill: #20928c"/>
    <path d="M 329.295063 208.713089 
L 337.797289 210.657666 
L 342.462353 208.464681 
L 333.986899 206.656982 
z
" clip-path="url(#pf4e032919c)" style="fill: #26828e"/>
    <path d="M 350.979603 210.348437 
L 359.538621 212.297918 
L 364.107698 209.887365 
L 355.575003 208.049696 
z
" clip-path="url(#pf4e032919c)" style="fill: #27808e"/>
    <path d="M 372.682114 211.791542 
L 381.298307 213.754349 
L 385.773315 211.167149 
L 377.183281 209.298329 
z
" clip-path="url(#pf4e032919c)" style="fill: #277e8e"/>
    <path d="M 220.817459 190.362731 
L 229.099266 193.877559 
L 234.34185 194.77173 
L 226.119016 192.241782 
z
" clip-path="url(#pf4e032919c)" style="fill: #1e9c89"/>
    <path d="M 394.405067 213.094693 
L 403.078655 215.074842 
L 407.460953 212.341038 
L 398.813542 210.441741 
z
" clip-path="url(#pf4e032919c)" style="fill: #287d8e"/>
    <path d="M 272.63583 203.618352 
L 281.01696 205.812292 
L 285.962016 204.478513 
L 277.612298 202.559819 
z
" clip-path="url(#pf4e032919c)" style="fill: #228c8d"/>
    <path d="M 294.353573 206.484154 
L 302.786672 208.559571 
L 307.624656 206.802912 
L 299.220371 204.92798 
z
" clip-path="url(#pf4e032919c)" style="fill: #23888e"/>
    <path d="M 316.070813 208.759852 
L 324.558676 210.785085 
L 329.295063 208.713089 
L 320.834645 206.842308 
z
" clip-path="url(#pf4e032919c)" style="fill: #25848e"/>
    <path d="M 250.898762 199.744039 
L 259.234381 202.215164 
L 264.295593 201.482016 
L 255.996578 199.420783 
z
" clip-path="url(#pf4e032919c)" style="fill: #20928c"/>
    <path d="M 337.797289 210.657666 
L 346.341274 212.665445 
L 350.979603 210.348437 
L 342.462353 208.464681 
z
" clip-path="url(#pf4e032919c)" style="fill: #26828e"/>
    <path d="M 359.538621 212.297918 
L 368.139445 214.304932 
L 372.682114 211.791542 
L 364.107698 209.887365 
z
" clip-path="url(#pf4e032919c)" style="fill: #26818e"/>
    <path d="M 229.099266 193.877559 
L 237.407301 197.06852 
L 242.601456 197.266149 
L 234.34185 194.77173 
z
" clip-path="url(#pf4e032919c)" style="fill: #1e9b8a"/>
    <path d="M 381.298307 213.754349 
L 389.956378 215.769379 
L 394.405067 213.094693 
L 385.773315 211.167149 
z
" clip-path="url(#pf4e032919c)" style="fill: #277f8e"/>
    <path d="M 403.078655 215.074842 
L 411.794226 217.102521 
L 416.150139 214.292709 
L 407.460953 212.341038 
z
" clip-path="url(#pf4e032919c)" style="fill: #277e8e"/>
    <path d="M 281.01696 205.812292 
L 289.438861 208.052366 
L 294.353573 206.484154 
L 285.962016 204.478513 
z
" clip-path="url(#pf4e032919c)" style="fill: #228d8d"/>
    <path d="M 302.786672 208.559571 
L 311.261181 210.692549 
L 316.070813 208.759852 
L 307.624656 206.802912 
z
" clip-path="url(#pf4e032919c)" style="fill: #23888e"/>
    <path d="M 259.234381 202.215164 
L 267.608785 204.685149 
L 272.63583 203.618352 
L 264.295593 201.482016 
z
" clip-path="url(#pf4e032919c)" style="fill: #20928c"/>
    <path d="M 324.558676 210.785085 
L 333.088193 212.868312 
L 337.797289 210.657666 
L 329.295063 208.713089 
z
" clip-path="url(#pf4e032919c)" style="fill: #25858e"/>
    <path d="M 346.341274 212.665445 
L 354.927043 214.72816 
L 359.538621 212.297918 
L 350.979603 210.348437 
z
" clip-path="url(#pf4e032919c)" style="fill: #25838e"/>
    <path d="M 207.100939 182.787916 
L 215.452876 188.485762 
L 220.817459 190.362731 
L 212.550268 186.207921 
z
" clip-path="url(#pf4e032919c)" style="fill: #25ac82"/>
    <path d="M 237.407301 197.06852 
L 245.746787 200.071631 
L 250.898762 199.744039 
L 242.601456 197.266149 
z
" clip-path="url(#pf4e032919c)" style="fill: #1f9a8a"/>
    <path d="M 368.139445 214.304932 
L 376.782163 216.362896 
L 381.298307 213.754349 
L 372.682114 211.791542 
z
" clip-path="url(#pf4e032919c)" style="fill: #26828e"/>
    <path d="M 389.956378 215.769379 
L 398.656465 217.831369 
L 403.078655 215.074842 
L 394.405067 213.094693 
z
" clip-path="url(#pf4e032919c)" style="fill: #27808e"/>
    <path d="M 215.452876 188.485762 
L 223.797226 192.987717 
L 229.099266 193.877559 
L 220.817459 190.362731 
z
" clip-path="url(#pf4e032919c)" style="fill: #22a785"/>
    <path d="M 289.438861 208.052366 
L 297.901536 210.33072 
L 302.786672 208.559571 
L 294.353573 206.484154 
z
" clip-path="url(#pf4e032919c)" style="fill: #228d8d"/>
    <path d="M 311.261181 210.692549 
L 319.777078 212.874149 
L 324.558676 210.785085 
L 316.070813 208.759852 
z
" clip-path="url(#pf4e032919c)" style="fill: #23898e"/>
    <path d="M 267.608785 204.685149 
L 276.022376 207.157513 
L 281.01696 205.812292 
L 272.63583 203.618352 
z
" clip-path="url(#pf4e032919c)" style="fill: #20928c"/>
    <path d="M 333.088193 212.868312 
L 341.659388 215.001647 
L 346.341274 212.665445 
L 337.797289 210.657666 
z
" clip-path="url(#pf4e032919c)" style="fill: #24868e"/>
    <path d="M 354.927043 214.72816 
L 363.554675 216.839267 
L 368.139445 214.304932 
L 359.538621 212.297918 
z
" clip-path="url(#pf4e032919c)" style="fill: #25848e"/>
    <path d="M 245.746787 200.071631 
L 254.120569 202.956582 
L 259.234381 202.215164 
L 250.898762 199.744039 
z
" clip-path="url(#pf4e032919c)" style="fill: #1f998a"/>
    <path d="M 376.782163 216.362896 
L 385.4669 218.466467 
L 389.956378 215.769379 
L 381.298307 213.754349 
z
" clip-path="url(#pf4e032919c)" style="fill: #26828e"/>
    <path d="M 398.656465 217.831369 
L 407.398729 219.935959 
L 411.794226 217.102521 
L 403.078655 215.074842 
z
" clip-path="url(#pf4e032919c)" style="fill: #26818e"/>
    <path d="M 223.797226 192.987717 
L 232.156262 196.878114 
L 237.407301 197.06852 
L 229.099266 193.877559 
z
" clip-path="url(#pf4e032919c)" style="fill: #20a486"/>
    <path d="M 297.901536 210.33072 
L 306.405069 212.641783 
L 311.261181 210.692549 
L 302.786672 208.559571 
z
" clip-path="url(#pf4e032919c)" style="fill: #218e8d"/>
    <path d="M 276.022376 207.157513 
L 284.475516 209.63459 
L 289.438861 208.052366 
L 281.01696 205.812292 
z
" clip-path="url(#pf4e032919c)" style="fill: #20928c"/>
    <path d="M 319.777078 212.874149 
L 328.334417 215.097671 
L 333.088193 212.868312 
L 324.558676 210.785085 
z
" clip-path="url(#pf4e032919c)" style="fill: #238a8d"/>
    <path d="M 341.659388 215.001647 
L 350.272346 217.178941 
L 354.927043 214.72816 
L 346.341274 212.665445 
z
" clip-path="url(#pf4e032919c)" style="fill: #24878e"/>
    <path d="M 254.120569 202.956582 
L 262.530412 205.763326 
L 267.608785 204.685149 
L 259.234381 202.215164 
z
" clip-path="url(#pf4e032919c)" style="fill: #1f998a"/>
    <path d="M 363.554675 216.839267 
L 372.224292 218.993513 
L 376.782163 216.362896 
L 368.139445 214.304932 
z
" clip-path="url(#pf4e032919c)" style="fill: #25858e"/>
    <path d="M 385.4669 218.466467 
L 394.193815 220.611257 
L 398.656465 217.831369 
L 389.956378 215.769379 
z
" clip-path="url(#pf4e032919c)" style="fill: #25838e"/>
    <path d="M 232.156262 196.878114 
L 240.539893 200.409192 
L 245.746787 200.071631 
L 237.407301 197.06852 
z
" clip-path="url(#pf4e032919c)" style="fill: #1fa287"/>
    <path d="M 201.583379 179.413014 
L 210.024848 186.631775 
L 215.452876 188.485762 
L 207.100939 182.787916 
z
" clip-path="url(#pf4e032919c)" style="fill: #38b977"/>
    <path d="M 306.405069 212.641783 
L 314.9496 214.981492 
L 319.777078 212.874149 
L 311.261181 210.692549 
z
" clip-path="url(#pf4e032919c)" style="fill: #218e8d"/>
    <path d="M 284.475516 209.63459 
L 292.968545 212.118014 
L 297.901536 210.33072 
L 289.438861 208.052366 
z
" clip-path="url(#pf4e032919c)" style="fill: #20928c"/>
    <path d="M 328.334417 215.097671 
L 336.933309 217.357992 
L 341.659388 215.001647 
L 333.088193 212.868312 
z
" clip-path="url(#pf4e032919c)" style="fill: #228b8d"/>
    <path d="M 262.530412 205.763326 
L 270.977528 208.516645 
L 276.022376 207.157513 
L 267.608785 204.685149 
z
" clip-path="url(#pf4e032919c)" style="fill: #1f988b"/>
    <path d="M 350.272346 217.178941 
L 358.927194 219.395335 
L 363.554675 216.839267 
L 354.927043 214.72816 
z
" clip-path="url(#pf4e032919c)" style="fill: #23888e"/>
    <path d="M 372.224292 218.993513 
L 380.936049 221.186639 
L 385.4669 218.466467 
L 376.782163 216.362896 
z
" clip-path="url(#pf4e032919c)" style="fill: #25858e"/>
    <path d="M 210.024848 186.631775 
L 218.4351 192.114646 
L 223.797226 192.987717 
L 215.452876 188.485762 
z
" clip-path="url(#pf4e032919c)" style="fill: #2db27d"/>
    <path d="M 394.193815 220.611257 
L 402.963089 222.793635 
L 407.398729 219.935959 
L 398.656465 217.831369 
z
" clip-path="url(#pf4e032919c)" style="fill: #25838e"/>
    <path d="M 240.539893 200.409192 
L 248.9534 203.710412 
L 254.120569 202.956582 
L 245.746787 200.071631 
z
" clip-path="url(#pf4e032919c)" style="fill: #1fa188"/>
    <path d="M 314.9496 214.981492 
L 323.535305 217.346816 
L 328.334417 215.097671 
L 319.777078 212.874149 
z
" clip-path="url(#pf4e032919c)" style="fill: #218f8d"/>
    <path d="M 292.968545 212.118014 
L 301.501789 214.608969 
L 306.405069 212.641783 
L 297.901536 210.33072 
z
" clip-path="url(#pf4e032919c)" style="fill: #20928c"/>
    <path d="M 218.4351 192.114646 
L 226.847633 196.703071 
L 232.156262 196.878114 
L 223.797226 192.987717 
z
" clip-path="url(#pf4e032919c)" style="fill: #28ae80"/>
    <path d="M 336.933309 217.357992 
L 345.573904 219.651129 
L 350.272346 217.178941 
L 341.659388 215.001647 
z
" clip-path="url(#pf4e032919c)" style="fill: #228b8d"/>
    <path d="M 270.977528 208.516645 
L 279.462817 211.232841 
L 284.475516 209.63459 
L 276.022376 207.157513 
z
" clip-path="url(#pf4e032919c)" style="fill: #1f988b"/>
    <path d="M 358.927194 219.395335 
L 367.624094 221.646937 
L 372.224292 218.993513 
L 363.554675 216.839267 
z
" clip-path="url(#pf4e032919c)" style="fill: #23888e"/>
    <path d="M 380.936049 221.186639 
L 389.69013 223.415155 
L 394.193815 220.611257 
L 385.4669 218.466467 
z
" clip-path="url(#pf4e032919c)" style="fill: #24868e"/>
    <path d="M 248.9534 203.710412 
L 257.399963 206.856053 
L 262.530412 205.763326 
L 254.120569 202.956582 
z
" clip-path="url(#pf4e032919c)" style="fill: #1fa088"/>
    <path d="M 226.847633 196.703071 
L 235.277344 200.762417 
L 240.539893 200.409192 
L 232.156262 196.878114 
z
" clip-path="url(#pf4e032919c)" style="fill: #25ab82"/>
    <path d="M 301.501789 214.608969 
L 310.075568 217.108348 
L 314.9496 214.981492 
L 306.405069 212.641783 
z
" clip-path="url(#pf4e032919c)" style="fill: #20928c"/>
    <path d="M 323.535305 217.346816 
L 332.16239 219.735448 
L 336.933309 217.357992 
L 328.334417 215.097671 
z
" clip-path="url(#pf4e032919c)" style="fill: #218f8d"/>
    <path d="M 279.462817 211.232841 
L 287.986992 213.923137 
L 292.968545 212.118014 
L 284.475516 209.63459 
z
" clip-path="url(#pf4e032919c)" style="fill: #1f988b"/>
    <path d="M 345.573904 219.651129 
L 354.256386 221.97394 
L 358.927194 219.395335 
L 350.272346 217.178941 
z
" clip-path="url(#pf4e032919c)" style="fill: #228c8d"/>
    <path d="M 367.624094 221.646937 
L 376.363234 223.930592 
L 380.936049 221.186639 
L 372.224292 218.993513 
z
" clip-path="url(#pf4e032919c)" style="fill: #23898e"/>
    <path d="M 257.399963 206.856053 
L 265.881681 209.892202 
L 270.977528 208.516645 
L 262.530412 205.763326 
z
" clip-path="url(#pf4e032919c)" style="fill: #1f9f88"/>
    <path d="M 389.69013 223.415155 
L 398.486736 225.676174 
L 402.963089 222.793635 
L 394.193815 220.611257 
z
" clip-path="url(#pf4e032919c)" style="fill: #24878e"/>
    <path d="M 195.997974 176.122403 
L 204.533065 184.82128 
L 210.024848 186.631775 
L 201.583379 179.413014 
z
" clip-path="url(#pf4e032919c)" style="fill: #52c569"/>
    <path d="M 235.277344 200.762417 
L 243.732131 204.480846 
L 248.9534 203.710412 
L 240.539893 200.409192 
z
" clip-path="url(#pf4e032919c)" style="fill: #22a884"/>
    <path d="M 204.533065 184.82128 
L 213.012322 191.27069 
L 218.4351 192.114646 
L 210.024848 186.631775 
z
" clip-path="url(#pf4e032919c)" style="fill: #3fbc73"/>
    <path d="M 310.075568 217.108348 
L 318.690194 219.616843 
L 323.535305 217.346816 
L 314.9496 214.981492 
z
" clip-path="url(#pf4e032919c)" style="fill: #20928c"/>
    <path d="M 332.16239 219.735448 
L 340.831082 222.145608 
L 345.573904 219.651129 
L 336.933309 217.357992 
z
" clip-path="url(#pf4e032919c)" style="fill: #218f8d"/>
    <path d="M 287.986992 213.923137 
L 296.550646 216.595549 
L 301.501789 214.608969 
L 292.968545 212.118014 
z
" clip-path="url(#pf4e032919c)" style="fill: #1f978b"/>
    <path d="M 354.256386 221.97394 
L 362.98096 224.323917 
L 367.624094 221.646937 
L 358.927194 219.395335 
z
" clip-path="url(#pf4e032919c)" style="fill: #228c8d"/>
    <path d="M 265.881681 209.892202 
L 274.400041 212.849169 
L 279.462817 211.232841 
L 270.977528 208.516645 
z
" clip-path="url(#pf4e032919c)" style="fill: #1f9e89"/>
    <path d="M 376.363234 223.930592 
L 385.144824 226.243726 
L 389.69013 223.415155 
L 380.936049 221.186639 
z
" clip-path="url(#pf4e032919c)" style="fill: #23898e"/>
    <path d="M 213.012322 191.27069 
L 221.480739 196.551523 
L 226.847633 196.703071 
L 218.4351 192.114646 
z
" clip-path="url(#pf4e032919c)" style="fill: #35b779"/>
    <path d="M 243.732131 204.480846 
L 252.216697 207.966545 
L 257.399963 206.856053 
L 248.9534 203.710412 
z
" clip-path="url(#pf4e032919c)" style="fill: #21a685"/>
    <path d="M 318.690194 219.616843 
L 327.34598 222.135004 
L 332.16239 219.735448 
L 323.535305 217.346816 
z
" clip-path="url(#pf4e032919c)" style="fill: #20928c"/>
    <path d="M 296.550646 216.595549 
L 305.154298 219.255974 
L 310.075568 217.108348 
L 301.501789 214.608969 
z
" clip-path="url(#pf4e032919c)" style="fill: #1f978b"/>
    <path d="M 340.831082 222.145608 
L 349.541624 224.5759 
L 354.256386 221.97394 
L 345.573904 219.651129 
z
" clip-path="url(#pf4e032919c)" style="fill: #21908d"/>
    <path d="M 221.480739 196.551523 
L 229.958422 201.13702 
L 235.277344 200.762417 
L 226.847633 196.703071 
z
" clip-path="url(#pf4e032919c)" style="fill: #2eb37c"/>
    <path d="M 362.98096 224.323917 
L 371.747851 226.699036 
L 376.363234 223.930592 
L 367.624094 221.646937 
z
" clip-path="url(#pf4e032919c)" style="fill: #228c8d"/>
    <path d="M 274.400041 212.849169 
L 282.956165 215.747806 
L 287.986992 213.923137 
L 279.462817 211.232841 
z
" clip-path="url(#pf4e032919c)" style="fill: #1e9d89"/>
    <path d="M 385.144824 226.243726 
L 393.969091 228.58421 
L 398.486736 225.676174 
L 389.69013 223.415155 
z
" clip-path="url(#pf4e032919c)" style="fill: #238a8d"/>
    <path d="M 252.216697 207.966545 
L 260.734099 211.286733 
L 265.881681 209.892202 
L 257.399963 206.856053 
z
" clip-path="url(#pf4e032919c)" style="fill: #20a486"/>
    <path d="M 229.958422 201.13702 
L 238.456025 205.2721 
L 243.732131 204.480846 
L 235.277344 200.762417 
z
" clip-path="url(#pf4e032919c)" style="fill: #29af7f"/>
    <path d="M 190.345275 172.952502 
L 198.977316 183.074005 
L 204.533065 184.82128 
L 195.997974 176.122403 
z
" clip-path="url(#pf4e032919c)" style="fill: #73d056"/>
    <path d="M 327.34598 222.135004 
L 336.043236 224.663282 
L 340.831082 222.145608 
L 332.16239 219.735448 
z
" clip-path="url(#pf4e032919c)" style="fill: #20928c"/>
    <path d="M 305.154298 219.255974 
L 313.798412 221.908868 
L 318.690194 219.616843 
L 310.075568 217.108348 
z
" clip-path="url(#pf4e032919c)" style="fill: #1f978b"/>
    <path d="M 349.541624 224.5759 
L 358.294271 227.025222 
L 362.98096 224.323917 
L 354.256386 221.97394 
z
" clip-path="url(#pf4e032919c)" style="fill: #21908d"/>
    <path d="M 282.956165 215.747806 
L 291.550941 218.602989 
L 296.550646 216.595549 
L 287.986992 213.923137 
z
" clip-path="url(#pf4e032919c)" style="fill: #1e9d89"/>
    <path d="M 371.747851 226.699036 
L 380.557302 229.097645 
L 385.144824 226.243726 
L 376.363234 223.930592 
z
" clip-path="url(#pf4e032919c)" style="fill: #228d8d"/>
    <path d="M 198.977316 183.074005 
L 207.528386 190.46793 
L 213.012322 191.27069 
L 204.533065 184.82128 
z
" clip-path="url(#pf4e032919c)" style="fill: #56c667"/>
    <path d="M 260.734099 211.286733 
L 269.286462 214.485653 
L 274.400041 212.849169 
L 265.881681 209.892202 
z
" clip-path="url(#pf4e032919c)" style="fill: #20a386"/>
    <path d="M 238.456025 205.2721 
L 246.979874 209.09804 
L 252.216697 207.966545 
L 243.732131 204.480846 
z
" clip-path="url(#pf4e032919c)" style="fill: #26ad81"/>
    <path d="M 207.528386 190.46793 
L 216.054944 196.431508 
L 221.480739 196.551523 
L 213.012322 191.27069 
z
" clip-path="url(#pf4e032919c)" style="fill: #46c06f"/>
    <path d="M 313.798412 221.908868 
L 322.483416 224.557665 
L 327.34598 222.135004 
L 318.690194 219.616843 
z
" clip-path="url(#pf4e032919c)" style="fill: #1f978b"/>
    <path d="M 336.043236 224.663282 
L 344.782273 227.202051 
L 349.541624 224.5759 
L 340.831082 222.145608 
z
" clip-path="url(#pf4e032919c)" style="fill: #20928c"/>
    <path d="M 291.550941 218.602989 
L 300.185102 221.42565 
L 305.154298 219.255974 
L 296.550646 216.595549 
z
" clip-path="url(#pf4e032919c)" style="fill: #1e9c89"/>
    <path d="M 358.294271 227.025222 
L 367.089292 229.492692 
L 371.747851 226.699036 
L 362.98096 224.323917 
z
" clip-path="url(#pf4e032919c)" style="fill: #21908d"/>
    <path d="M 380.557302 229.097645 
L 389.409567 231.518393 
L 393.969091 228.58421 
L 385.144824 226.243726 
z
" clip-path="url(#pf4e032919c)" style="fill: #228d8d"/>
    <path d="M 269.286462 214.485653 
L 277.875349 217.593759 
L 282.956165 215.747806 
L 274.400041 212.849169 
z
" clip-path="url(#pf4e032919c)" style="fill: #1fa287"/>
    <path d="M 216.054944 196.431508 
L 224.582428 201.538683 
L 229.958422 201.13702 
L 221.480739 196.551523 
z
" clip-path="url(#pf4e032919c)" style="fill: #3bbb75"/>
    <path d="M 246.979874 209.09804 
L 255.534047 212.702809 
L 260.734099 211.286733 
L 252.216697 207.966545 
z
" clip-path="url(#pf4e032919c)" style="fill: #25ab82"/>
    <path d="M 322.483416 224.557665 
L 331.209713 227.20507 
L 336.043236 224.663282 
L 327.34598 222.135004 
z
" clip-path="url(#pf4e032919c)" style="fill: #1f978b"/>
    <path d="M 344.782273 227.202051 
L 353.563402 229.751631 
L 358.294271 227.025222 
L 349.541624 224.5759 
z
" clip-path="url(#pf4e032919c)" style="fill: #20938c"/>
    <path d="M 300.185102 221.42565 
L 308.859279 224.224026 
L 313.798412 221.908868 
L 305.154298 219.255974 
z
" clip-path="url(#pf4e032919c)" style="fill: #1e9b8a"/>
    <path d="M 224.582428 201.538683 
L 233.12436 206.088388 
L 238.456025 205.2721 
L 229.958422 201.13702 
z
" clip-path="url(#pf4e032919c)" style="fill: #34b679"/>
    <path d="M 367.089292 229.492692 
L 375.926962 231.977603 
L 380.557302 229.097645 
L 371.747851 226.699036 
z
" clip-path="url(#pf4e032919c)" style="fill: #21908d"/>
    <path d="M 277.875349 217.593759 
L 286.501966 220.632778 
L 291.550941 218.602989 
L 282.956165 215.747806 
z
" clip-path="url(#pf4e032919c)" style="fill: #1fa187"/>
    <path d="M 255.534047 212.702809 
L 264.12135 216.144396 
L 269.286462 214.485653 
L 260.734099 211.286733 
z
" clip-path="url(#pf4e032919c)" style="fill: #23a983"/>
    <path d="M 184.625938 169.936056 
L 193.357474 181.408541 
L 198.977316 183.074005 
L 190.345275 172.952502 
z
" clip-path="url(#pf4e032919c)" style="fill: #95d840"/>
    <path d="M 193.357474 181.408541 
L 201.982835 189.718025 
L 207.528386 190.46793 
L 198.977316 183.074005 
z
" clip-path="url(#pf4e032919c)" style="fill: #70cf57"/>
    <path d="M 233.12436 206.088388 
L 241.688761 210.253786 
L 246.979874 209.09804 
L 238.456025 205.2721 
z
" clip-path="url(#pf4e032919c)" style="fill: #2fb47c"/>
    <path d="M 331.209713 227.20507 
L 339.977689 229.853242 
L 344.782273 227.202051 
L 336.043236 224.663282 
z
" clip-path="url(#pf4e032919c)" style="fill: #1f968b"/>
    <path d="M 308.859279 224.224026 
L 317.574028 227.004454 
L 322.483416 224.557665 
L 313.798412 221.908868 
z
" clip-path="url(#pf4e032919c)" style="fill: #1e9b8a"/>
    <path d="M 353.563402 229.751631 
L 362.386937 232.312299 
L 367.089292 229.492692 
L 358.294271 227.025222 
z
" clip-path="url(#pf4e032919c)" style="fill: #20938c"/>
    <path d="M 201.982835 189.718025 
L 210.569641 196.350892 
L 216.054944 196.431508 
L 207.528386 190.46793 
z
" clip-path="url(#pf4e032919c)" style="fill: #5ac864"/>
    <path d="M 286.501966 220.632778 
L 295.167283 223.618674 
L 300.185102 221.42565 
L 291.550941 218.602989 
z
" clip-path="url(#pf4e032919c)" style="fill: #1fa188"/>
    <path d="M 375.926962 231.977603 
L 384.807566 234.479381 
L 389.409567 231.518393 
L 380.557302 229.097645 
z
" clip-path="url(#pf4e032919c)" style="fill: #21908d"/>
    <path d="M 264.12135 216.144396 
L 272.743822 219.462758 
L 277.875349 217.593759 
L 269.286462 214.485653 
z
" clip-path="url(#pf4e032919c)" style="fill: #22a785"/>
    <path d="M 210.569641 196.350892 
L 219.148685 201.973018 
L 224.582428 201.538683 
L 216.054944 196.431508 
z
" clip-path="url(#pf4e032919c)" style="fill: #4cc26c"/>
    <path d="M 241.688761 210.253786 
L 250.280789 214.143016 
L 255.534047 212.702809 
L 246.979874 209.09804 
z
" clip-path="url(#pf4e032919c)" style="fill: #2cb17e"/>
    <path d="M 339.977689 229.853242 
L 348.787715 232.503939 
L 353.563402 229.751631 
L 344.782273 227.202051 
z
" clip-path="url(#pf4e032919c)" style="fill: #1f968b"/>
    <path d="M 317.574028 227.004454 
L 326.329852 229.771905 
L 331.209713 227.20507 
L 322.483416 224.557665 
z
" clip-path="url(#pf4e032919c)" style="fill: #1e9b8a"/>
    <path d="M 362.386937 232.312299 
L 371.253191 234.884298 
L 375.926962 231.977603 
L 367.089292 229.492692 
z
" clip-path="url(#pf4e032919c)" style="fill: #20938c"/>
    <path d="M 295.167283 223.618674 
L 303.872108 226.563469 
L 308.859279 224.224026 
L 300.185102 221.42565 
z
" clip-path="url(#pf4e032919c)" style="fill: #1fa088"/>
    <path d="M 272.743822 219.462758 
L 281.40301 222.686423 
L 286.501966 220.632778 
L 277.875349 217.593759 
z
" clip-path="url(#pf4e032919c)" style="fill: #21a685"/>
    <path d="M 219.148685 201.973018 
L 227.736421 206.933898 
L 233.12436 206.088388 
L 224.582428 201.538683 
z
" clip-path="url(#pf4e032919c)" style="fill: #40bd72"/>
    <path d="M 250.280789 214.143016 
L 258.903974 217.827514 
L 264.12135 216.144396 
L 255.534047 212.702809 
z
" clip-path="url(#pf4e032919c)" style="fill: #28ae80"/>
    <path d="M 326.329852 229.771905 
L 335.127219 232.530338 
L 339.977689 229.853242 
L 331.209713 227.20507 
z
" clip-path="url(#pf4e032919c)" style="fill: #1f9a8a"/>
    <path d="M 348.787715 232.503939 
L 357.640155 235.158605 
L 362.386937 232.312299 
L 353.563402 229.751631 
z
" clip-path="url(#pf4e032919c)" style="fill: #1f968b"/>
    <path d="M 303.872108 226.563469 
L 312.617137 229.47641 
L 317.574028 227.004454 
L 308.859279 224.224026 
z
" clip-path="url(#pf4e032919c)" style="fill: #1f9f88"/>
    <path d="M 227.736421 206.933898 
L 236.342628 211.437025 
L 241.688761 210.253786 
L 233.12436 206.088388 
z
" clip-path="url(#pf4e032919c)" style="fill: #3aba76"/>
    <path d="M 371.253191 234.884298 
L 380.162481 237.467848 
L 384.807566 234.479381 
L 375.926962 231.977603 
z
" clip-path="url(#pf4e032919c)" style="fill: #20938c"/>
    <path d="M 187.673475 179.842061 
L 196.375262 189.03207 
L 201.982835 189.718025 
L 193.357474 181.408541 
z
" clip-path="url(#pf4e032919c)" style="fill: #8ed645"/>
    <path d="M 281.40301 222.686423 
L 290.100137 225.836361 
L 295.167283 223.618674 
L 286.501966 220.632778 
z
" clip-path="url(#pf4e032919c)" style="fill: #21a585"/>
    <path d="M 178.84068 167.101506 
L 187.673475 179.842061 
L 193.357474 181.408541 
L 184.625938 169.936056 
z
" clip-path="url(#pf4e032919c)" style="fill: #bade28"/>
    <path d="M 258.903974 217.827514 
L 267.560858 221.356578 
L 272.743822 219.462758 
L 264.12135 216.144396 
z
" clip-path="url(#pf4e032919c)" style="fill: #26ad81"/>
    <path d="M 196.375262 189.03207 
L 205.024256 196.317292 
L 210.569641 196.350892 
L 201.982835 189.718025 
z
" clip-path="url(#pf4e032919c)" style="fill: #70cf57"/>
    <path d="M 236.342628 211.437025 
L 244.973592 215.609943 
L 250.280789 214.143016 
L 241.688761 210.253786 
z
" clip-path="url(#pf4e032919c)" style="fill: #34b679"/>
    <path d="M 205.024256 196.317292 
L 213.656532 202.445524 
L 219.148685 201.973018 
L 210.569641 196.350892 
z
" clip-path="url(#pf4e032919c)" style="fill: #5ec962"/>
    <path d="M 335.127219 232.530338 
L 343.966565 235.282953 
L 348.787715 232.503939 
L 339.977689 229.853242 
z
" clip-path="url(#pf4e032919c)" style="fill: #1f9a8a"/>
    <path d="M 312.617137 229.47641 
L 321.402983 232.364738 
L 326.329852 229.771905 
L 317.574028 227.004454 
z
" clip-path="url(#pf4e032919c)" style="fill: #1f9f88"/>
    <path d="M 357.640155 235.158605 
L 366.535365 237.818445 
L 371.253191 234.884298 
L 362.386937 232.312299 
z
" clip-path="url(#pf4e032919c)" style="fill: #1f968b"/>
    <path d="M 290.100137 225.836361 
L 298.836205 228.928366 
L 303.872108 226.563469 
L 295.167283 223.618674 
z
" clip-path="url(#pf4e032919c)" style="fill: #20a486"/>
    <path d="M 267.560858 221.356578 
L 276.253353 224.765447 
L 281.40301 222.686423 
L 272.743822 219.462758 
z
" clip-path="url(#pf4e032919c)" style="fill: #25ab82"/>
    <path d="M 213.656532 202.445524 
L 222.291504 207.812763 
L 227.736421 206.933898 
L 219.148685 201.973018 
z
" clip-path="url(#pf4e032919c)" style="fill: #50c46a"/>
    <path d="M 244.973592 215.609943 
L 253.633601 219.537132 
L 258.903974 217.827514 
L 250.280789 214.143016 
z
" clip-path="url(#pf4e032919c)" style="fill: #2fb47c"/>
    <path d="M 343.966565 235.282953 
L 352.848309 238.032373 
L 357.640155 235.158605 
L 348.787715 232.503939 
z
" clip-path="url(#pf4e032919c)" style="fill: #1f9a8a"/>
    <path d="M 321.402983 232.364738 
L 330.230199 235.234216 
L 335.127219 232.530338 
L 326.329852 229.771905 
z
" clip-path="url(#pf4e032919c)" style="fill: #1f9e89"/>
    <path d="M 366.535365 237.818445 
L 375.473696 240.484477 
L 380.162481 237.467848 
L 371.253191 234.884298 
z
" clip-path="url(#pf4e032919c)" style="fill: #1f968b"/>
    <path d="M 298.836205 228.928366 
L 307.612058 231.974586 
L 312.617137 229.47641 
L 303.872108 226.563469 
z
" clip-path="url(#pf4e032919c)" style="fill: #20a386"/>
    <path d="M 276.253353 224.765447 
L 284.982953 228.080042 
L 290.100137 225.836361 
L 281.40301 222.686423 
z
" clip-path="url(#pf4e032919c)" style="fill: #24aa83"/>
    <path d="M 222.291504 207.812763 
L 230.940751 212.650975 
L 236.342628 211.437025 
L 227.736421 206.933898 
z
" clip-path="url(#pf4e032919c)" style="fill: #46c06f"/>
    <path d="M 253.633601 219.537132 
L 262.325728 223.277006 
L 267.560858 221.356578 
L 258.903974 217.827514 
z
" clip-path="url(#pf4e032919c)" style="fill: #2db27d"/>
    <path d="M 181.925305 178.390089 
L 190.705296 188.42048 
L 196.375262 189.03207 
L 187.673475 179.842061 
z
" clip-path="url(#pf4e032919c)" style="fill: #aadc32"/>
    <path d="M 172.99023 164.472645 
L 181.925305 178.390089 
L 187.673475 179.842061 
L 178.84068 167.101506 
z
" clip-path="url(#pf4e032919c)" style="fill: #dde318"/>
    <path d="M 190.705296 188.42048 
L 199.418238 196.338016 
L 205.024256 196.317292 
L 196.375262 189.03207 
z
" clip-path="url(#pf4e032919c)" style="fill: #89d548"/>
    <path d="M 330.230199 235.234216 
L 339.099296 238.089495 
L 343.966565 235.282953 
L 335.127219 232.530338 
z
" clip-path="url(#pf4e032919c)" style="fill: #1f9e89"/>
    <path d="M 352.848309 238.032373 
L 361.772852 240.78077 
L 366.535365 237.818445 
L 357.640155 235.158605 
z
" clip-path="url(#pf4e032919c)" style="fill: #1f998a"/>
    <path d="M 230.940751 212.650975 
L 239.611721 217.106173 
L 244.973592 215.609943 
L 236.342628 211.437025 
z
" clip-path="url(#pf4e032919c)" style="fill: #3fbc73"/>
    <path d="M 307.612058 231.974586 
L 316.428426 234.984531 
L 321.402983 232.364738 
L 312.617137 229.47641 
z
" clip-path="url(#pf4e032919c)" style="fill: #1fa287"/>
    <path d="M 284.982953 228.080042 
L 293.750865 231.319899 
L 298.836205 228.928366 
L 290.100137 225.836361 
z
" clip-path="url(#pf4e032919c)" style="fill: #22a884"/>
    <path d="M 199.418238 196.338016 
L 208.105326 202.961546 
L 213.656532 202.445524 
L 205.024256 196.317292 
z
" clip-path="url(#pf4e032919c)" style="fill: #70cf57"/>
    <path d="M 262.325728 223.277006 
L 271.052272 226.871383 
L 276.253353 224.765447 
L 267.560858 221.356578 
z
" clip-path="url(#pf4e032919c)" style="fill: #29af7f"/>
    <path d="M 239.611721 217.106173 
L 248.309493 221.275377 
L 253.633601 219.537132 
L 244.973592 215.609943 
z
" clip-path="url(#pf4e032919c)" style="fill: #38b977"/>
    <path d="M 208.105326 202.961546 
L 216.788915 208.729044 
L 222.291504 207.812763 
L 213.656532 202.445524 
z
" clip-path="url(#pf4e032919c)" style="fill: #60ca60"/>
    <path d="M 339.099296 238.089495 
L 348.010749 240.934378 
L 352.848309 238.032373 
L 343.966565 235.282953 
z
" clip-path="url(#pf4e032919c)" style="fill: #1e9d89"/>
    <path d="M 361.772852 240.78077 
L 370.740586 243.529963 
L 375.473696 240.484477 
L 366.535365 237.818445 
z
" clip-path="url(#pf4e032919c)" style="fill: #1f998a"/>
    <path d="M 316.428426 234.984531 
L 325.285959 237.965767 
L 330.230199 235.234216 
L 321.402983 232.364738 
z
" clip-path="url(#pf4e032919c)" style="fill: #1fa187"/>
    <path d="M 293.750865 231.319899 
L 302.558092 234.500049 
L 307.612058 231.974586 
L 298.836205 228.928366 
z
" clip-path="url(#pf4e032919c)" style="fill: #22a785"/>
    <path d="M 271.052272 226.871383 
L 279.815013 230.351059 
L 284.982953 228.080042 
L 276.253353 224.765447 
z
" clip-path="url(#pf4e032919c)" style="fill: #28ae80"/>
    <path d="M 216.788915 208.729044 
L 225.482407 213.898819 
L 230.940751 212.650975 
L 222.291504 207.812763 
z
" clip-path="url(#pf4e032919c)" style="fill: #54c568"/>
    <path d="M 248.309493 221.275377 
L 257.037696 225.225835 
L 262.325728 223.277006 
L 253.633601 219.537132 
z
" clip-path="url(#pf4e032919c)" style="fill: #34b679"/>
    <path d="M 348.010749 240.934378 
L 356.965011 243.772009 
L 361.772852 240.78077 
L 352.848309 238.032373 
z
" clip-path="url(#pf4e032919c)" style="fill: #1e9d89"/>
    <path d="M 325.285959 237.965767 
L 334.185243 240.924398 
L 339.099296 238.089495 
L 330.230199 235.234216 
z
" clip-path="url(#pf4e032919c)" style="fill: #1fa188"/>
    <path d="M 302.558092 234.500049 
L 311.405493 237.63226 
L 316.428426 234.984531 
L 307.612058 231.974586 
z
" clip-path="url(#pf4e032919c)" style="fill: #21a685"/>
    <path d="M 176.11298 177.066363 
L 184.972599 187.892893 
L 190.705296 188.42048 
L 181.925305 178.390089 
z
" clip-path="url(#pf4e032919c)" style="fill: #c8e020"/>
    <path d="M 225.482407 213.898819 
L 234.194441 218.634272 
L 239.611721 217.106173 
L 230.940751 212.650975 
z
" clip-path="url(#pf4e032919c)" style="fill: #4ac16d"/>
    <path d="M 184.972599 187.892893 
L 193.751061 196.420001 
L 199.418238 196.338016 
L 190.705296 188.42048 
z
" clip-path="url(#pf4e032919c)" style="fill: #a2da37"/>
    <path d="M 279.815013 230.351059 
L 288.615377 233.739263 
L 293.750865 231.319899 
L 284.982953 228.080042 
z
" clip-path="url(#pf4e032919c)" style="fill: #26ad81"/>
    <path d="M 167.07529 162.068525 
L 176.11298 177.066363 
L 181.925305 178.390089 
L 172.99023 164.472645 
z
" clip-path="url(#pf4e032919c)" style="fill: #fde725"/>
    <path d="M 257.037696 225.225835 
L 265.799035 229.005775 
L 271.052272 226.871383 
L 262.325728 223.277006 
z
" clip-path="url(#pf4e032919c)" style="fill: #31b57b"/>
    <path d="M 193.751061 196.420001 
L 202.494436 203.526246 
L 208.105326 202.961546 
L 199.418238 196.338016 
z
" clip-path="url(#pf4e032919c)" style="fill: #86d549"/>
    <path d="M 234.194441 218.634272 
L 242.93091 223.044372 
L 248.309493 221.275377 
L 239.611721 217.106173 
z
" clip-path="url(#pf4e032919c)" style="fill: #42be71"/>
    <path d="M 334.185243 240.924398 
L 343.126818 243.865407 
L 348.010749 240.934378 
L 339.099296 238.089495 
z
" clip-path="url(#pf4e032919c)" style="fill: #1fa188"/>
    <path d="M 356.965011 243.772009 
L 365.962514 246.605014 
L 370.740586 243.529963 
L 361.772852 240.78077 
z
" clip-path="url(#pf4e032919c)" style="fill: #1e9c89"/>
    <path d="M 311.405493 237.63226 
L 320.293816 240.725896 
L 325.285959 237.965767 
L 316.428426 234.984531 
z
" clip-path="url(#pf4e032919c)" style="fill: #21a585"/>
    <path d="M 202.494436 203.526246 
L 211.227968 209.686701 
L 216.788915 208.729044 
L 208.105326 202.961546 
z
" clip-path="url(#pf4e032919c)" style="fill: #73d056"/>
    <path d="M 288.615377 233.739263 
L 297.454537 237.053878 
L 302.558092 234.500049 
L 293.750865 231.319899 
z
" clip-path="url(#pf4e032919c)" style="fill: #25ab82"/>
    <path d="M 265.799035 229.005775 
L 274.595591 232.650765 
L 279.815013 230.351059 
L 271.052272 226.871383 
z
" clip-path="url(#pf4e032919c)" style="fill: #2db27d"/>
    <path d="M 211.227968 209.686701 
L 219.966879 215.183689 
L 225.482407 213.898819 
L 216.788915 208.729044 
z
" clip-path="url(#pf4e032919c)" style="fill: #63cb5f"/>
    <path d="M 242.93091 223.044372 
L 251.696023 227.204861 
L 257.037696 225.225835 
L 248.309493 221.275377 
z
" clip-path="url(#pf4e032919c)" style="fill: #3dbc74"/>
    <path d="M 343.126818 243.865407 
L 352.111189 246.792912 
L 356.965011 243.772009 
L 348.010749 240.934378 
z
" clip-path="url(#pf4e032919c)" style="fill: #1fa088"/>
    <path d="M 320.293816 240.725896 
L 329.223731 243.788507 
L 334.185243 240.924398 
L 325.285959 237.965767 
z
" clip-path="url(#pf4e032919c)" style="fill: #20a486"/>
    <path d="M 297.454537 237.053878 
L 306.333485 240.308914 
L 311.405493 237.63226 
L 302.558092 234.500049 
z
" clip-path="url(#pf4e032919c)" style="fill: #24aa83"/>
    <path d="M 274.595591 232.650765 
L 283.429021 236.187663 
L 288.615377 233.739263 
L 279.815013 230.351059 
z
" clip-path="url(#pf4e032919c)" style="fill: #2cb17e"/>
    <path d="M 219.966879 215.183689 
L 228.721018 220.196783 
L 234.194441 218.634272 
L 225.482407 213.898819 
z
" clip-path="url(#pf4e032919c)" style="fill: #58c765"/>
    <path d="M 251.696023 227.204861 
L 260.492904 231.170171 
L 265.799035 229.005775 
L 257.037696 225.225835 
z
" clip-path="url(#pf4e032919c)" style="fill: #38b977"/>
    <path d="M 352.111189 246.792912 
L 361.138833 249.710348 
L 365.962514 246.605014 
L 356.965011 243.772009 
z
" clip-path="url(#pf4e032919c)" style="fill: #1fa088"/>
    <path d="M 329.223731 243.788507 
L 338.195846 246.826258 
L 343.126818 243.865407 
L 334.185243 240.924398 
z
" clip-path="url(#pf4e032919c)" style="fill: #20a386"/>
    <path d="M 306.333485 240.308914 
L 315.253078 243.515517 
L 320.293816 240.725896 
L 311.405493 237.63226 
z
" clip-path="url(#pf4e032919c)" style="fill: #23a983"/>
    <path d="M 228.721018 220.196783 
L 237.497111 224.84623 
L 242.93091 223.044372 
L 234.194441 218.634272 
z
" clip-path="url(#pf4e032919c)" style="fill: #4ec36b"/>
    <path d="M 283.429021 236.187663 
L 292.300677 239.637164 
L 297.454537 237.053878 
L 288.615377 233.739263 
z
" clip-path="url(#pf4e032919c)" style="fill: #29af7f"/>
    <path d="M 260.492904 231.170171 
L 269.323953 234.98052 
L 274.595591 232.650765 
L 265.799035 229.005775 
z
" clip-path="url(#pf4e032919c)" style="fill: #34b679"/>
    <path d="M 237.497111 224.84623 
L 246.299962 229.215875 
L 251.696023 227.204861 
L 242.93091 223.044372 
z
" clip-path="url(#pf4e032919c)" style="fill: #46c06f"/>
    <path d="M 338.195846 246.826258 
L 347.210723 249.844239 
L 352.111189 246.792912 
L 343.126818 243.865407 
z
" clip-path="url(#pf4e032919c)" style="fill: #20a386"/>
    <path d="M 315.253078 243.515517 
L 324.214075 246.68268 
L 329.223731 243.788507 
L 320.293816 240.725896 
z
" clip-path="url(#pf4e032919c)" style="fill: #22a884"/>
    <path d="M 292.300677 239.637164 
L 301.211695 243.015491 
L 306.333485 240.308914 
L 297.454537 237.053878 
z
" clip-path="url(#pf4e032919c)" style="fill: #27ad81"/>
    <path d="M 269.323953 234.98052 
L 278.191068 238.666315 
L 283.429021 236.187663 
L 274.595591 232.650765 
z
" clip-path="url(#pf4e032919c)" style="fill: #31b57b"/>
    <path d="M 246.299962 229.215875 
L 255.133135 233.366124 
L 260.492904 231.170171 
L 251.696023 227.204861 
z
" clip-path="url(#pf4e032919c)" style="fill: #40bd72"/>
    <path d="M 347.210723 249.844239 
L 356.268886 252.846695 
L 361.138833 249.710348 
L 352.111189 246.792912 
z
" clip-path="url(#pf4e032919c)" style="fill: #1fa287"/>
    <path d="M 324.214075 246.68268 
L 333.217154 249.817743 
L 338.195846 246.826258 
L 329.223731 243.788507 
z
" clip-path="url(#pf4e032919c)" style="fill: #22a785"/>
    <path d="M 301.211695 243.015491 
L 310.163046 246.335559 
L 315.253078 243.515517 
L 306.333485 240.308914 
z
" clip-path="url(#pf4e032919c)" style="fill: #26ad81"/>
    <path d="M 278.191068 238.666315 
L 287.095791 242.251009 
L 292.300677 239.637164 
L 283.429021 236.187663 
z
" clip-path="url(#pf4e032919c)" style="fill: #2eb37c"/>
    <path d="M 255.133135 233.366124 
L 263.999357 237.341692 
L 269.323953 234.98052 
L 260.492904 231.170171 
z
" clip-path="url(#pf4e032919c)" style="fill: #3bbb75"/>
    <path d="M 333.217154 249.817743 
L 342.26294 252.926764 
L 347.210723 249.844239 
L 338.195846 246.826258 
z
" clip-path="url(#pf4e032919c)" style="fill: #21a685"/>
    <path d="M 310.163046 246.335559 
L 319.155579 249.607786 
L 324.214075 246.68268 
L 315.253078 243.515517 
z
" clip-path="url(#pf4e032919c)" style="fill: #25ac82"/>
    <path d="M 287.095791 242.251009 
L 296.039406 245.753004 
L 301.211695 243.015491 
L 292.300677 239.637164 
z
" clip-path="url(#pf4e032919c)" style="fill: #2cb17e"/>
    <path d="M 263.999357 237.341692 
L 272.900781 241.176441 
L 278.191068 238.666315 
L 269.323953 234.98052 
z
" clip-path="url(#pf4e032919c)" style="fill: #38b977"/>
    <path d="M 342.26294 252.926764 
L 351.352007 256.014797 
L 356.268886 252.846695 
L 347.210723 249.844239 
z
" clip-path="url(#pf4e032919c)" style="fill: #21a585"/>
    <path d="M 319.155579 249.607786 
L 328.190054 252.840682 
L 333.217154 249.817743 
L 324.214075 246.68268 
z
" clip-path="url(#pf4e032919c)" style="fill: #24aa83"/>
    <path d="M 296.039406 245.753004 
L 305.023005 249.186959 
L 310.163046 246.335559 
L 301.211695 243.015491 
z
" clip-path="url(#pf4e032919c)" style="fill: #2ab07f"/>
    <path d="M 272.900781 241.176441 
L 281.839144 244.896521 
L 287.095791 242.251009 
L 278.191068 238.666315 
z
" clip-path="url(#pf4e032919c)" style="fill: #34b679"/>
    <path d="M 328.190054 252.840682 
L 337.267156 256.04127 
L 342.26294 252.926764 
L 333.217154 249.817743 
z
" clip-path="url(#pf4e032919c)" style="fill: #23a983"/>
    <path d="M 305.023005 249.186959 
L 314.047539 252.564705 
L 319.155579 249.607786 
L 310.163046 246.335559 
z
" clip-path="url(#pf4e032919c)" style="fill: #28ae80"/>
    <path d="M 281.839144 244.896521 
L 290.81589 248.522471 
L 296.039406 245.753004 
L 287.095791 242.251009 
z
" clip-path="url(#pf4e032919c)" style="fill: #31b57b"/>
    <path d="M 337.267156 256.04127 
L 346.387516 259.215405 
L 351.352007 256.014797 
L 342.26294 252.926764 
z
" clip-path="url(#pf4e032919c)" style="fill: #22a884"/>
    <path d="M 314.047539 252.564705 
L 323.113845 255.895908 
L 328.190054 252.840682 
L 319.155579 249.607786 
z
" clip-path="url(#pf4e032919c)" style="fill: #27ad81"/>
    <path d="M 290.81589 248.522471 
L 299.832236 252.070665 
L 305.023005 249.186959 
L 296.039406 245.753004 
z
" clip-path="url(#pf4e032919c)" style="fill: #2fb47c"/>
    <path d="M 323.113845 255.895908 
L 332.222677 259.18855 
L 337.267156 256.04127 
L 328.190054 252.840682 
z
" clip-path="url(#pf4e032919c)" style="fill: #26ad81"/>
    <path d="M 299.832236 252.070665 
L 308.889236 255.554327 
L 314.047539 252.564705 
L 305.023005 249.186959 
z
" clip-path="url(#pf4e032919c)" style="fill: #2db27d"/>
    <path d="M 332.222677 259.18855 
L 341.374725 262.449284 
L 346.387516 259.215405 
L 337.267156 256.04127 
z
" clip-path="url(#pf4e032919c)" style="fill: #25ac82"/>
    <path d="M 308.889236 255.554327 
L 317.987815 258.984266 
L 323.113845 255.895908 
L 314.047539 252.564705 
z
" clip-path="url(#pf4e032919c)" style="fill: #2cb17e"/>
    <path d="M 317.987815 258.984266 
L 327.128797 262.369411 
L 332.222677 259.18855 
L 323.113845 255.895908 
z
" clip-path="url(#pf4e032919c)" style="fill: #29af7f"/>
    <path d="M 327.128797 262.369411 
L 336.312933 265.717208 
L 341.374725 262.449284 
L 332.222677 259.18855 
z
" clip-path="url(#pf4e032919c)" style="fill: #28ae80"/>
   </g>
  </g>
 </g>
 <defs>
  <clipPath id="pf4e032919c">
   <rect x="128.88" y="51.84" width="332.64" height="332.64"/>
  </clipPath>
 </defs>
</svg>
