<?xml version="1.0" encoding="utf-8" standalone="no"?>
<!DOCTYPE svg PUBLIC "-//W3C//DTD SVG 1.1//EN"
  "http://www.w3.org/Graphics/SVG/1.1/DTD/svg11.dtd">
<svg xmlns:xlink="http://www.w3.org/1999/xlink" width="538.582677pt" height="510.23622pt" viewBox="0 0 538.582677 510.23622" xmlns="http://www.w3.org/2000/svg" version="1.1">
 <metadata>
  <rdf:RDF xmlns:dc="http://purl.org/dc/elements/1.1/" xmlns:cc="http://creativecommons.org/ns#" xmlns:rdf="http://www.w3.org/1999/02/22-rdf-syntax-ns#">
   <cc:Work>
    <dc:type rdf:resource="http://purl.org/dc/dcmitype/StillImage"/>
    <dc:date>2025-06-11T15:05:20.443148</dc:date>
    <dc:format>image/svg+xml</dc:format>
    <dc:creator>
     <cc:Agent>
      <dc:title>Matplotlib v3.10.1, https://matplotlib.org/</dc:title>
     </cc:Agent>
    </dc:creator>
   </cc:Work>
  </rdf:RDF>
 </metadata>
 <defs>
  <style type="text/css">*{stroke-linejoin: round; stroke-linecap: butt}</style>
 </defs>
 <g id="figure_1">
  <g id="patch_1">
   <path d="M 0 510.23622 
L 538.582677 510.23622 
L 538.582677 0 
L 0 0 
z
" style="fill: #ffffff"/>
  </g>
  <g id="axes_1">
   <g id="patch_2">
    <path d="M 67.322835 454.110236 
L 484.724409 454.110236 
L 484.724409 61.228346 
L 67.322835 61.228346 
z
" style="fill: #ffffff"/>
   </g>
   <g id="matplotlib.axis_1">
    <g id="xtick_1">
     <g id="line2d_1">
      <defs>
       <path id="m8ac10add55" d="M 0 0 
L 0 3.5 
" style="stroke: #000000; stroke-width: 0.8"/>
      </defs>
      <g>
       <use xlink:href="#m8ac10add55" x="86.312492" y="454.110236" style="stroke: #000000; stroke-width: 0.8"/>
      </g>
     </g>
     <g id="text_1">
      <!-- 0 -->
      <g transform="translate(82.562492 471.525861) scale(0.15 -0.15)">
       <defs>
        <path id="TimesNewRomanPSMT-30" d="M 231 2094 
Q 231 2819 450 3342 
Q 669 3866 1031 4122 
Q 1313 4325 1613 4325 
Q 2100 4325 2488 3828 
Q 2972 3213 2972 2159 
Q 2972 1422 2759 906 
Q 2547 391 2217 158 
Q 1888 -75 1581 -75 
Q 975 -75 572 641 
Q 231 1244 231 2094 
z
M 844 2016 
Q 844 1141 1059 588 
Q 1238 122 1591 122 
Q 1759 122 1940 273 
Q 2122 425 2216 781 
Q 2359 1319 2359 2297 
Q 2359 3022 2209 3506 
Q 2097 3866 1919 4016 
Q 1791 4119 1609 4119 
Q 1397 4119 1231 3928 
Q 1006 3669 925 3112 
Q 844 2556 844 2016 
z
" transform="scale(0.015625)"/>
       </defs>
       <use xlink:href="#TimesNewRomanPSMT-30"/>
      </g>
     </g>
    </g>
    <g id="xtick_2">
     <g id="line2d_2">
      <g>
       <use xlink:href="#m8ac10add55" x="138.99541" y="454.110236" style="stroke: #000000; stroke-width: 0.8"/>
      </g>
     </g>
     <g id="text_2">
      <!-- 1 -->
      <g transform="translate(135.24541 471.525861) scale(0.15 -0.15)">
       <defs>
        <path id="TimesNewRomanPSMT-31" d="M 750 3822 
L 1781 4325 
L 1884 4325 
L 1884 747 
Q 1884 391 1914 303 
Q 1944 216 2037 169 
Q 2131 122 2419 116 
L 2419 0 
L 825 0 
L 825 116 
Q 1125 122 1212 167 
Q 1300 213 1334 289 
Q 1369 366 1369 747 
L 1369 3034 
Q 1369 3497 1338 3628 
Q 1316 3728 1258 3775 
Q 1200 3822 1119 3822 
Q 1003 3822 797 3725 
L 750 3822 
z
" transform="scale(0.015625)"/>
       </defs>
       <use xlink:href="#TimesNewRomanPSMT-31"/>
      </g>
     </g>
    </g>
    <g id="xtick_3">
     <g id="line2d_3">
      <g>
       <use xlink:href="#m8ac10add55" x="191.678327" y="454.110236" style="stroke: #000000; stroke-width: 0.8"/>
      </g>
     </g>
     <g id="text_3">
      <!-- 2 -->
      <g transform="translate(187.928327 471.525861) scale(0.15 -0.15)">
       <defs>
        <path id="TimesNewRomanPSMT-32" d="M 2934 816 
L 2638 0 
L 138 0 
L 138 116 
Q 1241 1122 1691 1759 
Q 2141 2397 2141 2925 
Q 2141 3328 1894 3587 
Q 1647 3847 1303 3847 
Q 991 3847 742 3664 
Q 494 3481 375 3128 
L 259 3128 
Q 338 3706 661 4015 
Q 984 4325 1469 4325 
Q 1984 4325 2329 3994 
Q 2675 3663 2675 3213 
Q 2675 2891 2525 2569 
Q 2294 2063 1775 1497 
Q 997 647 803 472 
L 1909 472 
Q 2247 472 2383 497 
Q 2519 522 2628 598 
Q 2738 675 2819 816 
L 2934 816 
z
" transform="scale(0.015625)"/>
       </defs>
       <use xlink:href="#TimesNewRomanPSMT-32"/>
      </g>
     </g>
    </g>
    <g id="xtick_4">
     <g id="line2d_4">
      <g>
       <use xlink:href="#m8ac10add55" x="244.361245" y="454.110236" style="stroke: #000000; stroke-width: 0.8"/>
      </g>
     </g>
     <g id="text_4">
      <!-- 3 -->
      <g transform="translate(240.611245 471.525861) scale(0.15 -0.15)">
       <defs>
        <path id="TimesNewRomanPSMT-33" d="M 325 3431 
Q 506 3859 782 4092 
Q 1059 4325 1472 4325 
Q 1981 4325 2253 3994 
Q 2459 3747 2459 3466 
Q 2459 3003 1878 2509 
Q 2269 2356 2469 2072 
Q 2669 1788 2669 1403 
Q 2669 853 2319 450 
Q 1863 -75 997 -75 
Q 569 -75 414 31 
Q 259 138 259 259 
Q 259 350 332 419 
Q 406 488 509 488 
Q 588 488 669 463 
Q 722 447 909 348 
Q 1097 250 1169 231 
Q 1284 197 1416 197 
Q 1734 197 1970 444 
Q 2206 691 2206 1028 
Q 2206 1275 2097 1509 
Q 2016 1684 1919 1775 
Q 1784 1900 1550 2001 
Q 1316 2103 1072 2103 
L 972 2103 
L 972 2197 
Q 1219 2228 1467 2375 
Q 1716 2522 1828 2728 
Q 1941 2934 1941 3181 
Q 1941 3503 1739 3701 
Q 1538 3900 1238 3900 
Q 753 3900 428 3381 
L 325 3431 
z
" transform="scale(0.015625)"/>
       </defs>
       <use xlink:href="#TimesNewRomanPSMT-33"/>
      </g>
     </g>
    </g>
    <g id="xtick_5">
     <g id="line2d_5">
      <g>
       <use xlink:href="#m8ac10add55" x="297.044162" y="454.110236" style="stroke: #000000; stroke-width: 0.8"/>
      </g>
     </g>
     <g id="text_5">
      <!-- 4 -->
      <g transform="translate(293.294162 471.525861) scale(0.15 -0.15)">
       <defs>
        <path id="TimesNewRomanPSMT-34" d="M 2978 1563 
L 2978 1119 
L 2409 1119 
L 2409 0 
L 1894 0 
L 1894 1119 
L 100 1119 
L 100 1519 
L 2066 4325 
L 2409 4325 
L 2409 1563 
L 2978 1563 
z
M 1894 1563 
L 1894 3666 
L 406 1563 
L 1894 1563 
z
" transform="scale(0.015625)"/>
       </defs>
       <use xlink:href="#TimesNewRomanPSMT-34"/>
      </g>
     </g>
    </g>
    <g id="xtick_6">
     <g id="line2d_6">
      <g>
       <use xlink:href="#m8ac10add55" x="349.72708" y="454.110236" style="stroke: #000000; stroke-width: 0.8"/>
      </g>
     </g>
     <g id="text_6">
      <!-- 5 -->
      <g transform="translate(345.97708 471.525861) scale(0.15 -0.15)">
       <defs>
        <path id="TimesNewRomanPSMT-35" d="M 2778 4238 
L 2534 3706 
L 1259 3706 
L 981 3138 
Q 1809 3016 2294 2522 
Q 2709 2097 2709 1522 
Q 2709 1188 2573 903 
Q 2438 619 2231 419 
Q 2025 219 1772 97 
Q 1413 -75 1034 -75 
Q 653 -75 479 54 
Q 306 184 306 341 
Q 306 428 378 495 
Q 450 563 559 563 
Q 641 563 702 538 
Q 763 513 909 409 
Q 1144 247 1384 247 
Q 1750 247 2026 523 
Q 2303 800 2303 1197 
Q 2303 1581 2056 1914 
Q 1809 2247 1375 2428 
Q 1034 2569 447 2591 
L 1259 4238 
L 2778 4238 
z
" transform="scale(0.015625)"/>
       </defs>
       <use xlink:href="#TimesNewRomanPSMT-35"/>
      </g>
     </g>
    </g>
    <g id="xtick_7">
     <g id="line2d_7">
      <g>
       <use xlink:href="#m8ac10add55" x="402.409998" y="454.110236" style="stroke: #000000; stroke-width: 0.8"/>
      </g>
     </g>
     <g id="text_7">
      <!-- 6 -->
      <g transform="translate(398.659998 471.525861) scale(0.15 -0.15)">
       <defs>
        <path id="TimesNewRomanPSMT-36" d="M 2869 4325 
L 2869 4209 
Q 2456 4169 2195 4045 
Q 1934 3922 1679 3669 
Q 1425 3416 1258 3105 
Q 1091 2794 978 2366 
Q 1428 2675 1881 2675 
Q 2316 2675 2634 2325 
Q 2953 1975 2953 1425 
Q 2953 894 2631 456 
Q 2244 -75 1606 -75 
Q 1172 -75 869 213 
Q 275 772 275 1663 
Q 275 2231 503 2743 
Q 731 3256 1154 3653 
Q 1578 4050 1965 4187 
Q 2353 4325 2688 4325 
L 2869 4325 
z
M 925 2138 
Q 869 1716 869 1456 
Q 869 1156 980 804 
Q 1091 453 1309 247 
Q 1469 100 1697 100 
Q 1969 100 2183 356 
Q 2397 613 2397 1088 
Q 2397 1622 2184 2012 
Q 1972 2403 1581 2403 
Q 1463 2403 1327 2353 
Q 1191 2303 925 2138 
z
" transform="scale(0.015625)"/>
       </defs>
       <use xlink:href="#TimesNewRomanPSMT-36"/>
      </g>
     </g>
    </g>
    <g id="xtick_8">
     <g id="line2d_8">
      <g>
       <use xlink:href="#m8ac10add55" x="455.092915" y="454.110236" style="stroke: #000000; stroke-width: 0.8"/>
      </g>
     </g>
     <g id="text_8">
      <!-- 7 -->
      <g transform="translate(451.342915 471.525861) scale(0.15 -0.15)">
       <defs>
        <path id="TimesNewRomanPSMT-37" d="M 644 4238 
L 2916 4238 
L 2916 4119 
L 1503 -88 
L 1153 -88 
L 2419 3728 
L 1253 3728 
Q 900 3728 750 3644 
Q 488 3500 328 3200 
L 238 3234 
L 644 4238 
z
" transform="scale(0.015625)"/>
       </defs>
       <use xlink:href="#TimesNewRomanPSMT-37"/>
      </g>
     </g>
    </g>
    <g id="text_9">
     <!-- Displacement [mm] -->
     <g transform="translate(188.355341 494.010705) scale(0.22 -0.22)">
      <defs>
       <path id="TimesNewRomanPSMT-44" d="M 109 0 
L 109 116 
L 269 116 
Q 538 116 650 288 
Q 719 391 719 750 
L 719 3488 
Q 719 3884 631 3984 
Q 509 4122 269 4122 
L 109 4122 
L 109 4238 
L 1834 4238 
Q 2784 4238 3279 4022 
Q 3775 3806 4076 3303 
Q 4378 2800 4378 2141 
Q 4378 1256 3841 663 
Q 3238 0 2003 0 
L 109 0 
z
M 1319 306 
Q 1716 219 1984 219 
Q 2709 219 3187 728 
Q 3666 1238 3666 2109 
Q 3666 2988 3187 3494 
Q 2709 4000 1959 4000 
Q 1678 4000 1319 3909 
L 1319 306 
z
" transform="scale(0.015625)"/>
       <path id="TimesNewRomanPSMT-69" d="M 928 4444 
Q 1059 4444 1151 4351 
Q 1244 4259 1244 4128 
Q 1244 3997 1151 3903 
Q 1059 3809 928 3809 
Q 797 3809 703 3903 
Q 609 3997 609 4128 
Q 609 4259 701 4351 
Q 794 4444 928 4444 
z
M 1188 2947 
L 1188 647 
Q 1188 378 1227 289 
Q 1266 200 1342 156 
Q 1419 113 1622 113 
L 1622 0 
L 231 0 
L 231 113 
Q 441 113 512 153 
Q 584 194 626 287 
Q 669 381 669 647 
L 669 1750 
Q 669 2216 641 2353 
Q 619 2453 572 2492 
Q 525 2531 444 2531 
Q 356 2531 231 2484 
L 188 2597 
L 1050 2947 
L 1188 2947 
z
" transform="scale(0.015625)"/>
       <path id="TimesNewRomanPSMT-73" d="M 2050 2947 
L 2050 1972 
L 1947 1972 
Q 1828 2431 1642 2597 
Q 1456 2763 1169 2763 
Q 950 2763 815 2647 
Q 681 2531 681 2391 
Q 681 2216 781 2091 
Q 878 1963 1175 1819 
L 1631 1597 
Q 2266 1288 2266 781 
Q 2266 391 1970 151 
Q 1675 -88 1309 -88 
Q 1047 -88 709 6 
Q 606 38 541 38 
Q 469 38 428 -44 
L 325 -44 
L 325 978 
L 428 978 
Q 516 541 762 319 
Q 1009 97 1316 97 
Q 1531 97 1667 223 
Q 1803 350 1803 528 
Q 1803 744 1651 891 
Q 1500 1038 1047 1263 
Q 594 1488 453 1669 
Q 313 1847 313 2119 
Q 313 2472 555 2709 
Q 797 2947 1181 2947 
Q 1350 2947 1591 2875 
Q 1750 2828 1803 2828 
Q 1853 2828 1881 2850 
Q 1909 2872 1947 2947 
L 2050 2947 
z
" transform="scale(0.015625)"/>
       <path id="TimesNewRomanPSMT-70" d="M -6 2578 
L 875 2934 
L 994 2934 
L 994 2266 
Q 1216 2644 1439 2795 
Q 1663 2947 1909 2947 
Q 2341 2947 2628 2609 
Q 2981 2197 2981 1534 
Q 2981 794 2556 309 
Q 2206 -88 1675 -88 
Q 1444 -88 1275 -22 
Q 1150 25 994 166 
L 994 -706 
Q 994 -1000 1030 -1079 
Q 1066 -1159 1155 -1206 
Q 1244 -1253 1478 -1253 
L 1478 -1369 
L -22 -1369 
L -22 -1253 
L 56 -1253 
Q 228 -1256 350 -1188 
Q 409 -1153 442 -1076 
Q 475 -1000 475 -688 
L 475 2019 
Q 475 2297 450 2372 
Q 425 2447 370 2484 
Q 316 2522 222 2522 
Q 147 2522 31 2478 
L -6 2578 
z
M 994 2081 
L 994 1013 
Q 994 666 1022 556 
Q 1066 375 1236 237 
Q 1406 100 1666 100 
Q 1978 100 2172 344 
Q 2425 663 2425 1241 
Q 2425 1897 2138 2250 
Q 1938 2494 1663 2494 
Q 1513 2494 1366 2419 
Q 1253 2363 994 2081 
z
" transform="scale(0.015625)"/>
       <path id="TimesNewRomanPSMT-6c" d="M 1184 4444 
L 1184 647 
Q 1184 378 1223 290 
Q 1263 203 1344 158 
Q 1425 113 1647 113 
L 1647 0 
L 244 0 
L 244 113 
Q 441 113 512 153 
Q 584 194 625 287 
Q 666 381 666 647 
L 666 3247 
Q 666 3731 644 3842 
Q 622 3953 573 3993 
Q 525 4034 450 4034 
Q 369 4034 244 3984 
L 191 4094 
L 1044 4444 
L 1184 4444 
z
" transform="scale(0.015625)"/>
       <path id="TimesNewRomanPSMT-61" d="M 1822 413 
Q 1381 72 1269 19 
Q 1100 -59 909 -59 
Q 613 -59 420 144 
Q 228 347 228 678 
Q 228 888 322 1041 
Q 450 1253 767 1440 
Q 1084 1628 1822 1897 
L 1822 2009 
Q 1822 2438 1686 2597 
Q 1550 2756 1291 2756 
Q 1094 2756 978 2650 
Q 859 2544 859 2406 
L 866 2225 
Q 866 2081 792 2003 
Q 719 1925 600 1925 
Q 484 1925 411 2006 
Q 338 2088 338 2228 
Q 338 2497 613 2722 
Q 888 2947 1384 2947 
Q 1766 2947 2009 2819 
Q 2194 2722 2281 2516 
Q 2338 2381 2338 1966 
L 2338 994 
Q 2338 584 2353 492 
Q 2369 400 2405 369 
Q 2441 338 2488 338 
Q 2538 338 2575 359 
Q 2641 400 2828 588 
L 2828 413 
Q 2478 -56 2159 -56 
Q 2006 -56 1915 50 
Q 1825 156 1822 413 
z
M 1822 616 
L 1822 1706 
Q 1350 1519 1213 1441 
Q 966 1303 859 1153 
Q 753 1003 753 825 
Q 753 600 887 451 
Q 1022 303 1197 303 
Q 1434 303 1822 616 
z
" transform="scale(0.015625)"/>
       <path id="TimesNewRomanPSMT-63" d="M 2631 1088 
Q 2516 522 2178 217 
Q 1841 -88 1431 -88 
Q 944 -88 581 321 
Q 219 731 219 1428 
Q 219 2103 620 2525 
Q 1022 2947 1584 2947 
Q 2006 2947 2278 2723 
Q 2550 2500 2550 2259 
Q 2550 2141 2473 2067 
Q 2397 1994 2259 1994 
Q 2075 1994 1981 2113 
Q 1928 2178 1911 2362 
Q 1894 2547 1784 2644 
Q 1675 2738 1481 2738 
Q 1169 2738 978 2506 
Q 725 2200 725 1697 
Q 725 1184 976 792 
Q 1228 400 1656 400 
Q 1963 400 2206 609 
Q 2378 753 2541 1131 
L 2631 1088 
z
" transform="scale(0.015625)"/>
       <path id="TimesNewRomanPSMT-65" d="M 681 1784 
Q 678 1147 991 784 
Q 1303 422 1725 422 
Q 2006 422 2214 576 
Q 2422 731 2563 1106 
L 2659 1044 
Q 2594 616 2278 264 
Q 1963 -88 1488 -88 
Q 972 -88 605 314 
Q 238 716 238 1394 
Q 238 2128 614 2539 
Q 991 2950 1559 2950 
Q 2041 2950 2350 2633 
Q 2659 2316 2659 1784 
L 681 1784 
z
M 681 1966 
L 2006 1966 
Q 1991 2241 1941 2353 
Q 1863 2528 1708 2628 
Q 1553 2728 1384 2728 
Q 1125 2728 920 2526 
Q 716 2325 681 1966 
z
" transform="scale(0.015625)"/>
       <path id="TimesNewRomanPSMT-6d" d="M 1050 2338 
Q 1363 2650 1419 2697 
Q 1559 2816 1721 2881 
Q 1884 2947 2044 2947 
Q 2313 2947 2506 2790 
Q 2700 2634 2766 2338 
Q 3088 2713 3309 2830 
Q 3531 2947 3766 2947 
Q 3994 2947 4170 2830 
Q 4347 2713 4450 2447 
Q 4519 2266 4519 1878 
L 4519 647 
Q 4519 378 4559 278 
Q 4591 209 4675 161 
Q 4759 113 4950 113 
L 4950 0 
L 3538 0 
L 3538 113 
L 3597 113 
Q 3781 113 3884 184 
Q 3956 234 3988 344 
Q 4000 397 4000 647 
L 4000 1878 
Q 4000 2228 3916 2372 
Q 3794 2572 3525 2572 
Q 3359 2572 3192 2489 
Q 3025 2406 2788 2181 
L 2781 2147 
L 2788 2013 
L 2788 647 
Q 2788 353 2820 281 
Q 2853 209 2943 161 
Q 3034 113 3253 113 
L 3253 0 
L 1806 0 
L 1806 113 
Q 2044 113 2133 169 
Q 2222 225 2256 338 
Q 2272 391 2272 647 
L 2272 1878 
Q 2272 2228 2169 2381 
Q 2031 2581 1784 2581 
Q 1616 2581 1450 2491 
Q 1191 2353 1050 2181 
L 1050 647 
Q 1050 366 1089 281 
Q 1128 197 1204 155 
Q 1281 113 1516 113 
L 1516 0 
L 100 0 
L 100 113 
Q 297 113 375 155 
Q 453 197 493 289 
Q 534 381 534 647 
L 534 1741 
Q 534 2213 506 2350 
Q 484 2453 437 2492 
Q 391 2531 309 2531 
Q 222 2531 100 2484 
L 53 2597 
L 916 2947 
L 1050 2947 
L 1050 2338 
z
" transform="scale(0.015625)"/>
       <path id="TimesNewRomanPSMT-6e" d="M 1034 2341 
Q 1538 2947 1994 2947 
Q 2228 2947 2397 2830 
Q 2566 2713 2666 2444 
Q 2734 2256 2734 1869 
L 2734 647 
Q 2734 375 2778 278 
Q 2813 200 2889 156 
Q 2966 113 3172 113 
L 3172 0 
L 1756 0 
L 1756 113 
L 1816 113 
Q 2016 113 2095 173 
Q 2175 234 2206 353 
Q 2219 400 2219 647 
L 2219 1819 
Q 2219 2209 2117 2386 
Q 2016 2563 1775 2563 
Q 1403 2563 1034 2156 
L 1034 647 
Q 1034 356 1069 288 
Q 1113 197 1189 155 
Q 1266 113 1500 113 
L 1500 0 
L 84 0 
L 84 113 
L 147 113 
Q 366 113 442 223 
Q 519 334 519 647 
L 519 1709 
Q 519 2225 495 2337 
Q 472 2450 423 2490 
Q 375 2531 294 2531 
Q 206 2531 84 2484 
L 38 2597 
L 900 2947 
L 1034 2947 
L 1034 2341 
z
" transform="scale(0.015625)"/>
       <path id="TimesNewRomanPSMT-74" d="M 1031 3803 
L 1031 2863 
L 1700 2863 
L 1700 2644 
L 1031 2644 
L 1031 788 
Q 1031 509 1111 412 
Q 1191 316 1316 316 
Q 1419 316 1516 380 
Q 1613 444 1666 569 
L 1788 569 
Q 1678 263 1478 108 
Q 1278 -47 1066 -47 
Q 922 -47 784 33 
Q 647 113 581 261 
Q 516 409 516 719 
L 516 2644 
L 63 2644 
L 63 2747 
Q 234 2816 414 2980 
Q 594 3144 734 3369 
Q 806 3488 934 3803 
L 1031 3803 
z
" transform="scale(0.015625)"/>
       <path id="TimesNewRomanPSMT-20" transform="scale(0.015625)"/>
       <path id="TimesNewRomanPSMT-5b" d="M 1900 -1269 
L 525 -1269 
L 525 4334 
L 1900 4334 
L 1900 4088 
L 994 4088 
L 994 -1025 
L 1900 -1025 
L 1900 -1269 
z
" transform="scale(0.015625)"/>
       <path id="TimesNewRomanPSMT-5d" d="M 234 4334 
L 1609 4334 
L 1609 -1272 
L 234 -1272 
L 234 -1025 
L 1141 -1025 
L 1141 4088 
L 234 4088 
L 234 4334 
z
" transform="scale(0.015625)"/>
      </defs>
      <use xlink:href="#TimesNewRomanPSMT-44"/>
      <use xlink:href="#TimesNewRomanPSMT-69" transform="translate(72.216797 0)"/>
      <use xlink:href="#TimesNewRomanPSMT-73" transform="translate(100 0)"/>
      <use xlink:href="#TimesNewRomanPSMT-70" transform="translate(138.916016 0)"/>
      <use xlink:href="#TimesNewRomanPSMT-6c" transform="translate(188.916016 0)"/>
      <use xlink:href="#TimesNewRomanPSMT-61" transform="translate(216.699219 0)"/>
      <use xlink:href="#TimesNewRomanPSMT-63" transform="translate(261.083984 0)"/>
      <use xlink:href="#TimesNewRomanPSMT-65" transform="translate(305.46875 0)"/>
      <use xlink:href="#TimesNewRomanPSMT-6d" transform="translate(349.853516 0)"/>
      <use xlink:href="#TimesNewRomanPSMT-65" transform="translate(427.636719 0)"/>
      <use xlink:href="#TimesNewRomanPSMT-6e" transform="translate(472.021484 0)"/>
      <use xlink:href="#TimesNewRomanPSMT-74" transform="translate(522.021484 0)"/>
      <use xlink:href="#TimesNewRomanPSMT-20" transform="translate(549.804688 0)"/>
      <use xlink:href="#TimesNewRomanPSMT-5b" transform="translate(574.804688 0)"/>
      <use xlink:href="#TimesNewRomanPSMT-6d" transform="translate(608.105469 0)"/>
      <use xlink:href="#TimesNewRomanPSMT-6d" transform="translate(685.888672 0)"/>
      <use xlink:href="#TimesNewRomanPSMT-5d" transform="translate(763.671875 0)"/>
     </g>
    </g>
   </g>
   <g id="matplotlib.axis_2">
    <g id="ytick_1">
     <g id="line2d_9">
      <defs>
       <path id="m02c253e437" d="M 0 0 
L -3.5 0 
" style="stroke: #000000; stroke-width: 0.8"/>
      </defs>
      <g>
       <use xlink:href="#m02c253e437" x="67.322835" y="435.421348" style="stroke: #000000; stroke-width: 0.8"/>
      </g>
     </g>
     <g id="text_10">
      <!-- 0 -->
      <g transform="translate(52.822835 440.629161) scale(0.15 -0.15)">
       <use xlink:href="#TimesNewRomanPSMT-30"/>
      </g>
     </g>
    </g>
    <g id="ytick_2">
     <g id="line2d_10">
      <g>
       <use xlink:href="#m02c253e437" x="67.322835" y="377.10765" style="stroke: #000000; stroke-width: 0.8"/>
      </g>
     </g>
     <g id="text_11">
      <!-- 5 -->
      <g transform="translate(52.822835 382.315463) scale(0.15 -0.15)">
       <use xlink:href="#TimesNewRomanPSMT-35"/>
      </g>
     </g>
    </g>
    <g id="ytick_3">
     <g id="line2d_11">
      <g>
       <use xlink:href="#m02c253e437" x="67.322835" y="318.793952" style="stroke: #000000; stroke-width: 0.8"/>
      </g>
     </g>
     <g id="text_12">
      <!-- 10 -->
      <g transform="translate(45.322835 324.001765) scale(0.15 -0.15)">
       <use xlink:href="#TimesNewRomanPSMT-31"/>
       <use xlink:href="#TimesNewRomanPSMT-30" transform="translate(50 0)"/>
      </g>
     </g>
    </g>
    <g id="ytick_4">
     <g id="line2d_12">
      <g>
       <use xlink:href="#m02c253e437" x="67.322835" y="260.480254" style="stroke: #000000; stroke-width: 0.8"/>
      </g>
     </g>
     <g id="text_13">
      <!-- 15 -->
      <g transform="translate(45.322835 265.688067) scale(0.15 -0.15)">
       <use xlink:href="#TimesNewRomanPSMT-31"/>
       <use xlink:href="#TimesNewRomanPSMT-35" transform="translate(50 0)"/>
      </g>
     </g>
    </g>
    <g id="ytick_5">
     <g id="line2d_13">
      <g>
       <use xlink:href="#m02c253e437" x="67.322835" y="202.166556" style="stroke: #000000; stroke-width: 0.8"/>
      </g>
     </g>
     <g id="text_14">
      <!-- 20 -->
      <g transform="translate(45.322835 207.374369) scale(0.15 -0.15)">
       <use xlink:href="#TimesNewRomanPSMT-32"/>
       <use xlink:href="#TimesNewRomanPSMT-30" transform="translate(50 0)"/>
      </g>
     </g>
    </g>
    <g id="ytick_6">
     <g id="line2d_14">
      <g>
       <use xlink:href="#m02c253e437" x="67.322835" y="143.852858" style="stroke: #000000; stroke-width: 0.8"/>
      </g>
     </g>
     <g id="text_15">
      <!-- 25 -->
      <g transform="translate(45.322835 149.060671) scale(0.15 -0.15)">
       <use xlink:href="#TimesNewRomanPSMT-32"/>
       <use xlink:href="#TimesNewRomanPSMT-35" transform="translate(50 0)"/>
      </g>
     </g>
    </g>
    <g id="ytick_7">
     <g id="line2d_15">
      <g>
       <use xlink:href="#m02c253e437" x="67.322835" y="85.53916" style="stroke: #000000; stroke-width: 0.8"/>
      </g>
     </g>
     <g id="text_16">
      <!-- 30 -->
      <g transform="translate(45.322835 90.746973) scale(0.15 -0.15)">
       <use xlink:href="#TimesNewRomanPSMT-33"/>
       <use xlink:href="#TimesNewRomanPSMT-30" transform="translate(50 0)"/>
      </g>
     </g>
    </g>
    <g id="text_17">
     <!-- Force [kN] -->
     <g transform="translate(36.616897 306.234291) rotate(-90) scale(0.22 -0.22)">
      <defs>
       <path id="TimesNewRomanPSMT-46" d="M 1309 4006 
L 1309 2341 
L 2081 2341 
Q 2347 2341 2470 2458 
Q 2594 2575 2634 2922 
L 2750 2922 
L 2750 1488 
L 2634 1488 
Q 2631 1734 2570 1850 
Q 2509 1966 2401 2023 
Q 2294 2081 2081 2081 
L 1309 2081 
L 1309 750 
Q 1309 428 1350 325 
Q 1381 247 1481 191 
Q 1619 116 1769 116 
L 1922 116 
L 1922 0 
L 103 0 
L 103 116 
L 253 116 
Q 516 116 634 269 
Q 709 369 709 750 
L 709 3488 
Q 709 3809 669 3913 
Q 638 3991 541 4047 
Q 406 4122 253 4122 
L 103 4122 
L 103 4238 
L 3256 4238 
L 3297 3306 
L 3188 3306 
Q 3106 3603 2998 3742 
Q 2891 3881 2733 3943 
Q 2575 4006 2244 4006 
L 1309 4006 
z
" transform="scale(0.015625)"/>
       <path id="TimesNewRomanPSMT-6f" d="M 1600 2947 
Q 2250 2947 2644 2453 
Q 2978 2031 2978 1484 
Q 2978 1100 2793 706 
Q 2609 313 2286 112 
Q 1963 -88 1566 -88 
Q 919 -88 538 428 
Q 216 863 216 1403 
Q 216 1797 411 2186 
Q 606 2575 925 2761 
Q 1244 2947 1600 2947 
z
M 1503 2744 
Q 1338 2744 1170 2645 
Q 1003 2547 900 2300 
Q 797 2053 797 1666 
Q 797 1041 1045 587 
Q 1294 134 1700 134 
Q 2003 134 2200 384 
Q 2397 634 2397 1244 
Q 2397 2006 2069 2444 
Q 1847 2744 1503 2744 
z
" transform="scale(0.015625)"/>
       <path id="TimesNewRomanPSMT-72" d="M 1038 2947 
L 1038 2303 
Q 1397 2947 1775 2947 
Q 1947 2947 2059 2842 
Q 2172 2738 2172 2600 
Q 2172 2478 2090 2393 
Q 2009 2309 1897 2309 
Q 1788 2309 1652 2417 
Q 1516 2525 1450 2525 
Q 1394 2525 1328 2463 
Q 1188 2334 1038 2041 
L 1038 669 
Q 1038 431 1097 309 
Q 1138 225 1241 169 
Q 1344 113 1538 113 
L 1538 0 
L 72 0 
L 72 113 
Q 291 113 397 181 
Q 475 231 506 341 
Q 522 394 522 644 
L 522 1753 
Q 522 2253 501 2348 
Q 481 2444 426 2487 
Q 372 2531 291 2531 
Q 194 2531 72 2484 
L 41 2597 
L 906 2947 
L 1038 2947 
z
" transform="scale(0.015625)"/>
       <path id="TimesNewRomanPSMT-6b" d="M 1047 4444 
L 1047 1594 
L 1775 2259 
Q 2006 2472 2044 2528 
Q 2069 2566 2069 2603 
Q 2069 2666 2017 2711 
Q 1966 2756 1847 2763 
L 1847 2863 
L 3091 2863 
L 3091 2763 
Q 2834 2756 2664 2684 
Q 2494 2613 2291 2428 
L 1556 1750 
L 2291 822 
Q 2597 438 2703 334 
Q 2853 188 2966 144 
Q 3044 113 3238 113 
L 3238 0 
L 1847 0 
L 1847 113 
Q 1966 116 2008 148 
Q 2050 181 2050 241 
Q 2050 313 1925 472 
L 1047 1594 
L 1047 644 
Q 1047 366 1086 278 
Q 1125 191 1197 153 
Q 1269 116 1509 113 
L 1509 0 
L 53 0 
L 53 113 
Q 272 113 381 166 
Q 447 200 481 272 
Q 528 375 528 628 
L 528 3234 
Q 528 3731 506 3842 
Q 484 3953 434 3995 
Q 384 4038 303 4038 
Q 238 4038 106 3984 
L 53 4094 
L 903 4444 
L 1047 4444 
z
" transform="scale(0.015625)"/>
       <path id="TimesNewRomanPSMT-4e" d="M -84 4238 
L 1066 4238 
L 3656 1059 
L 3656 3503 
Q 3656 3894 3569 3991 
Q 3453 4122 3203 4122 
L 3056 4122 
L 3056 4238 
L 4531 4238 
L 4531 4122 
L 4381 4122 
Q 4113 4122 4000 3959 
Q 3931 3859 3931 3503 
L 3931 -69 
L 3819 -69 
L 1025 3344 
L 1025 734 
Q 1025 344 1109 247 
Q 1228 116 1475 116 
L 1625 116 
L 1625 0 
L 150 0 
L 150 116 
L 297 116 
Q 569 116 681 278 
Q 750 378 750 734 
L 750 3681 
Q 566 3897 470 3965 
Q 375 4034 191 4094 
Q 100 4122 -84 4122 
L -84 4238 
z
" transform="scale(0.015625)"/>
      </defs>
      <use xlink:href="#TimesNewRomanPSMT-46"/>
      <use xlink:href="#TimesNewRomanPSMT-6f" transform="translate(55.615234 0)"/>
      <use xlink:href="#TimesNewRomanPSMT-72" transform="translate(105.615234 0)"/>
      <use xlink:href="#TimesNewRomanPSMT-63" transform="translate(138.916016 0)"/>
      <use xlink:href="#TimesNewRomanPSMT-65" transform="translate(183.300781 0)"/>
      <use xlink:href="#TimesNewRomanPSMT-20" transform="translate(227.685547 0)"/>
      <use xlink:href="#TimesNewRomanPSMT-5b" transform="translate(252.685547 0)"/>
      <use xlink:href="#TimesNewRomanPSMT-6b" transform="translate(285.986328 0)"/>
      <use xlink:href="#TimesNewRomanPSMT-4e" transform="translate(335.986328 0)"/>
      <use xlink:href="#TimesNewRomanPSMT-5d" transform="translate(408.203125 0)"/>
     </g>
    </g>
   </g>
   <g id="line2d_16">
    <path d="M 86.312492 435.463567 
L 86.312492 436.251969 
L 86.400473 432.937185 
L 86.647555 432.127791 
L 86.80297 431.947018 
L 86.94416 432.175608 
L 87.209155 431.409366 
L 87.318736 431.675276 
L 87.688043 430.877545 
L 87.686989 430.890374 
L 87.731243 429.686779 
L 88.312862 428.21844 
L 88.535711 427.807912 
L 88.819672 427.01018 
L 88.966131 426.866729 
L 89.15737 425.52668 
L 90.116199 421.997535 
L 90.231574 422.067511 
L 90.377506 421.717629 
L 90.625116 420.65632 
L 90.73733 420.539692 
L 90.874306 418.720305 
L 91.268374 417.064196 
L 92.060198 414.381766 
L 92.318345 413.693664 
L 92.513271 412.364112 
L 93.261369 409.798309 
L 93.59854 409.20351 
L 93.930442 407.850632 
L 94.083222 407.360797 
L 94.178052 406.392789 
L 94.478344 405.133213 
L 94.541564 404.841645 
L 94.678539 404.141881 
L 95.010442 402.64905 
L 95.163222 402.497434 
L 95.516198 401.471113 
L 95.605759 400.47978 
L 95.779612 399.83833 
L 96.000881 398.625405 
L 96.016685 398.660393 
L 96.043027 398.543766 
L 96.227417 396.922645 
L 96.327515 396.782692 
L 96.907027 393.435486 
L 97.186246 392.479141 
L 97.375905 390.519801 
L 98.171417 387.009316 
L 98.471709 386.192924 
L 98.84049 385.691427 
L 99.003807 384.875035 
L 99.256685 384.618454 
L 99.42527 384.525153 
L 99.746636 383.592133 
L 99.862538 383.452181 
L 99.873075 383.498831 
L 99.931026 379.626802 
L 100.299807 378.063995 
L 100.852977 377.36423 
L 101.511514 376.757768 
L 101.632684 376.617815 
L 101.932977 372.72246 
L 102.391318 370.658155 
L 102.733757 370.063355 
L 102.907611 369.713473 
L 103.028782 369.480218 
L 103.21844 367.940737 
L 103.355416 367.602517 
L 103.819026 365.153342 
L 104.909562 363.497233 
L 105.046538 362.051053 
L 105.199318 361.537893 
L 105.288879 359.321972 
L 106.39522 355.286664 
L 106.516391 354.12039 
L 106.748196 353.618893 
L 107.491025 352.954116 
L 107.622732 353.094069 
L 107.649074 353.024093 
L 107.812391 352.114399 
L 107.986244 351.367984 
L 108.218049 350.679882 
L 108.618439 350.225035 
L 108.708 349.840165 
L 108.776488 350.306675 
L 108.929269 348.615577 
L 109.20322 347.694221 
L 109.524586 347.251037 
L 109.703707 347.111084 
L 109.867024 346.726214 
L 110.109366 345.828183 
L 110.256878 345.443312 
L 110.551902 344.358677 
L 110.62039 344.312026 
L 111.605561 340.859855 
L 111.742536 340.649926 
L 111.88478 339.308711 
L 112.200878 337.396022 
L 112.538048 335.938179 
L 114.482048 332.311067 
L 114.993072 330.060159 
L 115.904487 328.32241 
L 116.162633 327.424379 
L 116.473462 327.062835 
L 116.989755 326.864568 
L 117.22156 326.934544 
L 117.927511 326.141478 
L 119.049657 323.517362 
L 119.681852 320.823269 
L 119.992681 320.543363 
L 120.166535 320.415073 
L 120.656486 319.062195 
L 120.761852 319.073858 
L 121.056876 318.094188 
L 121.499413 317.511051 
L 121.736486 317.394423 
L 122.047315 317.511051 
L 122.152681 317.394423 
L 122.263315 317.511051 
L 122.437169 317.394423 
L 122.668973 317.860933 
L 122.695315 317.744306 
L 122.990339 317.044541 
L 123.016681 317.044541 
L 123.332778 316.111522 
L 123.406534 316.461404 
L 123.596193 315.178503 
L 123.885949 314.012229 
L 124.017656 314.128856 
L 124.428583 313.662347 
L 124.734144 313.195837 
L 124.834241 313.312465 
L 125.471705 312.379445 
L 125.582339 312.379445 
L 126.067022 311.796308 
L 126.372583 310.630034 
L 126.836192 309.697015 
L 127.299802 308.647369 
L 127.542143 307.71435 
L 129.21746 304.215528 
L 129.364972 304.215528 
L 129.486143 304.0989 
L 129.612582 304.0989 
L 129.796972 303.865645 
L 129.870728 303.865645 
L 130.102533 303.399136 
L 130.176289 303.399136 
L 130.624094 301.766352 
L 131.003411 301.066588 
L 131.872679 300.133569 
L 131.99385 299.783687 
L 132.483801 297.101256 
L 132.752484 296.868002 
L 133.01063 296.401492 
L 133.532191 294.885336 
L 135.070532 293.019298 
L 135.686922 291.736396 
L 135.955605 291.503141 
L 136.1558 291.503141 
L 136.366532 293.952317 
L 136.3718 294.302199 
L 136.43502 291.969651 
L 136.86702 289.170594 
L 137.225264 288.470829 
L 137.63619 288.00432 
L 137.999702 287.887692 
L 138.278922 287.421183 
L 138.510727 287.421183 
L 139.258824 286.371536 
L 139.627605 285.671772 
L 139.838336 285.555144 
L 140.154434 285.671772 
L 140.207117 285.671772 
L 140.365165 285.088635 
L 140.523214 285.205262 
L 140.62858 285.088635 
L 140.733946 285.205262 
L 141.629556 283.105969 
L 141.840287 282.056322 
L 142.419799 281.356558 
L 142.630531 281.123303 
L 142.683214 285.205262 
L 142.103702 281.239931 
L 142.577848 280.540166 
L 142.735897 281.473185 
L 142.841263 280.540166 
L 143.104677 279.723774 
L 143.526141 276.34158 
L 143.789555 275.87507 
L 144.05297 275.758443 
L 144.527116 274.358914 
L 144.843213 274.009032 
L 145.264677 272.959386 
L 145.422726 272.609503 
L 145.949555 270.743465 
L 146.423701 269.927073 
L 147.055896 269.227309 
L 147.213945 269.227309 
L 147.424676 268.994054 
L 147.582725 268.527544 
L 147.793457 268.410917 
L 147.951506 268.177662 
L 148.162237 268.177662 
L 148.320286 267.944407 
L 148.478335 267.944407 
L 148.847115 266.544879 
L 149.11053 266.311624 
L 149.373944 266.311624 
L 150.216871 265.961742 
L 150.322237 265.728487 
L 150.585652 265.728487 
L 150.638334 266.544879 
L 150.691017 266.311624 
L 150.7437 265.961742 
L 151.059798 265.495232 
L 151.217847 265.495232 
L 151.375895 265.261977 
L 151.533944 264.562213 
L 151.691993 264.445586 
L 151.797359 264.562213 
L 151.850042 263.862449 
L 151.902724 261.646528 
L 152.166139 260.130372 
L 152.587602 259.31398 
L 152.956383 259.080725 
L 153.535895 259.080725 
L 153.851992 258.730843 
L 154.062724 257.681197 
L 154.431505 256.514923 
L 155.0637 255.348649 
L 155.80126 252.899473 
L 156.222724 252.432964 
L 156.69687 252.083082 
L 157.06565 252.083082 
L 157.803211 251.733199 
L 158.277357 250.916808 
L 158.698821 250.333671 
L 159.331016 249.750534 
L 159.752479 248.11775 
L 160.12126 247.534613 
L 160.49004 247.184731 
L 160.806138 247.068104 
L 161.069552 246.718221 
L 161.38565 246.718221 
L 161.491015 246.834849 
L 161.596381 246.718221 
L 161.75443 245.785202 
L 162.017845 245.551947 
L 162.65004 244.269046 
L 162.808088 242.636263 
L 163.124186 241.703243 
L 163.598332 239.487323 
L 164.125161 237.971167 
L 168.129063 236.571638 
L 168.813941 236.221756 
L 169.34077 236.221756 
L 169.551502 235.988501 
L 169.867599 235.988501 
L 169.972965 235.871874 
L 170.131014 235.871874 
L 170.447111 235.055482 
L 170.552477 234.472345 
L 170.868575 234.005835 
L 171.131989 234.005835 
L 171.290038 233.422698 
L 171.395404 234.005835 
L 172.132965 230.157131 
L 172.659794 228.640975 
L 173.344672 227.707956 
L 174.714428 226.658309 
L 175.241257 225.608663 
L 175.873452 225.025526 
L 177.190525 224.209134 
L 178.296866 223.859252 
L 178.71833 223.859252 
L 180.035402 223.276115 
L 180.193451 223.159487 
L 180.562232 222.226468 
L 180.772963 221.526704 
L 181.089061 221.293449 
L 181.457841 221.176822 
L 182.195402 220.593685 
L 182.616865 220.943567 
L 183.091012 220.127175 
L 184.460768 219.077529 
L 185.145645 218.844274 
L 185.883206 218.144509 
L 187.094913 217.21149 
L 187.885157 216.045216 
L 188.411986 215.345452 
L 189.149547 214.878942 
L 189.939791 214.645687 
L 190.624669 214.179178 
L 191.256864 214.062551 
L 192.363205 213.596041 
L 192.890034 213.246159 
L 194.628571 212.896277 
L 195.102717 212.663022 
L 196.314424 210.447101 
L 197.631497 209.397455 
L 198.105643 208.69769 
L 200.318326 207.298162 
L 201.161252 206.598397 
L 203.268569 205.548751 
L 204.37491 204.499104 
L 205.428569 203.79934 
L 206.53491 202.633066 
L 207.167105 202.166556 
L 207.904666 201.816674 
L 208.536861 201.700047 
L 209.116373 201.816674 
L 209.643202 202.049929 
L 210.275397 201.933301 
L 211.065641 202.283184 
L 211.645153 203.33283 
L 211.961251 204.848986 
L 211.855885 205.782005 
L 211.697836 207.881299 
L 211.539787 208.464436 
L 211.118324 209.047572 
L 211.118324 210.680356 
L 210.960275 212.196512 
L 210.644178 213.712668 
L 209.801251 215.228824 
L 208.800275 218.844274 
L 208.589544 220.243803 
L 207.641251 223.742624 
L 206.640276 225.142153 
L 206.53491 225.142153 
L 206.53491 225.142153 
L 206.482227 225.258781 
L 206.482227 225.258781 
L 206.376861 228.057838 
L 206.113447 228.291093 
L 205.797349 228.174465 
L 205.691983 228.524348 
L 205.375886 234.005835 
L 204.954422 234.938854 
L 204.480276 235.521991 
L 204.164179 235.521991 
L 204.00613 235.405364 
L 203.953447 235.055482 
L 204.00613 234.822227 
L 203.795398 235.988501 
L 203.742715 239.020813 
L 203.479301 239.487323 
L 203.11052 239.487323 
L 202.899789 239.953832 
L 202.794423 242.403008 
L 202.478325 244.502301 
L 201.951496 246.601594 
L 201.213935 248.467632 
L 198.790521 252.782846 
L 198.158326 255.465276 
L 197.631497 254.882139 
L 197.631497 254.882139 
L 197.631497 254.765512 
L 197.526131 257.914451 
L 197.315399 258.497588 
L 196.683204 259.080725 
L 196.577839 261.180019 
L 196.261741 262.229665 
L 195.998326 262.696175 
L 195.840278 263.162684 
L 195.734912 263.162684 
L 195.682229 262.812802 
L 195.682229 263.512566 
L 195.418814 266.894761 
L 194.997351 268.061035 
L 194.470522 268.644172 
L 193.943693 268.994054 
L 193.627595 269.577191 
L 193.364181 270.393583 
L 192.837351 270.97672 
L 192.521254 271.093347 
L 192.521254 271.093347 
L 192.099791 272.726131 
L 191.836376 272.959386 
L 191.73101 274.009032 
L 191.256864 278.090991 
L 190.677352 279.373892 
L 189.939791 279.840402 
L 189.412962 280.773421 
L 189.044181 282.17295 
L 188.622718 282.989342 
L 187.885157 286.721418 
L 187.200279 288.00432 
L 186.936865 288.237574 
L 186.410035 295.118591 
L 185.461743 299.083922 
L 183.933938 301.766352 
L 180.614915 305.848311 
L 180.140768 306.897958 
L 179.824671 306.897958 
L 179.666622 305.381802 
L 179.666622 305.031919 
L 179.719305 308.297487 
L 179.45589 310.630034 
L 178.929061 311.563054 
L 177.875403 312.262818 
L 177.401257 313.195837 
L 177.137842 314.128856 
L 176.874427 315.645012 
L 175.399306 319.691983 
L 174.503696 321.686312 
L 173.186623 324.042185 
L 172.76516 325.045181 
L 172.396379 325.406726 
L 171.86955 326.841242 
L 171.448087 328.345736 
L 170.921258 331.378048 
L 170.60516 331.914534 
L 170.183697 333.477341 
L 169.709551 335.098462 
L 169.393453 336.06647 
L 169.024673 337.582626 
L 167.971014 340.474985 
L 167.233453 342.049455 
L 166.548576 343.239054 
L 164.019796 346.714551 
L 163.861747 347.77586 
L 163.3876 349.257028 
L 162.175893 352.172713 
L 161.859796 353.455614 
L 161.649064 353.922124 
L 161.332967 355.193362 
L 160.806138 355.718186 
L 160.595406 356.219684 
L 160.331991 357.479259 
L 159.541748 359.846796 
L 158.646138 363.742151 
L 158.013943 366.028048 
L 155.537846 371.311269 
L 153.799309 374.343581 
L 152.745651 375.498192 
L 152.376871 375.591494 
L 152.429554 374.191965 
L 152.640285 373.865409 
L 152.745651 373.982036 
L 152.745651 373.95871 
L 152.640285 374.285267 
L 152.534919 374.565173 
L 152.166139 376.12798 
L 152.113456 376.291258 
L 152.060773 376.104655 
L 152.00809 376.361235 
L 151.902724 378.250599 
L 151.797359 379.171955 
L 151.481261 379.556825 
L 151.112481 379.731767 
L 150.7437 380.069986 
L 150.269554 381.026331 
L 149.953457 380.781413 
L 149.953457 380.898041 
L 149.795408 381.399538 
L 149.637359 382.962345 
L 149.426627 383.697098 
L 148.21492 386.017983 
L 147.582725 386.892689 
L 147.319311 387.4525 
L 147.003213 387.767394 
L 146.897847 387.953998 
L 146.160286 390.391511 
L 145.896872 390.694742 
L 145.791506 391.009636 
L 145.68614 391.289542 
L 145.580774 391.756051 
L 145.422726 391.954318 
L 145.370043 393.703729 
L 145.159311 394.333517 
L 144.685165 394.578434 
L 144.632482 395.418151 
L 144.579799 394.800026 
L 144.474433 395.091595 
L 144.263701 396.736041 
L 143.947604 397.214213 
L 143.736872 397.494119 
L 143.578823 397.587421 
L 143.473458 397.79735 
L 143.315409 398.205546 
L 143.210043 398.64873 
L 142.999311 399.11524 
L 142.683214 400.246526 
L 142.156385 401.377811 
L 141.734921 402.940618 
L 141.260775 403.558744 
L 140.891995 404.153543 
L 140.62858 404.678367 
L 140.417848 404.73668 
L 140.417848 404.86497 
L 140.312483 404.86497 
L 140.154434 405.0749 
L 140.049068 405.541409 
L 139.73297 407.010915 
L 139.311507 407.862295 
L 139.153458 408.072224 
L 139.048093 408.398781 
L 138.942727 409.483415 
L 138.742532 410.124866 
L 137.572971 411.629359 
L 136.930239 412.65568 
L 136.387605 414.673334 
L 136.166337 415.816283 
L 135.802825 416.586024 
L 135.576288 417.484055 
L 134.875605 418.253795 
L 134.475215 418.61534 
L 134.301362 419.571685 
L 134.206532 419.151826 
L 133.890435 419.653324 
L 133.584874 419.956555 
L 133.453167 420.049857 
L 132.057069 423.688632 
L 130.892777 425.189627 
L 130.792679 425.266601 
L 130.523996 425.968698 
L 129.828582 426.908715 
L 129.633655 427.194452 
L 129.580972 427.320409 
L 129.364972 427.811411 
L 129.059411 428.232435 
L 129.059411 428.183452 
L 128.96985 428.514674 
L 128.896094 428.526337 
L 128.843411 428.374721 
L 128.822338 428.641798 
L 128.81707 428.672121 
L 128.780192 428.57532 
L 128.685363 428.256927 
L 128.674826 428.297747 
L 128.674826 428.983516 
L 128.78546 423.560342 
L 128.880289 419.280117 
L 129.022533 418.020541 
L 129.364972 417.145835 
L 129.728484 416.656 
L 130.086728 415.314785 
L 130.608289 412.900598 
L 130.88224 411.279477 
L 131.524972 410.206505 
L 132.331021 406.124546 
L 132.752484 405.366468 
L 132.878923 402.940618 
L 133.105459 401.4128 
L 133.50585 399.6284 
L 134.064289 398.170558 
L 135.223313 395.872998 
L 135.892386 394.881665 
L 136.045166 394.228552 
L 136.276971 390.683079 
L 136.577264 388.268892 
L 137.114629 385.948007 
L 138.679312 381.154621 
L 139.522239 378.29725 
L 140.470531 376.291258 
L 142.314433 373.422224 
L 143.473458 372.139323 
L 143.631506 372.115998 
L 143.736872 371.894406 
L 143.789555 368.967058 
L 144.105653 367.136008 
L 144.632482 366.331279 
L 145.528091 365.39826 
L 146.371018 362.890771 
L 146.739799 360.16169 
L 147.582725 356.919448 
L 148.21492 354.050414 
L 149.163213 351.601239 
L 150.37492 349.070424 
L 153.483212 341.244726 
L 154.326139 339.145433 
L 155.0637 337.780892 
L 155.853943 336.078132 
L 157.908577 331.016503 
L 158.540772 330.060159 
L 159.752479 326.899556 
L 160.911503 325.080169 
L 161.280284 323.855581 
L 161.596381 321.907904 
L 162.070528 320.461724 
L 162.65004 319.738634 
L 163.598332 319.505379 
L 163.651015 319.960226 
L 163.651015 319.505379 
L 163.651015 316.927914 
L 164.019796 314.128856 
L 164.810039 311.446426 
L 165.916381 309.230506 
L 167.075405 307.364467 
L 168.866624 305.498429 
L 169.814916 303.632391 
L 170.394429 302.116235 
L 170.815892 300.949961 
L 170.973941 299.433804 
L 171.237355 298.034276 
L 172.185648 295.934983 
L 173.239306 291.503141 
L 173.976867 290.22024 
L 174.714428 288.704084 
L 176.031501 283.455851 
L 178.296866 280.890048 
L 178.981744 280.073657 
L 179.403207 278.674128 
L 180.878329 271.559857 
L 181.931987 267.82778 
L 183.354426 263.745821 
L 184.987597 259.547235 
L 186.568084 253.832493 
L 188.253938 249.050769 
L 190.361254 246.484967 
L 193.627595 244.152419 
L 194.575888 243.569282 
L 195.471497 242.28638 
L 195.734912 241.703243 
L 196.209058 239.953832 
L 196.946619 238.204421 
L 197.315399 236.338383 
L 197.789546 234.938854 
L 198.369058 232.722934 
L 199.844179 230.740268 
L 200.58174 229.807249 
L 201.582716 227.358074 
L 201.951496 226.658309 
L 202.320277 225.608663 
L 203.11052 224.325761 
L 203.795398 221.526704 
L 204.691008 220.243803 
L 205.059788 219.89392 
L 205.323203 219.427411 
L 205.586617 218.727646 
L 205.902715 218.261137 
L 206.53491 217.911255 
L 206.745642 217.911255 
L 207.061739 217.561372 
L 207.219788 217.561372 
L 207.483203 217.21149 
L 207.851983 215.578707 
L 208.16808 215.112197 
L 208.536861 214.295805 
L 208.852958 212.663022 
L 209.379788 210.796983 
L 210.170031 209.863964 
L 211.065641 209.397455 
L 211.750519 209.280827 
L 212.540763 208.814318 
L 212.962226 208.581063 
L 213.225641 208.347808 
L 213.331006 207.997926 
L 213.699787 207.648044 
L 214.226616 206.715025 
L 214.648079 206.48177 
L 214.753445 206.48177 
L 214.964177 206.131888 
L 215.122226 206.01526 
L 215.859786 204.615731 
L 216.491981 203.79934 
L 216.65003 203.682712 
L 217.229542 202.283184 
L 217.54564 201.816674 
L 217.967103 201.933301 
L 218.441249 201.350164 
L 219.020761 200.067263 
L 219.547591 199.484126 
L 220.917347 198.900989 
L 221.391493 198.900989 
L 221.654907 198.784362 
L 221.918322 198.784362 
L 221.971005 199.017616 
L 222.234419 198.667734 
L 222.392468 198.551107 
L 222.497834 198.551107 
L 222.6032 198.434479 
L 222.97198 197.50146 
L 223.498809 197.268205 
L 223.86759 196.218559 
L 224.131004 195.518795 
L 224.973931 194.935658 
L 225.290029 194.935658 
L 225.711492 194.81903 
L 226.080272 194.81903 
L 226.817833 194.235893 
L 227.081248 194.235893 
L 228.55637 193.536129 
L 228.767101 193.536129 
L 229.399296 193.186247 
L 229.82076 193.186247 
L 230.242223 192.60311 
L 230.347589 192.369855 
L 230.611003 191.203581 
L 231.137833 190.620444 
L 231.717345 190.270562 
L 232.296857 188.637778 
L 232.612954 188.287896 
L 233.771978 187.821386 
L 233.930027 187.704759 
L 234.140759 187.704759 
L 234.298808 187.588132 
L 234.509539 187.588132 
L 235.721246 186.888367 
L 236.616856 185.372211 
L 237.354417 184.905702 
L 238.882221 182.923036 
L 240.041246 182.456526 
L 240.462709 181.990017 
L 240.726124 181.873389 
L 241.779782 180.823743 
L 242.148562 180.707115 
L 242.306611 180.707115 
L 242.46466 180.590488 
L 242.780757 180.707115 
L 243.149538 180.707115 
L 243.307587 180.240606 
L 244.09783 176.275274 
L 245.046123 173.826099 
L 248.733927 168.577866 
L 250.156366 167.411592 
L 251.68417 166.828455 
L 253.211975 166.711828 
L 254.318316 166.828455 
L 255.740755 166.361946 
L 256.320267 165.895436 
L 257.057828 164.962417 
L 257.900755 163.096378 
L 259.007096 162.279987 
L 260.324169 162.163359 
L 261.693925 161.930104 
L 262.800266 162.163359 
L 263.59051 161.813477 
L 264.749534 161.69685 
L 265.22368 161.69685 
L 265.592461 161.813477 
L 266.593436 161.813477 
L 267.067582 162.279987 
L 267.910509 162.863124 
L 268.331972 162.863124 
L 268.542704 162.979751 
L 268.964167 162.863124 
L 269.174899 162.396614 
L 269.859777 161.580222 
L 270.650021 160.413948 
L 271.861728 159.830811 
L 272.07246 159.830811 
L 272.283191 159.597557 
L 272.493923 159.947439 
L 272.757337 159.480929 
L 273.020752 158.314655 
L 273.389532 157.614891 
L 273.810996 157.148381 
L 274.706605 156.448617 
L 275.602215 154.815833 
L 276.181727 154.349324 
L 276.813922 153.999442 
L 277.393434 153.882814 
L 277.972946 153.649559 
L 278.499775 153.649559 
L 279.606117 153.299677 
L 282.767092 150.967129 
L 284.294896 150.617247 
L 284.927091 150.733874 
L 285.559286 150.267365 
L 286.244164 149.450973 
L 286.981725 149.217718 
L 287.982701 149.217718 
L 288.667579 148.984464 
L 288.930993 148.517954 
L 289.247091 147.584935 
L 289.668554 146.88517 
L 290.1427 146.418661 
L 290.669529 146.185406 
L 292.039285 145.252387 
L 292.460749 145.135759 
L 292.882212 144.086113 
L 293.409041 143.153094 
L 294.041236 142.803212 
L 296.622699 142.453329 
L 297.202211 142.453329 
L 297.676357 142.569957 
L 298.150504 142.569957 
L 298.519284 142.686584 
L 299.414894 142.453329 
L 299.941723 142.453329 
L 300.837333 142.103447 
L 302.154405 142.103447 
L 302.470503 141.98682 
L 302.997332 141.636938 
L 303.31343 141.636938 
L 303.576844 141.403683 
L 303.892942 141.52031 
L 304.472454 141.053801 
L 305.210015 141.287055 
L 306.21099 140.937173 
L 306.474405 141.053801 
L 308.107575 140.237409 
L 308.423673 140.237409 
L 308.73977 140.120781 
L 308.950502 140.120781 
L 309.266599 140.004154 
L 309.582697 140.004154 
L 309.898794 139.770899 
L 310.320258 139.770899 
L 310.478306 139.887527 
L 310.794404 139.654272 
L 310.952453 139.770899 
L 311.848062 139.187762 
L 313.375867 139.187762 
L 314.166111 138.721253 
L 315.219769 138.254743 
L 315.746598 137.671606 
L 315.851964 137.554979 
L 316.115379 137.554979 
L 316.32611 137.671606 
L 316.431476 137.671606 
L 316.536842 137.554979 
L 316.642208 138.37137 
L 317.063671 137.554979 
L 317.327086 137.554979 
L 317.643183 137.438351 
L 317.853915 137.554979 
L 318.011964 137.438351 
L 318.433427 137.554979 
L 318.591476 137.438351 
L 318.696842 137.554979 
L 319.012939 137.554979 
L 319.223671 137.438351 
L 319.487085 137.321724 
L 319.645134 137.321724 
L 319.961232 137.205097 
L 320.382695 137.205097 
L 320.593427 137.088469 
L 320.698792 137.088469 
L 320.962207 136.971842 
L 321.120256 136.971842 
L 321.330987 136.855214 
L 321.436353 136.855214 
L 321.541719 136.738587 
L 321.647085 136.855214 
L 321.752451 136.738587 
L 321.857817 136.855214 
L 322.121231 136.62196 
L 322.226597 136.62196 
L 322.964158 136.15545 
L 323.280255 136.272077 
L 323.859768 135.68894 
L 324.017816 135.68894 
L 324.544645 134.989176 
L 324.966109 134.522666 
L 325.282206 134.406039 
L 325.809035 134.172784 
L 326.44123 134.172784 
L 326.862694 134.056157 
L 327.33684 134.056157 
L 327.442206 133.939529 
L 327.705621 134.056157 
L 327.969035 133.939529 
L 328.074401 134.056157 
L 328.443181 133.589647 
L 328.811962 132.889883 
L 330.023669 132.540001 
L 330.603181 132.889883 
L 330.866596 132.540001 
L 331.604156 132.073491 
L 331.972937 132.306746 
L 332.3944 132.073491 
L 332.921229 132.073491 
L 333.184644 131.723609 
L 333.395376 131.840236 
L 333.553424 131.723609 
L 333.974888 131.023845 
L 334.343668 130.673962 
L 335.081229 130.557335 
L 335.397326 130.557335 
L 336.029521 130.32408 
L 336.503668 130.557335 
L 336.714399 130.440708 
L 336.872448 130.090825 
L 337.135863 130.32408 
L 337.399277 130.32408 
L 337.610009 129.974198 
L 338.294887 129.507688 
L 338.821716 128.924551 
L 339.348545 128.574669 
L 340.770984 128.224787 
L 341.24513 127.874905 
L 342.404155 127.64165 
L 342.667569 127.64165 
L 343.194398 127.291768 
L 343.879276 126.592003 
L 344.353422 126.592003 
L 344.827569 125.892239 
L 345.301715 126.242121 
L 345.828544 126.125494 
L 346.355373 125.42573 
L 348.09391 125.775612 
L 350.043178 125.775612 
L 350.201226 125.658984 
L 350.833421 125.892239 
L 350.99147 125.775612 
L 351.307568 125.892239 
L 351.412933 125.775612 
L 351.676348 125.892239 
L 352.150494 125.892239 
L 352.466592 125.775612 
L 352.782689 125.892239 
L 352.940738 125.892239 
L 353.256836 125.775612 
L 353.414884 125.892239 
L 353.783665 125.775612 
L 354.099762 125.892239 
L 354.679274 125.892239 
L 354.78464 126.008867 
L 355.311469 126.008867 
L 355.627567 126.242121 
L 355.732933 126.125494 
L 355.943664 126.242121 
L 356.04903 126.242121 
L 356.154396 126.125494 
L 356.365128 126.242121 
L 356.733908 126.242121 
L 356.94464 126.125494 
L 357.102689 126.242121 
L 357.260737 126.242121 
L 357.31342 126.125494 
L 357.366103 126.242121 
L 357.418786 126.242121 
L 357.524152 126.008867 
L 357.734884 125.075847 
L 357.892932 124.725965 
L 358.314396 124.49271 
L 358.735859 124.026201 
L 359.104639 123.676319 
L 359.368054 123.326436 
L 359.526103 123.326436 
L 361.001224 122.27679 
L 361.211956 122.27679 
L 361.422688 122.160162 
L 361.896834 122.160162 
L 362.687078 121.693653 
L 363.003175 121.693653 
L 363.793419 121.227143 
L 364.056834 120.877261 
L 364.320248 120.760634 
L 364.794395 120.294124 
L 365.268541 120.060869 
L 365.479272 120.060869 
L 365.953419 119.827615 
L 366.901711 119.361105 
L 367.05976 119.361105 
L 367.533906 119.12785 
L 367.797321 119.12785 
L 367.95537 118.428086 
L 368.218784 117.961576 
L 369.483174 117.378439 
L 369.851955 117.378439 
L 370.589515 117.145184 
L 371.74854 116.212165 
L 372.170003 116.095538 
L 372.538783 116.678675 
L 372.907564 115.862283 
L 374.171954 114.696009 
L 374.488051 114.112872 
L 375.330978 113.529735 
L 376.015856 113.29648 
L 376.648051 112.829971 
L 377.069514 112.246834 
L 378.017807 111.896952 
L 379.071465 111.780324 
L 379.492929 111.780324 
L 380.388538 111.547069 
L 380.757319 111.547069 
L 381.810977 111.08056 
L 382.864635 110.847305 
L 383.970977 110.147541 
L 384.287074 110.264168 
L 384.866586 110.030913 
L 385.077318 110.147541 
L 386.078293 110.147541 
L 386.499757 110.030913 
L 387.342683 109.564404 
L 389.344634 109.214521 
L 389.976829 109.214521 
L 394.086097 108.281502 
L 394.402194 108.39813 
L 394.612926 108.281502 
L 394.87634 108.281502 
L 395.508535 107.93162 
L 395.877316 107.814993 
L 396.246096 107.231856 
L 396.66756 106.881974 
L 400.197315 105.948954 
L 400.671461 105.7157 
L 400.82951 105.7157 
L 401.092925 105.482445 
L 401.356339 105.482445 
L 401.619754 105.365817 
L 401.935851 105.365817 
L 402.831461 105.132563 
L 403.35829 105.132563 
L 403.937802 104.899308 
L 404.148534 104.899308 
L 404.359266 104.78268 
L 404.675363 104.899308 
L 404.991461 104.78268 
L 405.254875 104.899308 
L 405.781704 104.78268 
L 406.045119 104.78268 
L 406.413899 104.666053 
L 406.624631 104.666053 
L 406.940729 104.549426 
L 407.362192 104.549426 
L 407.520241 104.432798 
L 408.04707 104.432798 
L 408.257802 104.316171 
L 408.41585 104.082916 
L 408.626582 104.082916 
L 408.995362 103.849661 
L 409.153411 103.849661 
L 409.364143 103.966289 
L 409.574874 103.966289 
L 409.68024 104.082916 
L 409.943655 103.966289 
L 410.154387 103.966289 
L 410.259752 104.082916 
L 410.417801 103.966289 
L 410.523167 104.082916 
L 410.733899 103.966289 
L 410.839265 103.966289 
L 410.997313 104.082916 
L 411.208045 103.966289 
L 411.47146 103.849661 
L 411.576825 103.499779 
L 412.156337 103.149897 
L 412.367069 103.849661 
L 412.577801 103.849661 
L 412.841215 103.033269 
L 413.10463 103.033269 
L 413.315362 102.916642 
L 413.894874 102.916642 
L 414.316337 102.800015 
L 414.790483 102.800015 
L 415.001215 102.683387 
L 415.211947 102.800015 
L 415.475361 102.683387 
L 415.738776 102.683387 
L 415.949508 102.450133 
L 416.054873 102.56676 
L 416.370971 102.333505 
L 416.52902 102.333505 
L 416.634385 102.216878 
L 416.792434 102.216878 
L 416.8978 102.10025 
L 417.055849 102.10025 
L 417.26658 101.983623 
L 417.477312 101.983623 
L 417.582678 101.866996 
L 417.740727 101.983623 
L 417.951458 101.866996 
L 418.425605 101.866996 
L 418.478288 101.983623 
L 418.741702 101.866996 
L 419.005117 101.866996 
L 419.321214 101.633741 
L 419.479263 101.750368 
L 419.848043 101.400486 
L 420.269507 100.817349 
L 420.427556 100.817349 
L 420.532921 100.700722 
L 420.69097 100.700722 
L 421.007068 100.584094 
L 421.270482 100.584094 
L 421.744628 100.350839 
L 421.902677 100.350839 
L 422.008043 100.467467 
L 422.640238 100.467467 
L 422.745604 100.350839 
L 423.21975 100.350839 
L 423.746579 100.000957 
L 423.904628 100.000957 
L 424.694872 98.951311 
L 425.221701 98.601428 
L 426.117311 98.134919 
L 426.328042 98.018291 
L 426.802189 97.785037 
L 426.960237 97.785037 
L 427.276335 97.551782 
L 427.539749 97.551782 
L 427.697798 97.318527 
L 427.855847 97.318527 
L 428.27731 97.085272 
L 428.540725 97.085272 
L 429.647066 96.618763 
L 431.543651 96.618763 
L 432.07048 96.268881 
L 432.386578 96.268881 
L 432.755358 95.918998 
L 433.071456 95.918998 
L 433.387553 95.802371 
L 433.703651 95.918998 
L 433.861699 95.802371 
L 434.335846 95.802371 
L 434.651943 95.685744 
L 434.809992 95.685744 
L 435.231455 95.918998 
L 435.442187 95.802371 
L 435.600236 95.918998 
L 436.39048 95.452489 
L 436.495845 95.452489 
L 436.811943 95.335861 
L 436.917309 95.335861 
L 437.233406 95.219234 
L 437.444138 95.335861 
L 437.602187 95.219234 
L 437.812918 95.219234 
L 437.970967 95.918998 
L 438.181699 95.219234 
L 438.497796 95.102607 
L 439.446089 95.102607 
L 439.709503 94.985979 
L 439.920235 95.102607 
L 440.92121 94.636097 
L 441.131942 94.752724 
L 441.764137 94.169587 
L 441.974869 93.936333 
L 442.238283 93.936333 
L 442.975844 93.703078 
L 443.555356 93.703078 
L 444.082186 93.119941 
L 445.135844 93.119941 
L 445.768039 92.653431 
L 446.084136 92.653431 
L 446.610966 92.420176 
L 446.927063 92.536804 
L 447.190478 92.420176 
L 447.506575 92.420176 
L 447.76999 92.303549 
L 448.086087 92.303549 
L 449.297794 91.837039 
L 450.351453 91.487157 
L 450.878282 91.137275 
L 451.247062 91.020648 
L 451.405111 91.137275 
L 451.721209 90.204256 
L 452.142672 89.854374 
L 452.722184 89.387864 
L 454.039257 88.921355 
L 454.249989 88.804727 
L 454.618769 88.454845 
L 454.882184 88.104963 
L 455.250964 88.104963 
L 455.72511 87.988335 
L 456.199257 87.988335 
L 457.832427 87.055316 
L 458.359256 87.055316 
L 460.519256 86.472179 
L 460.835353 86.588807 
L 461.625597 89.271237 
L 462.731938 92.070294 
L 465.629499 172.89308 
L 465.629499 172.89308 
" clip-path="url(#p56862a5ca7)" style="fill: none; stroke: #407fb7; stroke-width: 2; stroke-linecap: square"/>
   </g>
   <g id="line2d_17">
    <path d="M 86.312492 435.421348 
L 128.004664 290.986021 
L 169.966248 228.991209 
L 212.006208 208.977553 
L 254.071503 168.72342 
L 296.250661 128.467016 
L 338.502681 100.566767 
L 380.834034 79.086614 
L 423.399893 88.423038 
L 465.751611 122.665522 
" clip-path="url(#p56862a5ca7)" style="fill: none; stroke: #d85c41; stroke-width: 2; stroke-linecap: square"/>
   </g>
   <g id="patch_3">
    <path d="M 67.322835 454.110236 
L 67.322835 61.228346 
" style="fill: none; stroke: #000000; stroke-width: 0.8; stroke-linejoin: miter; stroke-linecap: square"/>
   </g>
   <g id="patch_4">
    <path d="M 67.322835 454.110236 
L 484.724409 454.110236 
" style="fill: none; stroke: #000000; stroke-width: 0.8; stroke-linejoin: miter; stroke-linecap: square"/>
   </g>
   <g id="legend_1">
    <g id="patch_5">
     <path d="M 77.822835 115.645534 
L 224.546272 115.645534 
Q 227.546272 115.645534 227.546272 112.645534 
L 227.546272 71.728346 
Q 227.546272 68.728346 224.546272 68.728346 
L 77.822835 68.728346 
Q 74.822835 68.728346 74.822835 71.728346 
L 74.822835 112.645534 
Q 74.822835 115.645534 77.822835 115.645534 
z
" style="fill: #ffffff; opacity: 0.8; stroke: #cccccc; stroke-linejoin: miter"/>
    </g>
    <g id="line2d_18">
     <path d="M 80.822835 79.978346 
L 95.822835 79.978346 
L 110.822835 79.978346 
" style="fill: none; stroke: #407fb7; stroke-width: 2; stroke-linecap: square"/>
    </g>
    <g id="text_18">
     <!-- WB304 - A -->
     <g transform="translate(122.822835 85.228346) scale(0.15 -0.15)">
      <defs>
       <path id="TimesNewRomanPSMT-57" d="M 5991 4238 
L 5991 4122 
Q 5825 4122 5722 4062 
Q 5619 4003 5525 3841 
Q 5463 3731 5328 3319 
L 4147 -97 
L 4022 -97 
L 3056 2613 
L 2097 -97 
L 1984 -97 
L 725 3422 
Q 584 3816 547 3888 
Q 484 4006 376 4064 
Q 269 4122 84 4122 
L 84 4238 
L 1653 4238 
L 1653 4122 
L 1578 4122 
Q 1413 4122 1325 4047 
Q 1238 3972 1238 3866 
Q 1238 3756 1375 3363 
L 2209 984 
L 2913 3006 
L 2788 3363 
L 2688 3647 
Q 2622 3803 2541 3922 
Q 2500 3981 2441 4022 
Q 2363 4078 2284 4103 
Q 2225 4122 2097 4122 
L 2097 4238 
L 3747 4238 
L 3747 4122 
L 3634 4122 
Q 3459 4122 3378 4047 
Q 3297 3972 3297 3844 
Q 3297 3684 3438 3288 
L 4250 984 
L 5056 3319 
Q 5194 3706 5194 3856 
Q 5194 3928 5148 3990 
Q 5103 4053 5034 4078 
Q 4916 4122 4725 4122 
L 4725 4238 
L 5991 4238 
z
" transform="scale(0.015625)"/>
       <path id="TimesNewRomanPSMT-42" d="M 2956 2163 
Q 3397 2069 3616 1863 
Q 3919 1575 3919 1159 
Q 3919 844 3719 555 
Q 3519 266 3170 133 
Q 2822 0 2106 0 
L 106 0 
L 106 116 
L 266 116 
Q 531 116 647 284 
Q 719 394 719 750 
L 719 3488 
Q 719 3881 628 3984 
Q 506 4122 266 4122 
L 106 4122 
L 106 4238 
L 1938 4238 
Q 2450 4238 2759 4163 
Q 3228 4050 3475 3764 
Q 3722 3478 3722 3106 
Q 3722 2788 3528 2536 
Q 3334 2284 2956 2163 
z
M 1319 2331 
Q 1434 2309 1582 2298 
Q 1731 2288 1909 2288 
Q 2366 2288 2595 2386 
Q 2825 2484 2947 2687 
Q 3069 2891 3069 3131 
Q 3069 3503 2766 3765 
Q 2463 4028 1881 4028 
Q 1569 4028 1319 3959 
L 1319 2331 
z
M 1319 306 
Q 1681 222 2034 222 
Q 2600 222 2897 476 
Q 3194 731 3194 1106 
Q 3194 1353 3059 1581 
Q 2925 1809 2622 1940 
Q 2319 2072 1872 2072 
Q 1678 2072 1540 2065 
Q 1403 2059 1319 2044 
L 1319 306 
z
" transform="scale(0.015625)"/>
       <path id="TimesNewRomanPSMT-2d" d="M 259 1672 
L 1875 1672 
L 1875 1200 
L 259 1200 
L 259 1672 
z
" transform="scale(0.015625)"/>
       <path id="TimesNewRomanPSMT-41" d="M 2928 1419 
L 1288 1419 
L 1000 750 
Q 894 503 894 381 
Q 894 284 986 211 
Q 1078 138 1384 116 
L 1384 0 
L 50 0 
L 50 116 
Q 316 163 394 238 
Q 553 388 747 847 
L 2238 4334 
L 2347 4334 
L 3822 809 
Q 4000 384 4145 257 
Q 4291 131 4550 116 
L 4550 0 
L 2878 0 
L 2878 116 
Q 3131 128 3220 200 
Q 3309 272 3309 375 
Q 3309 513 3184 809 
L 2928 1419 
z
M 2841 1650 
L 2122 3363 
L 1384 1650 
L 2841 1650 
z
" transform="scale(0.015625)"/>
      </defs>
      <use xlink:href="#TimesNewRomanPSMT-57"/>
      <use xlink:href="#TimesNewRomanPSMT-42" transform="translate(94.384766 0)"/>
      <use xlink:href="#TimesNewRomanPSMT-33" transform="translate(161.083984 0)"/>
      <use xlink:href="#TimesNewRomanPSMT-30" transform="translate(211.083984 0)"/>
      <use xlink:href="#TimesNewRomanPSMT-34" transform="translate(261.083984 0)"/>
      <use xlink:href="#TimesNewRomanPSMT-20" transform="translate(311.083984 0)"/>
      <use xlink:href="#TimesNewRomanPSMT-2d" transform="translate(336.083984 0)"/>
      <use xlink:href="#TimesNewRomanPSMT-20" transform="translate(369.384766 0)"/>
      <use xlink:href="#TimesNewRomanPSMT-41" transform="translate(388.884766 0)"/>
     </g>
    </g>
    <g id="line2d_19">
     <path d="M 80.822835 101.18694 
L 95.822835 101.18694 
L 110.822835 101.18694 
" style="fill: none; stroke: #d85c41; stroke-width: 2; stroke-linecap: square"/>
    </g>
    <g id="text_19">
     <!-- FE - 3D discrete -->
     <g transform="translate(122.822835 106.43694) scale(0.15 -0.15)">
      <defs>
       <path id="TimesNewRomanPSMT-45" d="M 1338 4006 
L 1338 2331 
L 2269 2331 
Q 2631 2331 2753 2441 
Q 2916 2584 2934 2947 
L 3050 2947 
L 3050 1472 
L 2934 1472 
Q 2891 1781 2847 1869 
Q 2791 1978 2662 2040 
Q 2534 2103 2269 2103 
L 1338 2103 
L 1338 706 
Q 1338 425 1363 364 
Q 1388 303 1450 267 
Q 1513 231 1688 231 
L 2406 231 
Q 2766 231 2928 281 
Q 3091 331 3241 478 
Q 3434 672 3638 1063 
L 3763 1063 
L 3397 0 
L 131 0 
L 131 116 
L 281 116 
Q 431 116 566 188 
Q 666 238 702 338 
Q 738 438 738 747 
L 738 3500 
Q 738 3903 656 3997 
Q 544 4122 281 4122 
L 131 4122 
L 131 4238 
L 3397 4238 
L 3444 3309 
L 3322 3309 
Q 3256 3644 3176 3769 
Q 3097 3894 2941 3959 
Q 2816 4006 2500 4006 
L 1338 4006 
z
" transform="scale(0.015625)"/>
       <path id="TimesNewRomanPSMT-64" d="M 2222 322 
Q 2013 103 1813 7 
Q 1613 -88 1381 -88 
Q 913 -88 563 304 
Q 213 697 213 1313 
Q 213 1928 600 2439 
Q 988 2950 1597 2950 
Q 1975 2950 2222 2709 
L 2222 3238 
Q 2222 3728 2198 3840 
Q 2175 3953 2125 3993 
Q 2075 4034 2000 4034 
Q 1919 4034 1784 3984 
L 1744 4094 
L 2597 4444 
L 2738 4444 
L 2738 1134 
Q 2738 631 2761 520 
Q 2784 409 2836 365 
Q 2888 322 2956 322 
Q 3041 322 3181 375 
L 3216 266 
L 2366 -88 
L 2222 -88 
L 2222 322 
z
M 2222 541 
L 2222 2016 
Q 2203 2228 2109 2403 
Q 2016 2578 1861 2667 
Q 1706 2756 1559 2756 
Q 1284 2756 1069 2509 
Q 784 2184 784 1559 
Q 784 928 1059 592 
Q 1334 256 1672 256 
Q 1956 256 2222 541 
z
" transform="scale(0.015625)"/>
      </defs>
      <use xlink:href="#TimesNewRomanPSMT-46"/>
      <use xlink:href="#TimesNewRomanPSMT-45" transform="translate(55.615234 0)"/>
      <use xlink:href="#TimesNewRomanPSMT-20" transform="translate(116.699219 0)"/>
      <use xlink:href="#TimesNewRomanPSMT-2d" transform="translate(141.699219 0)"/>
      <use xlink:href="#TimesNewRomanPSMT-20" transform="translate(175 0)"/>
      <use xlink:href="#TimesNewRomanPSMT-33" transform="translate(200 0)"/>
      <use xlink:href="#TimesNewRomanPSMT-44" transform="translate(250 0)"/>
      <use xlink:href="#TimesNewRomanPSMT-20" transform="translate(322.216797 0)"/>
      <use xlink:href="#TimesNewRomanPSMT-64" transform="translate(347.216797 0)"/>
      <use xlink:href="#TimesNewRomanPSMT-69" transform="translate(397.216797 0)"/>
      <use xlink:href="#TimesNewRomanPSMT-73" transform="translate(425 0)"/>
      <use xlink:href="#TimesNewRomanPSMT-63" transform="translate(463.916016 0)"/>
      <use xlink:href="#TimesNewRomanPSMT-72" transform="translate(508.300781 0)"/>
      <use xlink:href="#TimesNewRomanPSMT-65" transform="translate(541.601562 0)"/>
      <use xlink:href="#TimesNewRomanPSMT-74" transform="translate(585.986328 0)"/>
      <use xlink:href="#TimesNewRomanPSMT-65" transform="translate(613.769531 0)"/>
     </g>
    </g>
   </g>
  </g>
 </g>
 <defs>
  <clipPath id="p56862a5ca7">
   <rect x="67.322835" y="61.228346" width="417.401575" height="392.88189"/>
  </clipPath>
 </defs>
</svg>
