<?xml version="1.0" encoding="utf-8" standalone="no"?>
<!DOCTYPE svg PUBLIC "-//W3C//DTD SVG 1.1//EN"
  "http://www.w3.org/Graphics/SVG/1.1/DTD/svg11.dtd">
<svg xmlns:xlink="http://www.w3.org/1999/xlink" width="538.582677pt" height="510.23622pt" viewBox="0 0 538.582677 510.23622" xmlns="http://www.w3.org/2000/svg" version="1.1">
 <metadata>
  <rdf:RDF xmlns:dc="http://purl.org/dc/elements/1.1/" xmlns:cc="http://creativecommons.org/ns#" xmlns:rdf="http://www.w3.org/1999/02/22-rdf-syntax-ns#">
   <cc:Work>
    <dc:type rdf:resource="http://purl.org/dc/dcmitype/StillImage"/>
    <dc:date>2025-06-08T14:51:39.947457</dc:date>
    <dc:format>image/svg+xml</dc:format>
    <dc:creator>
     <cc:Agent>
      <dc:title>Matplotlib v3.10.1, https://matplotlib.org/</dc:title>
     </cc:Agent>
    </dc:creator>
   </cc:Work>
  </rdf:RDF>
 </metadata>
 <defs>
  <style type="text/css">*{stroke-linejoin: round; stroke-linecap: butt}</style>
 </defs>
 <g id="figure_1">
  <g id="patch_1">
   <path d="M 0 510.23622 
L 538.582677 510.23622 
L 538.582677 0 
L 0 0 
z
" style="fill: #ffffff"/>
  </g>
  <g id="axes_1">
   <g id="patch_2">
    <path d="M 67.322835 454.110236 
L 484.724409 454.110236 
L 484.724409 61.228346 
L 67.322835 61.228346 
z
" style="fill: #ffffff"/>
   </g>
   <g id="matplotlib.axis_1">
    <g id="xtick_1">
     <g id="line2d_1">
      <defs>
       <path id="me29abb8d49" d="M 0 0 
L 0 3.5 
" style="stroke: #000000; stroke-width: 0.8"/>
      </defs>
      <g>
       <use xlink:href="#me29abb8d49" x="86.312486" y="454.110236" style="stroke: #000000; stroke-width: 0.8"/>
      </g>
     </g>
     <g id="text_1">
      <!-- 0 -->
      <g transform="translate(82.562486 471.525861) scale(0.15 -0.15)">
       <defs>
        <path id="TimesNewRomanPSMT-30" d="M 231 2094 
Q 231 2819 450 3342 
Q 669 3866 1031 4122 
Q 1313 4325 1613 4325 
Q 2100 4325 2488 3828 
Q 2972 3213 2972 2159 
Q 2972 1422 2759 906 
Q 2547 391 2217 158 
Q 1888 -75 1581 -75 
Q 975 -75 572 641 
Q 231 1244 231 2094 
z
M 844 2016 
Q 844 1141 1059 588 
Q 1238 122 1591 122 
Q 1759 122 1940 273 
Q 2122 425 2216 781 
Q 2359 1319 2359 2297 
Q 2359 3022 2209 3506 
Q 2097 3866 1919 4016 
Q 1791 4119 1609 4119 
Q 1397 4119 1231 3928 
Q 1006 3669 925 3112 
Q 844 2556 844 2016 
z
" transform="scale(0.015625)"/>
       </defs>
       <use xlink:href="#TimesNewRomanPSMT-30"/>
      </g>
     </g>
    </g>
    <g id="xtick_2">
     <g id="line2d_2">
      <g>
       <use xlink:href="#me29abb8d49" x="138.977481" y="454.110236" style="stroke: #000000; stroke-width: 0.8"/>
      </g>
     </g>
     <g id="text_2">
      <!-- 1 -->
      <g transform="translate(135.227481 471.525861) scale(0.15 -0.15)">
       <defs>
        <path id="TimesNewRomanPSMT-31" d="M 750 3822 
L 1781 4325 
L 1884 4325 
L 1884 747 
Q 1884 391 1914 303 
Q 1944 216 2037 169 
Q 2131 122 2419 116 
L 2419 0 
L 825 0 
L 825 116 
Q 1125 122 1212 167 
Q 1300 213 1334 289 
Q 1369 366 1369 747 
L 1369 3034 
Q 1369 3497 1338 3628 
Q 1316 3728 1258 3775 
Q 1200 3822 1119 3822 
Q 1003 3822 797 3725 
L 750 3822 
z
" transform="scale(0.015625)"/>
       </defs>
       <use xlink:href="#TimesNewRomanPSMT-31"/>
      </g>
     </g>
    </g>
    <g id="xtick_3">
     <g id="line2d_3">
      <g>
       <use xlink:href="#me29abb8d49" x="191.642476" y="454.110236" style="stroke: #000000; stroke-width: 0.8"/>
      </g>
     </g>
     <g id="text_3">
      <!-- 2 -->
      <g transform="translate(187.892476 471.525861) scale(0.15 -0.15)">
       <defs>
        <path id="TimesNewRomanPSMT-32" d="M 2934 816 
L 2638 0 
L 138 0 
L 138 116 
Q 1241 1122 1691 1759 
Q 2141 2397 2141 2925 
Q 2141 3328 1894 3587 
Q 1647 3847 1303 3847 
Q 991 3847 742 3664 
Q 494 3481 375 3128 
L 259 3128 
Q 338 3706 661 4015 
Q 984 4325 1469 4325 
Q 1984 4325 2329 3994 
Q 2675 3663 2675 3213 
Q 2675 2891 2525 2569 
Q 2294 2063 1775 1497 
Q 997 647 803 472 
L 1909 472 
Q 2247 472 2383 497 
Q 2519 522 2628 598 
Q 2738 675 2819 816 
L 2934 816 
z
" transform="scale(0.015625)"/>
       </defs>
       <use xlink:href="#TimesNewRomanPSMT-32"/>
      </g>
     </g>
    </g>
    <g id="xtick_4">
     <g id="line2d_4">
      <g>
       <use xlink:href="#me29abb8d49" x="244.307471" y="454.110236" style="stroke: #000000; stroke-width: 0.8"/>
      </g>
     </g>
     <g id="text_4">
      <!-- 3 -->
      <g transform="translate(240.557471 471.525861) scale(0.15 -0.15)">
       <defs>
        <path id="TimesNewRomanPSMT-33" d="M 325 3431 
Q 506 3859 782 4092 
Q 1059 4325 1472 4325 
Q 1981 4325 2253 3994 
Q 2459 3747 2459 3466 
Q 2459 3003 1878 2509 
Q 2269 2356 2469 2072 
Q 2669 1788 2669 1403 
Q 2669 853 2319 450 
Q 1863 -75 997 -75 
Q 569 -75 414 31 
Q 259 138 259 259 
Q 259 350 332 419 
Q 406 488 509 488 
Q 588 488 669 463 
Q 722 447 909 348 
Q 1097 250 1169 231 
Q 1284 197 1416 197 
Q 1734 197 1970 444 
Q 2206 691 2206 1028 
Q 2206 1275 2097 1509 
Q 2016 1684 1919 1775 
Q 1784 1900 1550 2001 
Q 1316 2103 1072 2103 
L 972 2103 
L 972 2197 
Q 1219 2228 1467 2375 
Q 1716 2522 1828 2728 
Q 1941 2934 1941 3181 
Q 1941 3503 1739 3701 
Q 1538 3900 1238 3900 
Q 753 3900 428 3381 
L 325 3431 
z
" transform="scale(0.015625)"/>
       </defs>
       <use xlink:href="#TimesNewRomanPSMT-33"/>
      </g>
     </g>
    </g>
    <g id="xtick_5">
     <g id="line2d_5">
      <g>
       <use xlink:href="#me29abb8d49" x="296.972465" y="454.110236" style="stroke: #000000; stroke-width: 0.8"/>
      </g>
     </g>
     <g id="text_5">
      <!-- 4 -->
      <g transform="translate(293.222465 471.525861) scale(0.15 -0.15)">
       <defs>
        <path id="TimesNewRomanPSMT-34" d="M 2978 1563 
L 2978 1119 
L 2409 1119 
L 2409 0 
L 1894 0 
L 1894 1119 
L 100 1119 
L 100 1519 
L 2066 4325 
L 2409 4325 
L 2409 1563 
L 2978 1563 
z
M 1894 1563 
L 1894 3666 
L 406 1563 
L 1894 1563 
z
" transform="scale(0.015625)"/>
       </defs>
       <use xlink:href="#TimesNewRomanPSMT-34"/>
      </g>
     </g>
    </g>
    <g id="xtick_6">
     <g id="line2d_6">
      <g>
       <use xlink:href="#me29abb8d49" x="349.63746" y="454.110236" style="stroke: #000000; stroke-width: 0.8"/>
      </g>
     </g>
     <g id="text_6">
      <!-- 5 -->
      <g transform="translate(345.88746 471.525861) scale(0.15 -0.15)">
       <defs>
        <path id="TimesNewRomanPSMT-35" d="M 2778 4238 
L 2534 3706 
L 1259 3706 
L 981 3138 
Q 1809 3016 2294 2522 
Q 2709 2097 2709 1522 
Q 2709 1188 2573 903 
Q 2438 619 2231 419 
Q 2025 219 1772 97 
Q 1413 -75 1034 -75 
Q 653 -75 479 54 
Q 306 184 306 341 
Q 306 428 378 495 
Q 450 563 559 563 
Q 641 563 702 538 
Q 763 513 909 409 
Q 1144 247 1384 247 
Q 1750 247 2026 523 
Q 2303 800 2303 1197 
Q 2303 1581 2056 1914 
Q 1809 2247 1375 2428 
Q 1034 2569 447 2591 
L 1259 4238 
L 2778 4238 
z
" transform="scale(0.015625)"/>
       </defs>
       <use xlink:href="#TimesNewRomanPSMT-35"/>
      </g>
     </g>
    </g>
    <g id="xtick_7">
     <g id="line2d_7">
      <g>
       <use xlink:href="#me29abb8d49" x="402.302455" y="454.110236" style="stroke: #000000; stroke-width: 0.8"/>
      </g>
     </g>
     <g id="text_7">
      <!-- 6 -->
      <g transform="translate(398.552455 471.525861) scale(0.15 -0.15)">
       <defs>
        <path id="TimesNewRomanPSMT-36" d="M 2869 4325 
L 2869 4209 
Q 2456 4169 2195 4045 
Q 1934 3922 1679 3669 
Q 1425 3416 1258 3105 
Q 1091 2794 978 2366 
Q 1428 2675 1881 2675 
Q 2316 2675 2634 2325 
Q 2953 1975 2953 1425 
Q 2953 894 2631 456 
Q 2244 -75 1606 -75 
Q 1172 -75 869 213 
Q 275 772 275 1663 
Q 275 2231 503 2743 
Q 731 3256 1154 3653 
Q 1578 4050 1965 4187 
Q 2353 4325 2688 4325 
L 2869 4325 
z
M 925 2138 
Q 869 1716 869 1456 
Q 869 1156 980 804 
Q 1091 453 1309 247 
Q 1469 100 1697 100 
Q 1969 100 2183 356 
Q 2397 613 2397 1088 
Q 2397 1622 2184 2012 
Q 1972 2403 1581 2403 
Q 1463 2403 1327 2353 
Q 1191 2303 925 2138 
z
" transform="scale(0.015625)"/>
       </defs>
       <use xlink:href="#TimesNewRomanPSMT-36"/>
      </g>
     </g>
    </g>
    <g id="xtick_8">
     <g id="line2d_8">
      <g>
       <use xlink:href="#me29abb8d49" x="454.967449" y="454.110236" style="stroke: #000000; stroke-width: 0.8"/>
      </g>
     </g>
     <g id="text_8">
      <!-- 7 -->
      <g transform="translate(451.217449 471.525861) scale(0.15 -0.15)">
       <defs>
        <path id="TimesNewRomanPSMT-37" d="M 644 4238 
L 2916 4238 
L 2916 4119 
L 1503 -88 
L 1153 -88 
L 2419 3728 
L 1253 3728 
Q 900 3728 750 3644 
Q 488 3500 328 3200 
L 238 3234 
L 644 4238 
z
" transform="scale(0.015625)"/>
       </defs>
       <use xlink:href="#TimesNewRomanPSMT-37"/>
      </g>
     </g>
    </g>
    <g id="text_9">
     <!-- Displacement [mm] -->
     <g transform="translate(188.355341 494.010705) scale(0.22 -0.22)">
      <defs>
       <path id="TimesNewRomanPSMT-44" d="M 109 0 
L 109 116 
L 269 116 
Q 538 116 650 288 
Q 719 391 719 750 
L 719 3488 
Q 719 3884 631 3984 
Q 509 4122 269 4122 
L 109 4122 
L 109 4238 
L 1834 4238 
Q 2784 4238 3279 4022 
Q 3775 3806 4076 3303 
Q 4378 2800 4378 2141 
Q 4378 1256 3841 663 
Q 3238 0 2003 0 
L 109 0 
z
M 1319 306 
Q 1716 219 1984 219 
Q 2709 219 3187 728 
Q 3666 1238 3666 2109 
Q 3666 2988 3187 3494 
Q 2709 4000 1959 4000 
Q 1678 4000 1319 3909 
L 1319 306 
z
" transform="scale(0.015625)"/>
       <path id="TimesNewRomanPSMT-69" d="M 928 4444 
Q 1059 4444 1151 4351 
Q 1244 4259 1244 4128 
Q 1244 3997 1151 3903 
Q 1059 3809 928 3809 
Q 797 3809 703 3903 
Q 609 3997 609 4128 
Q 609 4259 701 4351 
Q 794 4444 928 4444 
z
M 1188 2947 
L 1188 647 
Q 1188 378 1227 289 
Q 1266 200 1342 156 
Q 1419 113 1622 113 
L 1622 0 
L 231 0 
L 231 113 
Q 441 113 512 153 
Q 584 194 626 287 
Q 669 381 669 647 
L 669 1750 
Q 669 2216 641 2353 
Q 619 2453 572 2492 
Q 525 2531 444 2531 
Q 356 2531 231 2484 
L 188 2597 
L 1050 2947 
L 1188 2947 
z
" transform="scale(0.015625)"/>
       <path id="TimesNewRomanPSMT-73" d="M 2050 2947 
L 2050 1972 
L 1947 1972 
Q 1828 2431 1642 2597 
Q 1456 2763 1169 2763 
Q 950 2763 815 2647 
Q 681 2531 681 2391 
Q 681 2216 781 2091 
Q 878 1963 1175 1819 
L 1631 1597 
Q 2266 1288 2266 781 
Q 2266 391 1970 151 
Q 1675 -88 1309 -88 
Q 1047 -88 709 6 
Q 606 38 541 38 
Q 469 38 428 -44 
L 325 -44 
L 325 978 
L 428 978 
Q 516 541 762 319 
Q 1009 97 1316 97 
Q 1531 97 1667 223 
Q 1803 350 1803 528 
Q 1803 744 1651 891 
Q 1500 1038 1047 1263 
Q 594 1488 453 1669 
Q 313 1847 313 2119 
Q 313 2472 555 2709 
Q 797 2947 1181 2947 
Q 1350 2947 1591 2875 
Q 1750 2828 1803 2828 
Q 1853 2828 1881 2850 
Q 1909 2872 1947 2947 
L 2050 2947 
z
" transform="scale(0.015625)"/>
       <path id="TimesNewRomanPSMT-70" d="M -6 2578 
L 875 2934 
L 994 2934 
L 994 2266 
Q 1216 2644 1439 2795 
Q 1663 2947 1909 2947 
Q 2341 2947 2628 2609 
Q 2981 2197 2981 1534 
Q 2981 794 2556 309 
Q 2206 -88 1675 -88 
Q 1444 -88 1275 -22 
Q 1150 25 994 166 
L 994 -706 
Q 994 -1000 1030 -1079 
Q 1066 -1159 1155 -1206 
Q 1244 -1253 1478 -1253 
L 1478 -1369 
L -22 -1369 
L -22 -1253 
L 56 -1253 
Q 228 -1256 350 -1188 
Q 409 -1153 442 -1076 
Q 475 -1000 475 -688 
L 475 2019 
Q 475 2297 450 2372 
Q 425 2447 370 2484 
Q 316 2522 222 2522 
Q 147 2522 31 2478 
L -6 2578 
z
M 994 2081 
L 994 1013 
Q 994 666 1022 556 
Q 1066 375 1236 237 
Q 1406 100 1666 100 
Q 1978 100 2172 344 
Q 2425 663 2425 1241 
Q 2425 1897 2138 2250 
Q 1938 2494 1663 2494 
Q 1513 2494 1366 2419 
Q 1253 2363 994 2081 
z
" transform="scale(0.015625)"/>
       <path id="TimesNewRomanPSMT-6c" d="M 1184 4444 
L 1184 647 
Q 1184 378 1223 290 
Q 1263 203 1344 158 
Q 1425 113 1647 113 
L 1647 0 
L 244 0 
L 244 113 
Q 441 113 512 153 
Q 584 194 625 287 
Q 666 381 666 647 
L 666 3247 
Q 666 3731 644 3842 
Q 622 3953 573 3993 
Q 525 4034 450 4034 
Q 369 4034 244 3984 
L 191 4094 
L 1044 4444 
L 1184 4444 
z
" transform="scale(0.015625)"/>
       <path id="TimesNewRomanPSMT-61" d="M 1822 413 
Q 1381 72 1269 19 
Q 1100 -59 909 -59 
Q 613 -59 420 144 
Q 228 347 228 678 
Q 228 888 322 1041 
Q 450 1253 767 1440 
Q 1084 1628 1822 1897 
L 1822 2009 
Q 1822 2438 1686 2597 
Q 1550 2756 1291 2756 
Q 1094 2756 978 2650 
Q 859 2544 859 2406 
L 866 2225 
Q 866 2081 792 2003 
Q 719 1925 600 1925 
Q 484 1925 411 2006 
Q 338 2088 338 2228 
Q 338 2497 613 2722 
Q 888 2947 1384 2947 
Q 1766 2947 2009 2819 
Q 2194 2722 2281 2516 
Q 2338 2381 2338 1966 
L 2338 994 
Q 2338 584 2353 492 
Q 2369 400 2405 369 
Q 2441 338 2488 338 
Q 2538 338 2575 359 
Q 2641 400 2828 588 
L 2828 413 
Q 2478 -56 2159 -56 
Q 2006 -56 1915 50 
Q 1825 156 1822 413 
z
M 1822 616 
L 1822 1706 
Q 1350 1519 1213 1441 
Q 966 1303 859 1153 
Q 753 1003 753 825 
Q 753 600 887 451 
Q 1022 303 1197 303 
Q 1434 303 1822 616 
z
" transform="scale(0.015625)"/>
       <path id="TimesNewRomanPSMT-63" d="M 2631 1088 
Q 2516 522 2178 217 
Q 1841 -88 1431 -88 
Q 944 -88 581 321 
Q 219 731 219 1428 
Q 219 2103 620 2525 
Q 1022 2947 1584 2947 
Q 2006 2947 2278 2723 
Q 2550 2500 2550 2259 
Q 2550 2141 2473 2067 
Q 2397 1994 2259 1994 
Q 2075 1994 1981 2113 
Q 1928 2178 1911 2362 
Q 1894 2547 1784 2644 
Q 1675 2738 1481 2738 
Q 1169 2738 978 2506 
Q 725 2200 725 1697 
Q 725 1184 976 792 
Q 1228 400 1656 400 
Q 1963 400 2206 609 
Q 2378 753 2541 1131 
L 2631 1088 
z
" transform="scale(0.015625)"/>
       <path id="TimesNewRomanPSMT-65" d="M 681 1784 
Q 678 1147 991 784 
Q 1303 422 1725 422 
Q 2006 422 2214 576 
Q 2422 731 2563 1106 
L 2659 1044 
Q 2594 616 2278 264 
Q 1963 -88 1488 -88 
Q 972 -88 605 314 
Q 238 716 238 1394 
Q 238 2128 614 2539 
Q 991 2950 1559 2950 
Q 2041 2950 2350 2633 
Q 2659 2316 2659 1784 
L 681 1784 
z
M 681 1966 
L 2006 1966 
Q 1991 2241 1941 2353 
Q 1863 2528 1708 2628 
Q 1553 2728 1384 2728 
Q 1125 2728 920 2526 
Q 716 2325 681 1966 
z
" transform="scale(0.015625)"/>
       <path id="TimesNewRomanPSMT-6d" d="M 1050 2338 
Q 1363 2650 1419 2697 
Q 1559 2816 1721 2881 
Q 1884 2947 2044 2947 
Q 2313 2947 2506 2790 
Q 2700 2634 2766 2338 
Q 3088 2713 3309 2830 
Q 3531 2947 3766 2947 
Q 3994 2947 4170 2830 
Q 4347 2713 4450 2447 
Q 4519 2266 4519 1878 
L 4519 647 
Q 4519 378 4559 278 
Q 4591 209 4675 161 
Q 4759 113 4950 113 
L 4950 0 
L 3538 0 
L 3538 113 
L 3597 113 
Q 3781 113 3884 184 
Q 3956 234 3988 344 
Q 4000 397 4000 647 
L 4000 1878 
Q 4000 2228 3916 2372 
Q 3794 2572 3525 2572 
Q 3359 2572 3192 2489 
Q 3025 2406 2788 2181 
L 2781 2147 
L 2788 2013 
L 2788 647 
Q 2788 353 2820 281 
Q 2853 209 2943 161 
Q 3034 113 3253 113 
L 3253 0 
L 1806 0 
L 1806 113 
Q 2044 113 2133 169 
Q 2222 225 2256 338 
Q 2272 391 2272 647 
L 2272 1878 
Q 2272 2228 2169 2381 
Q 2031 2581 1784 2581 
Q 1616 2581 1450 2491 
Q 1191 2353 1050 2181 
L 1050 647 
Q 1050 366 1089 281 
Q 1128 197 1204 155 
Q 1281 113 1516 113 
L 1516 0 
L 100 0 
L 100 113 
Q 297 113 375 155 
Q 453 197 493 289 
Q 534 381 534 647 
L 534 1741 
Q 534 2213 506 2350 
Q 484 2453 437 2492 
Q 391 2531 309 2531 
Q 222 2531 100 2484 
L 53 2597 
L 916 2947 
L 1050 2947 
L 1050 2338 
z
" transform="scale(0.015625)"/>
       <path id="TimesNewRomanPSMT-6e" d="M 1034 2341 
Q 1538 2947 1994 2947 
Q 2228 2947 2397 2830 
Q 2566 2713 2666 2444 
Q 2734 2256 2734 1869 
L 2734 647 
Q 2734 375 2778 278 
Q 2813 200 2889 156 
Q 2966 113 3172 113 
L 3172 0 
L 1756 0 
L 1756 113 
L 1816 113 
Q 2016 113 2095 173 
Q 2175 234 2206 353 
Q 2219 400 2219 647 
L 2219 1819 
Q 2219 2209 2117 2386 
Q 2016 2563 1775 2563 
Q 1403 2563 1034 2156 
L 1034 647 
Q 1034 356 1069 288 
Q 1113 197 1189 155 
Q 1266 113 1500 113 
L 1500 0 
L 84 0 
L 84 113 
L 147 113 
Q 366 113 442 223 
Q 519 334 519 647 
L 519 1709 
Q 519 2225 495 2337 
Q 472 2450 423 2490 
Q 375 2531 294 2531 
Q 206 2531 84 2484 
L 38 2597 
L 900 2947 
L 1034 2947 
L 1034 2341 
z
" transform="scale(0.015625)"/>
       <path id="TimesNewRomanPSMT-74" d="M 1031 3803 
L 1031 2863 
L 1700 2863 
L 1700 2644 
L 1031 2644 
L 1031 788 
Q 1031 509 1111 412 
Q 1191 316 1316 316 
Q 1419 316 1516 380 
Q 1613 444 1666 569 
L 1788 569 
Q 1678 263 1478 108 
Q 1278 -47 1066 -47 
Q 922 -47 784 33 
Q 647 113 581 261 
Q 516 409 516 719 
L 516 2644 
L 63 2644 
L 63 2747 
Q 234 2816 414 2980 
Q 594 3144 734 3369 
Q 806 3488 934 3803 
L 1031 3803 
z
" transform="scale(0.015625)"/>
       <path id="TimesNewRomanPSMT-20" transform="scale(0.015625)"/>
       <path id="TimesNewRomanPSMT-5b" d="M 1900 -1269 
L 525 -1269 
L 525 4334 
L 1900 4334 
L 1900 4088 
L 994 4088 
L 994 -1025 
L 1900 -1025 
L 1900 -1269 
z
" transform="scale(0.015625)"/>
       <path id="TimesNewRomanPSMT-5d" d="M 234 4334 
L 1609 4334 
L 1609 -1272 
L 234 -1272 
L 234 -1025 
L 1141 -1025 
L 1141 4088 
L 234 4088 
L 234 4334 
z
" transform="scale(0.015625)"/>
      </defs>
      <use xlink:href="#TimesNewRomanPSMT-44"/>
      <use xlink:href="#TimesNewRomanPSMT-69" transform="translate(72.216797 0)"/>
      <use xlink:href="#TimesNewRomanPSMT-73" transform="translate(100 0)"/>
      <use xlink:href="#TimesNewRomanPSMT-70" transform="translate(138.916016 0)"/>
      <use xlink:href="#TimesNewRomanPSMT-6c" transform="translate(188.916016 0)"/>
      <use xlink:href="#TimesNewRomanPSMT-61" transform="translate(216.699219 0)"/>
      <use xlink:href="#TimesNewRomanPSMT-63" transform="translate(261.083984 0)"/>
      <use xlink:href="#TimesNewRomanPSMT-65" transform="translate(305.46875 0)"/>
      <use xlink:href="#TimesNewRomanPSMT-6d" transform="translate(349.853516 0)"/>
      <use xlink:href="#TimesNewRomanPSMT-65" transform="translate(427.636719 0)"/>
      <use xlink:href="#TimesNewRomanPSMT-6e" transform="translate(472.021484 0)"/>
      <use xlink:href="#TimesNewRomanPSMT-74" transform="translate(522.021484 0)"/>
      <use xlink:href="#TimesNewRomanPSMT-20" transform="translate(549.804688 0)"/>
      <use xlink:href="#TimesNewRomanPSMT-5b" transform="translate(574.804688 0)"/>
      <use xlink:href="#TimesNewRomanPSMT-6d" transform="translate(608.105469 0)"/>
      <use xlink:href="#TimesNewRomanPSMT-6d" transform="translate(685.888672 0)"/>
      <use xlink:href="#TimesNewRomanPSMT-5d" transform="translate(763.671875 0)"/>
     </g>
    </g>
   </g>
   <g id="matplotlib.axis_2">
    <g id="ytick_1">
     <g id="line2d_9">
      <defs>
       <path id="m97b659616a" d="M 0 0 
L -3.5 0 
" style="stroke: #000000; stroke-width: 0.8"/>
      </defs>
      <g>
       <use xlink:href="#m97b659616a" x="67.322835" y="435.415769" style="stroke: #000000; stroke-width: 0.8"/>
      </g>
     </g>
     <g id="text_10">
      <!-- 0 -->
      <g transform="translate(52.822835 440.623581) scale(0.15 -0.15)">
       <use xlink:href="#TimesNewRomanPSMT-30"/>
      </g>
     </g>
    </g>
    <g id="ytick_2">
     <g id="line2d_10">
      <g>
       <use xlink:href="#m97b659616a" x="67.322835" y="376.71037" style="stroke: #000000; stroke-width: 0.8"/>
      </g>
     </g>
     <g id="text_11">
      <!-- 5 -->
      <g transform="translate(52.822835 381.918183) scale(0.15 -0.15)">
       <use xlink:href="#TimesNewRomanPSMT-35"/>
      </g>
     </g>
    </g>
    <g id="ytick_3">
     <g id="line2d_11">
      <g>
       <use xlink:href="#m97b659616a" x="67.322835" y="318.004972" style="stroke: #000000; stroke-width: 0.8"/>
      </g>
     </g>
     <g id="text_12">
      <!-- 10 -->
      <g transform="translate(45.322835 323.212784) scale(0.15 -0.15)">
       <use xlink:href="#TimesNewRomanPSMT-31"/>
       <use xlink:href="#TimesNewRomanPSMT-30" transform="translate(50 0)"/>
      </g>
     </g>
    </g>
    <g id="ytick_4">
     <g id="line2d_12">
      <g>
       <use xlink:href="#m97b659616a" x="67.322835" y="259.299573" style="stroke: #000000; stroke-width: 0.8"/>
      </g>
     </g>
     <g id="text_13">
      <!-- 15 -->
      <g transform="translate(45.322835 264.507386) scale(0.15 -0.15)">
       <use xlink:href="#TimesNewRomanPSMT-31"/>
       <use xlink:href="#TimesNewRomanPSMT-35" transform="translate(50 0)"/>
      </g>
     </g>
    </g>
    <g id="ytick_5">
     <g id="line2d_13">
      <g>
       <use xlink:href="#m97b659616a" x="67.322835" y="200.594175" style="stroke: #000000; stroke-width: 0.8"/>
      </g>
     </g>
     <g id="text_14">
      <!-- 20 -->
      <g transform="translate(45.322835 205.801987) scale(0.15 -0.15)">
       <use xlink:href="#TimesNewRomanPSMT-32"/>
       <use xlink:href="#TimesNewRomanPSMT-30" transform="translate(50 0)"/>
      </g>
     </g>
    </g>
    <g id="ytick_6">
     <g id="line2d_14">
      <g>
       <use xlink:href="#m97b659616a" x="67.322835" y="141.888776" style="stroke: #000000; stroke-width: 0.8"/>
      </g>
     </g>
     <g id="text_15">
      <!-- 25 -->
      <g transform="translate(45.322835 147.096589) scale(0.15 -0.15)">
       <use xlink:href="#TimesNewRomanPSMT-32"/>
       <use xlink:href="#TimesNewRomanPSMT-35" transform="translate(50 0)"/>
      </g>
     </g>
    </g>
    <g id="ytick_7">
     <g id="line2d_15">
      <g>
       <use xlink:href="#m97b659616a" x="67.322835" y="83.183378" style="stroke: #000000; stroke-width: 0.8"/>
      </g>
     </g>
     <g id="text_16">
      <!-- 30 -->
      <g transform="translate(45.322835 88.39119) scale(0.15 -0.15)">
       <use xlink:href="#TimesNewRomanPSMT-33"/>
       <use xlink:href="#TimesNewRomanPSMT-30" transform="translate(50 0)"/>
      </g>
     </g>
    </g>
    <g id="text_17">
     <!-- Force [kN] -->
     <g transform="translate(36.616897 306.234291) rotate(-90) scale(0.22 -0.22)">
      <defs>
       <path id="TimesNewRomanPSMT-46" d="M 1309 4006 
L 1309 2341 
L 2081 2341 
Q 2347 2341 2470 2458 
Q 2594 2575 2634 2922 
L 2750 2922 
L 2750 1488 
L 2634 1488 
Q 2631 1734 2570 1850 
Q 2509 1966 2401 2023 
Q 2294 2081 2081 2081 
L 1309 2081 
L 1309 750 
Q 1309 428 1350 325 
Q 1381 247 1481 191 
Q 1619 116 1769 116 
L 1922 116 
L 1922 0 
L 103 0 
L 103 116 
L 253 116 
Q 516 116 634 269 
Q 709 369 709 750 
L 709 3488 
Q 709 3809 669 3913 
Q 638 3991 541 4047 
Q 406 4122 253 4122 
L 103 4122 
L 103 4238 
L 3256 4238 
L 3297 3306 
L 3188 3306 
Q 3106 3603 2998 3742 
Q 2891 3881 2733 3943 
Q 2575 4006 2244 4006 
L 1309 4006 
z
" transform="scale(0.015625)"/>
       <path id="TimesNewRomanPSMT-6f" d="M 1600 2947 
Q 2250 2947 2644 2453 
Q 2978 2031 2978 1484 
Q 2978 1100 2793 706 
Q 2609 313 2286 112 
Q 1963 -88 1566 -88 
Q 919 -88 538 428 
Q 216 863 216 1403 
Q 216 1797 411 2186 
Q 606 2575 925 2761 
Q 1244 2947 1600 2947 
z
M 1503 2744 
Q 1338 2744 1170 2645 
Q 1003 2547 900 2300 
Q 797 2053 797 1666 
Q 797 1041 1045 587 
Q 1294 134 1700 134 
Q 2003 134 2200 384 
Q 2397 634 2397 1244 
Q 2397 2006 2069 2444 
Q 1847 2744 1503 2744 
z
" transform="scale(0.015625)"/>
       <path id="TimesNewRomanPSMT-72" d="M 1038 2947 
L 1038 2303 
Q 1397 2947 1775 2947 
Q 1947 2947 2059 2842 
Q 2172 2738 2172 2600 
Q 2172 2478 2090 2393 
Q 2009 2309 1897 2309 
Q 1788 2309 1652 2417 
Q 1516 2525 1450 2525 
Q 1394 2525 1328 2463 
Q 1188 2334 1038 2041 
L 1038 669 
Q 1038 431 1097 309 
Q 1138 225 1241 169 
Q 1344 113 1538 113 
L 1538 0 
L 72 0 
L 72 113 
Q 291 113 397 181 
Q 475 231 506 341 
Q 522 394 522 644 
L 522 1753 
Q 522 2253 501 2348 
Q 481 2444 426 2487 
Q 372 2531 291 2531 
Q 194 2531 72 2484 
L 41 2597 
L 906 2947 
L 1038 2947 
z
" transform="scale(0.015625)"/>
       <path id="TimesNewRomanPSMT-6b" d="M 1047 4444 
L 1047 1594 
L 1775 2259 
Q 2006 2472 2044 2528 
Q 2069 2566 2069 2603 
Q 2069 2666 2017 2711 
Q 1966 2756 1847 2763 
L 1847 2863 
L 3091 2863 
L 3091 2763 
Q 2834 2756 2664 2684 
Q 2494 2613 2291 2428 
L 1556 1750 
L 2291 822 
Q 2597 438 2703 334 
Q 2853 188 2966 144 
Q 3044 113 3238 113 
L 3238 0 
L 1847 0 
L 1847 113 
Q 1966 116 2008 148 
Q 2050 181 2050 241 
Q 2050 313 1925 472 
L 1047 1594 
L 1047 644 
Q 1047 366 1086 278 
Q 1125 191 1197 153 
Q 1269 116 1509 113 
L 1509 0 
L 53 0 
L 53 113 
Q 272 113 381 166 
Q 447 200 481 272 
Q 528 375 528 628 
L 528 3234 
Q 528 3731 506 3842 
Q 484 3953 434 3995 
Q 384 4038 303 4038 
Q 238 4038 106 3984 
L 53 4094 
L 903 4444 
L 1047 4444 
z
" transform="scale(0.015625)"/>
       <path id="TimesNewRomanPSMT-4e" d="M -84 4238 
L 1066 4238 
L 3656 1059 
L 3656 3503 
Q 3656 3894 3569 3991 
Q 3453 4122 3203 4122 
L 3056 4122 
L 3056 4238 
L 4531 4238 
L 4531 4122 
L 4381 4122 
Q 4113 4122 4000 3959 
Q 3931 3859 3931 3503 
L 3931 -69 
L 3819 -69 
L 1025 3344 
L 1025 734 
Q 1025 344 1109 247 
Q 1228 116 1475 116 
L 1625 116 
L 1625 0 
L 150 0 
L 150 116 
L 297 116 
Q 569 116 681 278 
Q 750 378 750 734 
L 750 3681 
Q 566 3897 470 3965 
Q 375 4034 191 4094 
Q 100 4122 -84 4122 
L -84 4238 
z
" transform="scale(0.015625)"/>
      </defs>
      <use xlink:href="#TimesNewRomanPSMT-46"/>
      <use xlink:href="#TimesNewRomanPSMT-6f" transform="translate(55.615234 0)"/>
      <use xlink:href="#TimesNewRomanPSMT-72" transform="translate(105.615234 0)"/>
      <use xlink:href="#TimesNewRomanPSMT-63" transform="translate(138.916016 0)"/>
      <use xlink:href="#TimesNewRomanPSMT-65" transform="translate(183.300781 0)"/>
      <use xlink:href="#TimesNewRomanPSMT-20" transform="translate(227.685547 0)"/>
      <use xlink:href="#TimesNewRomanPSMT-5b" transform="translate(252.685547 0)"/>
      <use xlink:href="#TimesNewRomanPSMT-6b" transform="translate(285.986328 0)"/>
      <use xlink:href="#TimesNewRomanPSMT-4e" transform="translate(335.986328 0)"/>
      <use xlink:href="#TimesNewRomanPSMT-5d" transform="translate(408.203125 0)"/>
     </g>
    </g>
   </g>
   <g id="line2d_16">
    <path d="M 86.312486 435.458272 
L 86.312486 436.251969 
L 86.400437 432.914919 
L 86.647436 432.100088 
L 86.802797 431.918101 
L 86.94394 432.148226 
L 87.208845 431.376837 
L 87.318388 431.644534 
L 87.687569 430.841444 
L 87.686516 430.854359 
L 87.730755 429.64268 
L 88.312176 428.164478 
L 88.534949 427.751192 
L 88.818813 426.948102 
L 88.965222 426.803687 
L 89.156396 425.454637 
L 90.114899 421.901786 
L 90.230235 421.972233 
L 90.376117 421.62 
L 90.623643 420.551562 
L 90.735819 420.434151 
L 90.872748 418.602543 
L 91.266682 416.935309 
L 92.058237 414.234861 
L 92.316296 413.542137 
L 92.511156 412.203654 
L 93.258999 409.620617 
L 93.596055 409.021822 
L 93.927845 407.659856 
L 94.080573 407.166731 
L 94.17537 406.192221 
L 94.47556 404.924185 
L 94.538758 404.630658 
L 94.675687 403.926193 
L 95.007477 402.423335 
L 95.160205 402.270701 
L 95.513061 401.237486 
L 95.602591 400.239494 
L 95.776386 399.593735 
L 95.997579 398.372662 
L 96.013378 398.407886 
L 96.039711 398.290475 
L 96.224038 396.658465 
L 96.324102 396.517572 
L 96.903417 393.147882 
L 97.182541 392.185113 
L 97.372135 390.212612 
L 98.167377 386.678547 
L 98.467567 385.856671 
L 98.836222 385.351805 
L 98.999484 384.529929 
L 99.252276 384.271626 
L 99.420803 384.177697 
L 99.74206 383.238411 
L 99.857923 383.097518 
L 99.868456 383.144482 
L 99.926387 379.246444 
L 100.295042 377.673139 
L 100.848025 376.968674 
L 101.506337 376.358138 
L 101.627467 376.217245 
L 101.927657 372.295724 
L 102.385843 370.217553 
L 102.728165 369.618758 
L 102.90196 369.266526 
L 103.023089 369.031704 
L 103.212683 367.481882 
L 103.349612 367.14139 
L 103.813064 364.675764 
L 104.903229 363.00853 
L 105.040158 361.552636 
L 105.192887 361.036029 
L 105.282417 358.805224 
L 106.388382 354.74281 
L 106.509512 353.568702 
L 106.741238 353.063836 
L 107.483814 352.394594 
L 107.615477 352.535487 
L 107.641809 352.465041 
L 107.805071 351.549237 
L 107.978865 350.797807 
L 108.210591 350.105084 
L 108.610845 349.647182 
L 108.700376 349.259726 
L 108.76884 349.729369 
L 108.921569 348.026913 
L 109.195427 347.099367 
L 109.516683 346.653206 
L 109.695744 346.512313 
L 109.859005 346.124858 
L 110.101264 345.220795 
L 110.248726 344.833339 
L 110.54365 343.741419 
L 110.612115 343.694454 
L 111.59695 340.219095 
L 111.733879 340.007755 
L 111.876075 338.657531 
L 112.192065 336.731994 
L 112.529121 335.264359 
L 114.472459 331.612883 
L 114.983309 329.346855 
L 115.894414 327.597434 
L 116.152472 326.693371 
L 116.463196 326.329397 
L 116.979313 326.129799 
L 117.211039 326.200245 
L 117.91675 325.401852 
L 119.038514 322.760109 
L 119.670494 320.04792 
L 119.981217 319.766134 
L 120.155012 319.636982 
L 120.644796 318.275017 
L 120.750126 318.286758 
L 121.04505 317.300507 
L 121.487436 316.713453 
L 121.724429 316.596042 
L 122.035152 316.713453 
L 122.140482 316.596042 
L 122.251079 316.713453 
L 122.424873 316.596042 
L 122.656599 317.065685 
L 122.682932 316.948275 
L 122.977856 316.24381 
L 123.004188 316.24381 
L 123.320178 315.304524 
L 123.393909 315.656756 
L 123.583503 314.365237 
L 123.873161 313.191129 
L 124.004823 313.30854 
L 124.41561 312.838897 
L 124.721067 312.369254 
L 124.82113 312.486664 
L 125.458377 311.547378 
L 125.568973 311.547378 
L 126.053491 310.960324 
L 126.358948 309.786216 
L 126.8224 308.84693 
L 127.285852 307.790233 
L 127.528111 306.850946 
L 129.202858 303.328622 
L 129.35032 303.328622 
L 129.471449 303.211211 
L 129.597845 303.211211 
L 129.782173 302.97639 
L 129.855904 302.97639 
L 130.08763 302.506747 
L 130.161361 302.506747 
L 130.609013 300.862996 
L 130.988201 300.158531 
L 131.857174 299.219244 
L 131.978303 298.867012 
L 132.468088 296.166564 
L 132.736679 295.931742 
L 132.994738 295.462099 
L 133.516121 293.935758 
L 135.053939 292.057186 
L 135.670119 290.765667 
L 135.938711 290.530845 
L 136.138838 290.530845 
L 136.349498 292.996472 
L 136.354764 293.348705 
L 136.417962 291.000489 
L 136.849815 288.182629 
L 137.207937 287.478165 
L 137.618724 287.008521 
L 137.982113 286.891111 
L 138.261237 286.421467 
L 138.492963 286.421467 
L 139.240806 285.36477 
L 139.609461 284.660306 
L 139.820121 284.542895 
L 140.136111 284.660306 
L 140.188776 284.660306 
L 140.346771 284.073252 
L 140.504766 284.190662 
L 140.610096 284.073252 
L 140.715426 284.190662 
L 141.610731 282.077268 
L 141.821391 281.020571 
L 142.400706 280.316106 
L 142.611366 280.081284 
L 142.664031 284.190662 
L 142.084716 280.198695 
L 142.558701 279.49423 
L 142.716696 280.433517 
L 142.822026 279.49423 
L 143.085351 278.672355 
L 143.506671 275.267442 
L 143.769996 274.797799 
L 144.033321 274.680388 
L 144.507305 273.271458 
L 144.823295 272.919226 
L 145.244615 271.862529 
L 145.40261 271.510296 
L 145.92926 269.631724 
L 146.403245 268.809848 
L 147.035225 268.105383 
L 147.19322 268.105383 
L 147.40388 267.870562 
L 147.561875 267.400918 
L 147.772535 267.283508 
L 147.93053 267.048686 
L 148.14119 267.048686 
L 148.299185 266.813864 
L 148.45718 266.813864 
L 148.825835 265.404935 
L 149.08916 265.170113 
L 149.352485 265.170113 
L 150.195125 264.817881 
L 150.300455 264.583059 
L 150.56378 264.583059 
L 150.616445 265.404935 
L 150.66911 265.170113 
L 150.721775 264.817881 
L 151.037765 264.348238 
L 151.19576 264.348238 
L 151.353755 264.113416 
L 151.51175 263.408951 
L 151.669745 263.29154 
L 151.775075 263.408951 
L 151.82774 262.704487 
L 151.880405 260.473681 
L 152.14373 258.947341 
L 152.56505 258.125465 
L 152.933705 257.890644 
L 153.51302 257.890644 
L 153.82901 257.538411 
L 154.03967 256.481714 
L 154.408324 255.307606 
L 155.040304 254.133498 
L 155.777614 251.667872 
L 156.198934 251.198228 
L 156.672919 250.845996 
L 157.041574 250.845996 
L 157.778884 250.493764 
L 158.252869 249.671888 
L 158.674189 249.084834 
L 159.306169 248.49778 
L 159.727489 246.854029 
L 160.096144 246.266975 
L 160.464799 245.914743 
L 160.780789 245.797332 
L 161.044114 245.445099 
L 161.360104 245.445099 
L 161.465434 245.56251 
L 161.570764 245.445099 
L 161.728759 244.505813 
L 161.992084 244.270991 
L 162.624064 242.979473 
L 162.782059 241.335721 
L 163.098049 240.396435 
L 163.572034 238.16563 
L 164.098684 236.63929 
L 168.101223 235.23036 
L 168.785868 234.878128 
L 169.312518 234.878128 
L 169.523178 234.643306 
L 169.839168 234.643306 
L 169.944498 234.525895 
L 170.102493 234.525895 
L 170.418483 233.70402 
L 170.523813 233.116966 
L 170.839803 232.647322 
L 171.103128 232.647322 
L 171.261123 232.060269 
L 171.366453 232.647322 
L 172.103763 228.772766 
L 172.630413 227.246426 
L 173.315058 226.307139 
L 174.684347 225.250442 
L 175.210997 224.193745 
L 175.842977 223.606691 
L 177.159602 222.784816 
L 178.265567 222.432583 
L 178.686887 222.432583 
L 180.003512 221.845529 
L 180.161507 221.728118 
L 180.530162 220.788832 
L 180.740822 220.084367 
L 181.056812 219.849546 
L 181.425467 219.732135 
L 182.162777 219.145081 
L 182.584097 219.497313 
L 183.058082 218.675438 
L 184.427372 217.61874 
L 185.112016 217.383919 
L 185.849326 216.679454 
L 187.060621 215.740168 
L 187.850596 214.56606 
L 188.377246 213.861595 
L 189.114556 213.391952 
L 189.904531 213.15713 
L 190.589176 212.687487 
L 191.221156 212.570076 
L 192.327121 212.100433 
L 192.853771 211.748201 
L 194.591715 211.395968 
L 195.0657 211.161147 
L 196.276995 208.930342 
L 197.59362 207.873644 
L 198.067605 207.16918 
L 200.279535 205.76025 
L 201.122175 205.055785 
L 203.228775 203.999088 
L 204.33474 202.942391 
L 205.388039 202.237926 
L 206.494004 201.063818 
L 207.125984 200.594175 
L 207.863294 200.241943 
L 208.495274 200.124532 
L 209.074589 200.241943 
L 209.601239 200.476764 
L 210.233219 200.359353 
L 211.023194 200.711586 
L 211.602509 201.768283 
L 211.918499 203.294623 
L 211.813169 204.23391 
L 211.655174 206.347304 
L 211.497179 206.934358 
L 211.075859 207.521412 
L 211.075859 209.165163 
L 210.917864 210.691503 
L 210.601874 212.217844 
L 209.759234 213.744184 
L 208.758599 217.383919 
L 208.547939 218.792848 
L 207.599969 222.315172 
L 206.599334 223.724102 
L 206.494004 223.724102 
L 206.494004 223.724102 
L 206.441339 223.841513 
L 206.441339 223.841513 
L 206.336009 226.659372 
L 206.072684 226.894193 
L 205.756694 226.776783 
L 205.651364 227.129015 
L 205.335374 232.647322 
L 204.914054 233.586609 
L 204.44007 234.173663 
L 204.12408 234.173663 
L 203.966085 234.056252 
L 203.91342 233.70402 
L 203.966085 233.469198 
L 203.755425 234.643306 
L 203.70276 237.695987 
L 203.439435 238.16563 
L 203.07078 238.16563 
L 202.86012 238.635273 
L 202.75479 241.1009 
L 202.4388 243.214294 
L 201.91215 245.327689 
L 201.17484 247.206261 
L 198.75225 251.550461 
L 198.12027 254.250909 
L 197.59362 253.663855 
L 197.59362 253.663855 
L 197.59362 253.546444 
L 197.48829 256.716536 
L 197.27763 257.30359 
L 196.64565 257.890644 
L 196.54032 260.004038 
L 196.22433 261.060735 
L 195.961005 261.530379 
L 195.80301 262.000022 
L 195.69768 262.000022 
L 195.645015 261.647789 
L 195.645015 262.352254 
L 195.38169 265.757167 
L 194.96037 266.931275 
L 194.433721 267.518329 
L 193.907071 267.870562 
L 193.591081 268.457616 
L 193.327756 269.279491 
L 192.801106 269.866545 
L 192.485116 269.983956 
L 192.485116 269.983956 
L 192.063796 271.627707 
L 191.800471 271.862529 
L 191.695141 272.919226 
L 191.221156 277.028604 
L 190.641841 278.320122 
L 189.904531 278.789766 
L 189.377881 279.729052 
L 189.009226 281.137982 
L 188.587906 281.959857 
L 187.850596 285.717003 
L 187.165951 287.008521 
L 186.902626 287.243343 
L 186.375976 294.17058 
L 185.428006 298.162547 
L 183.900722 300.862996 
L 180.582827 304.972373 
L 180.108842 306.029071 
L 179.792852 306.029071 
L 179.634857 304.50273 
L 179.634857 304.150498 
L 179.687522 307.438 
L 179.424197 309.786216 
L 178.897547 310.725502 
L 177.844247 311.429967 
L 177.370262 312.369254 
L 177.106937 313.30854 
L 176.843612 314.83488 
L 175.368992 318.909035 
L 174.473687 320.91676 
L 173.157063 323.288458 
L 172.735743 324.298191 
L 172.367088 324.662164 
L 171.840438 326.106317 
L 171.419118 327.620916 
L 170.892468 330.673597 
L 170.576478 331.213687 
L 170.155158 332.786991 
L 169.681173 334.419001 
L 169.365183 335.393511 
L 168.996528 336.919851 
L 167.943228 339.831639 
L 167.205918 341.416685 
L 166.521273 342.614275 
L 163.993354 346.113117 
L 163.835359 347.181555 
L 163.361374 348.672672 
L 162.150079 351.607942 
L 161.834089 352.899461 
L 161.623429 353.369104 
L 161.307439 354.648882 
L 160.780789 355.17723 
L 160.570129 355.682097 
L 160.306804 356.950133 
L 159.516829 359.333572 
L 158.621524 363.255093 
L 157.989544 365.556345 
L 155.514289 370.875054 
L 153.776345 373.927734 
L 152.723045 375.090101 
L 152.35439 375.18403 
L 152.407055 373.7751 
L 152.617715 373.44635 
L 152.723045 373.563761 
L 152.723045 373.540279 
L 152.617715 373.869029 
L 152.512385 374.150815 
L 152.14373 375.72412 
L 152.091065 375.888495 
L 152.0384 375.700637 
L 151.985735 375.958941 
L 151.880405 377.860996 
L 151.775075 378.788541 
L 151.459085 379.175997 
L 151.09043 379.352113 
L 150.721775 379.692605 
L 150.24779 380.655373 
L 149.9318 380.40881 
L 149.9318 380.526221 
L 149.773805 381.031088 
L 149.61581 382.604392 
L 149.40515 383.34408 
L 148.193855 385.680555 
L 147.561875 386.561136 
L 147.29855 387.124708 
L 146.98256 387.441717 
L 146.87723 387.629574 
L 146.13992 390.08346 
L 145.876595 390.388728 
L 145.771265 390.705737 
L 145.665935 390.987523 
L 145.560605 391.457166 
L 145.40261 391.656765 
L 145.349945 393.417927 
L 145.139285 394.051945 
L 144.6653 394.298508 
L 144.612635 395.143865 
L 144.55997 394.521588 
L 144.45464 394.815115 
L 144.243981 396.470607 
L 143.927991 396.951992 
L 143.717331 397.233778 
L 143.559336 397.327706 
L 143.454006 397.539046 
L 143.296011 397.949984 
L 143.190681 398.396145 
L 142.980021 398.865788 
L 142.664031 400.004672 
L 142.137381 401.143557 
L 141.716061 402.716862 
L 141.242076 403.339139 
L 140.873421 403.937934 
L 140.610096 404.466283 
L 140.399436 404.524988 
L 140.399436 404.65414 
L 140.294106 404.65414 
L 140.136111 404.865479 
L 140.030781 405.335123 
L 139.714791 406.814499 
L 139.293471 407.671597 
L 139.135476 407.882937 
L 139.030146 408.211687 
L 138.924816 409.303608 
L 138.724689 409.949367 
L 137.555526 411.463966 
L 136.913013 412.497181 
L 136.370564 414.528388 
L 136.149371 415.679014 
L 135.785982 416.453925 
L 135.559523 417.357988 
L 134.859078 418.132899 
L 134.458824 418.496873 
L 134.28503 419.459642 
L 134.190233 419.036963 
L 133.874243 419.541829 
L 133.568786 419.847097 
L 133.437124 419.941026 
L 132.041501 423.604243 
L 130.877605 425.11532 
L 130.777541 425.192811 
L 130.50895 425.899624 
L 129.813772 426.845955 
L 129.618911 427.133611 
L 129.566246 427.260415 
L 129.35032 427.754714 
L 129.044863 428.178567 
L 129.044863 428.129255 
L 128.955333 428.462701 
L 128.881602 428.474442 
L 128.828937 428.321808 
L 128.807871 428.590679 
L 128.802604 428.621206 
L 128.765739 428.523755 
L 128.670942 428.203224 
L 128.660409 428.244317 
L 128.660409 428.934693 
L 128.771005 423.475091 
L 128.865802 419.166115 
L 129.007998 417.898078 
L 129.35032 417.017497 
L 129.713708 416.524372 
L 130.07183 415.174147 
L 130.593214 412.743744 
L 130.867072 411.111734 
L 131.509585 410.031555 
L 132.315359 405.922177 
L 132.736679 405.159006 
L 132.863075 402.716862 
L 133.089535 401.17878 
L 133.489789 399.382395 
L 134.048038 397.91476 
L 135.206667 395.601768 
L 135.875513 394.603776 
L 136.028241 393.946275 
L 136.259967 390.376987 
L 136.560158 387.946584 
L 137.097341 385.610109 
L 138.661491 380.784525 
L 139.504131 377.90796 
L 140.452101 375.888495 
L 142.295376 373.000189 
L 143.454006 371.70867 
L 143.612001 371.685188 
L 143.717331 371.462108 
L 143.769996 368.515097 
L 144.085986 366.671747 
L 144.612635 365.861613 
L 145.50794 364.922326 
L 146.35058 362.397994 
L 146.719235 359.650582 
L 147.561875 356.386561 
L 148.193855 353.498256 
L 149.141825 351.032629 
L 150.35312 348.484815 
L 153.460355 340.60655 
L 154.302995 338.493156 
L 155.040304 337.11945 
L 155.830279 335.405252 
L 157.884214 330.309623 
L 158.516194 329.346855 
L 159.727489 326.165022 
L 160.886119 324.333414 
L 161.254774 323.1006 
L 161.570764 321.13984 
L 162.044749 319.683946 
L 162.624064 318.955999 
L 163.572034 318.721178 
L 163.624699 319.17908 
L 163.624699 318.721178 
L 163.624699 316.126399 
L 163.993354 313.30854 
L 164.783328 310.608092 
L 165.889293 308.377287 
L 167.047923 306.498714 
L 168.838533 304.620141 
L 169.786503 302.741568 
L 170.365818 301.215228 
L 170.787138 300.04112 
L 170.945133 298.51478 
L 171.208458 297.10585 
L 172.156428 294.992456 
L 173.209728 290.530845 
L 173.947038 289.239327 
L 174.684347 287.712986 
L 176.000972 282.4295 
L 178.265567 279.846463 
L 178.950212 279.024587 
L 179.371532 277.615658 
L 180.846152 270.453599 
L 181.899452 266.696454 
L 183.321407 262.587076 
L 184.954021 258.360287 
L 186.533971 252.607158 
L 188.219251 247.793315 
L 190.325851 245.210278 
L 193.591081 242.862062 
L 194.53905 242.275008 
L 195.434355 240.983489 
L 195.69768 240.396435 
L 196.171665 238.635273 
L 196.908975 236.874111 
L 197.27763 234.995538 
L 197.751615 233.586609 
L 198.33093 231.355804 
L 199.80555 229.35982 
L 200.54286 228.420534 
L 201.543495 225.954907 
L 201.91215 225.250442 
L 202.280805 224.193745 
L 202.702125 223.606691 
L 203.07078 222.902226 
L 203.755425 220.084367 
L 204.650729 218.792848 
L 205.019384 218.440616 
L 205.282709 217.970973 
L 205.546034 217.266508 
L 205.862024 216.796865 
L 206.494004 216.444633 
L 206.704664 216.444633 
L 207.020654 216.0924 
L 207.178649 216.0924 
L 207.441974 215.740168 
L 207.810629 214.096417 
L 208.126619 213.626773 
L 208.495274 212.804898 
L 208.811264 211.161147 
L 209.337914 209.282574 
L 210.127889 208.343288 
L 211.023194 207.873644 
L 211.707839 207.756234 
L 212.497814 207.28659 
L 212.919134 207.051769 
L 213.182459 206.816947 
L 213.287789 206.464715 
L 213.656444 206.112482 
L 214.183094 205.173196 
L 214.604413 204.938374 
L 214.709743 204.938374 
L 214.920403 204.586142 
L 215.078398 204.468731 
L 215.815708 203.059802 
L 216.447688 202.237926 
L 216.605683 202.120515 
L 217.184998 200.711586 
L 217.500988 200.241943 
L 217.922308 200.359353 
L 218.396293 199.772299 
L 218.975608 198.480781 
L 219.502258 197.893727 
L 220.871548 197.306673 
L 221.345533 197.306673 
L 221.608858 197.189262 
L 221.872183 197.189262 
L 221.924848 197.424083 
L 222.188173 197.071851 
L 222.346168 196.95444 
L 222.451498 196.95444 
L 222.556828 196.837029 
L 222.925483 195.897743 
L 223.452133 195.662921 
L 223.820788 194.606224 
L 224.084113 193.901759 
L 224.926752 193.314706 
L 225.242742 193.314706 
L 225.664062 193.197295 
L 226.032717 193.197295 
L 226.770027 192.610241 
L 227.033352 192.610241 
L 228.507972 191.905776 
L 228.718632 191.905776 
L 229.350612 191.553544 
L 229.771932 191.553544 
L 230.193252 190.96649 
L 230.298582 190.731668 
L 230.561907 189.55756 
L 231.088557 188.970506 
L 231.667872 188.618274 
L 232.247187 186.974522 
L 232.563177 186.62229 
L 233.721807 186.152647 
L 233.879802 186.035236 
L 234.090462 186.035236 
L 234.248457 185.917825 
L 234.459117 185.917825 
L 235.670411 185.213361 
L 236.565716 183.68702 
L 237.303026 183.217377 
L 238.830311 181.221393 
L 239.988941 180.75175 
L 240.410261 180.282107 
L 240.673586 180.164696 
L 241.726886 179.107999 
L 242.095541 178.990588 
L 242.253536 178.990588 
L 242.411531 178.873177 
L 242.727521 178.990588 
L 243.096176 178.990588 
L 243.254171 178.520945 
L 244.044146 174.528978 
L 244.992115 172.063351 
L 248.678665 166.779865 
L 250.10062 165.605757 
L 251.627905 165.018703 
L 253.15519 164.901293 
L 254.261155 165.018703 
L 255.683109 164.54906 
L 256.262424 164.079417 
L 256.999734 163.140131 
L 257.842374 161.261558 
L 258.948339 160.439682 
L 260.264964 160.322272 
L 261.634254 160.08745 
L 262.740219 160.322272 
L 263.530194 159.970039 
L 264.688823 159.852628 
L 265.162808 159.852628 
L 265.531463 159.970039 
L 266.532098 159.970039 
L 267.006083 160.439682 
L 267.848723 161.026736 
L 268.270043 161.026736 
L 268.480703 161.144147 
L 268.902023 161.026736 
L 269.112683 160.557093 
L 269.797328 159.735218 
L 270.587303 158.56111 
L 271.798598 157.974056 
L 272.009258 157.974056 
L 272.219918 157.739234 
L 272.430578 158.091466 
L 272.693903 157.621823 
L 272.957228 156.447715 
L 273.325883 155.74325 
L 273.747203 155.273607 
L 274.642507 154.569143 
L 275.537812 152.925391 
L 276.117127 152.455748 
L 276.749107 152.103516 
L 277.328422 151.986105 
L 277.907737 151.751283 
L 278.434387 151.751283 
L 279.540352 151.399051 
L 282.700252 149.050835 
L 284.227537 148.698603 
L 284.859516 148.816013 
L 285.491496 148.34637 
L 286.176141 147.524495 
L 286.913451 147.289673 
L 287.914086 147.289673 
L 288.598731 147.054852 
L 288.862056 146.585208 
L 289.178046 145.645922 
L 289.599366 144.941457 
L 290.073351 144.471814 
L 290.600001 144.236992 
L 291.969291 143.297706 
L 292.390611 143.180295 
L 292.811931 142.123598 
L 293.338581 141.184312 
L 293.970561 140.832079 
L 296.551145 140.479847 
L 297.13046 140.479847 
L 297.604445 140.597258 
L 298.07843 140.597258 
L 298.447085 140.714668 
L 299.34239 140.479847 
L 299.86904 140.479847 
L 300.764345 140.127614 
L 302.08097 140.127614 
L 302.39696 140.010204 
L 302.92361 139.657971 
L 303.2396 139.657971 
L 303.502925 139.42315 
L 303.818915 139.540561 
L 304.39823 139.070917 
L 305.135539 139.305739 
L 306.136174 138.953507 
L 306.399499 139.070917 
L 308.032114 138.249042 
L 308.348104 138.249042 
L 308.664094 138.131631 
L 308.874754 138.131631 
L 309.190744 138.01422 
L 309.506734 138.01422 
L 309.822724 137.779399 
L 310.244044 137.779399 
L 310.402039 137.896809 
L 310.718029 137.661988 
L 310.876024 137.779399 
L 311.771329 137.192345 
L 313.298614 137.192345 
L 314.088589 136.722701 
L 315.141888 136.253058 
L 315.668538 135.666004 
L 315.773868 135.548593 
L 316.037193 135.548593 
L 316.247853 135.666004 
L 316.353183 135.666004 
L 316.458513 135.548593 
L 316.563843 136.370469 
L 316.985163 135.548593 
L 317.248488 135.548593 
L 317.564478 135.431183 
L 317.775138 135.548593 
L 317.933133 135.431183 
L 318.354453 135.548593 
L 318.512448 135.431183 
L 318.617778 135.548593 
L 318.933768 135.548593 
L 319.144428 135.431183 
L 319.407753 135.313772 
L 319.565748 135.313772 
L 319.881738 135.196361 
L 320.303058 135.196361 
L 320.513718 135.07895 
L 320.619048 135.07895 
L 320.882373 134.961539 
L 321.040368 134.961539 
L 321.251028 134.844129 
L 321.356358 134.844129 
L 321.461688 134.726718 
L 321.567018 134.844129 
L 321.672348 134.726718 
L 321.777678 134.844129 
L 322.041003 134.609307 
L 322.146333 134.609307 
L 322.883643 134.139664 
L 323.199633 134.257075 
L 323.778948 133.670021 
L 323.936943 133.670021 
L 324.463593 132.965556 
L 324.884912 132.495913 
L 325.200902 132.378502 
L 325.727552 132.14368 
L 326.359532 132.14368 
L 326.780852 132.02627 
L 327.254837 132.02627 
L 327.360167 131.908859 
L 327.623492 132.02627 
L 327.886817 131.908859 
L 327.992147 132.02627 
L 328.360802 131.556626 
L 328.729457 130.852162 
L 329.940752 130.499929 
L 330.520067 130.852162 
L 330.783392 130.499929 
L 331.520702 130.030286 
L 331.889357 130.265108 
L 332.310677 130.030286 
L 332.837327 130.030286 
L 333.100652 129.678054 
L 333.311312 129.795464 
L 333.469307 129.678054 
L 333.890627 128.973589 
L 334.259282 128.621356 
L 334.996591 128.503946 
L 335.312581 128.503946 
L 335.944561 128.269124 
L 336.418546 128.503946 
L 336.629206 128.386535 
L 336.787201 128.034302 
L 337.050526 128.269124 
L 337.313851 128.269124 
L 337.524511 127.916892 
L 338.209156 127.447248 
L 338.735806 126.860194 
L 339.262456 126.507962 
L 340.684411 126.15573 
L 341.158396 125.803497 
L 342.317026 125.568676 
L 342.580351 125.568676 
L 343.107001 125.216443 
L 343.791646 124.511979 
L 344.265631 124.511979 
L 344.739615 123.807514 
L 345.2136 124.159746 
L 345.74025 124.042335 
L 346.2669 123.337871 
L 348.004845 123.690103 
L 349.95345 123.690103 
L 350.111445 123.572692 
L 350.743425 123.807514 
L 350.90142 123.690103 
L 351.21741 123.807514 
L 351.32274 123.690103 
L 351.586065 123.807514 
L 352.06005 123.807514 
L 352.37604 123.690103 
L 352.69203 123.807514 
L 352.850025 123.807514 
L 353.166015 123.690103 
L 353.32401 123.807514 
L 353.692665 123.690103 
L 354.008655 123.807514 
L 354.58797 123.807514 
L 354.693299 123.924925 
L 355.219949 123.924925 
L 355.535939 124.159746 
L 355.641269 124.042335 
L 355.851929 124.159746 
L 355.957259 124.159746 
L 356.062589 124.042335 
L 356.273249 124.159746 
L 356.641904 124.159746 
L 356.852564 124.042335 
L 357.010559 124.159746 
L 357.168554 124.159746 
L 357.221219 124.042335 
L 357.273884 124.159746 
L 357.326549 124.159746 
L 357.431879 123.924925 
L 357.642539 122.985638 
L 357.800534 122.633406 
L 358.221854 122.398584 
L 358.643174 121.928941 
L 359.011829 121.576709 
L 359.275154 121.224476 
L 359.433149 121.224476 
L 360.907769 120.167779 
L 361.118429 120.167779 
L 361.329089 120.050368 
L 361.803074 120.050368 
L 362.593049 119.580725 
L 362.909039 119.580725 
L 363.699014 119.111082 
L 363.962339 118.758849 
L 364.225664 118.641439 
L 364.699648 118.171795 
L 365.173633 117.936974 
L 365.384293 117.936974 
L 365.858278 117.702152 
L 366.806248 117.232509 
L 366.964243 117.232509 
L 367.438228 116.997688 
L 367.701553 116.997688 
L 367.859548 116.293223 
L 368.122873 115.82358 
L 369.386833 115.236526 
L 369.755488 115.236526 
L 370.492798 115.001704 
L 371.651428 114.062418 
L 372.072748 113.945007 
L 372.441403 114.532061 
L 372.810058 113.710185 
L 374.074018 112.536077 
L 374.390008 111.949023 
L 375.232647 111.361969 
L 375.917292 111.127148 
L 376.549272 110.657504 
L 376.970592 110.07045 
L 377.918562 109.718218 
L 378.971862 109.600807 
L 379.393182 109.600807 
L 380.288487 109.365986 
L 380.657142 109.365986 
L 381.710442 108.896343 
L 382.763742 108.661521 
L 383.869707 107.957056 
L 384.185697 108.074467 
L 384.765011 107.839645 
L 384.975671 107.957056 
L 385.976306 107.957056 
L 386.397626 107.839645 
L 387.240266 107.370002 
L 389.241536 107.01777 
L 389.873516 107.01777 
L 393.981386 106.078483 
L 394.297376 106.195894 
L 394.508036 106.078483 
L 394.77136 106.078483 
L 395.40334 105.726251 
L 395.771995 105.60884 
L 396.14065 105.021786 
L 396.56197 104.669554 
L 400.090525 103.730267 
L 400.56451 103.495446 
L 400.722505 103.495446 
L 400.98583 103.260624 
L 401.249155 103.260624 
L 401.51248 103.143213 
L 401.82847 103.143213 
L 402.723775 102.908392 
L 403.250425 102.908392 
L 403.82974 102.67357 
L 404.0404 102.67357 
L 404.25106 102.556159 
L 404.56705 102.67357 
L 404.883039 102.556159 
L 405.146364 102.67357 
L 405.673014 102.556159 
L 405.936339 102.556159 
L 406.304994 102.438749 
L 406.515654 102.438749 
L 406.831644 102.321338 
L 407.252964 102.321338 
L 407.410959 102.203927 
L 407.937609 102.203927 
L 408.148269 102.086516 
L 408.306264 101.851695 
L 408.516924 101.851695 
L 408.885579 101.616873 
L 409.043574 101.616873 
L 409.254234 101.734284 
L 409.464894 101.734284 
L 409.570224 101.851695 
L 409.833549 101.734284 
L 410.044209 101.734284 
L 410.149539 101.851695 
L 410.307534 101.734284 
L 410.412864 101.851695 
L 410.623524 101.734284 
L 410.728854 101.734284 
L 410.886849 101.851695 
L 411.097509 101.734284 
L 411.360834 101.616873 
L 411.466164 101.264641 
L 412.045479 100.912408 
L 412.256139 101.616873 
L 412.466799 101.616873 
L 412.730124 100.794998 
L 412.993449 100.794998 
L 413.204109 100.677587 
L 413.783424 100.677587 
L 414.204744 100.560176 
L 414.678729 100.560176 
L 414.889388 100.442765 
L 415.100048 100.560176 
L 415.363373 100.442765 
L 415.626698 100.442765 
L 415.837358 100.207944 
L 415.942688 100.325354 
L 416.258678 100.090533 
L 416.416673 100.090533 
L 416.522003 99.973122 
L 416.679998 99.973122 
L 416.785328 99.855711 
L 416.943323 99.855711 
L 417.153983 99.7383 
L 417.364643 99.7383 
L 417.469973 99.62089 
L 417.627968 99.7383 
L 417.838628 99.62089 
L 418.312613 99.62089 
L 418.365278 99.7383 
L 418.628603 99.62089 
L 418.891928 99.62089 
L 419.207918 99.386068 
L 419.365913 99.503479 
L 419.734568 99.151246 
L 420.155888 98.564192 
L 420.313883 98.564192 
L 420.419213 98.446782 
L 420.577208 98.446782 
L 420.893198 98.329371 
L 421.156523 98.329371 
L 421.630508 98.094549 
L 421.788503 98.094549 
L 421.893833 98.21196 
L 422.525813 98.21196 
L 422.631143 98.094549 
L 423.105128 98.094549 
L 423.631778 97.742317 
L 423.789773 97.742317 
L 424.579748 96.68562 
L 425.106397 96.333387 
L 426.001702 95.863744 
L 426.212362 95.746333 
L 426.686347 95.511512 
L 426.844342 95.511512 
L 427.160332 95.27669 
L 427.423657 95.27669 
L 427.581652 95.041868 
L 427.739647 95.041868 
L 428.160967 94.807047 
L 428.424292 94.807047 
L 429.530257 94.337404 
L 431.426197 94.337404 
L 431.952847 93.985171 
L 432.268837 93.985171 
L 432.637492 93.632939 
L 432.953482 93.632939 
L 433.269472 93.515528 
L 433.585462 93.632939 
L 433.743457 93.515528 
L 434.217442 93.515528 
L 434.533432 93.398117 
L 434.691427 93.398117 
L 435.112746 93.632939 
L 435.323406 93.515528 
L 435.481401 93.632939 
L 436.271376 93.163296 
L 436.376706 93.163296 
L 436.692696 93.045885 
L 436.798026 93.045885 
L 437.114016 92.928474 
L 437.324676 93.045885 
L 437.482671 92.928474 
L 437.693331 92.928474 
L 437.851326 93.632939 
L 438.061986 92.928474 
L 438.377976 92.811063 
L 439.325946 92.811063 
L 439.589271 92.693653 
L 439.799931 92.811063 
L 440.800566 92.34142 
L 441.011226 92.458831 
L 441.643206 91.871777 
L 441.853866 91.636955 
L 442.117191 91.636955 
L 442.854501 91.402134 
L 443.433816 91.402134 
L 443.960466 90.81508 
L 445.013765 90.81508 
L 445.645745 90.345437 
L 445.961735 90.345437 
L 446.488385 90.110615 
L 446.804375 90.228026 
L 447.0677 90.110615 
L 447.38369 90.110615 
L 447.647015 89.993204 
L 447.963005 89.993204 
L 449.1743 89.523561 
L 450.2276 89.171329 
L 450.75425 88.819096 
L 451.122905 88.701685 
L 451.2809 88.819096 
L 451.59689 87.87981 
L 452.01821 87.527577 
L 452.597525 87.057934 
L 453.91415 86.588291 
L 454.12481 86.47088 
L 454.493465 86.118648 
L 454.75679 85.766416 
L 455.125444 85.766416 
L 455.599429 85.649005 
L 456.073414 85.649005 
L 457.706029 84.709718 
L 458.232679 84.709718 
L 460.391944 84.122664 
L 460.707934 84.240075 
L 461.497909 86.940523 
L 462.603874 89.758383 
L 465.500448 171.124065 
L 465.500448 171.124065 
" clip-path="url(#pbb4aad4a3f)" style="fill: none; stroke: #407fb7; stroke-width: 2; stroke-linecap: square"/>
   </g>
   <g id="line2d_17">
    <path d="M 86.312486 435.415769 
L 127.963887 286.822051 
L 169.963651 226.871238 
L 212.000658 207.467535 
L 254.061928 166.83489 
L 296.228642 126.190016 
L 338.459772 98.708815 
L 380.763156 79.086614 
L 423.303308 81.924946 
L 465.751611 113.67037 
" clip-path="url(#pbb4aad4a3f)" style="fill: none; stroke: #d85c41; stroke-width: 2; stroke-linecap: square"/>
   </g>
   <g id="patch_3">
    <path d="M 67.322835 454.110236 
L 67.322835 61.228346 
" style="fill: none; stroke: #000000; stroke-width: 0.8; stroke-linejoin: miter; stroke-linecap: square"/>
   </g>
   <g id="patch_4">
    <path d="M 67.322835 454.110236 
L 484.724409 454.110236 
" style="fill: none; stroke: #000000; stroke-width: 0.8; stroke-linejoin: miter; stroke-linecap: square"/>
   </g>
   <g id="legend_1">
    <g id="patch_5">
     <path d="M 77.822835 115.645534 
L 224.546272 115.645534 
Q 227.546272 115.645534 227.546272 112.645534 
L 227.546272 71.728346 
Q 227.546272 68.728346 224.546272 68.728346 
L 77.822835 68.728346 
Q 74.822835 68.728346 74.822835 71.728346 
L 74.822835 112.645534 
Q 74.822835 115.645534 77.822835 115.645534 
z
" style="fill: #ffffff; opacity: 0.8; stroke: #cccccc; stroke-linejoin: miter"/>
    </g>
    <g id="line2d_18">
     <path d="M 80.822835 79.978346 
L 95.822835 79.978346 
L 110.822835 79.978346 
" style="fill: none; stroke: #407fb7; stroke-width: 2; stroke-linecap: square"/>
    </g>
    <g id="text_18">
     <!-- WB303 - A -->
     <g transform="translate(122.822835 85.228346) scale(0.15 -0.15)">
      <defs>
       <path id="TimesNewRomanPSMT-57" d="M 5991 4238 
L 5991 4122 
Q 5825 4122 5722 4062 
Q 5619 4003 5525 3841 
Q 5463 3731 5328 3319 
L 4147 -97 
L 4022 -97 
L 3056 2613 
L 2097 -97 
L 1984 -97 
L 725 3422 
Q 584 3816 547 3888 
Q 484 4006 376 4064 
Q 269 4122 84 4122 
L 84 4238 
L 1653 4238 
L 1653 4122 
L 1578 4122 
Q 1413 4122 1325 4047 
Q 1238 3972 1238 3866 
Q 1238 3756 1375 3363 
L 2209 984 
L 2913 3006 
L 2788 3363 
L 2688 3647 
Q 2622 3803 2541 3922 
Q 2500 3981 2441 4022 
Q 2363 4078 2284 4103 
Q 2225 4122 2097 4122 
L 2097 4238 
L 3747 4238 
L 3747 4122 
L 3634 4122 
Q 3459 4122 3378 4047 
Q 3297 3972 3297 3844 
Q 3297 3684 3438 3288 
L 4250 984 
L 5056 3319 
Q 5194 3706 5194 3856 
Q 5194 3928 5148 3990 
Q 5103 4053 5034 4078 
Q 4916 4122 4725 4122 
L 4725 4238 
L 5991 4238 
z
" transform="scale(0.015625)"/>
       <path id="TimesNewRomanPSMT-42" d="M 2956 2163 
Q 3397 2069 3616 1863 
Q 3919 1575 3919 1159 
Q 3919 844 3719 555 
Q 3519 266 3170 133 
Q 2822 0 2106 0 
L 106 0 
L 106 116 
L 266 116 
Q 531 116 647 284 
Q 719 394 719 750 
L 719 3488 
Q 719 3881 628 3984 
Q 506 4122 266 4122 
L 106 4122 
L 106 4238 
L 1938 4238 
Q 2450 4238 2759 4163 
Q 3228 4050 3475 3764 
Q 3722 3478 3722 3106 
Q 3722 2788 3528 2536 
Q 3334 2284 2956 2163 
z
M 1319 2331 
Q 1434 2309 1582 2298 
Q 1731 2288 1909 2288 
Q 2366 2288 2595 2386 
Q 2825 2484 2947 2687 
Q 3069 2891 3069 3131 
Q 3069 3503 2766 3765 
Q 2463 4028 1881 4028 
Q 1569 4028 1319 3959 
L 1319 2331 
z
M 1319 306 
Q 1681 222 2034 222 
Q 2600 222 2897 476 
Q 3194 731 3194 1106 
Q 3194 1353 3059 1581 
Q 2925 1809 2622 1940 
Q 2319 2072 1872 2072 
Q 1678 2072 1540 2065 
Q 1403 2059 1319 2044 
L 1319 306 
z
" transform="scale(0.015625)"/>
       <path id="TimesNewRomanPSMT-2d" d="M 259 1672 
L 1875 1672 
L 1875 1200 
L 259 1200 
L 259 1672 
z
" transform="scale(0.015625)"/>
       <path id="TimesNewRomanPSMT-41" d="M 2928 1419 
L 1288 1419 
L 1000 750 
Q 894 503 894 381 
Q 894 284 986 211 
Q 1078 138 1384 116 
L 1384 0 
L 50 0 
L 50 116 
Q 316 163 394 238 
Q 553 388 747 847 
L 2238 4334 
L 2347 4334 
L 3822 809 
Q 4000 384 4145 257 
Q 4291 131 4550 116 
L 4550 0 
L 2878 0 
L 2878 116 
Q 3131 128 3220 200 
Q 3309 272 3309 375 
Q 3309 513 3184 809 
L 2928 1419 
z
M 2841 1650 
L 2122 3363 
L 1384 1650 
L 2841 1650 
z
" transform="scale(0.015625)"/>
      </defs>
      <use xlink:href="#TimesNewRomanPSMT-57"/>
      <use xlink:href="#TimesNewRomanPSMT-42" transform="translate(94.384766 0)"/>
      <use xlink:href="#TimesNewRomanPSMT-33" transform="translate(161.083984 0)"/>
      <use xlink:href="#TimesNewRomanPSMT-30" transform="translate(211.083984 0)"/>
      <use xlink:href="#TimesNewRomanPSMT-33" transform="translate(261.083984 0)"/>
      <use xlink:href="#TimesNewRomanPSMT-20" transform="translate(311.083984 0)"/>
      <use xlink:href="#TimesNewRomanPSMT-2d" transform="translate(336.083984 0)"/>
      <use xlink:href="#TimesNewRomanPSMT-20" transform="translate(369.384766 0)"/>
      <use xlink:href="#TimesNewRomanPSMT-41" transform="translate(388.884766 0)"/>
     </g>
    </g>
    <g id="line2d_19">
     <path d="M 80.822835 101.18694 
L 95.822835 101.18694 
L 110.822835 101.18694 
" style="fill: none; stroke: #d85c41; stroke-width: 2; stroke-linecap: square"/>
    </g>
    <g id="text_19">
     <!-- FE - 3D discrete -->
     <g transform="translate(122.822835 106.43694) scale(0.15 -0.15)">
      <defs>
       <path id="TimesNewRomanPSMT-45" d="M 1338 4006 
L 1338 2331 
L 2269 2331 
Q 2631 2331 2753 2441 
Q 2916 2584 2934 2947 
L 3050 2947 
L 3050 1472 
L 2934 1472 
Q 2891 1781 2847 1869 
Q 2791 1978 2662 2040 
Q 2534 2103 2269 2103 
L 1338 2103 
L 1338 706 
Q 1338 425 1363 364 
Q 1388 303 1450 267 
Q 1513 231 1688 231 
L 2406 231 
Q 2766 231 2928 281 
Q 3091 331 3241 478 
Q 3434 672 3638 1063 
L 3763 1063 
L 3397 0 
L 131 0 
L 131 116 
L 281 116 
Q 431 116 566 188 
Q 666 238 702 338 
Q 738 438 738 747 
L 738 3500 
Q 738 3903 656 3997 
Q 544 4122 281 4122 
L 131 4122 
L 131 4238 
L 3397 4238 
L 3444 3309 
L 3322 3309 
Q 3256 3644 3176 3769 
Q 3097 3894 2941 3959 
Q 2816 4006 2500 4006 
L 1338 4006 
z
" transform="scale(0.015625)"/>
       <path id="TimesNewRomanPSMT-64" d="M 2222 322 
Q 2013 103 1813 7 
Q 1613 -88 1381 -88 
Q 913 -88 563 304 
Q 213 697 213 1313 
Q 213 1928 600 2439 
Q 988 2950 1597 2950 
Q 1975 2950 2222 2709 
L 2222 3238 
Q 2222 3728 2198 3840 
Q 2175 3953 2125 3993 
Q 2075 4034 2000 4034 
Q 1919 4034 1784 3984 
L 1744 4094 
L 2597 4444 
L 2738 4444 
L 2738 1134 
Q 2738 631 2761 520 
Q 2784 409 2836 365 
Q 2888 322 2956 322 
Q 3041 322 3181 375 
L 3216 266 
L 2366 -88 
L 2222 -88 
L 2222 322 
z
M 2222 541 
L 2222 2016 
Q 2203 2228 2109 2403 
Q 2016 2578 1861 2667 
Q 1706 2756 1559 2756 
Q 1284 2756 1069 2509 
Q 784 2184 784 1559 
Q 784 928 1059 592 
Q 1334 256 1672 256 
Q 1956 256 2222 541 
z
" transform="scale(0.015625)"/>
      </defs>
      <use xlink:href="#TimesNewRomanPSMT-46"/>
      <use xlink:href="#TimesNewRomanPSMT-45" transform="translate(55.615234 0)"/>
      <use xlink:href="#TimesNewRomanPSMT-20" transform="translate(116.699219 0)"/>
      <use xlink:href="#TimesNewRomanPSMT-2d" transform="translate(141.699219 0)"/>
      <use xlink:href="#TimesNewRomanPSMT-20" transform="translate(175 0)"/>
      <use xlink:href="#TimesNewRomanPSMT-33" transform="translate(200 0)"/>
      <use xlink:href="#TimesNewRomanPSMT-44" transform="translate(250 0)"/>
      <use xlink:href="#TimesNewRomanPSMT-20" transform="translate(322.216797 0)"/>
      <use xlink:href="#TimesNewRomanPSMT-64" transform="translate(347.216797 0)"/>
      <use xlink:href="#TimesNewRomanPSMT-69" transform="translate(397.216797 0)"/>
      <use xlink:href="#TimesNewRomanPSMT-73" transform="translate(425 0)"/>
      <use xlink:href="#TimesNewRomanPSMT-63" transform="translate(463.916016 0)"/>
      <use xlink:href="#TimesNewRomanPSMT-72" transform="translate(508.300781 0)"/>
      <use xlink:href="#TimesNewRomanPSMT-65" transform="translate(541.601562 0)"/>
      <use xlink:href="#TimesNewRomanPSMT-74" transform="translate(585.986328 0)"/>
      <use xlink:href="#TimesNewRomanPSMT-65" transform="translate(613.769531 0)"/>
     </g>
    </g>
   </g>
  </g>
 </g>
 <defs>
  <clipPath id="pbb4aad4a3f">
   <rect x="67.322835" y="61.228346" width="417.401575" height="392.88189"/>
  </clipPath>
 </defs>
</svg>
