<?xml version="1.0" encoding="utf-8" standalone="no"?>
<!DOCTYPE svg PUBLIC "-//W3C//DTD SVG 1.1//EN"
  "http://www.w3.org/Graphics/SVG/1.1/DTD/svg11.dtd">
<svg xmlns:xlink="http://www.w3.org/1999/xlink" width="538.582677pt" height="510.23622pt" viewBox="0 0 538.582677 510.23622" xmlns="http://www.w3.org/2000/svg" version="1.1">
 <metadata>
  <rdf:RDF xmlns:dc="http://purl.org/dc/elements/1.1/" xmlns:cc="http://creativecommons.org/ns#" xmlns:rdf="http://www.w3.org/1999/02/22-rdf-syntax-ns#">
   <cc:Work>
    <dc:type rdf:resource="http://purl.org/dc/dcmitype/StillImage"/>
    <dc:date>2025-06-11T15:05:19.639170</dc:date>
    <dc:format>image/svg+xml</dc:format>
    <dc:creator>
     <cc:Agent>
      <dc:title>Matplotlib v3.10.1, https://matplotlib.org/</dc:title>
     </cc:Agent>
    </dc:creator>
   </cc:Work>
  </rdf:RDF>
 </metadata>
 <defs>
  <style type="text/css">*{stroke-linejoin: round; stroke-linecap: butt}</style>
 </defs>
 <g id="figure_1">
  <g id="patch_1">
   <path d="M 0 510.23622 
L 538.582677 510.23622 
L 538.582677 0 
L 0 0 
z
" style="fill: #ffffff"/>
  </g>
  <g id="axes_1">
   <g id="patch_2">
    <path d="M 67.322835 454.110236 
L 484.724409 454.110236 
L 484.724409 61.228346 
L 67.322835 61.228346 
z
" style="fill: #ffffff"/>
   </g>
   <g id="matplotlib.axis_1">
    <g id="xtick_1">
     <g id="line2d_1">
      <defs>
       <path id="m7505a3bd6d" d="M 0 0 
L 0 3.5 
" style="stroke: #000000; stroke-width: 0.8"/>
      </defs>
      <g>
       <use xlink:href="#m7505a3bd6d" x="76.193495" y="454.110236" style="stroke: #000000; stroke-width: 0.8"/>
      </g>
     </g>
     <g id="text_1">
      <!-- −0.25 -->
      <g transform="translate(58.839198 471.525861) scale(0.15 -0.15)">
       <defs>
        <path id="TimesNewRomanPSMT-2212" d="M 3484 2000 
L 116 2000 
L 116 2256 
L 3484 2256 
L 3484 2000 
z
" transform="scale(0.015625)"/>
        <path id="TimesNewRomanPSMT-30" d="M 231 2094 
Q 231 2819 450 3342 
Q 669 3866 1031 4122 
Q 1313 4325 1613 4325 
Q 2100 4325 2488 3828 
Q 2972 3213 2972 2159 
Q 2972 1422 2759 906 
Q 2547 391 2217 158 
Q 1888 -75 1581 -75 
Q 975 -75 572 641 
Q 231 1244 231 2094 
z
M 844 2016 
Q 844 1141 1059 588 
Q 1238 122 1591 122 
Q 1759 122 1940 273 
Q 2122 425 2216 781 
Q 2359 1319 2359 2297 
Q 2359 3022 2209 3506 
Q 2097 3866 1919 4016 
Q 1791 4119 1609 4119 
Q 1397 4119 1231 3928 
Q 1006 3669 925 3112 
Q 844 2556 844 2016 
z
" transform="scale(0.015625)"/>
        <path id="TimesNewRomanPSMT-2e" d="M 800 606 
Q 947 606 1047 504 
Q 1147 403 1147 259 
Q 1147 116 1045 14 
Q 944 -88 800 -88 
Q 656 -88 554 14 
Q 453 116 453 259 
Q 453 406 554 506 
Q 656 606 800 606 
z
" transform="scale(0.015625)"/>
        <path id="TimesNewRomanPSMT-32" d="M 2934 816 
L 2638 0 
L 138 0 
L 138 116 
Q 1241 1122 1691 1759 
Q 2141 2397 2141 2925 
Q 2141 3328 1894 3587 
Q 1647 3847 1303 3847 
Q 991 3847 742 3664 
Q 494 3481 375 3128 
L 259 3128 
Q 338 3706 661 4015 
Q 984 4325 1469 4325 
Q 1984 4325 2329 3994 
Q 2675 3663 2675 3213 
Q 2675 2891 2525 2569 
Q 2294 2063 1775 1497 
Q 997 647 803 472 
L 1909 472 
Q 2247 472 2383 497 
Q 2519 522 2628 598 
Q 2738 675 2819 816 
L 2934 816 
z
" transform="scale(0.015625)"/>
        <path id="TimesNewRomanPSMT-35" d="M 2778 4238 
L 2534 3706 
L 1259 3706 
L 981 3138 
Q 1809 3016 2294 2522 
Q 2709 2097 2709 1522 
Q 2709 1188 2573 903 
Q 2438 619 2231 419 
Q 2025 219 1772 97 
Q 1413 -75 1034 -75 
Q 653 -75 479 54 
Q 306 184 306 341 
Q 306 428 378 495 
Q 450 563 559 563 
Q 641 563 702 538 
Q 763 513 909 409 
Q 1144 247 1384 247 
Q 1750 247 2026 523 
Q 2303 800 2303 1197 
Q 2303 1581 2056 1914 
Q 1809 2247 1375 2428 
Q 1034 2569 447 2591 
L 1259 4238 
L 2778 4238 
z
" transform="scale(0.015625)"/>
       </defs>
       <use xlink:href="#TimesNewRomanPSMT-2212"/>
       <use xlink:href="#TimesNewRomanPSMT-30" transform="translate(56.396484 0)"/>
       <use xlink:href="#TimesNewRomanPSMT-2e" transform="translate(106.396484 0)"/>
       <use xlink:href="#TimesNewRomanPSMT-32" transform="translate(131.396484 0)"/>
       <use xlink:href="#TimesNewRomanPSMT-35" transform="translate(181.396484 0)"/>
      </g>
     </g>
    </g>
    <g id="xtick_2">
     <g id="line2d_2">
      <g>
       <use xlink:href="#m7505a3bd6d" x="132.068153" y="454.110236" style="stroke: #000000; stroke-width: 0.8"/>
      </g>
     </g>
     <g id="text_2">
      <!-- 0.00 -->
      <g transform="translate(118.943153 471.525861) scale(0.15 -0.15)">
       <use xlink:href="#TimesNewRomanPSMT-30"/>
       <use xlink:href="#TimesNewRomanPSMT-2e" transform="translate(50 0)"/>
       <use xlink:href="#TimesNewRomanPSMT-30" transform="translate(75 0)"/>
       <use xlink:href="#TimesNewRomanPSMT-30" transform="translate(125 0)"/>
      </g>
     </g>
    </g>
    <g id="xtick_3">
     <g id="line2d_3">
      <g>
       <use xlink:href="#m7505a3bd6d" x="187.942811" y="454.110236" style="stroke: #000000; stroke-width: 0.8"/>
      </g>
     </g>
     <g id="text_3">
      <!-- 0.25 -->
      <g transform="translate(174.817811 471.525861) scale(0.15 -0.15)">
       <use xlink:href="#TimesNewRomanPSMT-30"/>
       <use xlink:href="#TimesNewRomanPSMT-2e" transform="translate(50 0)"/>
       <use xlink:href="#TimesNewRomanPSMT-32" transform="translate(75 0)"/>
       <use xlink:href="#TimesNewRomanPSMT-35" transform="translate(125 0)"/>
      </g>
     </g>
    </g>
    <g id="xtick_4">
     <g id="line2d_4">
      <g>
       <use xlink:href="#m7505a3bd6d" x="243.817469" y="454.110236" style="stroke: #000000; stroke-width: 0.8"/>
      </g>
     </g>
     <g id="text_4">
      <!-- 0.50 -->
      <g transform="translate(230.692469 471.525861) scale(0.15 -0.15)">
       <use xlink:href="#TimesNewRomanPSMT-30"/>
       <use xlink:href="#TimesNewRomanPSMT-2e" transform="translate(50 0)"/>
       <use xlink:href="#TimesNewRomanPSMT-35" transform="translate(75 0)"/>
       <use xlink:href="#TimesNewRomanPSMT-30" transform="translate(125 0)"/>
      </g>
     </g>
    </g>
    <g id="xtick_5">
     <g id="line2d_5">
      <g>
       <use xlink:href="#m7505a3bd6d" x="299.692127" y="454.110236" style="stroke: #000000; stroke-width: 0.8"/>
      </g>
     </g>
     <g id="text_5">
      <!-- 0.75 -->
      <g transform="translate(286.567127 471.525861) scale(0.15 -0.15)">
       <defs>
        <path id="TimesNewRomanPSMT-37" d="M 644 4238 
L 2916 4238 
L 2916 4119 
L 1503 -88 
L 1153 -88 
L 2419 3728 
L 1253 3728 
Q 900 3728 750 3644 
Q 488 3500 328 3200 
L 238 3234 
L 644 4238 
z
" transform="scale(0.015625)"/>
       </defs>
       <use xlink:href="#TimesNewRomanPSMT-30"/>
       <use xlink:href="#TimesNewRomanPSMT-2e" transform="translate(50 0)"/>
       <use xlink:href="#TimesNewRomanPSMT-37" transform="translate(75 0)"/>
       <use xlink:href="#TimesNewRomanPSMT-35" transform="translate(125 0)"/>
      </g>
     </g>
    </g>
    <g id="xtick_6">
     <g id="line2d_6">
      <g>
       <use xlink:href="#m7505a3bd6d" x="355.566785" y="454.110236" style="stroke: #000000; stroke-width: 0.8"/>
      </g>
     </g>
     <g id="text_6">
      <!-- 1.00 -->
      <g transform="translate(342.441785 471.525861) scale(0.15 -0.15)">
       <defs>
        <path id="TimesNewRomanPSMT-31" d="M 750 3822 
L 1781 4325 
L 1884 4325 
L 1884 747 
Q 1884 391 1914 303 
Q 1944 216 2037 169 
Q 2131 122 2419 116 
L 2419 0 
L 825 0 
L 825 116 
Q 1125 122 1212 167 
Q 1300 213 1334 289 
Q 1369 366 1369 747 
L 1369 3034 
Q 1369 3497 1338 3628 
Q 1316 3728 1258 3775 
Q 1200 3822 1119 3822 
Q 1003 3822 797 3725 
L 750 3822 
z
" transform="scale(0.015625)"/>
       </defs>
       <use xlink:href="#TimesNewRomanPSMT-31"/>
       <use xlink:href="#TimesNewRomanPSMT-2e" transform="translate(50 0)"/>
       <use xlink:href="#TimesNewRomanPSMT-30" transform="translate(75 0)"/>
       <use xlink:href="#TimesNewRomanPSMT-30" transform="translate(125 0)"/>
      </g>
     </g>
    </g>
    <g id="xtick_7">
     <g id="line2d_7">
      <g>
       <use xlink:href="#m7505a3bd6d" x="411.441443" y="454.110236" style="stroke: #000000; stroke-width: 0.8"/>
      </g>
     </g>
     <g id="text_7">
      <!-- 1.25 -->
      <g transform="translate(398.316443 471.525861) scale(0.15 -0.15)">
       <use xlink:href="#TimesNewRomanPSMT-31"/>
       <use xlink:href="#TimesNewRomanPSMT-2e" transform="translate(50 0)"/>
       <use xlink:href="#TimesNewRomanPSMT-32" transform="translate(75 0)"/>
       <use xlink:href="#TimesNewRomanPSMT-35" transform="translate(125 0)"/>
      </g>
     </g>
    </g>
    <g id="xtick_8">
     <g id="line2d_8">
      <g>
       <use xlink:href="#m7505a3bd6d" x="467.316101" y="454.110236" style="stroke: #000000; stroke-width: 0.8"/>
      </g>
     </g>
     <g id="text_8">
      <!-- 1.50 -->
      <g transform="translate(454.191101 471.525861) scale(0.15 -0.15)">
       <use xlink:href="#TimesNewRomanPSMT-31"/>
       <use xlink:href="#TimesNewRomanPSMT-2e" transform="translate(50 0)"/>
       <use xlink:href="#TimesNewRomanPSMT-35" transform="translate(75 0)"/>
       <use xlink:href="#TimesNewRomanPSMT-30" transform="translate(125 0)"/>
      </g>
     </g>
    </g>
    <g id="text_9">
     <!-- Displacement [mm] -->
     <g transform="translate(188.355341 494.010705) scale(0.22 -0.22)">
      <defs>
       <path id="TimesNewRomanPSMT-44" d="M 109 0 
L 109 116 
L 269 116 
Q 538 116 650 288 
Q 719 391 719 750 
L 719 3488 
Q 719 3884 631 3984 
Q 509 4122 269 4122 
L 109 4122 
L 109 4238 
L 1834 4238 
Q 2784 4238 3279 4022 
Q 3775 3806 4076 3303 
Q 4378 2800 4378 2141 
Q 4378 1256 3841 663 
Q 3238 0 2003 0 
L 109 0 
z
M 1319 306 
Q 1716 219 1984 219 
Q 2709 219 3187 728 
Q 3666 1238 3666 2109 
Q 3666 2988 3187 3494 
Q 2709 4000 1959 4000 
Q 1678 4000 1319 3909 
L 1319 306 
z
" transform="scale(0.015625)"/>
       <path id="TimesNewRomanPSMT-69" d="M 928 4444 
Q 1059 4444 1151 4351 
Q 1244 4259 1244 4128 
Q 1244 3997 1151 3903 
Q 1059 3809 928 3809 
Q 797 3809 703 3903 
Q 609 3997 609 4128 
Q 609 4259 701 4351 
Q 794 4444 928 4444 
z
M 1188 2947 
L 1188 647 
Q 1188 378 1227 289 
Q 1266 200 1342 156 
Q 1419 113 1622 113 
L 1622 0 
L 231 0 
L 231 113 
Q 441 113 512 153 
Q 584 194 626 287 
Q 669 381 669 647 
L 669 1750 
Q 669 2216 641 2353 
Q 619 2453 572 2492 
Q 525 2531 444 2531 
Q 356 2531 231 2484 
L 188 2597 
L 1050 2947 
L 1188 2947 
z
" transform="scale(0.015625)"/>
       <path id="TimesNewRomanPSMT-73" d="M 2050 2947 
L 2050 1972 
L 1947 1972 
Q 1828 2431 1642 2597 
Q 1456 2763 1169 2763 
Q 950 2763 815 2647 
Q 681 2531 681 2391 
Q 681 2216 781 2091 
Q 878 1963 1175 1819 
L 1631 1597 
Q 2266 1288 2266 781 
Q 2266 391 1970 151 
Q 1675 -88 1309 -88 
Q 1047 -88 709 6 
Q 606 38 541 38 
Q 469 38 428 -44 
L 325 -44 
L 325 978 
L 428 978 
Q 516 541 762 319 
Q 1009 97 1316 97 
Q 1531 97 1667 223 
Q 1803 350 1803 528 
Q 1803 744 1651 891 
Q 1500 1038 1047 1263 
Q 594 1488 453 1669 
Q 313 1847 313 2119 
Q 313 2472 555 2709 
Q 797 2947 1181 2947 
Q 1350 2947 1591 2875 
Q 1750 2828 1803 2828 
Q 1853 2828 1881 2850 
Q 1909 2872 1947 2947 
L 2050 2947 
z
" transform="scale(0.015625)"/>
       <path id="TimesNewRomanPSMT-70" d="M -6 2578 
L 875 2934 
L 994 2934 
L 994 2266 
Q 1216 2644 1439 2795 
Q 1663 2947 1909 2947 
Q 2341 2947 2628 2609 
Q 2981 2197 2981 1534 
Q 2981 794 2556 309 
Q 2206 -88 1675 -88 
Q 1444 -88 1275 -22 
Q 1150 25 994 166 
L 994 -706 
Q 994 -1000 1030 -1079 
Q 1066 -1159 1155 -1206 
Q 1244 -1253 1478 -1253 
L 1478 -1369 
L -22 -1369 
L -22 -1253 
L 56 -1253 
Q 228 -1256 350 -1188 
Q 409 -1153 442 -1076 
Q 475 -1000 475 -688 
L 475 2019 
Q 475 2297 450 2372 
Q 425 2447 370 2484 
Q 316 2522 222 2522 
Q 147 2522 31 2478 
L -6 2578 
z
M 994 2081 
L 994 1013 
Q 994 666 1022 556 
Q 1066 375 1236 237 
Q 1406 100 1666 100 
Q 1978 100 2172 344 
Q 2425 663 2425 1241 
Q 2425 1897 2138 2250 
Q 1938 2494 1663 2494 
Q 1513 2494 1366 2419 
Q 1253 2363 994 2081 
z
" transform="scale(0.015625)"/>
       <path id="TimesNewRomanPSMT-6c" d="M 1184 4444 
L 1184 647 
Q 1184 378 1223 290 
Q 1263 203 1344 158 
Q 1425 113 1647 113 
L 1647 0 
L 244 0 
L 244 113 
Q 441 113 512 153 
Q 584 194 625 287 
Q 666 381 666 647 
L 666 3247 
Q 666 3731 644 3842 
Q 622 3953 573 3993 
Q 525 4034 450 4034 
Q 369 4034 244 3984 
L 191 4094 
L 1044 4444 
L 1184 4444 
z
" transform="scale(0.015625)"/>
       <path id="TimesNewRomanPSMT-61" d="M 1822 413 
Q 1381 72 1269 19 
Q 1100 -59 909 -59 
Q 613 -59 420 144 
Q 228 347 228 678 
Q 228 888 322 1041 
Q 450 1253 767 1440 
Q 1084 1628 1822 1897 
L 1822 2009 
Q 1822 2438 1686 2597 
Q 1550 2756 1291 2756 
Q 1094 2756 978 2650 
Q 859 2544 859 2406 
L 866 2225 
Q 866 2081 792 2003 
Q 719 1925 600 1925 
Q 484 1925 411 2006 
Q 338 2088 338 2228 
Q 338 2497 613 2722 
Q 888 2947 1384 2947 
Q 1766 2947 2009 2819 
Q 2194 2722 2281 2516 
Q 2338 2381 2338 1966 
L 2338 994 
Q 2338 584 2353 492 
Q 2369 400 2405 369 
Q 2441 338 2488 338 
Q 2538 338 2575 359 
Q 2641 400 2828 588 
L 2828 413 
Q 2478 -56 2159 -56 
Q 2006 -56 1915 50 
Q 1825 156 1822 413 
z
M 1822 616 
L 1822 1706 
Q 1350 1519 1213 1441 
Q 966 1303 859 1153 
Q 753 1003 753 825 
Q 753 600 887 451 
Q 1022 303 1197 303 
Q 1434 303 1822 616 
z
" transform="scale(0.015625)"/>
       <path id="TimesNewRomanPSMT-63" d="M 2631 1088 
Q 2516 522 2178 217 
Q 1841 -88 1431 -88 
Q 944 -88 581 321 
Q 219 731 219 1428 
Q 219 2103 620 2525 
Q 1022 2947 1584 2947 
Q 2006 2947 2278 2723 
Q 2550 2500 2550 2259 
Q 2550 2141 2473 2067 
Q 2397 1994 2259 1994 
Q 2075 1994 1981 2113 
Q 1928 2178 1911 2362 
Q 1894 2547 1784 2644 
Q 1675 2738 1481 2738 
Q 1169 2738 978 2506 
Q 725 2200 725 1697 
Q 725 1184 976 792 
Q 1228 400 1656 400 
Q 1963 400 2206 609 
Q 2378 753 2541 1131 
L 2631 1088 
z
" transform="scale(0.015625)"/>
       <path id="TimesNewRomanPSMT-65" d="M 681 1784 
Q 678 1147 991 784 
Q 1303 422 1725 422 
Q 2006 422 2214 576 
Q 2422 731 2563 1106 
L 2659 1044 
Q 2594 616 2278 264 
Q 1963 -88 1488 -88 
Q 972 -88 605 314 
Q 238 716 238 1394 
Q 238 2128 614 2539 
Q 991 2950 1559 2950 
Q 2041 2950 2350 2633 
Q 2659 2316 2659 1784 
L 681 1784 
z
M 681 1966 
L 2006 1966 
Q 1991 2241 1941 2353 
Q 1863 2528 1708 2628 
Q 1553 2728 1384 2728 
Q 1125 2728 920 2526 
Q 716 2325 681 1966 
z
" transform="scale(0.015625)"/>
       <path id="TimesNewRomanPSMT-6d" d="M 1050 2338 
Q 1363 2650 1419 2697 
Q 1559 2816 1721 2881 
Q 1884 2947 2044 2947 
Q 2313 2947 2506 2790 
Q 2700 2634 2766 2338 
Q 3088 2713 3309 2830 
Q 3531 2947 3766 2947 
Q 3994 2947 4170 2830 
Q 4347 2713 4450 2447 
Q 4519 2266 4519 1878 
L 4519 647 
Q 4519 378 4559 278 
Q 4591 209 4675 161 
Q 4759 113 4950 113 
L 4950 0 
L 3538 0 
L 3538 113 
L 3597 113 
Q 3781 113 3884 184 
Q 3956 234 3988 344 
Q 4000 397 4000 647 
L 4000 1878 
Q 4000 2228 3916 2372 
Q 3794 2572 3525 2572 
Q 3359 2572 3192 2489 
Q 3025 2406 2788 2181 
L 2781 2147 
L 2788 2013 
L 2788 647 
Q 2788 353 2820 281 
Q 2853 209 2943 161 
Q 3034 113 3253 113 
L 3253 0 
L 1806 0 
L 1806 113 
Q 2044 113 2133 169 
Q 2222 225 2256 338 
Q 2272 391 2272 647 
L 2272 1878 
Q 2272 2228 2169 2381 
Q 2031 2581 1784 2581 
Q 1616 2581 1450 2491 
Q 1191 2353 1050 2181 
L 1050 647 
Q 1050 366 1089 281 
Q 1128 197 1204 155 
Q 1281 113 1516 113 
L 1516 0 
L 100 0 
L 100 113 
Q 297 113 375 155 
Q 453 197 493 289 
Q 534 381 534 647 
L 534 1741 
Q 534 2213 506 2350 
Q 484 2453 437 2492 
Q 391 2531 309 2531 
Q 222 2531 100 2484 
L 53 2597 
L 916 2947 
L 1050 2947 
L 1050 2338 
z
" transform="scale(0.015625)"/>
       <path id="TimesNewRomanPSMT-6e" d="M 1034 2341 
Q 1538 2947 1994 2947 
Q 2228 2947 2397 2830 
Q 2566 2713 2666 2444 
Q 2734 2256 2734 1869 
L 2734 647 
Q 2734 375 2778 278 
Q 2813 200 2889 156 
Q 2966 113 3172 113 
L 3172 0 
L 1756 0 
L 1756 113 
L 1816 113 
Q 2016 113 2095 173 
Q 2175 234 2206 353 
Q 2219 400 2219 647 
L 2219 1819 
Q 2219 2209 2117 2386 
Q 2016 2563 1775 2563 
Q 1403 2563 1034 2156 
L 1034 647 
Q 1034 356 1069 288 
Q 1113 197 1189 155 
Q 1266 113 1500 113 
L 1500 0 
L 84 0 
L 84 113 
L 147 113 
Q 366 113 442 223 
Q 519 334 519 647 
L 519 1709 
Q 519 2225 495 2337 
Q 472 2450 423 2490 
Q 375 2531 294 2531 
Q 206 2531 84 2484 
L 38 2597 
L 900 2947 
L 1034 2947 
L 1034 2341 
z
" transform="scale(0.015625)"/>
       <path id="TimesNewRomanPSMT-74" d="M 1031 3803 
L 1031 2863 
L 1700 2863 
L 1700 2644 
L 1031 2644 
L 1031 788 
Q 1031 509 1111 412 
Q 1191 316 1316 316 
Q 1419 316 1516 380 
Q 1613 444 1666 569 
L 1788 569 
Q 1678 263 1478 108 
Q 1278 -47 1066 -47 
Q 922 -47 784 33 
Q 647 113 581 261 
Q 516 409 516 719 
L 516 2644 
L 63 2644 
L 63 2747 
Q 234 2816 414 2980 
Q 594 3144 734 3369 
Q 806 3488 934 3803 
L 1031 3803 
z
" transform="scale(0.015625)"/>
       <path id="TimesNewRomanPSMT-20" transform="scale(0.015625)"/>
       <path id="TimesNewRomanPSMT-5b" d="M 1900 -1269 
L 525 -1269 
L 525 4334 
L 1900 4334 
L 1900 4088 
L 994 4088 
L 994 -1025 
L 1900 -1025 
L 1900 -1269 
z
" transform="scale(0.015625)"/>
       <path id="TimesNewRomanPSMT-5d" d="M 234 4334 
L 1609 4334 
L 1609 -1272 
L 234 -1272 
L 234 -1025 
L 1141 -1025 
L 1141 4088 
L 234 4088 
L 234 4334 
z
" transform="scale(0.015625)"/>
      </defs>
      <use xlink:href="#TimesNewRomanPSMT-44"/>
      <use xlink:href="#TimesNewRomanPSMT-69" transform="translate(72.216797 0)"/>
      <use xlink:href="#TimesNewRomanPSMT-73" transform="translate(100 0)"/>
      <use xlink:href="#TimesNewRomanPSMT-70" transform="translate(138.916016 0)"/>
      <use xlink:href="#TimesNewRomanPSMT-6c" transform="translate(188.916016 0)"/>
      <use xlink:href="#TimesNewRomanPSMT-61" transform="translate(216.699219 0)"/>
      <use xlink:href="#TimesNewRomanPSMT-63" transform="translate(261.083984 0)"/>
      <use xlink:href="#TimesNewRomanPSMT-65" transform="translate(305.46875 0)"/>
      <use xlink:href="#TimesNewRomanPSMT-6d" transform="translate(349.853516 0)"/>
      <use xlink:href="#TimesNewRomanPSMT-65" transform="translate(427.636719 0)"/>
      <use xlink:href="#TimesNewRomanPSMT-6e" transform="translate(472.021484 0)"/>
      <use xlink:href="#TimesNewRomanPSMT-74" transform="translate(522.021484 0)"/>
      <use xlink:href="#TimesNewRomanPSMT-20" transform="translate(549.804688 0)"/>
      <use xlink:href="#TimesNewRomanPSMT-5b" transform="translate(574.804688 0)"/>
      <use xlink:href="#TimesNewRomanPSMT-6d" transform="translate(608.105469 0)"/>
      <use xlink:href="#TimesNewRomanPSMT-6d" transform="translate(685.888672 0)"/>
      <use xlink:href="#TimesNewRomanPSMT-5d" transform="translate(763.671875 0)"/>
     </g>
    </g>
   </g>
   <g id="matplotlib.axis_2">
    <g id="ytick_1">
     <g id="line2d_9">
      <defs>
       <path id="mc1416d8ff1" d="M 0 0 
L -3.5 0 
" style="stroke: #000000; stroke-width: 0.8"/>
      </defs>
      <g>
       <use xlink:href="#mc1416d8ff1" x="67.322835" y="435.40381" style="stroke: #000000; stroke-width: 0.8"/>
      </g>
     </g>
     <g id="text_10">
      <!-- 0 -->
      <g transform="translate(52.822835 440.611622) scale(0.15 -0.15)">
       <use xlink:href="#TimesNewRomanPSMT-30"/>
      </g>
     </g>
    </g>
    <g id="ytick_2">
     <g id="line2d_10">
      <g>
       <use xlink:href="#mc1416d8ff1" x="67.322835" y="375.858824" style="stroke: #000000; stroke-width: 0.8"/>
      </g>
     </g>
     <g id="text_11">
      <!-- 5 -->
      <g transform="translate(52.822835 381.066636) scale(0.15 -0.15)">
       <use xlink:href="#TimesNewRomanPSMT-35"/>
      </g>
     </g>
    </g>
    <g id="ytick_3">
     <g id="line2d_11">
      <g>
       <use xlink:href="#mc1416d8ff1" x="67.322835" y="316.313838" style="stroke: #000000; stroke-width: 0.8"/>
      </g>
     </g>
     <g id="text_12">
      <!-- 10 -->
      <g transform="translate(45.322835 321.52165) scale(0.15 -0.15)">
       <use xlink:href="#TimesNewRomanPSMT-31"/>
       <use xlink:href="#TimesNewRomanPSMT-30" transform="translate(50 0)"/>
      </g>
     </g>
    </g>
    <g id="ytick_4">
     <g id="line2d_12">
      <g>
       <use xlink:href="#mc1416d8ff1" x="67.322835" y="256.768852" style="stroke: #000000; stroke-width: 0.8"/>
      </g>
     </g>
     <g id="text_13">
      <!-- 15 -->
      <g transform="translate(45.322835 261.976665) scale(0.15 -0.15)">
       <use xlink:href="#TimesNewRomanPSMT-31"/>
       <use xlink:href="#TimesNewRomanPSMT-35" transform="translate(50 0)"/>
      </g>
     </g>
    </g>
    <g id="ytick_5">
     <g id="line2d_13">
      <g>
       <use xlink:href="#mc1416d8ff1" x="67.322835" y="197.223866" style="stroke: #000000; stroke-width: 0.8"/>
      </g>
     </g>
     <g id="text_14">
      <!-- 20 -->
      <g transform="translate(45.322835 202.431679) scale(0.15 -0.15)">
       <use xlink:href="#TimesNewRomanPSMT-32"/>
       <use xlink:href="#TimesNewRomanPSMT-30" transform="translate(50 0)"/>
      </g>
     </g>
    </g>
    <g id="ytick_6">
     <g id="line2d_14">
      <g>
       <use xlink:href="#mc1416d8ff1" x="67.322835" y="137.67888" style="stroke: #000000; stroke-width: 0.8"/>
      </g>
     </g>
     <g id="text_15">
      <!-- 25 -->
      <g transform="translate(45.322835 142.886693) scale(0.15 -0.15)">
       <use xlink:href="#TimesNewRomanPSMT-32"/>
       <use xlink:href="#TimesNewRomanPSMT-35" transform="translate(50 0)"/>
      </g>
     </g>
    </g>
    <g id="ytick_7">
     <g id="line2d_15">
      <g>
       <use xlink:href="#mc1416d8ff1" x="67.322835" y="78.133894" style="stroke: #000000; stroke-width: 0.8"/>
      </g>
     </g>
     <g id="text_16">
      <!-- 30 -->
      <g transform="translate(45.322835 83.341707) scale(0.15 -0.15)">
       <defs>
        <path id="TimesNewRomanPSMT-33" d="M 325 3431 
Q 506 3859 782 4092 
Q 1059 4325 1472 4325 
Q 1981 4325 2253 3994 
Q 2459 3747 2459 3466 
Q 2459 3003 1878 2509 
Q 2269 2356 2469 2072 
Q 2669 1788 2669 1403 
Q 2669 853 2319 450 
Q 1863 -75 997 -75 
Q 569 -75 414 31 
Q 259 138 259 259 
Q 259 350 332 419 
Q 406 488 509 488 
Q 588 488 669 463 
Q 722 447 909 348 
Q 1097 250 1169 231 
Q 1284 197 1416 197 
Q 1734 197 1970 444 
Q 2206 691 2206 1028 
Q 2206 1275 2097 1509 
Q 2016 1684 1919 1775 
Q 1784 1900 1550 2001 
Q 1316 2103 1072 2103 
L 972 2103 
L 972 2197 
Q 1219 2228 1467 2375 
Q 1716 2522 1828 2728 
Q 1941 2934 1941 3181 
Q 1941 3503 1739 3701 
Q 1538 3900 1238 3900 
Q 753 3900 428 3381 
L 325 3431 
z
" transform="scale(0.015625)"/>
       </defs>
       <use xlink:href="#TimesNewRomanPSMT-33"/>
       <use xlink:href="#TimesNewRomanPSMT-30" transform="translate(50 0)"/>
      </g>
     </g>
    </g>
    <g id="text_17">
     <!-- Force [kN] -->
     <g transform="translate(36.616897 306.234291) rotate(-90) scale(0.22 -0.22)">
      <defs>
       <path id="TimesNewRomanPSMT-46" d="M 1309 4006 
L 1309 2341 
L 2081 2341 
Q 2347 2341 2470 2458 
Q 2594 2575 2634 2922 
L 2750 2922 
L 2750 1488 
L 2634 1488 
Q 2631 1734 2570 1850 
Q 2509 1966 2401 2023 
Q 2294 2081 2081 2081 
L 1309 2081 
L 1309 750 
Q 1309 428 1350 325 
Q 1381 247 1481 191 
Q 1619 116 1769 116 
L 1922 116 
L 1922 0 
L 103 0 
L 103 116 
L 253 116 
Q 516 116 634 269 
Q 709 369 709 750 
L 709 3488 
Q 709 3809 669 3913 
Q 638 3991 541 4047 
Q 406 4122 253 4122 
L 103 4122 
L 103 4238 
L 3256 4238 
L 3297 3306 
L 3188 3306 
Q 3106 3603 2998 3742 
Q 2891 3881 2733 3943 
Q 2575 4006 2244 4006 
L 1309 4006 
z
" transform="scale(0.015625)"/>
       <path id="TimesNewRomanPSMT-6f" d="M 1600 2947 
Q 2250 2947 2644 2453 
Q 2978 2031 2978 1484 
Q 2978 1100 2793 706 
Q 2609 313 2286 112 
Q 1963 -88 1566 -88 
Q 919 -88 538 428 
Q 216 863 216 1403 
Q 216 1797 411 2186 
Q 606 2575 925 2761 
Q 1244 2947 1600 2947 
z
M 1503 2744 
Q 1338 2744 1170 2645 
Q 1003 2547 900 2300 
Q 797 2053 797 1666 
Q 797 1041 1045 587 
Q 1294 134 1700 134 
Q 2003 134 2200 384 
Q 2397 634 2397 1244 
Q 2397 2006 2069 2444 
Q 1847 2744 1503 2744 
z
" transform="scale(0.015625)"/>
       <path id="TimesNewRomanPSMT-72" d="M 1038 2947 
L 1038 2303 
Q 1397 2947 1775 2947 
Q 1947 2947 2059 2842 
Q 2172 2738 2172 2600 
Q 2172 2478 2090 2393 
Q 2009 2309 1897 2309 
Q 1788 2309 1652 2417 
Q 1516 2525 1450 2525 
Q 1394 2525 1328 2463 
Q 1188 2334 1038 2041 
L 1038 669 
Q 1038 431 1097 309 
Q 1138 225 1241 169 
Q 1344 113 1538 113 
L 1538 0 
L 72 0 
L 72 113 
Q 291 113 397 181 
Q 475 231 506 341 
Q 522 394 522 644 
L 522 1753 
Q 522 2253 501 2348 
Q 481 2444 426 2487 
Q 372 2531 291 2531 
Q 194 2531 72 2484 
L 41 2597 
L 906 2947 
L 1038 2947 
z
" transform="scale(0.015625)"/>
       <path id="TimesNewRomanPSMT-6b" d="M 1047 4444 
L 1047 1594 
L 1775 2259 
Q 2006 2472 2044 2528 
Q 2069 2566 2069 2603 
Q 2069 2666 2017 2711 
Q 1966 2756 1847 2763 
L 1847 2863 
L 3091 2863 
L 3091 2763 
Q 2834 2756 2664 2684 
Q 2494 2613 2291 2428 
L 1556 1750 
L 2291 822 
Q 2597 438 2703 334 
Q 2853 188 2966 144 
Q 3044 113 3238 113 
L 3238 0 
L 1847 0 
L 1847 113 
Q 1966 116 2008 148 
Q 2050 181 2050 241 
Q 2050 313 1925 472 
L 1047 1594 
L 1047 644 
Q 1047 366 1086 278 
Q 1125 191 1197 153 
Q 1269 116 1509 113 
L 1509 0 
L 53 0 
L 53 113 
Q 272 113 381 166 
Q 447 200 481 272 
Q 528 375 528 628 
L 528 3234 
Q 528 3731 506 3842 
Q 484 3953 434 3995 
Q 384 4038 303 4038 
Q 238 4038 106 3984 
L 53 4094 
L 903 4444 
L 1047 4444 
z
" transform="scale(0.015625)"/>
       <path id="TimesNewRomanPSMT-4e" d="M -84 4238 
L 1066 4238 
L 3656 1059 
L 3656 3503 
Q 3656 3894 3569 3991 
Q 3453 4122 3203 4122 
L 3056 4122 
L 3056 4238 
L 4531 4238 
L 4531 4122 
L 4381 4122 
Q 4113 4122 4000 3959 
Q 3931 3859 3931 3503 
L 3931 -69 
L 3819 -69 
L 1025 3344 
L 1025 734 
Q 1025 344 1109 247 
Q 1228 116 1475 116 
L 1625 116 
L 1625 0 
L 150 0 
L 150 116 
L 297 116 
Q 569 116 681 278 
Q 750 378 750 734 
L 750 3681 
Q 566 3897 470 3965 
Q 375 4034 191 4094 
Q 100 4122 -84 4122 
L -84 4238 
z
" transform="scale(0.015625)"/>
      </defs>
      <use xlink:href="#TimesNewRomanPSMT-46"/>
      <use xlink:href="#TimesNewRomanPSMT-6f" transform="translate(55.615234 0)"/>
      <use xlink:href="#TimesNewRomanPSMT-72" transform="translate(105.615234 0)"/>
      <use xlink:href="#TimesNewRomanPSMT-63" transform="translate(138.916016 0)"/>
      <use xlink:href="#TimesNewRomanPSMT-65" transform="translate(183.300781 0)"/>
      <use xlink:href="#TimesNewRomanPSMT-20" transform="translate(227.685547 0)"/>
      <use xlink:href="#TimesNewRomanPSMT-5b" transform="translate(252.685547 0)"/>
      <use xlink:href="#TimesNewRomanPSMT-6b" transform="translate(285.986328 0)"/>
      <use xlink:href="#TimesNewRomanPSMT-4e" transform="translate(335.986328 0)"/>
      <use xlink:href="#TimesNewRomanPSMT-5d" transform="translate(408.203125 0)"/>
     </g>
    </g>
   </g>
   <g id="line2d_16">
    <path d="M 132.068153 435.44692 
L 132.097208 435.380825 
L 132.097208 436.251969 
L 131.958639 435.741906 
L 131.956404 436.199569 
L 131.956404 435.412265 
L 131.960874 435.449659 
L 131.887119 433.48527 
L 131.891589 431.429777 
L 131.900529 431.57864 
L 132.112853 426.815041 
L 132.238012 426.66856 
L 133.100717 418.350126 
L 133.266106 407.346212 
L 133.37562 382.980404 
L 133.650524 367.677343 
L 133.936602 363.032834 
L 134.350074 362.342112 
L 135.393813 361.984842 
L 135.597197 361.996751 
L 135.653071 361.961024 
L 135.968204 359.960313 
L 136.140298 355.542075 
L 136.430847 354.541719 
L 136.491191 354.482174 
L 136.681165 353.57709 
L 136.855494 351.588288 
L 136.933719 351.254836 
L 137.036528 351.290563 
L 137.166157 351.195291 
L 137.318136 351.338199 
L 137.470115 351.242927 
L 137.610919 351.338199 
L 137.736079 351.266745 
L 138.091441 350.087754 
L 138.348465 348.765855 
L 138.672538 348.218041 
L 138.739587 348.015588 
L 138.804402 348.491948 
L 139.06813 345.526608 
L 139.233519 345.347973 
L 139.673812 344.835886 
L 140.532046 342.203998 
L 140.737665 341.834819 
L 141.312057 338.845661 
L 141.767994 338.631299 
L 142.033957 337.261764 
L 142.228401 335.308688 
L 142.436255 333.367522 
L 142.934657 331.676444 
L 143.341424 331.104812 
L 143.627503 330.818997 
L 143.871116 330.116366 
L 144.085675 328.901648 
L 144.382928 326.73421 
L 144.749466 324.757317 
L 145.084714 324.554864 
L 145.473601 324.626318 
L 146.240202 324.233321 
L 146.823533 323.423509 
L 147.26606 321.720523 
L 147.545434 320.160444 
L 147.800222 318.135915 
L 148.037131 317.969189 
L 148.12206 317.790554 
L 148.271804 317.862008 
L 148.446133 317.171286 
L 148.86184 315.003848 
L 148.971355 314.884758 
L 149.210498 315.003848 
L 149.324483 314.884758 
L 149.420587 315.003848 
L 149.601621 314.884758 
L 149.945809 315.122938 
L 150.193892 315.361118 
L 150.488911 315.003848 
L 150.62748 314.646578 
L 150.690059 314.765668 
L 150.752639 314.646578 
L 151.230926 313.574769 
L 151.284566 313.932039 
L 151.445485 312.264779 
L 151.572879 311.431149 
L 151.637693 311.550239 
L 152.437819 310.121159 
L 152.643437 309.76389 
L 152.96304 309.16844 
L 153.490497 303.333031 
L 153.743051 302.499401 
L 153.991134 301.427591 
L 154.127468 301.427591 
L 154.290622 301.308502 
L 154.440366 301.308502 
L 154.932063 300.236692 
L 155.222612 297.973982 
L 155.46846 297.497622 
L 155.669609 296.902173 
L 155.870758 295.115823 
L 156.071906 293.924923 
L 156.965901 290.471314 
L 157.792846 288.446785 
L 158.038694 288.446785 
L 158.306893 289.399504 
L 158.79859 289.994954 
L 159.044438 290.114044 
L 159.513785 290.947674 
L 159.558485 291.304944 
L 159.580835 290.590404 
L 159.759634 284.754995 
L 159.938433 284.278636 
L 160.31838 283.445006 
L 160.631278 282.849556 
L 160.944177 282.373196 
L 161.190025 282.492286 
L 161.301774 282.492286 
L 161.637022 281.896836 
L 161.681722 282.015926 
L 162.173419 280.705936 
L 162.531017 278.085957 
L 162.620416 277.847777 
L 162.821565 282.015926 
L 163.64851 279.157767 
L 164.497805 277.966867 
L 165.011852 277.609597 
L 165.101251 277.252327 
L 165.213 278.085957 
L 165.3471 278.205047 
L 165.570598 277.371417 
L 165.659998 277.252327 
L 165.905846 275.465978 
L 166.084645 272.488728 
L 166.174045 272.369638 
L 166.576342 270.940559 
L 166.88924 270.583289 
L 167.403287 269.154209 
L 167.760885 266.77241 
L 168.073783 266.05787 
L 169.034827 265.46242 
L 169.303025 264.98606 
L 169.593574 264.86697 
L 169.861772 264.62879 
L 170.085271 264.62879 
L 170.420519 264.39061 
L 170.778116 262.723351 
L 170.889866 262.723351 
L 171.135714 262.604261 
L 171.247463 262.604261 
L 171.716811 262.127901 
L 171.78386 262.961531 
L 171.87326 262.723351 
L 172.119108 261.889721 
L 172.208508 261.889721 
L 172.275557 261.651541 
L 172.432006 260.817911 
L 172.521406 260.937001 
L 172.610805 260.222461 
L 172.856654 255.577952 
L 173.013103 255.339772 
L 173.638899 255.339772 
L 174.130596 254.982502 
L 174.443494 253.196153 
L 174.778742 252.005253 
L 175.06929 250.695264 
L 175.359838 249.028004 
L 175.717436 248.194374 
L 175.896235 248.194374 
L 176.63378 247.598924 
L 177.147827 246.169845 
L 177.348976 245.812575 
L 177.818323 243.192595 
L 177.997122 243.073505 
L 178.175921 242.716235 
L 178.511169 242.716235 
L 178.645268 242.835325 
L 178.757017 242.716235 
L 179.271064 240.929886 
L 179.449863 240.215346 
L 179.807461 235.332657 
L 180.03096 233.784488 
L 180.835555 233.189038 
L 181.506051 232.950858 
L 182.198896 232.950858 
L 185.640775 231.402688 
L 186.020723 229.973608 
L 186.132472 229.735428 
L 186.400671 229.735428 
L 186.55712 229.139979 
L 186.713569 229.735428 
L 186.847668 228.782709 
L 187.227616 224.25729 
L 187.518164 222.70912 
L 187.696963 222.23276 
L 187.898112 221.160951 
L 188.501558 220.089141 
L 189.172054 219.493691 
L 190.155448 219.136421 
L 190.356596 219.136421 
L 191.228241 218.660061 
L 191.38469 218.302791 
L 191.675238 216.992801 
L 191.854037 216.754622 
L 192.122236 216.635532 
L 192.479833 216.278262 
L 192.882131 216.040082 
L 193.329128 216.397352 
L 194.044324 215.563722 
L 195.161817 214.968272 
L 196.32401 214.491912 
L 197.285054 214.253732 
L 198.715445 213.062832 
L 201.933826 210.681033 
L 202.87252 210.204673 
L 203.721815 209.966493 
L 204.43701 209.490133 
L 205.107506 209.371043 
L 206.247349 208.894683 
L 206.716696 208.537413 
L 208.705834 207.941964 
L 209.264581 207.227424 
L 209.778628 206.274704 
L 210.247975 205.679254 
L 211.857165 204.607444 
L 212.348862 203.892905 
L 213.421655 203.178365 
L 214.762647 201.749285 
L 216.885884 200.677475 
L 218.360975 199.605666 
L 219.634917 198.891126 
L 221.892253 196.866596 
L 222.4063 196.747506 
L 222.942697 196.866596 
L 223.479094 197.104776 
L 223.970791 196.985686 
L 224.462488 197.342956 
L 224.931835 198.414766 
L 225.378832 199.962936 
L 225.937579 200.915655 
L 226.183427 203.059275 
L 226.138727 205.917434 
L 226.205777 211.514663 
L 226.116378 217.945521 
L 225.915229 220.684591 
L 225.892879 220.684591 
L 225.825829 221.51822 
L 225.75878 223.90002 
L 225.69173 223.78093 
L 225.64703 224.1382 
L 225.602331 229.735428 
L 225.378832 231.283598 
L 225.289433 230.807238 
L 225.289433 230.569058 
L 225.200033 231.283598 
L 225.088284 232.117228 
L 225.088284 232.117228 
L 225.021234 235.332657 
L 224.931835 235.332657 
L 224.864785 235.809017 
L 224.663636 247.241654 
L 224.462488 250.576174 
L 224.350738 251.647983 
L 223.970791 250.933443 
L 223.791992 255.220682 
L 223.702592 255.339772 
L 223.434394 259.031562 
L 223.300295 259.507921 
L 223.277945 259.150651 
L 223.300295 261.056091 
L 223.233245 264.5097 
L 222.562749 267.606039 
L 222.51805 267.606039 
L 222.451 268.439669 
L 222.182802 272.369638 
L 221.981653 276.061427 
L 221.825204 276.537787 
L 221.646405 278.919587 
L 221.579355 279.753217 
L 221.422906 284.397726 
L 221.266457 285.112265 
L 220.908859 296.187633 
L 220.551262 298.926702 
L 219.701967 302.142131 
L 219.366719 303.094851 
L 219.12087 304.166661 
L 218.919722 304.166661 
L 218.740923 302.737581 
L 218.852672 302.856671 
L 218.986771 302.261221 
L 218.964421 305.59574 
L 218.763273 307.97754 
L 218.360975 308.93026 
L 217.757529 309.6448 
L 217.51168 310.597519 
L 216.774135 318.374094 
L 216.148339 320.672531 
L 215.701341 322.184974 
L 215.477843 322.875695 
L 215.299044 323.447327 
L 214.807347 326.067307 
L 214.539148 329.163646 
L 214.025102 331.307265 
L 213.444005 335.499232 
L 212.862909 340.060378 
L 212.214763 342.144453 
L 211.164319 343.764076 
L 210.180925 344.823977 
L 209.37633 349.563758 
L 209.063432 350.397388 
L 208.638785 352.183737 
L 208.325886 353.481818 
L 207.543641 354.52981 
L 206.917845 358.233508 
L 206.470848 362.211113 
L 206.0909 364.545277 
L 205.532154 366.069628 
L 204.839308 368.296611 
L 204.057063 369.940052 
L 203.252468 371.321496 
L 201.799726 373.036392 
L 200.503434 374.167746 
L 199.341241 374.310654 
L 199.251842 373.572296 
L 199.274192 372.548123 
L 199.184792 373.572296 
L 198.961294 374.858468 
L 198.916594 374.83465 
L 198.849544 375.096648 
L 198.737795 375.394373 
L 198.670746 378.359713 
L 197.866151 379.860247 
L 197.575602 379.622067 
L 197.016856 379.729248 
L 196.838057 380.241335 
L 196.636908 383.849761 
L 196.480459 384.57621 
L 196.011112 385.302659 
L 195.452365 385.850472 
L 194.848919 386.505467 
L 194.513671 386.743647 
L 194.021974 386.838919 
L 193.664376 387.136644 
L 193.418528 388.101273 
L 193.06093 388.434725 
L 192.949181 388.529997 
L 192.591583 389.482717 
L 192.345734 389.673261 
L 192.122236 390.113893 
L 191.943437 390.578344 
L 191.786988 390.995159 
L 191.652889 391.018977 
L 191.45174 393.531776 
L 191.116492 393.698502 
L 190.937693 394.555949 
L 190.781244 393.924773 
L 190.468346 394.222497 
L 190.311897 395.282398 
L 190.177798 396.294663 
L 189.082654 396.961567 
L 188.993255 396.902022 
L 188.16631 397.75947 
L 187.629913 399.783999 
L 187.115866 400.24845 
L 187.071167 400.236541 
L 186.914718 400.641447 
L 186.668869 402.237253 
L 186.378321 402.73743 
L 185.417277 403.475788 
L 185.104379 403.940239 
L 184.746781 404.118874 
L 184.679731 404.071238 
L 184.523282 404.202237 
L 184.232734 404.535689 
L 184.120985 405.607499 
L 184.009235 406.655491 
L 183.808087 407.262849 
L 183.539888 407.810663 
L 183.405789 408.9182 
L 183.20464 409.573195 
L 181.6178 411.109455 
L 180.589706 412.157447 
L 180.165059 412.919623 
L 179.449863 413.884252 
L 178.712318 415.599147 
L 178.488819 415.694419 
L 178.153571 416.170779 
L 177.907723 417.087772 
L 176.79023 418.242945 
L 176.63378 419.219483 
L 176.566731 418.790759 
L 176.499681 418.921758 
L 176.186783 419.552934 
L 175.829185 419.707751 
L 175.493937 420.017385 
L 175.359838 420.124566 
L 175.15869 420.612835 
L 174.778742 422.006188 
L 174.108246 423.077998 
L 173.169552 424.410614 
L 172.610805 424.956047 
L 172.454356 425.034646 
L 171.672111 426.155283 
L 170.889866 426.580434 
L 170.711067 427.583171 
L 170.621667 427.816588 
L 170.487568 427.770143 
L 170.465218 427.923769 
L 170.375819 427.848742 
L 169.861772 428.063104 
L 169.526524 428.013086 
L 169.191276 428.363211 
L 169.101877 428.088113 
L 169.146576 428.512073 
L 169.101877 428.129794 
L 169.101877 428.830043 
L 169.146576 426.105265 
L 169.504174 424.61664 
L 169.750023 424.221261 
L 170.018221 422.804091 
L 170.353469 421.887098 
L 170.353469 421.946643 
L 170.375819 420.55329 
L 170.487568 418.921758 
L 170.711067 417.635586 
L 171.202764 416.242233 
L 171.493312 412.407536 
L 171.582711 410.097191 
L 171.649761 408.537112 
L 171.985009 398.855097 
L 172.119108 397.366473 
L 172.364957 396.056483 
L 172.879003 395.0204 
L 173.616549 394.377314 
L 174.287045 394.008136 
L 174.778742 393.341232 
L 175.11399 391.709699 
L 176.119734 384.885844 
L 177.661874 379.991246 
L 178.645268 377.073542 
L 179.695712 375.025194 
L 180.790855 373.357934 
L 181.863648 372.095581 
L 182.824693 371.428677 
L 185.037329 370.630774 
L 185.551376 370.535502 
L 185.752525 370.178232 
L 186.087773 365.676631 
L 186.333621 364.85491 
L 186.758269 364.235643 
L 187.227616 363.902191 
L 187.674613 363.425831 
L 188.836806 361.341756 
L 189.060304 360.246129 
L 189.507302 357.185516 
L 190.289547 352.314736 
L 190.960043 349.813847 
L 192.949181 344.133255 
L 194.044324 341.358459 
L 197.776751 333.962972 
L 199.743539 328.794467 
L 200.190536 327.817929 
L 201.062181 324.590591 
L 202.492572 321.482343 
L 203.252468 318.016825 
L 203.699465 317.278467 
L 204.749908 316.980742 
L 205.085156 317.040287 
L 205.308655 317.504738 
L 205.509804 317.040287 
L 206.1356 306.54846 
L 206.537897 304.643021 
L 207.074294 303.571211 
L 208.236487 301.784861 
L 210.315024 298.093072 
L 211.141969 292.972203 
L 211.611316 288.446785 
L 212.59471 283.206826 
L 212.929958 280.229577 
L 213.287556 278.800497 
L 213.779253 277.609597 
L 214.2933 276.775967 
L 214.695597 275.346888 
L 214.986146 273.679628 
L 215.231994 271.416919 
L 215.813091 264.27152 
L 216.260088 260.103371 
L 217.668129 249.980724 
L 218.651523 245.098035 
L 219.701967 242.478055 
L 220.75241 241.048976 
L 222.853298 238.786266 
L 223.434394 237.595367 
L 224.01549 235.332657 
L 224.484838 234.022667 
L 225.378832 228.425439 
L 225.915229 226.400909 
L 226.339876 225.448189 
L 226.764524 224.01911 
L 227.32327 221.160951 
L 227.792617 219.850961 
L 228.261964 216.992801 
L 228.820711 215.682812 
L 229.178309 215.325542 
L 229.491207 214.849182 
L 229.982904 213.658282 
L 230.429901 213.301012 
L 230.58635 213.301012 
L 230.787499 212.943742 
L 230.876898 212.943742 
L 231.010998 212.586473 
L 231.167447 210.919213 
L 231.323896 210.442853 
L 231.480345 209.609223 
L 231.793243 206.036524 
L 231.994392 205.083804 
L 232.24024 204.607444 
L 232.821337 204.250175 
L 233.402433 203.773815 
L 233.648281 203.773815 
L 234.072929 203.535635 
L 234.408177 203.059275 
L 234.855174 202.582915 
L 235.279821 201.868375 
L 235.771518 201.630195 
L 235.927967 201.630195 
L 236.687863 200.320205 
L 236.933711 199.724756 
L 237.559508 198.891126 
L 237.715957 198.772036 
L 238.319403 196.866596 
L 238.542901 196.985686 
L 238.7664 196.390236 
L 239.012249 195.080247 
L 239.302797 194.484797 
L 239.861543 194.127527 
L 240.599089 193.889347 
L 240.956687 193.889347 
L 241.314285 193.770257 
L 241.627183 193.770257 
L 241.738932 194.008437 
L 241.873031 193.770257 
L 242.00713 193.770257 
L 242.409428 193.532077 
L 242.521177 193.532077 
L 242.632926 193.412987 
L 243.057574 192.460267 
L 243.504571 192.222087 
L 243.772769 191.150278 
L 243.906869 190.435738 
L 244.331516 189.840288 
L 244.555015 189.840288 
L 244.957312 189.721198 
L 245.33726 189.721198 
L 245.828957 189.363928 
L 246.007756 189.125748 
L 246.164205 189.125748 
L 246.343004 189.006658 
L 246.499453 188.768478 
L 246.655902 188.768478 
L 247.192299 188.411208 
L 247.304048 188.411208 
L 247.549896 188.173028 
L 247.683996 188.173028 
L 247.907494 188.053938 
L 248.198042 188.053938 
L 248.66739 187.458488 
L 248.801489 187.220309 
L 249.092037 186.029409 
L 249.762533 185.314869 
L 249.896632 185.314869 
L 250.14248 185.076689 
L 250.410679 184.123969 
L 250.745927 183.05216 
L 252.779764 181.86126 
L 252.936213 181.62308 
L 253.584359 179.83673 
L 253.941957 179.24128 
L 254.500704 178.050381 
L 254.724202 177.574021 
L 255.573497 177.097661 
L 256.959189 175.549491 
L 257.383836 175.311311 
L 257.786134 175.311311 
L 257.964933 175.192221 
L 258.32253 175.311311 
L 258.657778 175.311311 
L 258.836577 174.834951 
L 259.015376 173.405872 
L 259.462373 168.285003 
L 260.222269 164.593214 
L 260.758665 162.925954 
L 261.451511 161.735055 
L 262.256106 161.139605 
L 263.150101 161.020515 
L 264.044095 161.139605 
L 265.608586 160.663245 
L 266.279082 160.186885 
L 266.904878 159.234165 
L 267.485974 157.328726 
L 268.067071 156.495096 
L 269.363363 156.137826 
L 270.100908 156.376006 
L 270.793754 156.018736 
L 271.4866 155.899646 
L 272.805242 155.899646 
L 273.967435 156.018736 
L 274.928479 156.018736 
L 275.375476 156.376006 
L 276.537669 156.733276 
L 277.118765 157.090546 
L 277.833961 157.090546 
L 278.03511 157.209636 
L 278.370358 157.090546 
L 279.174953 154.589656 
L 279.62195 154.113296 
L 280.158347 153.994206 
L 280.426545 153.994206 
L 280.672394 153.756026 
L 280.895892 154.113296 
L 281.119391 153.636937 
L 281.566388 151.731497 
L 281.834586 151.255137 
L 282.549782 150.540597 
L 283.354377 148.873338 
L 283.779025 148.396978 
L 284.248372 148.039708 
L 284.762419 147.920618 
L 285.231766 147.682438 
L 285.656413 147.682438 
L 287.109154 147.086988 
L 287.77965 146.491538 
L 288.740694 145.657908 
L 289.45589 145.062459 
L 291.06508 144.586099 
L 291.646176 144.705189 
L 292.227273 144.228829 
L 292.853069 143.395199 
L 293.970562 143.157019 
L 294.618708 143.157019 
L 295.177455 142.918839 
L 295.445653 142.442479 
L 295.691502 141.489759 
L 296.0044 140.77522 
L 296.384347 140.29886 
L 297.278342 139.70341 
L 298.172336 139.10796 
L 298.619334 138.98887 
L 299.490978 136.96434 
L 300.005025 136.607071 
L 302.105912 136.249801 
L 302.597609 136.249801 
L 303.111656 136.368891 
L 303.625703 136.368891 
L 304.13975 136.487981 
L 305.212543 136.249801 
L 305.72659 136.249801 
L 306.687634 135.892531 
L 307.849827 135.892531 
L 309.01202 135.416171 
L 309.257869 135.177991 
L 309.526067 135.297081 
L 310.040114 134.820721 
L 310.531811 135.058901 
L 311.202307 134.701631 
L 311.425805 134.820721 
L 313.325544 133.987091 
L 313.504343 133.987091 
L 313.86194 133.868001 
L 313.99604 133.868001 
L 314.264238 133.748911 
L 314.554786 133.748911 
L 314.979434 133.510731 
L 315.113533 133.510731 
L 315.247632 133.629821 
L 315.53818 133.391641 
L 315.694629 133.510731 
L 316.499224 132.915281 
L 317.661417 132.915281 
L 319.516456 131.605292 
L 319.695255 131.367112 
L 319.874054 131.367112 
L 320.209302 131.248022 
L 320.365751 131.248022 
L 320.656299 131.367112 
L 320.790398 131.367112 
L 320.924497 131.248022 
L 321.036246 132.081652 
L 321.147996 131.843472 
L 321.349145 131.248022 
L 321.818492 131.248022 
L 322.15374 131.128932 
L 322.310189 131.248022 
L 322.488988 131.128932 
L 322.846585 131.248022 
L 323.003034 131.128932 
L 323.271233 131.248022 
L 323.405332 131.248022 
L 323.80763 131.009842 
L 324.098178 131.009842 
L 324.299327 130.890752 
L 324.567525 130.890752 
L 324.746324 130.771662 
L 324.813373 130.771662 
L 325.103922 130.533482 
L 325.260371 130.533482 
L 325.32742 130.414392 
L 325.41682 130.533482 
L 325.528569 130.414392 
L 325.640318 130.533482 
L 326.199065 130.176212 
L 326.310814 130.176212 
L 326.623712 129.818942 
L 326.824861 129.938032 
L 327.137759 129.342582 
L 327.227159 129.342582 
L 328.5905 127.913503 
L 328.724599 127.913503 
L 328.992798 127.794413 
L 329.372745 127.794413 
L 329.752693 127.675323 
L 329.976192 127.675323 
L 330.020891 127.556233 
L 330.087941 127.675323 
L 330.154991 127.675323 
L 330.28909 127.556233 
L 330.378489 127.675323 
L 330.691387 127.198963 
L 331.048985 126.127153 
L 331.294834 126.127153 
L 331.764181 126.484423 
L 332.389977 125.769883 
L 332.546426 125.650793 
L 332.971073 125.888973 
L 333.194572 125.769883 
L 333.440421 125.769883 
L 333.820368 125.650793 
L 334.312065 125.650793 
L 334.893162 125.293523 
L 335.250759 124.221713 
L 335.474258 124.102624 
L 335.965955 124.102624 
L 336.435302 123.864444 
L 336.904649 124.102624 
L 337.150498 123.983534 
L 337.396346 123.626264 
L 337.597495 123.864444 
L 337.753944 123.864444 
L 338.580889 122.078094 
L 338.849087 121.959004 
L 339.229035 121.959004 
L 339.676032 121.720824 
L 340.07833 121.363554 
L 341.106424 121.125374 
L 341.441672 121.125374 
L 342.022768 120.768104 
L 342.603864 120.053564 
L 342.961462 120.053564 
L 343.27436 119.339025 
L 343.542559 119.696295 
L 343.855457 119.577205 
L 344.235404 118.862665 
L 345.688146 119.219935 
L 347.565534 119.219935 
L 347.766683 119.100845 
L 348.23603 119.339025 
L 348.414829 119.219935 
L 348.750077 119.339025 
L 348.906526 119.219935 
L 349.197074 119.339025 
L 349.599372 119.339025 
L 349.86757 119.219935 
L 350.113418 119.339025 
L 350.247518 119.339025 
L 350.515716 119.219935 
L 350.649815 119.339025 
L 350.918014 119.219935 
L 351.163862 119.339025 
L 351.588509 119.339025 
L 351.744959 119.458115 
L 351.990807 119.458115 
L 352.259005 119.696295 
L 352.326055 119.577205 
L 352.504854 119.696295 
L 352.571903 119.577205 
L 352.728352 119.696295 
L 353.13065 119.696295 
L 353.287099 119.577205 
L 353.443548 119.696295 
L 353.599997 119.696295 
L 353.667047 119.577205 
L 353.823496 119.696295 
L 353.957595 119.458115 
L 354.270493 117.909945 
L 354.404592 117.671765 
L 354.561041 117.671765 
L 355.030388 117.195405 
L 355.320937 116.838135 
L 355.566785 116.719045 
L 356.237281 116.242685 
L 356.46078 116.004505 
L 356.46078 115.766325 
L 356.684278 115.766325 
L 356.684278 115.647236 
L 356.907777 115.647236 
L 357.354774 115.528146 
L 357.578273 115.528146 
L 357.578273 115.409056 
L 358.248769 114.932696 
L 358.695766 114.575426 
L 358.695766 114.218156 
L 359.142763 113.860886 
L 359.366262 113.622706 
L 360.930752 113.146346 
L 360.930752 113.027256 
L 362.048245 112.550896 
L 362.271744 112.550896 
L 362.718741 112.431806 
L 363.165739 111.240907 
L 363.612736 110.764547 
L 364.730229 110.407277 
L 365.847722 109.335467 
L 366.071221 109.930917 
L 366.741717 108.859107 
L 367.188714 108.263657 
L 368.082708 106.953668 
L 368.976703 106.596398 
L 369.4237 106.477308 
L 370.094196 106.000948 
L 370.541193 105.405498 
L 371.435188 105.048228 
L 371.882185 104.929138 
L 372.77618 104.929138 
L 373.446676 104.690958 
L 374.117172 104.690958 
L 374.787667 104.095508 
L 376.352158 103.261878 
L 376.799155 103.380968 
L 377.469651 103.142788 
L 377.916648 103.261878 
L 379.034141 103.261878 
L 379.481139 103.142788 
L 379.704637 102.904609 
L 380.598632 102.547339 
L 381.492626 102.309159 
L 381.939624 102.309159 
L 383.951111 101.832799 
L 384.17461 101.832799 
L 385.515602 101.475529 
L 385.962599 101.475529 
L 386.186098 101.356439 
L 386.633095 101.356439 
L 386.856594 101.475529 
L 387.303591 101.356439 
L 387.750588 101.356439 
L 388.868081 100.880079 
L 389.09158 100.284629 
L 389.762076 99.808269 
L 391.326566 99.450999 
L 391.550065 99.212819 
L 391.997062 99.212819 
L 393.114555 98.855549 
L 393.561553 98.73646 
L 393.785051 98.73646 
L 394.00855 98.49828 
L 394.232048 98.49828 
L 395.126043 98.14101 
L 395.796539 98.14101 
L 396.467035 97.90283 
L 396.690533 97.90283 
L 397.137531 97.78374 
L 397.361029 97.90283 
L 397.808027 97.78374 
L 398.031525 97.78374 
L 398.702021 97.54556 
L 398.702021 97.54556 
L 399.149018 97.54556 
L 399.149018 97.54556 
L 399.596016 97.42647 
L 399.596016 97.42647 
L 399.819514 97.42647 
L 399.819514 97.30738 
L 400.043013 97.0692 
L 400.266511 97.0692 
L 400.266511 96.95011 
L 400.713509 96.83102 
L 400.713509 96.95011 
L 401.160506 96.95011 
L 401.160506 96.95011 
L 401.384005 97.0692 
L 401.831002 96.95011 
L 401.831002 96.95011 
L 402.277999 97.0692 
L 402.277999 96.95011 
L 402.501498 96.95011 
L 402.501498 96.95011 
L 402.501498 97.0692 
L 402.724996 97.0692 
L 402.724996 96.95011 
L 402.948495 96.95011 
L 402.948495 96.83102 
L 402.948495 96.83102 
L 403.395492 96.23557 
L 403.618991 96.11648 
L 403.618991 96.83102 
L 403.84249 96.83102 
L 404.065988 95.99739 
L 404.065988 95.99739 
L 404.512985 95.99739 
L 404.512985 95.8783 
L 404.959983 95.8783 
L 404.959983 95.75921 
L 405.40698 95.75921 
L 405.40698 95.75921 
L 405.853977 95.64012 
L 405.853977 95.64012 
L 406.077476 95.64012 
L 406.077476 95.40194 
L 406.300975 95.52103 
L 406.300975 95.40194 
L 406.300975 95.28285 
L 406.524473 95.28285 
L 406.524473 95.28285 
L 407.418468 94.92558 
L 407.418468 94.92558 
L 407.641966 94.92558 
L 407.641966 94.80649 
L 407.641966 94.92558 
L 407.865465 94.92558 
L 407.865465 94.80649 
L 408.535961 94.80649 
L 408.535961 94.80649 
L 408.759459 94.92558 
L 408.759459 94.80649 
L 408.982958 94.80649 
L 408.982958 94.80649 
L 408.982958 94.6874 
L 408.982958 94.6874 
L 409.429955 94.330131 
L 409.429955 94.091951 
L 409.653454 93.972861 
L 409.653454 93.734681 
L 409.876953 93.734681 
L 409.876953 93.615591 
L 410.100451 93.615591 
L 410.994446 93.258321 
L 410.994446 93.377411 
L 410.994446 93.377411 
L 411.217944 93.377411 
L 411.217944 93.377411 
L 411.88844 92.901051 
L 411.88844 92.901051 
L 412.111939 92.662871 
L 412.111939 91.948331 
L 412.335438 91.829241 
L 412.335438 91.591061 
L 413.229432 90.995611 
L 413.229432 90.876521 
L 413.452931 90.876521 
L 413.452931 90.757431 
L 413.452931 90.757431 
L 414.346925 90.400161 
L 414.346925 90.400161 
L 414.570424 90.400161 
L 414.570424 90.161982 
L 414.570424 90.161982 
L 415.464418 89.566532 
L 415.464418 89.447442 
L 417.028909 89.447442 
L 417.028909 89.328352 
L 417.252407 89.328352 
L 417.475906 89.090172 
L 417.475906 89.090172 
L 417.699405 89.090172 
L 417.699405 88.971082 
L 418.593399 88.613812 
L 418.593399 88.732902 
L 418.816898 88.732902 
L 418.816898 88.613812 
L 419.263895 88.613812 
L 419.263895 88.494722 
L 419.487394 88.494722 
L 419.487394 88.494722 
L 419.934391 88.732902 
L 420.381388 88.613812 
L 420.828386 88.732902 
L 421.72238 88.375632 
L 422.169377 88.375632 
L 422.616375 88.256542 
L 422.839873 88.256542 
L 422.839873 88.137452 
L 423.286871 88.137452 
L 423.733868 88.018362 
L 423.733868 88.137452 
L 423.957366 88.018362 
L 423.957366 88.018362 
L 424.180865 88.732902 
L 424.180865 88.018362 
L 424.627862 87.899272 
L 424.627862 87.899272 
L 424.851361 87.899272 
L 424.851361 87.899272 
L 425.745355 87.422912 
L 425.968854 87.542002 
L 426.415851 87.303822 
L 426.415851 87.065642 
L 427.756843 86.470192 
L 428.427339 86.470192 
L 428.427339 86.470192 
L 429.768331 85.874743 
L 430.438827 85.874743 
L 430.438827 85.874743 
L 430.662325 85.755653 
L 430.662325 85.517473 
L 431.332821 85.160203 
L 431.55632 85.279293 
L 432.226816 85.041113 
L 432.450314 85.041113 
L 432.450314 84.922023 
L 434.685301 83.731123 
L 434.908799 83.850213 
L 434.908799 83.850213 
L 435.579295 82.778403 
L 436.249791 82.302043 
L 436.696788 81.944773 
L 438.03778 81.111144 
L 438.261279 80.753874 
L 438.484778 80.753874 
L 439.602271 80.158424 
L 439.825769 79.801154 
L 440.272767 79.682064 
L 440.719764 79.682064 
L 441.39026 79.562974 
L 442.060756 79.562974 
L 445.189736 79.086614 
L 445.860232 79.205704 
L 446.754227 80.396604 
L 448.318717 81.944773 
L 453.682684 84.802933 
L 465.751611 167.332283 
L 465.751611 167.332283 
" clip-path="url(#pfc87672ae4)" style="fill: none; stroke: #407fb7; stroke-width: 2; stroke-linecap: square"/>
   </g>
   <g id="line2d_17">
    <path d="M 132.068153 435.44692 
L 132.068153 435.380825 
L 132.068153 436.251969 
L 131.985459 435.51635 
L 125.716322 435.463355 
L 125.769962 435.449659 
L 125.716322 434.137883 
L 125.432479 433.48527 
L 124.835738 432.867193 
L 123.66684 431.856119 
L 123.59979 432.089536 
L 123.60873 431.722739 
L 123.452281 431.429777 
L 123.112563 431.307115 
L 122.904709 431.57864 
L 122.518057 431.295206 
L 122.681211 431.307115 
L 123.376292 431.083226 
L 123.342767 430.947463 
L 123.217607 430.968899 
L 124.916197 430.781928 
L 126.08286 430.841473 
L 126.03369 430.777164 
L 125.904061 429.548156 
L 124.563069 427.322364 
L 124.232291 426.815041 
L 123.964093 426.66856 
L 123.821054 425.83493 
L 123.400876 425.300217 
L 123.215372 425.047746 
L 121.706757 420.422291 
L 120.962506 420.207929 
L 120.620553 419.195665 
L 120.479749 417.635586 
L 120.200376 417.028227 
L 118.933139 416.146961 
L 117.770946 415.158515 
L 116.809902 414.574974 
L 116.432189 414.134341 
L 115.475615 413.634163 
L 115.024148 413.43171 
L 114.874404 413.217348 
L 114.291072 410.990366 
L 113.759145 409.918556 
L 113.126644 409.239743 
L 112.447208 408.953927 
L 111.555449 408.739565 
L 111.182206 408.370386 
L 110.996702 407.560574 
L 110.864838 407.036578 
L 110.297152 406.869852 
L 110.250217 406.750763 
L 110.082593 404.630961 
L 109.742875 404.416599 
L 109.539491 404.357054 
L 109.159544 403.785422 
L 108.690196 401.784711 
L 108.354948 401.403623 
L 107.192756 400.736719 
L 106.969257 399.307639 
L 106.790458 399.200458 
L 106.231711 398.212012 
L 105.874114 397.592744 
L 105.762364 397.461745 
L 105.471816 396.937749 
L 104.980119 394.18677 
L 104.935419 393.043507 
L 104.622521 392.53142 
L 103.505028 391.554882 
L 103.326229 391.10234 
L 102.499284 386.457831 
L 102.007587 385.469385 
L 101.448841 384.93348 
L 101.158293 384.885844 
L 100.912444 384.623846 
L 100.443097 383.599672 
L 99.9514 383.421037 
L 99.638502 383.337674 
L 99.415003 383.099494 
L 99.258554 382.78986 
L 99.124455 382.515953 
L 98.610408 382.396863 
L 98.431609 382.468317 
L 98.27516 382.337318 
L 98.141061 382.420681 
L 98.074011 382.373045 
L 98.029312 382.396863 
L 97.984612 382.361136 
L 97.895212 382.43259 
L 97.872863 382.468317 
L 97.872863 382.384954 
L 97.850513 381.706141 
L 97.895212 378.431167 
L 98.029312 375.799279 
L 97.559965 375.358646 
L 97.358816 374.298745 
L 97.090617 370.118687 
L 96.844769 369.273148 
L 96.487171 368.808698 
L 95.727276 368.5467 
L 95.235579 368.225157 
L 94.900331 368.07034 
L 94.632132 367.105711 
L 94.207485 363.652102 
L 93.916937 363.032834 
L 93.089992 362.342112 
L 91.972499 362.032478 
L 91.8384 361.996751 
L 91.77135 361.961024 
L 91.413752 360.222311 
L 91.212603 360.150857 
L 91.100854 359.960313 
L 90.743256 357.25697 
L 90.408008 356.137525 
L 89.871612 354.875171 
L 89.603413 353.57709 
L 89.514014 351.195291 
L 89.402264 351.338199 
L 89.312865 351.242927 
L 89.245815 351.338199 
L 89.178766 351.266745 
L 89.044667 349.575667 
L 88.955267 342.847084 
L 88.932917 341.489458 
L 89.022317 339.988924 
L 89.290515 338.845661 
L 89.290515 338.631299 
L 89.379915 336.916403 
L 89.625763 331.104812 
L 89.715163 324.554864 
L 89.737512 324.638227 
L 89.692813 324.066595 
L 89.759862 314.884758 
L 89.782212 315.003848 
L 89.826912 314.884758 
L 89.871612 315.122938 
L 89.893961 315.361118 
L 89.938661 315.003848 
L 90.385658 311.312059 
L 90.720906 310.121159 
L 91.056154 307.97754 
L 91.212603 306.31028 
L 91.547851 304.523931 
L 92.240697 302.499401 
L 92.531245 301.546681 
L 92.687694 301.427591 
L 92.777094 301.427591 
L 92.955893 301.308502 
L 93.000592 301.308502 
L 93.46994 299.760332 
L 94.140435 297.735802 
L 94.341584 297.497622 
L 94.475683 296.902173 
L 94.676832 294.163103 
L 94.945031 293.448563 
L 95.280278 291.900394 
L 95.973124 289.994954 
L 96.286022 288.684964 
L 96.531871 288.446785 
L 96.68832 290.709494 
L 96.68832 290.709494 
L 96.66597 291.304944 
L 96.66597 290.590404 
L 96.73302 288.923144 
L 97.537615 284.874085 
L 97.716414 284.754995 
L 97.895212 284.278636 
L 98.051662 284.278636 
L 98.27516 283.921366 
L 98.565708 282.492286 
L 98.744507 281.896836 
L 98.722157 282.015926 
L 98.699808 281.182296 
L 98.833907 279.872307 
L 98.945656 278.800497 
L 99.415003 277.847777 
L 99.638502 282.015926 
L 100.420747 279.157767 
L 101.53824 277.728687 
L 101.225342 277.609597 
L 100.823045 277.252327 
L 100.510146 278.085957 
L 100.264298 278.205047 
L 100.063149 277.371417 
L 99.92905 277.371417 
L 99.772601 277.252327 
L 99.616152 276.895057 
L 99.482053 276.895057 
L 99.258554 275.465978 
L 99.213854 272.965088 
L 99.191505 272.369638 
L 98.610408 269.868749 
L 98.27516 268.439669 
L 97.783463 266.41514 
L 96.889469 266.05787 
L 96.017824 265.93878 
L 95.548477 265.7006 
L 95.190879 262.604261 
L 95.10148 262.604261 
L 94.833281 262.127901 
L 94.609783 262.127901 
L 94.430984 262.961531 
L 93.782838 262.723351 
L 89.603413 261.889721 
L 88.888218 261.889721 
L 88.307121 261.651541 
L 87.837774 260.937001 
L 87.435477 260.817911 
L 87.122578 260.937001 
L 86.988479 260.222461 
L 87.055529 257.959752 
L 87.346077 256.411582 
L 87.770724 255.577952 
L 88.351821 255.339772 
L 88.396521 255.339772 
L 88.329471 255.339772 
L 87.860124 254.982502 
L 87.726025 253.910693 
L 87.793074 252.362523 
L 87.927174 250.695264 
L 88.038923 249.028004 
L 88.284771 248.194374 
L 88.44122 248.194374 
L 88.776468 247.837104 
L 89.446964 245.217125 
L 89.648113 243.549865 
L 89.782212 243.192595 
L 89.961011 243.073505 
L 90.229209 242.716235 
L 90.340959 242.716235 
L 90.430358 242.835325 
L 90.519758 242.716235 
L 90.855006 241.644426 
L 90.989105 241.525336 
L 91.436102 240.215346 
L 91.7043 237.595367 
L 91.994849 235.332657 
L 92.531245 233.784488 
L 93.224091 233.546308 
L 94.118086 232.950858 
L 94.408634 232.474498 
L 94.654482 232.355408 
L 95.10148 231.998138 
L 95.190879 231.998138 
L 95.414378 230.211788 
L 95.548477 229.139979 
L 95.570827 229.735428 
L 95.593177 228.782709 
L 95.749626 224.25729 
L 95.973124 223.30457 
L 96.308372 222.70912 
L 96.73302 222.23276 
L 97.492915 220.565501 
L 98.163411 219.493691 
L 98.968006 218.898241 
L 99.079755 218.660061 
L 99.459703 216.040082 
L 99.526753 216.397352 
L 99.750251 214.491912 
L 99.92905 214.253732 
L 100.308998 213.539192 
L 101.001843 213.062832 
L 102.856882 212.110113 
L 105.114218 210.204673 
L 105.762364 209.966493 
L 106.388161 209.490133 
L 106.902207 209.371043 
L 107.505654 208.894683 
L 107.796202 208.418324 
L 108.354948 207.941964 
L 109.248943 205.679254 
L 110.554175 204.607444 
L 110.981057 203.892905 
L 111.928692 203.178365 
L 112.94114 201.749285 
L 114.61738 200.677475 
L 115.649944 199.605666 
L 116.561818 198.891126 
L 117.891635 197.223866 
L 118.367687 196.866596 
L 118.787865 196.747506 
L 119.120878 196.866596 
L 119.415896 197.104776 
L 119.827133 196.985686 
L 120.370235 197.342956 
L 120.792647 198.414766 
L 120.953566 199.962936 
L 120.535624 203.059275 
L 120.34565 203.654725 
L 119.795843 204.369264 
L 119.684094 205.917434 
L 119.373431 209.013773 
L 118.410152 212.110113 
L 118.115134 214.253732 
L 117.744126 219.255511 
L 117.406643 220.565501 
L 117.185379 220.803681 
L 117.0781 220.684591 
L 117.049045 221.51822 
L 116.973056 223.90002 
L 116.903771 223.78093 
L 116.847896 224.1382 
L 116.673568 230.688148 
L 116.476889 231.283598 
L 116.28915 230.807238 
L 116.23998 230.569058 
L 116.186341 230.807238 
L 115.909202 231.521778 
L 115.882382 231.521778 
L 115.705818 232.117228 
L 115.629829 235.332657 
L 115.52255 235.332657 
L 115.42421 235.809017 
L 115.258821 240.453526 
L 114.921338 244.502585 
L 114.230727 248.313464 
L 114.029579 248.908914 
L 113.714446 251.647983 
L 113.200399 251.052533 
L 113.068535 251.052533 
L 112.95008 250.933443 
L 112.476263 255.101592 
L 112.221475 255.339772 
L 111.933162 258.555202 
L 111.369945 259.507921 
L 111.278311 259.150651 
L 111.168796 259.865191 
L 110.981057 264.5097 
L 110.263627 267.24877 
L 109.990958 267.606039 
L 109.818864 267.606039 
L 109.651241 268.439669 
L 109.494791 269.511479 
L 109.383042 270.583289 
L 109.204243 274.751438 
L 109.025444 276.061427 
L 108.757246 276.537787 
L 108.489048 277.490507 
L 107.349205 284.397726 
L 106.812808 285.112265 
L 106.611659 287.494065 
L 106.388161 292.138574 
L 106.052913 296.187633 
L 105.404767 298.926702 
L 104.577822 300.832142 
L 102.812182 304.166661 
L 102.476934 304.166661 
L 102.231086 302.737581 
L 102.074637 303.094851 
L 101.940538 302.261221 
L 101.851138 307.97754 
L 101.64999 308.93026 
L 100.823045 310.597519 
L 99.9514 317.230831 
L 98.498659 322.69706 
L 98.27516 323.066239 
L 97.917562 324.531046 
L 96.978868 329.71146 
L 96.487171 331.307265 
L 95.816675 333.951063 
L 95.324978 336.987857 
L 94.252185 341.275096 
L 92.978243 343.764076 
L 92.464196 344.823977 
L 92.128948 347.920316 
L 91.883099 349.563758 
L 91.681951 350.397388 
L 91.212603 353.481818 
L 90.765606 354.208267 
L 90.609157 355.172896 
L 89.715163 364.545277 
L 88.888218 368.296611 
L 86.78733 374.429744 
L 86.742631 374.310654 
L 86.764981 372.548123 
L 86.653231 375.096648 
L 86.630881 375.394373 
L 86.541482 378.538348 
L 86.385033 382.587407 
L 86.452083 409.906647 
L 86.83203 411.490543 
L 87.301377 412.443263 
L 87.591926 412.919623 
L 88.128322 413.264984 
L 88.50827 413.43171 
L 88.888218 413.753253 
L 89.223466 413.884252 
L 90.542108 415.110879 
L 91.614901 415.599147 
L 92.195997 415.694419 
L 93.179391 416.170779 
L 93.782838 417.087772 
L 95.682576 418.052401 
L 96.442471 418.242945 
L 96.777719 419.100393 
L 97.068268 419.219483 
L 97.358816 418.790759 
L 97.962262 419.124211 
L 98.878606 419.612479 
L 99.482053 419.707751 
L 100.130199 419.969749 
L 100.934794 420.124566 
L 101.337091 420.612835 
L 101.60529 421.255921 
L 101.851138 421.601282 
L 102.320485 422.006188 
L 105.382417 423.423359 
L 106.49991 423.929491 
L 108.243199 424.873874 
L 109.137194 425.034646 
L 110.572055 425.83493 
L 111.36771 426.155283 
L 112.384629 426.349399 
L 113.508827 426.806705 
L 113.678686 427.017494 
L 114.049694 427.536726 
L 114.798414 427.695116 
L 115.632064 427.789197 
L 115.725933 427.770143 
L 115.817568 427.923769 
L 115.902497 427.854696 
L 116.441129 427.972595 
L 116.577463 428.011895 
L 116.617693 428.013086 
L 116.682507 428.48111 
L 116.890361 428.512073 
L 117.178674 428.413228 
L 117.245724 428.155994 
L 118.79457 428.129794 
L 118.805744 428.830043 
L 118.890674 428.005941 
L 118.926434 428.095258 
L 118.944314 427.955923 
L 119.022538 426.81385 
L 118.964429 426.105265 
L 118.77669 425.316889 
L 118.407917 424.61664 
L 117.09151 424.042626 
L 116.237745 422.637365 
L 115.828743 422.518275 
L 115.719228 422.149096 
L 115.457735 421.910916 
L 115.42421 421.946643 
L 115.350456 420.55329 
L 114.981683 417.635586 
L 114.606205 416.742411 
L 112.983605 415.587238 
L 111.667198 414.372521 
L 110.169757 413.205439 
L 109.80322 412.407536 
L 109.472442 411.40718 
L 109.092494 410.752186 
L 107.013957 409.323106 
L 106.835158 409.144471 
L 105.874114 406.060041 
L 105.427116 405.488409 
L 104.130824 404.714324 
L 103.884976 403.702059 
L 103.661477 402.237253 
L 103.23683 400.677174 
L 102.588684 398.855097 
L 101.739389 397.366473 
L 100.800695 396.056483 
L 99.9067 395.0204 
L 99.102105 394.377314 
L 98.386909 394.008136 
L 97.716414 393.341232 
L 94.855631 387.255734 
L 93.693438 384.885844 
L 92.777094 382.658861 
L 91.167904 377.073542 
L 90.20686 375.025194 
L 88.642369 372.095581 
L 87.994223 371.107134 
L 87.726025 370.785591 
L 87.502526 370.761773 
L 87.077879 370.535502 
L 86.988479 370.178232 
L 86.966129 367.546344 
L 87.144928 365.676631 
L 87.860124 363.902191 
L 87.658975 361.937206 
L 87.726025 355.24435 
L 87.860124 349.813847 
L 88.195372 344.133255 
L 88.48592 341.358459 
L 89.715163 333.962972 
L 90.16216 327.817929 
L 90.475058 322.732787 
L 90.787956 317.278467 
L 90.966755 316.980742 
L 91.011455 317.040287 
L 91.056154 317.504738 
L 91.078504 317.040287 
L 91.100854 311.550239 
L 91.302003 306.54846 
L 91.72665 303.571211 
L 93.894587 298.093072 
L 94.542733 295.115823 
L 95.235579 292.972203 
L 96.062524 288.446785 
L 97.269416 285.588625 
L 97.828163 283.206826 
L 98.31986 280.229577 
L 98.789207 278.800497 
L 99.303254 277.609597 
L 99.817301 276.775967 
L 100.219598 275.346888 
L 100.532496 273.679628 
L 101.158293 268.082399 
L 101.58294 264.27152 
L 102.186386 260.103371 
L 103.013331 255.816132 
L 103.974375 249.980724 
L 105.047169 245.098035 
L 106.209362 242.478055 
L 108.1091 240.096256 
L 108.645497 239.500806 
L 109.226593 238.190816 
L 109.405392 237.595367 
L 109.651241 235.809017 
L 110.129528 234.022667 
L 110.288212 232.117228 
L 110.554175 230.688148 
L 110.862603 228.425439 
L 111.635908 225.448189 
L 111.899637 222.9473 
L 112.612597 219.850961 
L 112.952315 216.992801 
L 114.279897 212.943742 
L 114.268722 212.943742 
L 114.206143 212.586473 
L 114.282132 210.919213 
L 114.532451 209.609223 
L 114.867699 206.036524 
L 115.404095 204.607444 
L 115.502435 204.488354 
L 115.37504 203.773815 
L 115.207417 202.821095 
L 115.131427 201.153835 
L 115.111312 197.342956 
L 115.229766 195.080247 
L 115.439855 194.246617 
L 116.083531 193.889347 
L 116.3115 193.889347 
L 116.497004 193.770257 
L 116.682507 193.770257 
L 116.787552 194.008437 
L 117.004346 193.770257 
L 117.368648 193.532077 
L 117.471458 193.532077 
L 117.569797 193.412987 
L 117.85364 192.698447 
L 118.360982 192.341177 
L 118.577776 192.341177 
L 118.734225 192.222087 
L 118.993483 191.150278 
L 119.187927 190.435738 
L 119.769024 189.840288 
L 120.008167 189.840288 
L 120.34565 189.721198 
L 120.642903 189.721198 
L 121.025086 189.363928 
L 121.268699 189.125748 
L 122.453242 188.053938 
L 122.634276 188.053938 
L 122.900239 187.220309 
L 123.119268 186.029409 
L 123.67578 185.314869 
L 123.767414 185.314869 
L 123.930568 185.076689 
L 124.449085 183.05216 
L 124.889377 182.69489 
L 125.363194 181.86126 
L 125.693972 180.07491 
L 126.031455 179.59855 
L 126.467278 178.050381 
L 126.672896 177.454931 
L 126.882985 177.097661 
L 127.327747 175.311311 
L 127.417147 175.311311 
L 127.452907 175.192221 
L 127.528896 175.311311 
L 127.607121 175.311311 
L 127.685345 173.405872 
L 127.788154 170.785892 
L 128.020593 168.285003 
L 129.225251 162.925954 
L 129.678953 161.735055 
L 130.177355 161.139605 
L 130.702577 161.020515 
L 131.261323 161.139605 
L 133.628174 160.186885 
L 134.660737 159.234165 
L 135.702241 157.328726 
L 136.969478 156.495096 
L 138.39093 156.376006 
L 139.642522 156.137826 
L 140.648266 156.376006 
L 141.506501 156.018736 
L 142.878782 155.899646 
L 143.325779 155.899646 
L 143.9851 156.018736 
L 144.494677 156.018736 
L 144.874625 156.495096 
L 145.265748 156.971456 
L 145.484776 157.090546 
L 145.672515 157.090546 
L 145.764149 157.209636 
L 145.972003 157.090546 
L 146.378771 155.780556 
L 146.828003 154.589656 
L 147.596838 153.994206 
L 147.987961 153.994206 
L 148.155585 153.756026 
L 148.320974 154.113296 
L 148.502008 153.636937 
L 148.734446 152.446037 
L 149.337893 151.255137 
L 149.959219 150.540597 
L 150.63642 148.873338 
L 151.584054 148.039708 
L 152.048931 147.920618 
L 152.451229 147.682438 
L 152.795416 147.682438 
L 153.644711 147.325168 
L 155.312011 145.657908 
L 155.915457 145.062459 
L 156.384804 144.824279 
L 156.295405 144.586099 
L 156.362455 144.586099 
L 156.541253 144.705189 
L 156.071906 144.228829 
L 156.071906 143.395199 
L 156.317755 143.157019 
L 156.675353 143.157019 
L 156.876501 142.918839 
L 157.703446 140.29886 
L 158.373942 139.70341 
L 159.022088 139.10796 
L 159.357336 138.98887 
L 160.027832 136.96434 
L 160.36308 136.607071 
L 161.592323 136.249801 
L 162.06167 136.487981 
L 162.419267 136.249801 
L 162.620416 136.249801 
L 163.089763 135.892531 
L 163.872009 135.892531 
L 165.011852 135.177991 
L 165.23535 135.297081 
L 165.704697 134.820721 
L 166.106995 135.058901 
L 166.643392 134.701631 
L 166.84454 134.820721 
L 167.850284 134.106181 
L 168.006733 134.106181 
L 168.252582 133.987091 
L 168.364331 133.987091 
L 168.409031 133.748911 
L 168.409031 133.748911 
L 168.47608 131.367112 
L 168.49843 131.367112 
L 168.632529 131.248022 
L 168.654879 132.081652 
L 168.721929 131.367112 
L 168.878378 131.128932 
L 168.900728 131.128932 
L 169.034827 131.248022 
L 169.168926 131.128932 
L 169.191276 131.128932 
L 169.392425 130.890752 
L 169.571224 130.890752 
L 169.705323 130.771662 
L 169.772372 130.771662 
L 169.928822 130.652572 
L 169.995871 130.652572 
L 170.12997 130.533482 
L 170.19702 130.533482 
L 170.264069 130.414392 
L 170.331119 130.533482 
L 170.420519 130.414392 
L 170.487568 130.533482 
L 170.845166 130.176212 
L 170.934565 130.176212 
L 171.225114 129.818942 
L 171.448612 129.938032 
L 171.73916 129.342582 
L 171.85091 129.342582 
L 172.096758 129.223492 
L 172.230857 129.104402 
L 172.521406 128.628042 
L 172.968403 128.270773 
L 173.907097 127.913503 
L 174.108246 127.913503 
L 174.577593 127.794413 
L 175.02459 127.794413 
L 175.404538 127.675323 
L 175.829185 127.675323 
L 175.963285 127.556233 
L 176.186783 127.675323 
L 176.387932 127.556233 
L 176.499681 127.675323 
L 176.834929 127.198963 
L 177.080778 126.484423 
L 177.728924 126.127153 
L 178.108871 126.484423 
L 178.39942 126.008063 
L 178.645268 125.650793 
L 178.891117 125.888973 
L 179.136965 125.769883 
L 179.405164 125.650793 
L 179.852161 125.650793 
L 180.768505 124.936253 
L 181.237852 124.221713 
L 181.5731 124.102624 
L 182.243596 124.102624 
L 182.847042 123.864444 
L 183.31639 124.102624 
L 183.517538 123.983534 
L 183.718687 123.626264 
L 183.897486 123.864444 
L 184.098635 123.864444 
L 185.104379 122.078094 
L 185.484326 121.959004 
L 185.931324 121.959004 
L 187.406415 121.244464 
L 187.853412 121.244464 
L 189.350853 120.768104 
L 189.909599 120.053564 
L 190.222497 120.053564 
L 190.557745 119.339025 
L 190.892993 119.696295 
L 191.250591 119.577205 
L 191.652889 118.862665 
L 193.284429 119.219935 
L 195.407666 119.219935 
L 195.586464 119.100845 
L 196.122861 119.339025 
L 196.30166 119.219935 
L 196.614558 119.339025 
L 196.748657 119.219935 
L 197.016856 119.339025 
L 197.419153 119.339025 
L 197.642652 119.219935 
L 197.843801 119.339025 
L 197.9332 119.339025 
L 198.111999 119.219935 
L 198.201398 119.339025 
L 198.402547 119.219935 
L 198.581346 119.339025 
L 198.938944 119.339025 
L 199.073043 119.458115 
L 199.274192 119.458115 
L 199.452991 119.696295 
L 199.497691 119.577205 
L 199.56474 119.696295 
L 199.65414 119.696295 
L 199.698839 119.577205 
L 199.743539 119.696295 
L 199.989388 119.696295 
L 200.078787 119.577205 
L 200.212886 119.696295 
L 200.257586 119.696295 
L 200.279936 119.577205 
L 200.369335 119.696295 
L 200.458735 119.458115 
L 200.592834 118.505395 
L 200.838682 118.029035 
L 201.24098 117.671765 
L 201.598578 117.195405 
L 202.626671 116.004505 
L 202.85017 115.766325 
L 203.185418 115.528146 
L 203.520666 115.528146 
L 204.280561 114.932696 
L 204.884008 113.860886 
L 205.196906 113.503616 
L 205.599203 113.265436 
L 205.733302 113.265436 
L 206.403798 112.669986 
L 206.537897 112.669986 
L 206.895495 112.431806 
L 207.118994 112.431806 
L 207.297793 111.240907 
L 207.856539 110.645457 
L 207.990639 110.645457 
L 208.370586 110.169097 
L 208.705834 109.454557 
L 208.839933 109.335467 
L 208.929333 109.930917 
L 209.130482 108.620927 
L 209.510429 107.310937 
L 210.203275 106.000948 
L 210.315024 105.405498 
L 210.493823 105.167318 
L 210.98552 104.929138 
L 211.633666 104.929138 
L 212.550011 104.690958 
L 212.795859 104.690958 
L 213.287556 104.214598 
L 214.181551 103.738238 
L 214.919096 103.261878 
L 215.120245 103.380968 
L 215.500193 103.142788 
L 215.723691 103.261878 
L 216.438887 103.261878 
L 216.975284 102.904609 
L 217.243482 102.666429 
L 218.383325 102.309159 
L 218.807972 102.309159 
L 220.618311 101.832799 
L 220.931209 101.832799 
L 221.266457 101.713709 
L 221.601705 101.713709 
L 222.249851 101.475529 
L 222.562749 101.475529 
L 222.853298 101.356439 
L 223.166196 101.356439 
L 223.434394 101.475529 
L 224.373088 100.880079 
L 224.596587 100.284629 
L 224.864785 99.927359 
L 226.898623 99.212819 
L 227.144471 99.212819 
L 228.284314 98.73646 
L 228.686612 98.73646 
L 228.865411 98.49828 
L 229.111259 98.49828 
L 229.357108 98.37919 
L 229.647656 98.37919 
L 230.407551 98.14101 
L 230.787499 98.14101 
L 231.323896 97.90283 
L 231.502695 97.90283 
L 231.659144 97.78374 
L 231.815593 97.90283 
L 231.949692 97.78374 
L 232.061441 97.90283 
L 232.32964 97.78374 
L 232.486089 97.78374 
L 232.731937 97.66465 
L 232.866036 97.66465 
L 233.111885 97.54556 
L 233.424783 97.54556 
L 233.648281 97.42647 
L 233.87178 97.42647 
L 234.475226 96.83102 
L 234.586976 96.83102 
L 234.810474 96.95011 
L 234.989273 96.95011 
L 235.078673 97.0692 
L 235.235122 96.95011 
L 235.413921 96.95011 
L 235.50332 97.0692 
L 235.59272 96.95011 
L 235.682119 97.0692 
L 235.883268 96.95011 
L 235.972667 96.95011 
L 236.151466 97.0692 
L 236.374965 96.83102 
L 236.464364 96.83102 
L 236.665513 96.35466 
L 236.933711 96.11648 
L 237.17956 96.83102 
L 237.268959 95.99739 
L 237.581857 95.99739 
L 237.805356 95.8783 
L 238.118254 95.8783 
L 238.274703 95.75921 
L 238.565251 95.75921 
L 238.677001 95.64012 
L 238.7664 95.75921 
L 238.967549 95.64012 
L 239.168698 95.64012 
L 239.347497 95.40194 
L 239.459246 95.52103 
L 239.705094 95.28285 
L 239.794494 95.28285 
L 240.085042 95.04467 
L 240.196791 95.04467 
L 240.39794 94.92558 
L 240.688488 94.92558 
L 240.777888 94.80649 
L 240.956687 94.92558 
L 241.135486 94.80649 
L 241.694232 94.80649 
L 241.761282 94.92558 
L 241.895381 94.80649 
L 242.05183 94.80649 
L 242.252979 94.568311 
L 242.342378 94.6874 
L 242.767026 93.972861 
L 242.878775 93.734681 
L 243.012874 93.734681 
L 243.370472 93.496501 
L 243.68337 93.496501 
L 243.996268 93.258321 
L 244.085668 93.258321 
L 244.309166 93.377411 
L 244.443265 93.377411 
L 244.577365 93.258321 
L 244.778513 93.258321 
L 245.046712 92.901051 
L 245.136111 92.901051 
L 245.672508 91.591061 
L 246.432403 91.114701 
L 246.588852 91.114701 
L 247.125249 90.757431 
L 247.259348 90.757431 
L 247.527546 90.638341 
L 247.639296 90.638341 
L 248.019243 90.400161 
L 248.309792 90.400161 
L 248.466241 90.161982 
L 248.64504 90.161982 
L 249.874282 89.447442 
L 251.259974 89.447442 
L 251.77402 89.090172 
L 251.90812 89.090172 
L 252.444516 88.732902 
L 252.556266 88.732902 
L 252.824464 88.613812 
L 253.070313 88.732902 
L 253.271461 88.613812 
L 253.47261 88.613812 
L 253.673759 88.494722 
L 253.763158 88.494722 
L 254.053707 88.732902 
L 254.120756 88.613812 
L 254.210156 88.732902 
L 254.545404 88.256542 
L 254.746552 88.256542 
L 254.970051 88.137452 
L 255.05945 88.137452 
L 255.260599 88.018362 
L 255.372348 88.137452 
L 255.573497 88.018362 
L 255.685247 88.732902 
L 255.864045 87.899272 
L 256.445142 87.899272 
L 256.534541 87.780182 
L 256.646291 87.899272 
L 257.137988 87.422912 
L 257.249737 87.542002 
L 258.255481 86.589282 
L 258.568379 86.470192 
L 259.238875 86.470192 
L 259.99877 85.874743 
L 260.982164 85.874743 
L 261.943208 85.160203 
L 262.099657 85.279293 
L 262.636054 85.041113 
L 262.814853 85.041113 
L 263.842947 84.326573 
L 264.692241 83.731123 
L 264.96044 83.850213 
L 265.362737 82.897493 
L 265.675635 82.540223 
L 266.055583 82.063863 
L 267.061327 81.468414 
L 267.575374 80.753874 
L 267.798872 80.753874 
L 268.402319 80.396604 
L 268.983415 79.682064 
L 269.162214 79.682064 
L 269.87741 79.086614 
L 270.033859 79.205704 
L 270.167958 80.396604 
L 270.145608 81.944773 
L 269.87741 84.802933 
L 269.117514 167.332283 
L 269.117514 167.332283 
" clip-path="url(#pfc87672ae4)" style="fill: none; stroke: #57ab27; stroke-width: 2; stroke-linecap: square"/>
   </g>
   <g id="patch_3">
    <path d="M 67.322835 454.110236 
L 67.322835 61.228346 
" style="fill: none; stroke: #000000; stroke-width: 0.8; stroke-linejoin: miter; stroke-linecap: square"/>
   </g>
   <g id="patch_4">
    <path d="M 67.322835 454.110236 
L 484.724409 454.110236 
" style="fill: none; stroke: #000000; stroke-width: 0.8; stroke-linejoin: miter; stroke-linecap: square"/>
   </g>
   <g id="legend_1">
    <g id="patch_5">
     <path d="M 77.822835 115.645534 
L 195.814241 115.645534 
Q 198.814241 115.645534 198.814241 112.645534 
L 198.814241 71.728346 
Q 198.814241 68.728346 195.814241 68.728346 
L 77.822835 68.728346 
Q 74.822835 68.728346 74.822835 71.728346 
L 74.822835 112.645534 
Q 74.822835 115.645534 77.822835 115.645534 
z
" style="fill: #ffffff; opacity: 0.8; stroke: #cccccc; stroke-linejoin: miter"/>
    </g>
    <g id="line2d_18">
     <path d="M 80.822835 79.978346 
L 95.822835 79.978346 
L 110.822835 79.978346 
" style="fill: none; stroke: #407fb7; stroke-width: 2; stroke-linecap: square"/>
    </g>
    <g id="text_18">
     <!-- WB304 - J -->
     <g transform="translate(122.822835 85.228346) scale(0.15 -0.15)">
      <defs>
       <path id="TimesNewRomanPSMT-57" d="M 5991 4238 
L 5991 4122 
Q 5825 4122 5722 4062 
Q 5619 4003 5525 3841 
Q 5463 3731 5328 3319 
L 4147 -97 
L 4022 -97 
L 3056 2613 
L 2097 -97 
L 1984 -97 
L 725 3422 
Q 584 3816 547 3888 
Q 484 4006 376 4064 
Q 269 4122 84 4122 
L 84 4238 
L 1653 4238 
L 1653 4122 
L 1578 4122 
Q 1413 4122 1325 4047 
Q 1238 3972 1238 3866 
Q 1238 3756 1375 3363 
L 2209 984 
L 2913 3006 
L 2788 3363 
L 2688 3647 
Q 2622 3803 2541 3922 
Q 2500 3981 2441 4022 
Q 2363 4078 2284 4103 
Q 2225 4122 2097 4122 
L 2097 4238 
L 3747 4238 
L 3747 4122 
L 3634 4122 
Q 3459 4122 3378 4047 
Q 3297 3972 3297 3844 
Q 3297 3684 3438 3288 
L 4250 984 
L 5056 3319 
Q 5194 3706 5194 3856 
Q 5194 3928 5148 3990 
Q 5103 4053 5034 4078 
Q 4916 4122 4725 4122 
L 4725 4238 
L 5991 4238 
z
" transform="scale(0.015625)"/>
       <path id="TimesNewRomanPSMT-42" d="M 2956 2163 
Q 3397 2069 3616 1863 
Q 3919 1575 3919 1159 
Q 3919 844 3719 555 
Q 3519 266 3170 133 
Q 2822 0 2106 0 
L 106 0 
L 106 116 
L 266 116 
Q 531 116 647 284 
Q 719 394 719 750 
L 719 3488 
Q 719 3881 628 3984 
Q 506 4122 266 4122 
L 106 4122 
L 106 4238 
L 1938 4238 
Q 2450 4238 2759 4163 
Q 3228 4050 3475 3764 
Q 3722 3478 3722 3106 
Q 3722 2788 3528 2536 
Q 3334 2284 2956 2163 
z
M 1319 2331 
Q 1434 2309 1582 2298 
Q 1731 2288 1909 2288 
Q 2366 2288 2595 2386 
Q 2825 2484 2947 2687 
Q 3069 2891 3069 3131 
Q 3069 3503 2766 3765 
Q 2463 4028 1881 4028 
Q 1569 4028 1319 3959 
L 1319 2331 
z
M 1319 306 
Q 1681 222 2034 222 
Q 2600 222 2897 476 
Q 3194 731 3194 1106 
Q 3194 1353 3059 1581 
Q 2925 1809 2622 1940 
Q 2319 2072 1872 2072 
Q 1678 2072 1540 2065 
Q 1403 2059 1319 2044 
L 1319 306 
z
" transform="scale(0.015625)"/>
       <path id="TimesNewRomanPSMT-34" d="M 2978 1563 
L 2978 1119 
L 2409 1119 
L 2409 0 
L 1894 0 
L 1894 1119 
L 100 1119 
L 100 1519 
L 2066 4325 
L 2409 4325 
L 2409 1563 
L 2978 1563 
z
M 1894 1563 
L 1894 3666 
L 406 1563 
L 1894 1563 
z
" transform="scale(0.015625)"/>
       <path id="TimesNewRomanPSMT-2d" d="M 259 1672 
L 1875 1672 
L 1875 1200 
L 259 1200 
L 259 1672 
z
" transform="scale(0.015625)"/>
       <path id="TimesNewRomanPSMT-4a" d="M 638 4122 
L 638 4238 
L 2453 4238 
L 2453 4122 
L 2300 4122 
Q 2041 4122 1922 3969 
Q 1847 3869 1847 3488 
L 1847 1416 
Q 1847 938 1742 641 
Q 1638 344 1381 123 
Q 1125 -97 763 -97 
Q 469 -97 300 48 
Q 131 194 131 381 
Q 131 534 209 613 
Q 313 709 450 709 
Q 550 709 629 643 
Q 709 578 831 294 
Q 903 125 1016 125 
Q 1100 125 1173 228 
Q 1247 331 1247 594 
L 1247 3488 
Q 1247 3809 1206 3913 
Q 1175 3991 1075 4047 
Q 941 4122 791 4122 
L 638 4122 
z
" transform="scale(0.015625)"/>
      </defs>
      <use xlink:href="#TimesNewRomanPSMT-57"/>
      <use xlink:href="#TimesNewRomanPSMT-42" transform="translate(94.384766 0)"/>
      <use xlink:href="#TimesNewRomanPSMT-33" transform="translate(161.083984 0)"/>
      <use xlink:href="#TimesNewRomanPSMT-30" transform="translate(211.083984 0)"/>
      <use xlink:href="#TimesNewRomanPSMT-34" transform="translate(261.083984 0)"/>
      <use xlink:href="#TimesNewRomanPSMT-20" transform="translate(311.083984 0)"/>
      <use xlink:href="#TimesNewRomanPSMT-2d" transform="translate(336.083984 0)"/>
      <use xlink:href="#TimesNewRomanPSMT-20" transform="translate(369.384766 0)"/>
      <use xlink:href="#TimesNewRomanPSMT-4a" transform="translate(394.384766 0)"/>
     </g>
    </g>
    <g id="line2d_19">
     <path d="M 80.822835 101.18694 
L 95.822835 101.18694 
L 110.822835 101.18694 
" style="fill: none; stroke: #57ab27; stroke-width: 2; stroke-linecap: square"/>
    </g>
    <g id="text_19">
     <!-- WB304 - K -->
     <g transform="translate(122.822835 106.43694) scale(0.15 -0.15)">
      <defs>
       <path id="TimesNewRomanPSMT-4b" d="M 1913 2350 
L 3475 797 
Q 3859 413 4131 273 
Q 4403 134 4675 116 
L 4675 0 
L 2659 0 
L 2659 116 
Q 2841 116 2920 177 
Q 3000 238 3000 313 
Q 3000 388 2970 447 
Q 2941 506 2775 669 
L 1313 2116 
L 1313 750 
Q 1313 428 1353 325 
Q 1384 247 1484 191 
Q 1619 116 1769 116 
L 1913 116 
L 1913 0 
L 106 0 
L 106 116 
L 256 116 
Q 519 116 638 269 
Q 713 369 713 750 
L 713 3488 
Q 713 3809 672 3916 
Q 641 3991 544 4047 
Q 406 4122 256 4122 
L 106 4122 
L 106 4238 
L 1913 4238 
L 1913 4122 
L 1769 4122 
Q 1622 4122 1484 4050 
Q 1388 4000 1350 3900 
Q 1313 3800 1313 3488 
L 1313 2191 
Q 1375 2250 1741 2588 
Q 2669 3438 2863 3722 
Q 2947 3847 2947 3941 
Q 2947 4013 2881 4067 
Q 2816 4122 2659 4122 
L 2563 4122 
L 2563 4238 
L 4119 4238 
L 4119 4122 
Q 3981 4119 3868 4084 
Q 3756 4050 3593 3951 
Q 3431 3853 3194 3634 
Q 3125 3572 2559 2994 
L 1913 2350 
z
" transform="scale(0.015625)"/>
      </defs>
      <use xlink:href="#TimesNewRomanPSMT-57"/>
      <use xlink:href="#TimesNewRomanPSMT-42" transform="translate(94.384766 0)"/>
      <use xlink:href="#TimesNewRomanPSMT-33" transform="translate(161.083984 0)"/>
      <use xlink:href="#TimesNewRomanPSMT-30" transform="translate(211.083984 0)"/>
      <use xlink:href="#TimesNewRomanPSMT-34" transform="translate(261.083984 0)"/>
      <use xlink:href="#TimesNewRomanPSMT-20" transform="translate(311.083984 0)"/>
      <use xlink:href="#TimesNewRomanPSMT-2d" transform="translate(336.083984 0)"/>
      <use xlink:href="#TimesNewRomanPSMT-20" transform="translate(369.384766 0)"/>
      <use xlink:href="#TimesNewRomanPSMT-4b" transform="translate(394.384766 0)"/>
     </g>
    </g>
   </g>
  </g>
 </g>
 <defs>
  <clipPath id="pfc87672ae4">
   <rect x="67.322835" y="61.228346" width="417.401575" height="392.88189"/>
  </clipPath>
 </defs>
</svg>
