<?xml version="1.0" encoding="utf-8" standalone="no"?>
<!DOCTYPE svg PUBLIC "-//W3C//DTD SVG 1.1//EN"
  "http://www.w3.org/Graphics/SVG/1.1/DTD/svg11.dtd">
<svg xmlns:xlink="http://www.w3.org/1999/xlink" width="538.582677pt" height="510.23622pt" viewBox="0 0 538.582677 510.23622" xmlns="http://www.w3.org/2000/svg" version="1.1">
 <metadata>
  <rdf:RDF xmlns:dc="http://purl.org/dc/elements/1.1/" xmlns:cc="http://creativecommons.org/ns#" xmlns:rdf="http://www.w3.org/1999/02/22-rdf-syntax-ns#">
   <cc:Work>
    <dc:type rdf:resource="http://purl.org/dc/dcmitype/StillImage"/>
    <dc:date>2025-06-08T14:43:57.746709</dc:date>
    <dc:format>image/svg+xml</dc:format>
    <dc:creator>
     <cc:Agent>
      <dc:title>Matplotlib v3.10.1, https://matplotlib.org/</dc:title>
     </cc:Agent>
    </dc:creator>
   </cc:Work>
  </rdf:RDF>
 </metadata>
 <defs>
  <style type="text/css">*{stroke-linejoin: round; stroke-linecap: butt}</style>
 </defs>
 <g id="figure_1">
  <g id="patch_1">
   <path d="M 0 510.23622 
L 538.582677 510.23622 
L 538.582677 0 
L 0 0 
z
" style="fill: #ffffff"/>
  </g>
  <g id="axes_1">
   <g id="patch_2">
    <path d="M 67.322835 454.110236 
L 484.724409 454.110236 
L 484.724409 61.228346 
L 67.322835 61.228346 
z
" style="fill: #ffffff"/>
   </g>
   <g id="matplotlib.axis_1">
    <g id="xtick_1">
     <g id="line2d_1">
      <defs>
       <path id="m0737150580" d="M 0 0 
L 0 3.5 
" style="stroke: #000000; stroke-width: 0.8"/>
      </defs>
      <g>
       <use xlink:href="#m0737150580" x="92.006217" y="454.110236" style="stroke: #000000; stroke-width: 0.8"/>
      </g>
     </g>
     <g id="text_1">
      <!-- 0.0 -->
      <g transform="translate(82.631217 471.525861) scale(0.15 -0.15)">
       <defs>
        <path id="TimesNewRomanPSMT-30" d="M 231 2094 
Q 231 2819 450 3342 
Q 669 3866 1031 4122 
Q 1313 4325 1613 4325 
Q 2100 4325 2488 3828 
Q 2972 3213 2972 2159 
Q 2972 1422 2759 906 
Q 2547 391 2217 158 
Q 1888 -75 1581 -75 
Q 975 -75 572 641 
Q 231 1244 231 2094 
z
M 844 2016 
Q 844 1141 1059 588 
Q 1238 122 1591 122 
Q 1759 122 1940 273 
Q 2122 425 2216 781 
Q 2359 1319 2359 2297 
Q 2359 3022 2209 3506 
Q 2097 3866 1919 4016 
Q 1791 4119 1609 4119 
Q 1397 4119 1231 3928 
Q 1006 3669 925 3112 
Q 844 2556 844 2016 
z
" transform="scale(0.015625)"/>
        <path id="TimesNewRomanPSMT-2e" d="M 800 606 
Q 947 606 1047 504 
Q 1147 403 1147 259 
Q 1147 116 1045 14 
Q 944 -88 800 -88 
Q 656 -88 554 14 
Q 453 116 453 259 
Q 453 406 554 506 
Q 656 606 800 606 
z
" transform="scale(0.015625)"/>
       </defs>
       <use xlink:href="#TimesNewRomanPSMT-30"/>
       <use xlink:href="#TimesNewRomanPSMT-2e" transform="translate(50 0)"/>
       <use xlink:href="#TimesNewRomanPSMT-30" transform="translate(75 0)"/>
      </g>
     </g>
    </g>
    <g id="xtick_2">
     <g id="line2d_2">
      <g>
       <use xlink:href="#m0737150580" x="155.602558" y="454.110236" style="stroke: #000000; stroke-width: 0.8"/>
      </g>
     </g>
     <g id="text_2">
      <!-- 0.1 -->
      <g transform="translate(146.227558 471.525861) scale(0.15 -0.15)">
       <defs>
        <path id="TimesNewRomanPSMT-31" d="M 750 3822 
L 1781 4325 
L 1884 4325 
L 1884 747 
Q 1884 391 1914 303 
Q 1944 216 2037 169 
Q 2131 122 2419 116 
L 2419 0 
L 825 0 
L 825 116 
Q 1125 122 1212 167 
Q 1300 213 1334 289 
Q 1369 366 1369 747 
L 1369 3034 
Q 1369 3497 1338 3628 
Q 1316 3728 1258 3775 
Q 1200 3822 1119 3822 
Q 1003 3822 797 3725 
L 750 3822 
z
" transform="scale(0.015625)"/>
       </defs>
       <use xlink:href="#TimesNewRomanPSMT-30"/>
       <use xlink:href="#TimesNewRomanPSMT-2e" transform="translate(50 0)"/>
       <use xlink:href="#TimesNewRomanPSMT-31" transform="translate(75 0)"/>
      </g>
     </g>
    </g>
    <g id="xtick_3">
     <g id="line2d_3">
      <g>
       <use xlink:href="#m0737150580" x="219.198898" y="454.110236" style="stroke: #000000; stroke-width: 0.8"/>
      </g>
     </g>
     <g id="text_3">
      <!-- 0.2 -->
      <g transform="translate(209.823898 471.525861) scale(0.15 -0.15)">
       <defs>
        <path id="TimesNewRomanPSMT-32" d="M 2934 816 
L 2638 0 
L 138 0 
L 138 116 
Q 1241 1122 1691 1759 
Q 2141 2397 2141 2925 
Q 2141 3328 1894 3587 
Q 1647 3847 1303 3847 
Q 991 3847 742 3664 
Q 494 3481 375 3128 
L 259 3128 
Q 338 3706 661 4015 
Q 984 4325 1469 4325 
Q 1984 4325 2329 3994 
Q 2675 3663 2675 3213 
Q 2675 2891 2525 2569 
Q 2294 2063 1775 1497 
Q 997 647 803 472 
L 1909 472 
Q 2247 472 2383 497 
Q 2519 522 2628 598 
Q 2738 675 2819 816 
L 2934 816 
z
" transform="scale(0.015625)"/>
       </defs>
       <use xlink:href="#TimesNewRomanPSMT-30"/>
       <use xlink:href="#TimesNewRomanPSMT-2e" transform="translate(50 0)"/>
       <use xlink:href="#TimesNewRomanPSMT-32" transform="translate(75 0)"/>
      </g>
     </g>
    </g>
    <g id="xtick_4">
     <g id="line2d_4">
      <g>
       <use xlink:href="#m0737150580" x="282.795239" y="454.110236" style="stroke: #000000; stroke-width: 0.8"/>
      </g>
     </g>
     <g id="text_4">
      <!-- 0.3 -->
      <g transform="translate(273.420239 471.525861) scale(0.15 -0.15)">
       <defs>
        <path id="TimesNewRomanPSMT-33" d="M 325 3431 
Q 506 3859 782 4092 
Q 1059 4325 1472 4325 
Q 1981 4325 2253 3994 
Q 2459 3747 2459 3466 
Q 2459 3003 1878 2509 
Q 2269 2356 2469 2072 
Q 2669 1788 2669 1403 
Q 2669 853 2319 450 
Q 1863 -75 997 -75 
Q 569 -75 414 31 
Q 259 138 259 259 
Q 259 350 332 419 
Q 406 488 509 488 
Q 588 488 669 463 
Q 722 447 909 348 
Q 1097 250 1169 231 
Q 1284 197 1416 197 
Q 1734 197 1970 444 
Q 2206 691 2206 1028 
Q 2206 1275 2097 1509 
Q 2016 1684 1919 1775 
Q 1784 1900 1550 2001 
Q 1316 2103 1072 2103 
L 972 2103 
L 972 2197 
Q 1219 2228 1467 2375 
Q 1716 2522 1828 2728 
Q 1941 2934 1941 3181 
Q 1941 3503 1739 3701 
Q 1538 3900 1238 3900 
Q 753 3900 428 3381 
L 325 3431 
z
" transform="scale(0.015625)"/>
       </defs>
       <use xlink:href="#TimesNewRomanPSMT-30"/>
       <use xlink:href="#TimesNewRomanPSMT-2e" transform="translate(50 0)"/>
       <use xlink:href="#TimesNewRomanPSMT-33" transform="translate(75 0)"/>
      </g>
     </g>
    </g>
    <g id="xtick_5">
     <g id="line2d_5">
      <g>
       <use xlink:href="#m0737150580" x="346.391579" y="454.110236" style="stroke: #000000; stroke-width: 0.8"/>
      </g>
     </g>
     <g id="text_5">
      <!-- 0.4 -->
      <g transform="translate(337.016579 471.525861) scale(0.15 -0.15)">
       <defs>
        <path id="TimesNewRomanPSMT-34" d="M 2978 1563 
L 2978 1119 
L 2409 1119 
L 2409 0 
L 1894 0 
L 1894 1119 
L 100 1119 
L 100 1519 
L 2066 4325 
L 2409 4325 
L 2409 1563 
L 2978 1563 
z
M 1894 1563 
L 1894 3666 
L 406 1563 
L 1894 1563 
z
" transform="scale(0.015625)"/>
       </defs>
       <use xlink:href="#TimesNewRomanPSMT-30"/>
       <use xlink:href="#TimesNewRomanPSMT-2e" transform="translate(50 0)"/>
       <use xlink:href="#TimesNewRomanPSMT-34" transform="translate(75 0)"/>
      </g>
     </g>
    </g>
    <g id="xtick_6">
     <g id="line2d_6">
      <g>
       <use xlink:href="#m0737150580" x="409.987919" y="454.110236" style="stroke: #000000; stroke-width: 0.8"/>
      </g>
     </g>
     <g id="text_6">
      <!-- 0.5 -->
      <g transform="translate(400.612919 471.525861) scale(0.15 -0.15)">
       <defs>
        <path id="TimesNewRomanPSMT-35" d="M 2778 4238 
L 2534 3706 
L 1259 3706 
L 981 3138 
Q 1809 3016 2294 2522 
Q 2709 2097 2709 1522 
Q 2709 1188 2573 903 
Q 2438 619 2231 419 
Q 2025 219 1772 97 
Q 1413 -75 1034 -75 
Q 653 -75 479 54 
Q 306 184 306 341 
Q 306 428 378 495 
Q 450 563 559 563 
Q 641 563 702 538 
Q 763 513 909 409 
Q 1144 247 1384 247 
Q 1750 247 2026 523 
Q 2303 800 2303 1197 
Q 2303 1581 2056 1914 
Q 1809 2247 1375 2428 
Q 1034 2569 447 2591 
L 1259 4238 
L 2778 4238 
z
" transform="scale(0.015625)"/>
       </defs>
       <use xlink:href="#TimesNewRomanPSMT-30"/>
       <use xlink:href="#TimesNewRomanPSMT-2e" transform="translate(50 0)"/>
       <use xlink:href="#TimesNewRomanPSMT-35" transform="translate(75 0)"/>
      </g>
     </g>
    </g>
    <g id="xtick_7">
     <g id="line2d_7">
      <g>
       <use xlink:href="#m0737150580" x="473.58426" y="454.110236" style="stroke: #000000; stroke-width: 0.8"/>
      </g>
     </g>
     <g id="text_7">
      <!-- 0.6 -->
      <g transform="translate(464.20926 471.525861) scale(0.15 -0.15)">
       <defs>
        <path id="TimesNewRomanPSMT-36" d="M 2869 4325 
L 2869 4209 
Q 2456 4169 2195 4045 
Q 1934 3922 1679 3669 
Q 1425 3416 1258 3105 
Q 1091 2794 978 2366 
Q 1428 2675 1881 2675 
Q 2316 2675 2634 2325 
Q 2953 1975 2953 1425 
Q 2953 894 2631 456 
Q 2244 -75 1606 -75 
Q 1172 -75 869 213 
Q 275 772 275 1663 
Q 275 2231 503 2743 
Q 731 3256 1154 3653 
Q 1578 4050 1965 4187 
Q 2353 4325 2688 4325 
L 2869 4325 
z
M 925 2138 
Q 869 1716 869 1456 
Q 869 1156 980 804 
Q 1091 453 1309 247 
Q 1469 100 1697 100 
Q 1969 100 2183 356 
Q 2397 613 2397 1088 
Q 2397 1622 2184 2012 
Q 1972 2403 1581 2403 
Q 1463 2403 1327 2353 
Q 1191 2303 925 2138 
z
" transform="scale(0.015625)"/>
       </defs>
       <use xlink:href="#TimesNewRomanPSMT-30"/>
       <use xlink:href="#TimesNewRomanPSMT-2e" transform="translate(50 0)"/>
       <use xlink:href="#TimesNewRomanPSMT-36" transform="translate(75 0)"/>
      </g>
     </g>
    </g>
    <g id="text_8">
     <!-- Displacement [mm] -->
     <g transform="translate(188.355341 494.010705) scale(0.22 -0.22)">
      <defs>
       <path id="TimesNewRomanPSMT-44" d="M 109 0 
L 109 116 
L 269 116 
Q 538 116 650 288 
Q 719 391 719 750 
L 719 3488 
Q 719 3884 631 3984 
Q 509 4122 269 4122 
L 109 4122 
L 109 4238 
L 1834 4238 
Q 2784 4238 3279 4022 
Q 3775 3806 4076 3303 
Q 4378 2800 4378 2141 
Q 4378 1256 3841 663 
Q 3238 0 2003 0 
L 109 0 
z
M 1319 306 
Q 1716 219 1984 219 
Q 2709 219 3187 728 
Q 3666 1238 3666 2109 
Q 3666 2988 3187 3494 
Q 2709 4000 1959 4000 
Q 1678 4000 1319 3909 
L 1319 306 
z
" transform="scale(0.015625)"/>
       <path id="TimesNewRomanPSMT-69" d="M 928 4444 
Q 1059 4444 1151 4351 
Q 1244 4259 1244 4128 
Q 1244 3997 1151 3903 
Q 1059 3809 928 3809 
Q 797 3809 703 3903 
Q 609 3997 609 4128 
Q 609 4259 701 4351 
Q 794 4444 928 4444 
z
M 1188 2947 
L 1188 647 
Q 1188 378 1227 289 
Q 1266 200 1342 156 
Q 1419 113 1622 113 
L 1622 0 
L 231 0 
L 231 113 
Q 441 113 512 153 
Q 584 194 626 287 
Q 669 381 669 647 
L 669 1750 
Q 669 2216 641 2353 
Q 619 2453 572 2492 
Q 525 2531 444 2531 
Q 356 2531 231 2484 
L 188 2597 
L 1050 2947 
L 1188 2947 
z
" transform="scale(0.015625)"/>
       <path id="TimesNewRomanPSMT-73" d="M 2050 2947 
L 2050 1972 
L 1947 1972 
Q 1828 2431 1642 2597 
Q 1456 2763 1169 2763 
Q 950 2763 815 2647 
Q 681 2531 681 2391 
Q 681 2216 781 2091 
Q 878 1963 1175 1819 
L 1631 1597 
Q 2266 1288 2266 781 
Q 2266 391 1970 151 
Q 1675 -88 1309 -88 
Q 1047 -88 709 6 
Q 606 38 541 38 
Q 469 38 428 -44 
L 325 -44 
L 325 978 
L 428 978 
Q 516 541 762 319 
Q 1009 97 1316 97 
Q 1531 97 1667 223 
Q 1803 350 1803 528 
Q 1803 744 1651 891 
Q 1500 1038 1047 1263 
Q 594 1488 453 1669 
Q 313 1847 313 2119 
Q 313 2472 555 2709 
Q 797 2947 1181 2947 
Q 1350 2947 1591 2875 
Q 1750 2828 1803 2828 
Q 1853 2828 1881 2850 
Q 1909 2872 1947 2947 
L 2050 2947 
z
" transform="scale(0.015625)"/>
       <path id="TimesNewRomanPSMT-70" d="M -6 2578 
L 875 2934 
L 994 2934 
L 994 2266 
Q 1216 2644 1439 2795 
Q 1663 2947 1909 2947 
Q 2341 2947 2628 2609 
Q 2981 2197 2981 1534 
Q 2981 794 2556 309 
Q 2206 -88 1675 -88 
Q 1444 -88 1275 -22 
Q 1150 25 994 166 
L 994 -706 
Q 994 -1000 1030 -1079 
Q 1066 -1159 1155 -1206 
Q 1244 -1253 1478 -1253 
L 1478 -1369 
L -22 -1369 
L -22 -1253 
L 56 -1253 
Q 228 -1256 350 -1188 
Q 409 -1153 442 -1076 
Q 475 -1000 475 -688 
L 475 2019 
Q 475 2297 450 2372 
Q 425 2447 370 2484 
Q 316 2522 222 2522 
Q 147 2522 31 2478 
L -6 2578 
z
M 994 2081 
L 994 1013 
Q 994 666 1022 556 
Q 1066 375 1236 237 
Q 1406 100 1666 100 
Q 1978 100 2172 344 
Q 2425 663 2425 1241 
Q 2425 1897 2138 2250 
Q 1938 2494 1663 2494 
Q 1513 2494 1366 2419 
Q 1253 2363 994 2081 
z
" transform="scale(0.015625)"/>
       <path id="TimesNewRomanPSMT-6c" d="M 1184 4444 
L 1184 647 
Q 1184 378 1223 290 
Q 1263 203 1344 158 
Q 1425 113 1647 113 
L 1647 0 
L 244 0 
L 244 113 
Q 441 113 512 153 
Q 584 194 625 287 
Q 666 381 666 647 
L 666 3247 
Q 666 3731 644 3842 
Q 622 3953 573 3993 
Q 525 4034 450 4034 
Q 369 4034 244 3984 
L 191 4094 
L 1044 4444 
L 1184 4444 
z
" transform="scale(0.015625)"/>
       <path id="TimesNewRomanPSMT-61" d="M 1822 413 
Q 1381 72 1269 19 
Q 1100 -59 909 -59 
Q 613 -59 420 144 
Q 228 347 228 678 
Q 228 888 322 1041 
Q 450 1253 767 1440 
Q 1084 1628 1822 1897 
L 1822 2009 
Q 1822 2438 1686 2597 
Q 1550 2756 1291 2756 
Q 1094 2756 978 2650 
Q 859 2544 859 2406 
L 866 2225 
Q 866 2081 792 2003 
Q 719 1925 600 1925 
Q 484 1925 411 2006 
Q 338 2088 338 2228 
Q 338 2497 613 2722 
Q 888 2947 1384 2947 
Q 1766 2947 2009 2819 
Q 2194 2722 2281 2516 
Q 2338 2381 2338 1966 
L 2338 994 
Q 2338 584 2353 492 
Q 2369 400 2405 369 
Q 2441 338 2488 338 
Q 2538 338 2575 359 
Q 2641 400 2828 588 
L 2828 413 
Q 2478 -56 2159 -56 
Q 2006 -56 1915 50 
Q 1825 156 1822 413 
z
M 1822 616 
L 1822 1706 
Q 1350 1519 1213 1441 
Q 966 1303 859 1153 
Q 753 1003 753 825 
Q 753 600 887 451 
Q 1022 303 1197 303 
Q 1434 303 1822 616 
z
" transform="scale(0.015625)"/>
       <path id="TimesNewRomanPSMT-63" d="M 2631 1088 
Q 2516 522 2178 217 
Q 1841 -88 1431 -88 
Q 944 -88 581 321 
Q 219 731 219 1428 
Q 219 2103 620 2525 
Q 1022 2947 1584 2947 
Q 2006 2947 2278 2723 
Q 2550 2500 2550 2259 
Q 2550 2141 2473 2067 
Q 2397 1994 2259 1994 
Q 2075 1994 1981 2113 
Q 1928 2178 1911 2362 
Q 1894 2547 1784 2644 
Q 1675 2738 1481 2738 
Q 1169 2738 978 2506 
Q 725 2200 725 1697 
Q 725 1184 976 792 
Q 1228 400 1656 400 
Q 1963 400 2206 609 
Q 2378 753 2541 1131 
L 2631 1088 
z
" transform="scale(0.015625)"/>
       <path id="TimesNewRomanPSMT-65" d="M 681 1784 
Q 678 1147 991 784 
Q 1303 422 1725 422 
Q 2006 422 2214 576 
Q 2422 731 2563 1106 
L 2659 1044 
Q 2594 616 2278 264 
Q 1963 -88 1488 -88 
Q 972 -88 605 314 
Q 238 716 238 1394 
Q 238 2128 614 2539 
Q 991 2950 1559 2950 
Q 2041 2950 2350 2633 
Q 2659 2316 2659 1784 
L 681 1784 
z
M 681 1966 
L 2006 1966 
Q 1991 2241 1941 2353 
Q 1863 2528 1708 2628 
Q 1553 2728 1384 2728 
Q 1125 2728 920 2526 
Q 716 2325 681 1966 
z
" transform="scale(0.015625)"/>
       <path id="TimesNewRomanPSMT-6d" d="M 1050 2338 
Q 1363 2650 1419 2697 
Q 1559 2816 1721 2881 
Q 1884 2947 2044 2947 
Q 2313 2947 2506 2790 
Q 2700 2634 2766 2338 
Q 3088 2713 3309 2830 
Q 3531 2947 3766 2947 
Q 3994 2947 4170 2830 
Q 4347 2713 4450 2447 
Q 4519 2266 4519 1878 
L 4519 647 
Q 4519 378 4559 278 
Q 4591 209 4675 161 
Q 4759 113 4950 113 
L 4950 0 
L 3538 0 
L 3538 113 
L 3597 113 
Q 3781 113 3884 184 
Q 3956 234 3988 344 
Q 4000 397 4000 647 
L 4000 1878 
Q 4000 2228 3916 2372 
Q 3794 2572 3525 2572 
Q 3359 2572 3192 2489 
Q 3025 2406 2788 2181 
L 2781 2147 
L 2788 2013 
L 2788 647 
Q 2788 353 2820 281 
Q 2853 209 2943 161 
Q 3034 113 3253 113 
L 3253 0 
L 1806 0 
L 1806 113 
Q 2044 113 2133 169 
Q 2222 225 2256 338 
Q 2272 391 2272 647 
L 2272 1878 
Q 2272 2228 2169 2381 
Q 2031 2581 1784 2581 
Q 1616 2581 1450 2491 
Q 1191 2353 1050 2181 
L 1050 647 
Q 1050 366 1089 281 
Q 1128 197 1204 155 
Q 1281 113 1516 113 
L 1516 0 
L 100 0 
L 100 113 
Q 297 113 375 155 
Q 453 197 493 289 
Q 534 381 534 647 
L 534 1741 
Q 534 2213 506 2350 
Q 484 2453 437 2492 
Q 391 2531 309 2531 
Q 222 2531 100 2484 
L 53 2597 
L 916 2947 
L 1050 2947 
L 1050 2338 
z
" transform="scale(0.015625)"/>
       <path id="TimesNewRomanPSMT-6e" d="M 1034 2341 
Q 1538 2947 1994 2947 
Q 2228 2947 2397 2830 
Q 2566 2713 2666 2444 
Q 2734 2256 2734 1869 
L 2734 647 
Q 2734 375 2778 278 
Q 2813 200 2889 156 
Q 2966 113 3172 113 
L 3172 0 
L 1756 0 
L 1756 113 
L 1816 113 
Q 2016 113 2095 173 
Q 2175 234 2206 353 
Q 2219 400 2219 647 
L 2219 1819 
Q 2219 2209 2117 2386 
Q 2016 2563 1775 2563 
Q 1403 2563 1034 2156 
L 1034 647 
Q 1034 356 1069 288 
Q 1113 197 1189 155 
Q 1266 113 1500 113 
L 1500 0 
L 84 0 
L 84 113 
L 147 113 
Q 366 113 442 223 
Q 519 334 519 647 
L 519 1709 
Q 519 2225 495 2337 
Q 472 2450 423 2490 
Q 375 2531 294 2531 
Q 206 2531 84 2484 
L 38 2597 
L 900 2947 
L 1034 2947 
L 1034 2341 
z
" transform="scale(0.015625)"/>
       <path id="TimesNewRomanPSMT-74" d="M 1031 3803 
L 1031 2863 
L 1700 2863 
L 1700 2644 
L 1031 2644 
L 1031 788 
Q 1031 509 1111 412 
Q 1191 316 1316 316 
Q 1419 316 1516 380 
Q 1613 444 1666 569 
L 1788 569 
Q 1678 263 1478 108 
Q 1278 -47 1066 -47 
Q 922 -47 784 33 
Q 647 113 581 261 
Q 516 409 516 719 
L 516 2644 
L 63 2644 
L 63 2747 
Q 234 2816 414 2980 
Q 594 3144 734 3369 
Q 806 3488 934 3803 
L 1031 3803 
z
" transform="scale(0.015625)"/>
       <path id="TimesNewRomanPSMT-20" transform="scale(0.015625)"/>
       <path id="TimesNewRomanPSMT-5b" d="M 1900 -1269 
L 525 -1269 
L 525 4334 
L 1900 4334 
L 1900 4088 
L 994 4088 
L 994 -1025 
L 1900 -1025 
L 1900 -1269 
z
" transform="scale(0.015625)"/>
       <path id="TimesNewRomanPSMT-5d" d="M 234 4334 
L 1609 4334 
L 1609 -1272 
L 234 -1272 
L 234 -1025 
L 1141 -1025 
L 1141 4088 
L 234 4088 
L 234 4334 
z
" transform="scale(0.015625)"/>
      </defs>
      <use xlink:href="#TimesNewRomanPSMT-44"/>
      <use xlink:href="#TimesNewRomanPSMT-69" transform="translate(72.216797 0)"/>
      <use xlink:href="#TimesNewRomanPSMT-73" transform="translate(100 0)"/>
      <use xlink:href="#TimesNewRomanPSMT-70" transform="translate(138.916016 0)"/>
      <use xlink:href="#TimesNewRomanPSMT-6c" transform="translate(188.916016 0)"/>
      <use xlink:href="#TimesNewRomanPSMT-61" transform="translate(216.699219 0)"/>
      <use xlink:href="#TimesNewRomanPSMT-63" transform="translate(261.083984 0)"/>
      <use xlink:href="#TimesNewRomanPSMT-65" transform="translate(305.46875 0)"/>
      <use xlink:href="#TimesNewRomanPSMT-6d" transform="translate(349.853516 0)"/>
      <use xlink:href="#TimesNewRomanPSMT-65" transform="translate(427.636719 0)"/>
      <use xlink:href="#TimesNewRomanPSMT-6e" transform="translate(472.021484 0)"/>
      <use xlink:href="#TimesNewRomanPSMT-74" transform="translate(522.021484 0)"/>
      <use xlink:href="#TimesNewRomanPSMT-20" transform="translate(549.804688 0)"/>
      <use xlink:href="#TimesNewRomanPSMT-5b" transform="translate(574.804688 0)"/>
      <use xlink:href="#TimesNewRomanPSMT-6d" transform="translate(608.105469 0)"/>
      <use xlink:href="#TimesNewRomanPSMT-6d" transform="translate(685.888672 0)"/>
      <use xlink:href="#TimesNewRomanPSMT-5d" transform="translate(763.671875 0)"/>
     </g>
    </g>
   </g>
   <g id="matplotlib.axis_2">
    <g id="ytick_1">
     <g id="line2d_8">
      <defs>
       <path id="m080d536048" d="M 0 0 
L -3.5 0 
" style="stroke: #000000; stroke-width: 0.8"/>
      </defs>
      <g>
       <use xlink:href="#m080d536048" x="67.322835" y="435.449488" style="stroke: #000000; stroke-width: 0.8"/>
      </g>
     </g>
     <g id="text_9">
      <!-- 0 -->
      <g transform="translate(52.822835 440.6573) scale(0.15 -0.15)">
       <use xlink:href="#TimesNewRomanPSMT-30"/>
      </g>
     </g>
    </g>
    <g id="ytick_2">
     <g id="line2d_9">
      <g>
       <use xlink:href="#m080d536048" x="67.322835" y="375.049001" style="stroke: #000000; stroke-width: 0.8"/>
      </g>
     </g>
     <g id="text_10">
      <!-- 5 -->
      <g transform="translate(52.822835 380.256813) scale(0.15 -0.15)">
       <use xlink:href="#TimesNewRomanPSMT-35"/>
      </g>
     </g>
    </g>
    <g id="ytick_3">
     <g id="line2d_10">
      <g>
       <use xlink:href="#m080d536048" x="67.322835" y="314.648514" style="stroke: #000000; stroke-width: 0.8"/>
      </g>
     </g>
     <g id="text_11">
      <!-- 10 -->
      <g transform="translate(45.322835 319.856326) scale(0.15 -0.15)">
       <use xlink:href="#TimesNewRomanPSMT-31"/>
       <use xlink:href="#TimesNewRomanPSMT-30" transform="translate(50 0)"/>
      </g>
     </g>
    </g>
    <g id="ytick_4">
     <g id="line2d_11">
      <g>
       <use xlink:href="#m080d536048" x="67.322835" y="254.248027" style="stroke: #000000; stroke-width: 0.8"/>
      </g>
     </g>
     <g id="text_12">
      <!-- 15 -->
      <g transform="translate(45.322835 259.455839) scale(0.15 -0.15)">
       <use xlink:href="#TimesNewRomanPSMT-31"/>
       <use xlink:href="#TimesNewRomanPSMT-35" transform="translate(50 0)"/>
      </g>
     </g>
    </g>
    <g id="ytick_5">
     <g id="line2d_12">
      <g>
       <use xlink:href="#m080d536048" x="67.322835" y="193.84754" style="stroke: #000000; stroke-width: 0.8"/>
      </g>
     </g>
     <g id="text_13">
      <!-- 20 -->
      <g transform="translate(45.322835 199.055352) scale(0.15 -0.15)">
       <use xlink:href="#TimesNewRomanPSMT-32"/>
       <use xlink:href="#TimesNewRomanPSMT-30" transform="translate(50 0)"/>
      </g>
     </g>
    </g>
    <g id="ytick_6">
     <g id="line2d_13">
      <g>
       <use xlink:href="#m080d536048" x="67.322835" y="133.447052" style="stroke: #000000; stroke-width: 0.8"/>
      </g>
     </g>
     <g id="text_14">
      <!-- 25 -->
      <g transform="translate(45.322835 138.654865) scale(0.15 -0.15)">
       <use xlink:href="#TimesNewRomanPSMT-32"/>
       <use xlink:href="#TimesNewRomanPSMT-35" transform="translate(50 0)"/>
      </g>
     </g>
    </g>
    <g id="ytick_7">
     <g id="line2d_14">
      <g>
       <use xlink:href="#m080d536048" x="67.322835" y="73.046565" style="stroke: #000000; stroke-width: 0.8"/>
      </g>
     </g>
     <g id="text_15">
      <!-- 30 -->
      <g transform="translate(45.322835 78.254378) scale(0.15 -0.15)">
       <use xlink:href="#TimesNewRomanPSMT-33"/>
       <use xlink:href="#TimesNewRomanPSMT-30" transform="translate(50 0)"/>
      </g>
     </g>
    </g>
    <g id="text_16">
     <!-- Force [kN] -->
     <g transform="translate(36.616897 306.234291) rotate(-90) scale(0.22 -0.22)">
      <defs>
       <path id="TimesNewRomanPSMT-46" d="M 1309 4006 
L 1309 2341 
L 2081 2341 
Q 2347 2341 2470 2458 
Q 2594 2575 2634 2922 
L 2750 2922 
L 2750 1488 
L 2634 1488 
Q 2631 1734 2570 1850 
Q 2509 1966 2401 2023 
Q 2294 2081 2081 2081 
L 1309 2081 
L 1309 750 
Q 1309 428 1350 325 
Q 1381 247 1481 191 
Q 1619 116 1769 116 
L 1922 116 
L 1922 0 
L 103 0 
L 103 116 
L 253 116 
Q 516 116 634 269 
Q 709 369 709 750 
L 709 3488 
Q 709 3809 669 3913 
Q 638 3991 541 4047 
Q 406 4122 253 4122 
L 103 4122 
L 103 4238 
L 3256 4238 
L 3297 3306 
L 3188 3306 
Q 3106 3603 2998 3742 
Q 2891 3881 2733 3943 
Q 2575 4006 2244 4006 
L 1309 4006 
z
" transform="scale(0.015625)"/>
       <path id="TimesNewRomanPSMT-6f" d="M 1600 2947 
Q 2250 2947 2644 2453 
Q 2978 2031 2978 1484 
Q 2978 1100 2793 706 
Q 2609 313 2286 112 
Q 1963 -88 1566 -88 
Q 919 -88 538 428 
Q 216 863 216 1403 
Q 216 1797 411 2186 
Q 606 2575 925 2761 
Q 1244 2947 1600 2947 
z
M 1503 2744 
Q 1338 2744 1170 2645 
Q 1003 2547 900 2300 
Q 797 2053 797 1666 
Q 797 1041 1045 587 
Q 1294 134 1700 134 
Q 2003 134 2200 384 
Q 2397 634 2397 1244 
Q 2397 2006 2069 2444 
Q 1847 2744 1503 2744 
z
" transform="scale(0.015625)"/>
       <path id="TimesNewRomanPSMT-72" d="M 1038 2947 
L 1038 2303 
Q 1397 2947 1775 2947 
Q 1947 2947 2059 2842 
Q 2172 2738 2172 2600 
Q 2172 2478 2090 2393 
Q 2009 2309 1897 2309 
Q 1788 2309 1652 2417 
Q 1516 2525 1450 2525 
Q 1394 2525 1328 2463 
Q 1188 2334 1038 2041 
L 1038 669 
Q 1038 431 1097 309 
Q 1138 225 1241 169 
Q 1344 113 1538 113 
L 1538 0 
L 72 0 
L 72 113 
Q 291 113 397 181 
Q 475 231 506 341 
Q 522 394 522 644 
L 522 1753 
Q 522 2253 501 2348 
Q 481 2444 426 2487 
Q 372 2531 291 2531 
Q 194 2531 72 2484 
L 41 2597 
L 906 2947 
L 1038 2947 
z
" transform="scale(0.015625)"/>
       <path id="TimesNewRomanPSMT-6b" d="M 1047 4444 
L 1047 1594 
L 1775 2259 
Q 2006 2472 2044 2528 
Q 2069 2566 2069 2603 
Q 2069 2666 2017 2711 
Q 1966 2756 1847 2763 
L 1847 2863 
L 3091 2863 
L 3091 2763 
Q 2834 2756 2664 2684 
Q 2494 2613 2291 2428 
L 1556 1750 
L 2291 822 
Q 2597 438 2703 334 
Q 2853 188 2966 144 
Q 3044 113 3238 113 
L 3238 0 
L 1847 0 
L 1847 113 
Q 1966 116 2008 148 
Q 2050 181 2050 241 
Q 2050 313 1925 472 
L 1047 1594 
L 1047 644 
Q 1047 366 1086 278 
Q 1125 191 1197 153 
Q 1269 116 1509 113 
L 1509 0 
L 53 0 
L 53 113 
Q 272 113 381 166 
Q 447 200 481 272 
Q 528 375 528 628 
L 528 3234 
Q 528 3731 506 3842 
Q 484 3953 434 3995 
Q 384 4038 303 4038 
Q 238 4038 106 3984 
L 53 4094 
L 903 4444 
L 1047 4444 
z
" transform="scale(0.015625)"/>
       <path id="TimesNewRomanPSMT-4e" d="M -84 4238 
L 1066 4238 
L 3656 1059 
L 3656 3503 
Q 3656 3894 3569 3991 
Q 3453 4122 3203 4122 
L 3056 4122 
L 3056 4238 
L 4531 4238 
L 4531 4122 
L 4381 4122 
Q 4113 4122 4000 3959 
Q 3931 3859 3931 3503 
L 3931 -69 
L 3819 -69 
L 1025 3344 
L 1025 734 
Q 1025 344 1109 247 
Q 1228 116 1475 116 
L 1625 116 
L 1625 0 
L 150 0 
L 150 116 
L 297 116 
Q 569 116 681 278 
Q 750 378 750 734 
L 750 3681 
Q 566 3897 470 3965 
Q 375 4034 191 4094 
Q 100 4122 -84 4122 
L -84 4238 
z
" transform="scale(0.015625)"/>
      </defs>
      <use xlink:href="#TimesNewRomanPSMT-46"/>
      <use xlink:href="#TimesNewRomanPSMT-6f" transform="translate(55.615234 0)"/>
      <use xlink:href="#TimesNewRomanPSMT-72" transform="translate(105.615234 0)"/>
      <use xlink:href="#TimesNewRomanPSMT-63" transform="translate(138.916016 0)"/>
      <use xlink:href="#TimesNewRomanPSMT-65" transform="translate(183.300781 0)"/>
      <use xlink:href="#TimesNewRomanPSMT-20" transform="translate(227.685547 0)"/>
      <use xlink:href="#TimesNewRomanPSMT-5b" transform="translate(252.685547 0)"/>
      <use xlink:href="#TimesNewRomanPSMT-6b" transform="translate(285.986328 0)"/>
      <use xlink:href="#TimesNewRomanPSMT-4e" transform="translate(335.986328 0)"/>
      <use xlink:href="#TimesNewRomanPSMT-5d" transform="translate(408.203125 0)"/>
     </g>
    </g>
   </g>
   <g id="line2d_15">
    <path d="M 92.006217 436.251969 
L 92.006217 435.398872 
L 92.107971 435.474131 
L 92.152489 435.532478 
L 92.171568 435.486332 
L 92.197006 432.799114 
L 92.101612 421.170813 
L 92.209726 229.483827 
L 92.209726 229.483827 
L 92.216085 229.483827 
L 92.216085 229.483827 
L 92.216085 229.604628 
L 92.324199 201.216399 
L 92.457751 190.344311 
L 92.464111 190.465112 
L 92.432313 295.199557 
L 92.406874 416.314613 
L 92.534067 189.498704 
L 92.572225 186.357879 
L 92.775733 185.27067 
L 93.055557 184.666665 
L 94.333843 183.94186 
L 94.530992 183.579457 
L 94.772658 182.613049 
L 95.135157 182.250646 
L 95.682086 182.009044 
L 96.375286 182.129845 
L 97.144802 183.579457 
L 99.822208 185.391471 
L 100.184707 185.512272 
L 100.356417 185.391471 
L 100.960582 184.304263 
L 101.596545 183.700258 
L 101.946325 182.613049 
L 102.315184 182.129845 
L 103.154656 181.888243 
L 104.776362 183.579457 
L 105.310572 183.821059 
L 105.488641 184.666665 
L 105.660352 184.787466 
L 105.825702 184.062661 
L 106.442587 184.425064 
L 106.595218 184.425064 
L 106.741489 184.304263 
L 107.034033 183.579457 
L 107.415611 182.129845 
L 107.727233 181.767442 
L 108.11517 181.646641 
L 108.547625 181.767442 
L 110.678103 181.163437 
L 111.25683 180.559432 
L 111.905512 180.197029 
L 113.476342 179.593025 
L 114.258577 179.230622 
L 116.198265 178.98902 
L 119.25089 178.98902 
L 119.467117 178.868219 
L 119.848695 178.98902 
L 121.228736 178.98902 
L 121.540358 178.868219 
L 121.985532 179.351423 
L 122.233558 180.680233 
L 122.309874 180.680233 
L 122.487943 181.042636 
L 122.54518 181.042636 
L 122.640574 181.284238 
L 122.697811 181.042636 
L 122.825004 179.713826 
L 123.435529 177.539408 
L 123.823466 179.230622 
L 124.370395 179.834627 
L 124.542105 180.076228 
L 124.592982 179.955428 
L 124.777412 180.31783 
L 124.853727 180.31783 
L 125.019078 180.680233 
L 125.095393 180.680233 
L 125.241665 180.921835 
L 125.260744 180.921835 
L 125.343419 181.163437 
L 125.356138 181.042636 
L 125.394296 178.747418 
L 125.515129 176.935403 
L 125.731357 176.693801 
L 125.985742 176.573 
L 126.303724 176.452199 
L 126.488153 176.331398 
L 127.085959 176.573 
L 127.289467 176.573 
L 127.944509 175.123389 
L 128.555034 174.881787 
L 128.885735 174.881787 
L 129.877838 173.794578 
L 131.009853 173.311374 
L 131.423229 173.069772 
L 132.313578 171.982563 
L 132.866866 171.740961 
L 134.113354 171.499359 
L 134.723879 172.224165 
L 135.321685 172.224165 
L 135.913131 171.499359 
L 139.894262 171.499359 
L 140.409392 171.378558 
L 140.918163 170.774553 
L 141.458732 170.532952 
L 142.081976 170.412151 
L 143.468376 170.412151 
L 144.689426 170.29135 
L 145.210916 170.29135 
L 146.107624 169.566544 
L 146.546439 169.928947 
L 146.991613 169.928947 
L 148.161786 170.170549 
L 148.969459 171.982563 
L 149.109371 172.103364 
L 149.885247 168.600136 
L 150.235027 167.996131 
L 150.686561 167.754529 
L 151.195331 167.633728 
L 153.30673 167.633728 
L 153.853658 167.512927 
L 156.047732 167.512927 
L 156.556503 167.633728 
L 157.510448 167.512927 
L 161.517017 167.512927 
L 161.834999 167.633728 
L 162.152981 167.512927 
L 162.470962 167.512927 
L 162.788944 167.633728 
L 163.106926 167.633728 
L 163.424908 167.512927 
L 163.742889 167.512927 
L 164.060871 167.633728 
L 164.633238 168.358534 
L 164.824027 168.116932 
L 165.396394 169.928947 
L 165.45999 167.87533 
L 165.587183 167.87533 
L 165.841569 167.392126 
L 166.286743 165.700913 
L 166.986303 164.251301 
L 168.258229 163.526495 
L 169.848138 163.164092 
L 171.438046 163.043291 
L 172.837166 162.318485 
L 174.109093 161.956082 
L 175.38102 161.835281 
L 177.416102 161.956082 
L 178.179259 161.956082 
L 178.878818 162.076883 
L 179.514782 161.956082 
L 180.850305 161.956082 
L 181.613461 162.076883 
L 182.50381 161.956082 
L 186.001608 161.956082 
L 186.446783 162.076883 
L 186.828361 161.71448 
L 187.273535 160.868874 
L 187.782306 160.506471 
L 188.481866 160.264869 
L 193.251591 159.540063 
L 193.569573 159.419262 
L 193.887555 159.419262 
L 194.14194 158.332053 
L 194.523518 157.365645 
L 195.795445 156.036835 
L 196.495005 155.795233 
L 197.766931 155.070427 
L 198.975262 153.983218 
L 201.837097 153.500014 
L 202.409464 153.500014 
L 202.600253 153.379213 
L 203.045428 153.379213 
L 203.427006 153.01681 
L 203.617795 152.775208 
L 203.87218 153.379213 
L 204.508144 152.775208 
L 205.525685 152.171203 
L 206.861208 151.929602 
L 207.560768 151.929602 
L 209.468658 151.567199 
L 210.104621 151.567199 
L 212.712071 151.204796 
L 213.284438 151.204796 
L 214.30198 150.842393 
L 214.747154 150.721592 
L 215.192329 150.721592 
L 215.573907 150.47999 
L 215.955485 150.47999 
L 216.337063 150.359189 
L 216.718641 150.359189 
L 217.481797 149.996786 
L 219.071705 149.634383 
L 219.389687 149.755184 
L 219.898458 149.634383 
L 220.852403 149.634383 
L 221.170385 149.755184 
L 221.488366 149.755184 
L 222.060733 149.513582 
L 222.315119 149.151179 
L 222.633101 148.909577 
L 224.477394 148.426373 
L 225.812918 148.426373 
L 226.067303 148.305572 
L 226.576074 148.426373 
L 226.830459 148.426373 
L 227.33923 148.305572 
L 228.356771 148.305572 
L 228.674753 148.06397 
L 228.929138 147.580766 
L 229.692294 147.218364 
L 230.073872 147.097563 
L 230.837028 147.097563 
L 231.218606 146.976762 
L 232.681322 146.976762 
L 232.999304 146.614359 
L 233.317286 146.010354 
L 233.698864 145.647951 
L 234.525616 145.285548 
L 234.970791 145.406349 
L 235.733947 145.164747 
L 238.087011 145.164747 
L 238.404993 145.043946 
L 239.994901 145.043946 
L 240.312883 144.923145 
L 240.630865 145.043946 
L 240.948847 144.923145 
L 241.521214 145.043946 
L 242.347966 145.043946 
L 242.856737 144.923145 
L 243.111122 145.043946 
L 243.556297 144.923145 
L 244.001471 144.923145 
L 244.255856 145.043946 
L 244.446645 144.923145 
L 244.637434 145.043946 
L 245.082609 144.923145 
L 246.354536 144.923145 
L 246.672517 144.802344 
L 246.990499 144.802344 
L 247.308481 144.923145 
L 247.626462 144.923145 
L 247.817251 143.715135 
L 248.00804 141.78232 
L 248.453215 141.178315 
L 249.025582 140.815912 
L 249.725142 140.091106 
L 250.61549 139.728703 
L 253.795307 139.3663 
L 254.749252 139.3663 
L 255.448812 139.245499 
L 259.264593 139.245499 
L 259.773363 139.487101 
L 260.34573 139.970305 
L 260.854501 139.245499 
L 261.363272 139.245499 
L 262.317217 139.124698 
L 262.698795 139.124698 
L 263.525547 139.245499 
L 264.225107 139.003897 
L 264.924667 138.279091 
L 265.242649 138.03749 
L 265.624227 138.03749 
L 266.323786 137.795888 
L 267.404924 137.795888 
L 267.786502 137.675087 
L 268.549658 136.346276 
L 269.440007 135.983873 
L 269.948778 135.863072 
L 270.521145 135.863072 
L 271.093512 135.742271 
L 272.301842 135.017465 
L 273.001402 134.775863 
L 273.637366 133.930256 
L 274.209733 133.447052 
L 274.909292 133.205451 
L 275.545256 133.205451 
L 276.753586 133.08465 
L 277.834724 133.08465 
L 278.279898 132.963849 
L 278.725073 132.963849 
L 279.424633 132.843048 
L 279.742614 132.843048 
L 280.314981 132.118242 
L 280.950945 131.755839 
L 281.268926 131.755839 
L 281.841293 131.635038 
L 282.413661 131.635038 
L 282.922431 131.272635 
L 283.431202 131.151834 
L 284.321551 131.151834 
L 284.51234 130.910232 
L 284.893918 130.064625 
L 285.657074 129.702222 
L 288.391717 129.702222 
L 289.091276 129.098217 
L 290.426799 128.735815 
L 292.207497 128.735815 
L 292.589075 128.615014 
L 293.54302 126.561397 
L 294.115387 125.71579 
L 294.751351 125.474188 
L 295.514507 125.353387 
L 296.595644 125.353387 
L 297.867571 125.232586 
L 299.266691 125.232586 
L 300.602214 125.111785 
L 301.683352 125.232586 
L 303.527646 125.111785 
L 305.753517 125.111785 
L 306.898252 125.474188 
L 307.216233 125.836591 
L 307.979389 126.198994 
L 308.170178 126.440596 
L 308.360967 126.440596 
L 308.48816 126.319795 
L 310.841225 126.319795 
L 311.286399 125.957392 
L 311.477188 125.71579 
L 312.367537 125.353387 
L 312.621922 125.353387 
L 313.067097 125.111785 
L 313.321482 125.111785 
L 314.021042 124.386979 
L 314.275427 124.266178 
L 314.91139 122.212562 
L 315.865336 121.729358 
L 316.183317 121.850159 
L 316.437703 121.608557 
L 317.01007 121.729358 
L 317.328051 121.729358 
L 317.51884 121.608557 
L 317.773226 121.608557 
L 318.472786 121.246154 
L 319.108749 120.158945 
L 319.871905 119.917343 
L 320.12629 119.917343 
L 320.444272 119.796542 
L 322.352162 119.796542 
L 322.606548 120.279746 
L 322.924529 120.521348 
L 323.115318 119.675741 
L 326.422328 119.675741 
L 326.613117 119.55494 
L 326.74031 119.675741 
L 327.121888 119.55494 
L 327.249081 119.55494 
L 327.694255 119.192538 
L 327.821448 119.43414 
L 328.838989 118.588533 
L 329.093374 118.588533 
L 329.156971 118.467732 
L 329.411356 118.588533 
L 329.602145 118.588533 
L 329.665741 118.467732 
L 329.792934 118.467732 
L 329.983723 117.984528 
L 330.174512 117.984528 
L 330.301705 118.105329 
L 330.428898 117.984528 
L 330.619687 117.01812 
L 331.064861 116.534916 
L 331.828017 115.206105 
L 332.082402 114.964503 
L 332.336788 114.4813 
L 332.972751 113.877295 
L 333.354329 113.635693 
L 334.244678 113.635693 
L 334.689852 113.514892 
L 335.580201 113.514892 
L 337.424495 112.427683 
L 337.806073 112.306882 
L 338.187651 111.219673 
L 338.569229 110.615668 
L 339.395982 110.253265 
L 339.841156 110.132465 
L 340.222734 110.253265 
L 340.667908 109.770062 
L 341.367468 109.407659 
L 341.749046 109.407659 
L 342.067028 109.286858 
L 342.766588 109.286858 
L 344.420092 107.958047 
L 345.246845 107.958047 
L 345.50123 107.837246 
L 346.20079 105.783629 
L 346.645964 105.421227 
L 346.90035 105.421227 
L 347.663506 105.179625 
L 348.617451 105.179625 
L 348.935433 103.971615 
L 349.825781 103.488411 
L 349.952974 103.488411 
L 350.334552 103.730013 
L 351.288497 105.421227 
L 351.41569 105.300426 
L 351.606479 104.938023 
L 351.670075 104.938023 
L 352.051653 100.347586 
L 352.433231 99.985183 
L 353.132791 99.985183 
L 353.514369 100.105984 
L 353.895947 100.589188 
L 354.277525 101.313993 
L 354.595507 100.709989 
L 354.977085 100.709989 
L 355.23147 100.83079 
L 355.549452 100.83079 
L 356.757782 101.313993 
L 357.012168 101.797197 
L 357.139361 101.797197 
L 357.457342 101.072391 
L 357.648131 101.072391 
L 357.902517 100.83079 
L 358.284095 99.139576 
L 358.411287 99.018775 
L 358.602076 99.018775 
L 358.792865 98.777173 
L 358.983654 98.777173 
L 359.492425 97.931566 
L 359.619618 97.810765 
L 360.255581 97.810765 
L 360.891545 96.844357 
L 361.209526 96.602755 
L 361.654701 96.481954 
L 362.099875 96.481954 
L 363.244609 96.240352 
L 367.314775 96.240352 
L 367.887142 96.119552 
L 369.031876 95.032343 
L 370.17661 94.549139 
L 370.748977 94.549139 
L 371.957308 94.307537 
L 378.253346 94.307537 
L 378.889309 94.186736 
L 379.525272 94.307537 
L 380.161236 94.186736 
L 380.797199 94.186736 
L 382.00553 94.065935 
L 383.086667 94.065935 
L 383.531842 93.703532 
L 384.358594 92.495522 
L 384.803769 92.25392 
L 385.312539 92.25392 
L 386.393677 92.012318 
L 388.937531 92.012318 
L 390.273054 91.891517 
L 390.845421 91.891517 
L 391.417788 91.770716 
L 392.371733 91.891517 
L 392.753311 91.770716 
L 393.071293 91.891517 
L 393.64366 91.891517 
L 393.961642 91.770716 
L 394.216027 91.891517 
L 395.042779 91.891517 
L 395.297165 92.012318 
L 395.615147 91.891517 
L 397.077862 91.891517 
L 397.650229 92.012318 
L 398.222596 92.012318 
L 398.794964 91.891517 
L 399.303734 92.012318 
L 399.812505 92.012318 
L 400.194083 91.891517 
L 401.46601 91.891517 
L 401.720395 91.408314 
L 401.847588 91.408314 
L 402.292762 91.045911 
L 402.547148 88.871493 
L 403.055918 88.146687 
L 403.628285 87.905085 
L 403.819074 87.180279 
L 404.137056 86.817877 
L 404.327845 86.817877 
L 404.455038 87.421881 
L 404.582231 87.421881 
L 404.709423 86.576275 
L 404.77302 86.697076 
L 404.836616 86.576275 
L 404.900212 86.697076 
L 404.963809 86.576275 
L 404.963809 86.576275 
L 405.027405 86.817877 
L 405.027405 86.817877 
L 405.027405 89.475498 
L 405.027405 79.086614 
L 405.027405 79.207415 
" clip-path="url(#pb319821e58)" style="fill: none; stroke: #407fb7; stroke-width: 2; stroke-linecap: square"/>
   </g>
   <g id="line2d_16">
    <path d="M 92.006217 435.449488 
L 86.295634 284.814103 
L 105.00377 227.805199 
L 133.259175 209.780869 
L 163.418197 168.706795 
L 202.399148 136.185998 
L 259.520079 117.637103 
L 320.426198 94.917286 
L 398.590225 94.993402 
L 451.379542 89.031252 
L 465.751611 117.790502 
" clip-path="url(#pb319821e58)" style="fill: none; stroke: #d85c41; stroke-width: 2; stroke-linecap: square"/>
   </g>
   <g id="patch_3">
    <path d="M 67.322835 454.110236 
L 67.322835 61.228346 
" style="fill: none; stroke: #000000; stroke-width: 0.8; stroke-linejoin: miter; stroke-linecap: square"/>
   </g>
   <g id="patch_4">
    <path d="M 67.322835 454.110236 
L 484.724409 454.110236 
" style="fill: none; stroke: #000000; stroke-width: 0.8; stroke-linejoin: miter; stroke-linecap: square"/>
   </g>
   <g id="legend_1">
    <g id="patch_5">
     <path d="M 77.822835 115.645534 
L 194.96346 115.645534 
Q 197.96346 115.645534 197.96346 112.645534 
L 197.96346 71.728346 
Q 197.96346 68.728346 194.96346 68.728346 
L 77.822835 68.728346 
Q 74.822835 68.728346 74.822835 71.728346 
L 74.822835 112.645534 
Q 74.822835 115.645534 77.822835 115.645534 
z
" style="fill: #ffffff; opacity: 0.8; stroke: #cccccc; stroke-linejoin: miter"/>
    </g>
    <g id="line2d_17">
     <path d="M 80.822835 79.978346 
L 95.822835 79.978346 
L 110.822835 79.978346 
" style="fill: none; stroke: #407fb7; stroke-width: 2; stroke-linecap: square"/>
    </g>
    <g id="text_17">
     <!-- J -->
     <g transform="translate(122.822835 85.228346) scale(0.15 -0.15)">
      <defs>
       <path id="TimesNewRomanPSMT-4a" d="M 638 4122 
L 638 4238 
L 2453 4238 
L 2453 4122 
L 2300 4122 
Q 2041 4122 1922 3969 
Q 1847 3869 1847 3488 
L 1847 1416 
Q 1847 938 1742 641 
Q 1638 344 1381 123 
Q 1125 -97 763 -97 
Q 469 -97 300 48 
Q 131 194 131 381 
Q 131 534 209 613 
Q 313 709 450 709 
Q 550 709 629 643 
Q 709 578 831 294 
Q 903 125 1016 125 
Q 1100 125 1173 228 
Q 1247 331 1247 594 
L 1247 3488 
Q 1247 3809 1206 3913 
Q 1175 3991 1075 4047 
Q 941 4122 791 4122 
L 638 4122 
z
" transform="scale(0.015625)"/>
      </defs>
      <use xlink:href="#TimesNewRomanPSMT-4a"/>
     </g>
    </g>
    <g id="line2d_18">
     <path d="M 80.822835 101.18694 
L 95.822835 101.18694 
L 110.822835 101.18694 
" style="fill: none; stroke: #d85c41; stroke-width: 2; stroke-linecap: square"/>
    </g>
    <g id="text_18">
     <!-- FE-discrete -->
     <g transform="translate(122.822835 106.43694) scale(0.15 -0.15)">
      <defs>
       <path id="TimesNewRomanPSMT-45" d="M 1338 4006 
L 1338 2331 
L 2269 2331 
Q 2631 2331 2753 2441 
Q 2916 2584 2934 2947 
L 3050 2947 
L 3050 1472 
L 2934 1472 
Q 2891 1781 2847 1869 
Q 2791 1978 2662 2040 
Q 2534 2103 2269 2103 
L 1338 2103 
L 1338 706 
Q 1338 425 1363 364 
Q 1388 303 1450 267 
Q 1513 231 1688 231 
L 2406 231 
Q 2766 231 2928 281 
Q 3091 331 3241 478 
Q 3434 672 3638 1063 
L 3763 1063 
L 3397 0 
L 131 0 
L 131 116 
L 281 116 
Q 431 116 566 188 
Q 666 238 702 338 
Q 738 438 738 747 
L 738 3500 
Q 738 3903 656 3997 
Q 544 4122 281 4122 
L 131 4122 
L 131 4238 
L 3397 4238 
L 3444 3309 
L 3322 3309 
Q 3256 3644 3176 3769 
Q 3097 3894 2941 3959 
Q 2816 4006 2500 4006 
L 1338 4006 
z
" transform="scale(0.015625)"/>
       <path id="TimesNewRomanPSMT-2d" d="M 259 1672 
L 1875 1672 
L 1875 1200 
L 259 1200 
L 259 1672 
z
" transform="scale(0.015625)"/>
       <path id="TimesNewRomanPSMT-64" d="M 2222 322 
Q 2013 103 1813 7 
Q 1613 -88 1381 -88 
Q 913 -88 563 304 
Q 213 697 213 1313 
Q 213 1928 600 2439 
Q 988 2950 1597 2950 
Q 1975 2950 2222 2709 
L 2222 3238 
Q 2222 3728 2198 3840 
Q 2175 3953 2125 3993 
Q 2075 4034 2000 4034 
Q 1919 4034 1784 3984 
L 1744 4094 
L 2597 4444 
L 2738 4444 
L 2738 1134 
Q 2738 631 2761 520 
Q 2784 409 2836 365 
Q 2888 322 2956 322 
Q 3041 322 3181 375 
L 3216 266 
L 2366 -88 
L 2222 -88 
L 2222 322 
z
M 2222 541 
L 2222 2016 
Q 2203 2228 2109 2403 
Q 2016 2578 1861 2667 
Q 1706 2756 1559 2756 
Q 1284 2756 1069 2509 
Q 784 2184 784 1559 
Q 784 928 1059 592 
Q 1334 256 1672 256 
Q 1956 256 2222 541 
z
" transform="scale(0.015625)"/>
      </defs>
      <use xlink:href="#TimesNewRomanPSMT-46"/>
      <use xlink:href="#TimesNewRomanPSMT-45" transform="translate(55.615234 0)"/>
      <use xlink:href="#TimesNewRomanPSMT-2d" transform="translate(116.699219 0)"/>
      <use xlink:href="#TimesNewRomanPSMT-64" transform="translate(150 0)"/>
      <use xlink:href="#TimesNewRomanPSMT-69" transform="translate(200 0)"/>
      <use xlink:href="#TimesNewRomanPSMT-73" transform="translate(227.783203 0)"/>
      <use xlink:href="#TimesNewRomanPSMT-63" transform="translate(266.699219 0)"/>
      <use xlink:href="#TimesNewRomanPSMT-72" transform="translate(311.083984 0)"/>
      <use xlink:href="#TimesNewRomanPSMT-65" transform="translate(344.384766 0)"/>
      <use xlink:href="#TimesNewRomanPSMT-74" transform="translate(388.769531 0)"/>
      <use xlink:href="#TimesNewRomanPSMT-65" transform="translate(416.552734 0)"/>
     </g>
    </g>
   </g>
  </g>
 </g>
 <defs>
  <clipPath id="pb319821e58">
   <rect x="67.322835" y="61.228346" width="417.401575" height="392.88189"/>
  </clipPath>
 </defs>
</svg>
