solid OBJECT
  facet normal -0 0.29445862706402381 0.95566422814060059
    outer loop
      vertex 4619.2275390625 -638.54669189453125 32.243717193603516
      vertex 4494.2275390625 -831.471435546875 91.68756103515625
      vertex 4815.7275390625 -831.471435546875 91.68756103515625
    endloop
  endfacet
  facet normal -1.1635026331431804e-08 0.29445849770018268 0.95566426800009185
    outer loop
      vertex 4619.2275390625 -638.54669189453125 32.243717193603516
      vertex 4970.56103515625 -574.2384033203125 12.429103851318359
      vertex 4744.2275390625 -445.62185668945312 -27.200124740600586
    endloop
  endfacet
  facet normal -2.2811266492967855e-08 0.29445860584454642 0.95566423467873129
    outer loop
      vertex 5053.89404296875 -702.85491943359375 52.058334350585938
      vertex 4619.2275390625 -638.54669189453125 32.243717193603516
      vertex 4815.7275390625 -831.471435546875 91.68756103515625
    endloop
  endfacet
  facet normal -0 0.29445856726616421 0.95566424656547533
    outer loop
      vertex 4815.7275390625 -831.471435546875 91.68756103515625
      vertex 5137.2275390625 -831.471435546875 91.68756103515625
      vertex 5053.89404296875 -702.85491943359375 52.058334350585938
    endloop
  endfacet
  facet normal 0 0.29445851639968507 0.95566426223841605
    outer loop
      vertex 4744.2275390625 -445.62185668945312 -27.200124740600586
      vertex 4970.56103515625 -574.2384033203125 12.429103851318359
      vertex 4887.2275390625 -445.62185668945312 -27.200124740600586
    endloop
  endfacet
  facet normal -2.7503683238972169e-08 0.29445857687799065 0.95566424360388602
    outer loop
      vertex 4619.2275390625 -638.54669189453125 32.243717193603516
      vertex 5053.89404296875 -702.85491943359375 52.058334350585938
      vertex 4970.56103515625 -574.2384033203125 12.429103851318359
    endloop
  endfacet
  facet normal 3.4785980959081056e-09 -0.29445962941219689 0.95566391929717198
    outer loop
      vertex 5012.2275390625 -252.697265625 32.243892669677734
      vertex 4577.56103515625 -188.38906860351562 52.058567047119141
      vertex 4660.89453125 -317.00546264648438 12.429221153259277
    endloop
  endfacet
  facet normal 0 -0.2944596090463808 0.95566392557229696
    outer loop
      vertex 4815.7275390625 -59.772666931152344 91.687911987304688
      vertex 4494.2275390625 -59.772666931152344 91.687911987304688
      vertex 4577.56103515625 -188.38906860351562 52.058567047119141
    endloop
  endfacet
  facet normal 0 -0.29445963147063547 0.95566391866292499
    outer loop
      vertex 4887.2275390625 -445.62185668945312 -27.200124740600586
      vertex 4660.89453125 -317.00546264648438 12.429221153259277
      vertex 4744.2275390625 -445.62185668945312 -27.200124740600586
    endloop
  endfacet
  facet normal 5.320198420309463e-09 -0.29445961804389492 0.95566392279997858
    outer loop
      vertex 4577.56103515625 -188.38906860351562 52.058567047119141
      vertex 5012.2275390625 -252.697265625 32.243892669677734
      vertex 4815.7275390625 -59.772666931152344 91.687911987304688
    endloop
  endfacet
  facet normal 0 -0.29445962299284606 0.95566392127510558
    outer loop
      vertex 5012.2275390625 -252.697265625 32.243892669677734
      vertex 5137.2275390625 -59.772666931152344 91.687911987304688
      vertex 4815.7275390625 -59.772666931152344 91.687911987304688
    endloop
  endfacet
  facet normal 2.9431423911380404e-09 -0.29445962674050391 0.95566392012037538
    outer loop
      vertex 4887.2275390625 -445.62185668945312 -27.200124740600586
      vertex 5012.2275390625 -252.697265625 32.243892669677734
      vertex 4660.89453125 -317.00546264648438 12.429221153259277
    endloop
  endfacet
  facet normal 0 0.32496761520315565 0.94572514456853363
    outer loop
      vertex 4481.708984375 -445.62200927734375 97.878913879394531
      vertex 4320.958984375 -289.43817138671875 44.211429595947266
      vertex 4320.958984375 -445.62200927734375 97.878913879394531
    endloop
  endfacet
  facet normal 0 0.32496753320418026 0.94572517274480428
    outer loop
      vertex 4392.458984375 -63.785266876220703 -33.326812744140625
      vertex 4320.958984375 -63.785266876220703 -33.326812744140625
      vertex 4320.958984375 -133.25430297851562 -9.456049919128418
    endloop
  endfacet
  facet normal -2.7124470703857413e-08 0.32496753258727584 0.94572517295678282
    outer loop
      vertex 4320.958984375 -133.25430297851562 -9.456049919128418
      vertex 4320.958984375 -289.43817138671875 44.211429595947266
      vertex 4517.458984375 -254.70364379882812 32.276050567626953
    endloop
  endfacet
  facet normal 0 0.32496757520324659 0.94572515831319737
    outer loop
      vertex 4517.458984375 -254.70364379882812 32.276050567626953
      vertex 4481.708984375 -445.62200927734375 97.878913879394531
      vertex 4642.458984375 -445.62200927734375 97.878913879394531
    endloop
  endfacet
  facet normal -1.6317853515429657e-08 0.32496754822548635 0.94572516758322345
    outer loop
      vertex 4517.458984375 -254.70364379882812 32.276050567626953
      vertex 4392.458984375 -63.785266876220703 -33.326812744140625
      vertex 4320.958984375 -133.25430297851562 -9.456049919128418
    endloop
  endfacet
  facet normal -3.6763857645374561e-08 0.32496758136039017 0.94572515619749531
    outer loop
      vertex 4481.708984375 -445.62200927734375 97.878913879394531
      vertex 4517.458984375 -254.70364379882812 32.276050567626953
      vertex 4320.958984375 -289.43817138671875 44.211429595947266
    endloop
  endfacet
  facet normal 0 -0.32496770876661002 0.94572511241849755
    outer loop
      vertex 4392.458984375 -827.45849609375 -33.326812744140625
      vertex 4320.958984375 -757.989501953125 -9.456049919128418
      vertex 4320.958984375 -827.45849609375 -33.326812744140625
    endloop
  endfacet
  facet normal 0 -0.32496772878634744 0.94572510553936495
    outer loop
      vertex 4481.708984375 -445.62200927734375 97.878913879394531
      vertex 4320.958984375 -445.62200927734375 97.878913879394531
      vertex 4320.958984375 -601.8057861328125 44.211429595947266
    endloop
  endfacet
  facet normal -4.963619929213759e-08 -0.32496781654528445 0.94572507538384953
    outer loop
      vertex 4320.958984375 -601.8057861328125 44.211429595947266
      vertex 4320.958984375 -757.989501953125 -9.456049919128418
      vertex 4475.79248046875 -700.1796875 10.408430099487305
    endloop
  endfacet
  facet normal 7.6818294729331043e-09 -0.32496773585781502 0.94572510310948454
    outer loop
      vertex 4320.958984375 -601.8057861328125 44.211429595947266
      vertex 4475.79248046875 -700.1796875 10.408430099487305
      vertex 4481.708984375 -445.62200927734375 97.878913879394531
    endloop
  endfacet
  facet normal 0 -0.32496782440050076 0.94572507268465988
    outer loop
      vertex 4642.458984375 -445.62200927734375 97.878913879394531
      vertex 4481.708984375 -445.62200927734375 97.878913879394531
      vertex 4559.12548828125 -572.90081787109375 54.143669128417969
    endloop
  endfacet
  facet normal 1.5705142053041482e-07 -0.32496773896287812 0.94572510204251758
    outer loop
      vertex 4475.79248046875 -700.1796875 10.408430099487305
      vertex 4559.12548828125 -572.90081787109375 54.143669128417969
      vertex 4481.708984375 -445.62200927734375 97.878913879394531
    endloop
  endfacet
  facet normal -6.8359303435229322e-08 -0.32496777169440177 0.94572509079540146
    outer loop
      vertex 4392.458984375 -827.45849609375 -33.326812744140625
      vertex 4475.79248046875 -700.1796875 10.408430099487305
      vertex 4320.958984375 -757.989501953125 -9.456049919128418
    endloop
  endfacet
  facet normal -1.5705094350291538e-07 -0.32496773896313763 0.94572510204242832
    outer loop
      vertex 5149.74609375 -445.62200927734375 97.878913879394531
      vertex 5072.32958984375 -572.90081787109375 54.143669128417969
      vertex 5155.6630859375 -700.1796875 10.408430099487305
    endloop
  endfacet
  facet normal 0 -0.32496782440050076 0.94572507268465988
    outer loop
      vertex 5072.32958984375 -572.90081787109375 54.143669128417969
      vertex 5149.74609375 -445.62200927734375 97.878913879394531
      vertex 4988.99609375 -445.62200927734375 97.878913879394531
    endloop
  endfacet
  facet normal -7.6818441201116844e-09 -0.32496773585782851 0.94572510310947999
    outer loop
      vertex 5149.74609375 -445.62200927734375 97.878913879394531
      vertex 5155.6630859375 -700.1796875 10.408430099487305
      vertex 5310.49609375 -601.8057861328125 44.211429595947266
    endloop
  endfacet
  facet normal 0 -0.32496770876661002 0.94572511241849755
    outer loop
      vertex 5310.49609375 -757.989501953125 -9.456049919128418
      vertex 5238.99609375 -827.45849609375 -33.326812744140625
      vertex 5310.49609375 -827.45849609375 -33.326812744140625
    endloop
  endfacet
  facet normal 4.9636355824816099e-08 -0.32496781654528439 0.94572507538384942
    outer loop
      vertex 5310.49609375 -757.989501953125 -9.456049919128418
      vertex 5310.49609375 -601.8057861328125 44.211429595947266
      vertex 5155.6630859375 -700.1796875 10.408430099487305
    endloop
  endfacet
  facet normal 0 -0.32496772878634744 0.94572510553936495
    outer loop
      vertex 5310.49609375 -601.8057861328125 44.211429595947266
      vertex 5310.49609375 -445.62200927734375 97.878913879394531
      vertex 5149.74609375 -445.62200927734375 97.878913879394531
    endloop
  endfacet
  facet normal 6.8359459160705928e-08 -0.3249677716945451 0.94572509079535205
    outer loop
      vertex 5310.49609375 -757.989501953125 -9.456049919128418
      vertex 5155.6630859375 -700.1796875 10.408430099487305
      vertex 5238.99609375 -827.45849609375 -33.326812744140625
    endloop
  endfacet
  facet normal -0 0.32496761533367552 0.94572514452368472
    outer loop
      vertex 5072.32958984375 -318.34310913085938 54.143669128417969
      vertex 4988.99609375 -445.62200927734375 97.878913879394531
      vertex 5149.74609375 -445.62200927734375 97.878913879394531
    endloop
  endfacet
  facet normal -6.4510696839994497e-08 0.32496758023919992 0.94572515658275424
    outer loop
      vertex 5149.74609375 -445.62200927734375 97.878913879394531
      vertex 5155.6630859375 -191.06419372558594 10.408430099487305
      vertex 5072.32958984375 -318.34310913085938 54.143669128417969
    endloop
  endfacet
  facet normal 4.0349988640039744e-08 0.32496757805919713 0.94572515733184237
    outer loop
      vertex 5155.6630859375 -191.06419372558594 10.408430099487305
      vertex 5149.74609375 -445.62200927734375 97.878913879394531
      vertex 5310.49609375 -289.43817138671875 44.211429595947266
    endloop
  endfacet
  facet normal 8.0479382260314736e-09 0.32496753258727601 0.94572517295678327
    outer loop
      vertex 5310.49609375 -289.43817138671875 44.211429595947266
      vertex 5310.49609375 -133.25430297851562 -9.456049919128418
      vertex 5155.6630859375 -191.06419372558594 10.408430099487305
    endloop
  endfacet
  facet normal 0 0.32496753320418026 0.94572517274480428
    outer loop
      vertex 5310.49609375 -63.785266876220703 -33.326812744140625
      vertex 5238.99609375 -63.785266876220703 -33.326812744140625
      vertex 5310.49609375 -133.25430297851562 -9.456049919128418
    endloop
  endfacet
  facet normal 5.6277495940592836e-09 0.32496753838477277 0.94572517096466313
    outer loop
      vertex 5310.49609375 -133.25430297851562 -9.456049919128418
      vertex 5238.99609375 -63.785266876220703 -33.326812744140625
      vertex 5155.6630859375 -191.06419372558594 10.408430099487305
    endloop
  endfacet
  facet normal 0 0.32496761520315565 0.94572514456853363
    outer loop
      vertex 5310.49609375 -445.62200927734375 97.878913879394531
      vertex 5310.49609375 -289.43817138671875 44.211429595947266
      vertex 5149.74609375 -445.62200927734375 97.878913879394531
    endloop
  endfacet
  facet normal 0.74129289855696801 0.29445753264260338 0.60314144279682758
    outer loop
      vertex 4642.458984375 -445.62200927734375 97.878913879394531
      vertex 4744.2275390625 -445.62185668945312 -27.200124740600586
      vertex 4660.89453125 -317.00546264648438 12.429221153259277
    endloop
  endfacet
  facet normal 0.74129028438335476 0.29445942738824299 0.60314373071518612
    outer loop
      vertex 4593.04833984375 -317.00558471679688 95.81524658203125
      vertex 4642.458984375 -445.62200927734375 97.878913879394531
      vertex 4660.89453125 -317.00546264648438 12.429221153259277
    endloop
  endfacet
  facet normal 0.74129292298268634 0.29445748518392145 0.60314143594595271
    outer loop
      vertex 4543.63818359375 -188.38911437988281 93.751579284667969
      vertex 4593.04833984375 -317.00558471679688 95.81524658203125
      vertex 4577.56103515625 -188.38906860351562 52.058567047119141
    endloop
  endfacet
  facet normal 0.74129060726915263 0.29445807641958882 0.60314399342595348
    outer loop
      vertex 4660.89453125 -317.00546264648438 12.429221153259277
      vertex 4577.56103515625 -188.38906860351562 52.058567047119141
      vertex 4593.04833984375 -317.00558471679688 95.81524658203125
    endloop
  endfacet
  facet normal 0.74129229724762669 0.29446010328152228 0.60314092682951903
    outer loop
      vertex 4577.56103515625 -188.38906860351562 52.058567047119141
      vertex 4494.2275390625 -59.772666931152344 91.687911987304688
      vertex 4543.63818359375 -188.38911437988281 93.751579284667969
    endloop
  endfacet
  facet normal 0.74129375478604309 -0.29446114551357377 0.60313862660091999
    outer loop
      vertex 4543.63818359375 -702.85498046875 93.7513427734375
      vertex 4494.2275390625 -831.471435546875 91.68756103515625
      vertex 4619.2275390625 -638.54669189453125 32.243717193603516
    endloop
  endfacet
  facet normal 0.74129306509804049 -0.29445810373130293 0.6031409592993312
    outer loop
      vertex 4593.04833984375 -574.238525390625 95.81512451171875
      vertex 4543.63818359375 -702.85498046875 93.7513427734375
      vertex 4619.2275390625 -638.54669189453125 32.243717193603516
    endloop
  endfacet
  facet normal 0.7412912176805655 -0.29446012490443974 0.60314224311593889
    outer loop
      vertex 4593.04833984375 -574.238525390625 95.81512451171875
      vertex 4619.2275390625 -638.54669189453125 32.243717193603516
      vertex 4642.458984375 -445.62200927734375 97.878913879394531
    endloop
  endfacet
  facet normal 0.74129272253870437 -0.29445974069306358 0.60314058114350844
    outer loop
      vertex 4744.2275390625 -445.62185668945312 -27.200124740600586
      vertex 4642.458984375 -445.62200927734375 97.878913879394531
      vertex 4619.2275390625 -638.54669189453125 32.243717193603516
    endloop
  endfacet
  facet normal -0.7412903037685683 0.29445659003327801 0.60314509210029887
    outer loop
      vertex 5087.8173828125 -188.38911437988281 93.751579284667969
      vertex 5137.2275390625 -59.772666931152344 91.687911987304688
      vertex 5012.2275390625 -252.697265625 32.243892669677734
    endloop
  endfacet
  facet normal -0.74129098061814147 0.29445957517138543 0.60314280286187738
    outer loop
      vertex 5038.40673828125 -317.00558471679688 95.81524658203125
      vertex 5087.8173828125 -188.38911437988281 93.751579284667969
      vertex 5012.2275390625 -252.697265625 32.243892669677734
    endloop
  endfacet
  facet normal -0.74129090918164908 0.29445965332635593 0.60314285250474986
    outer loop
      vertex 5038.40673828125 -317.00558471679688 95.81524658203125
      vertex 5012.2275390625 -252.697265625 32.243892669677734
      vertex 4988.99609375 -445.62200927734375 97.878913879394531
    endloop
  endfacet
  facet normal -0.74129248804979608 0.29445925022124997 0.60314110879634308
    outer loop
      vertex 4887.2275390625 -445.62185668945312 -27.200124740600586
      vertex 4988.99609375 -445.62200927734375 97.878913879394531
      vertex 5012.2275390625 -252.697265625 32.243892669677734
    endloop
  endfacet
  facet normal -0.74129251334030477 -0.29446061598620582 0.60314041093151638
    outer loop
      vertex 4988.99609375 -445.62200927734375 97.878913879394531
      vertex 4887.2275390625 -445.62185668945312 -27.200124740600586
      vertex 4970.56103515625 -574.2384033203125 12.429103851318359
    endloop
  endfacet
  facet normal -0.74129253409713725 -0.29446060094172349 0.6031403927651372
    outer loop
      vertex 5038.40673828125 -574.238525390625 95.81512451171875
      vertex 4988.99609375 -445.62200927734375 97.878913879394531
      vertex 4970.56103515625 -574.2384033203125 12.429103851318359
    endloop
  endfacet
  facet normal -0.74129249897167759 -0.29446069139083164 0.60314039177786682
    outer loop
      vertex 5087.81689453125 -702.85498046875 93.7513427734375
      vertex 5053.89404296875 -702.85491943359375 52.058334350585938
      vertex 5137.2275390625 -831.471435546875 91.68756103515625
    endloop
  endfacet
  facet normal -0.74129311326699243 -0.2944581211497958 0.60314089159321826
    outer loop
      vertex 5053.89404296875 -702.85491943359375 52.058334350585938
      vertex 5087.81689453125 -702.85498046875 93.7513427734375
      vertex 5038.40673828125 -574.238525390625 95.81512451171875
    endloop
  endfacet
  facet normal -0.74129312765258248 -0.29445811747690576 0.60314087570567521
    outer loop
      vertex 4970.56103515625 -574.2384033203125 12.429103851318359
      vertex 5053.89404296875 -702.85491943359375 52.058334350585938
      vertex 5038.40673828125 -574.238525390625 95.81512451171875
    endloop
  endfacet
  facet normal 0.74129241848742411 0.27495519670748025 0.61227868662612805
    outer loop
      vertex 5137.2275390625 -831.471435546875 91.68756103515625
      vertex 5238.99609375 -827.45849609375 -33.326812744140625
      vertex 5155.6630859375 -700.1796875 10.408430099487305
    endloop
  endfacet
  facet normal 0.74128983439303531 0.27495699612546209 0.61228100714231581
    outer loop
      vertex 5087.81689453125 -702.85498046875 93.7513427734375
      vertex 5137.2275390625 -831.471435546875 91.68756103515625
      vertex 5155.6630859375 -700.1796875 10.408430099487305
    endloop
  endfacet
  facet normal 0.74129221698025649 0.27495513003323013 0.61227896053425357
    outer loop
      vertex 5038.40673828125 -574.238525390625 95.81512451171875
      vertex 5087.81689453125 -702.85498046875 93.7513427734375
      vertex 5072.32958984375 -572.90081787109375 54.143669128417969
    endloop
  endfacet
  facet normal 0.74129017101080219 0.27495557963398315 0.61228123570048754
    outer loop
      vertex 5155.6630859375 -700.1796875 10.408430099487305
      vertex 5072.32958984375 -572.90081787109375 54.143669128417969
      vertex 5087.81689453125 -702.85498046875 93.7513427734375
    endloop
  endfacet
  facet normal 0.74129163909360873 0.27495756177270575 0.61227856816478532
    outer loop
      vertex 5072.32958984375 -572.90081787109375 54.143669128417969
      vertex 4988.99609375 -445.62200927734375 97.878913879394531
      vertex 5038.40673828125 -574.238525390625 95.81512451171875
    endloop
  endfacet
  facet normal 0.74129282143313102 -0.27495882490054901 0.61227656945290454
    outer loop
      vertex 5038.40673828125 -317.00558471679688 95.81524658203125
      vertex 4988.99609375 -445.62200927734375 97.878913879394531
      vertex 5072.32958984375 -318.34310913085938 54.143669128417969
    endloop
  endfacet
  facet normal 0.74129284279441798 -0.27495873501258394 0.61227658395699713
    outer loop
      vertex 5087.8173828125 -188.38911437988281 93.751579284667969
      vertex 5038.40673828125 -317.00558471679688 95.81524658203125
      vertex 5072.32958984375 -318.34310913085938 54.143669128417969
    endloop
  endfacet
  facet normal 0.74129340972354474 -0.27495614965876319 0.61227705858154502
    outer loop
      vertex 5137.2275390625 -59.772666931152344 91.687911987304688
      vertex 5155.6630859375 -191.06419372558594 10.408430099487305
      vertex 5238.99609375 -63.785266876220703 -33.326812744140625
    endloop
  endfacet
  facet normal 0.74129338213248186 -0.27495616887180752 0.612277083358445
    outer loop
      vertex 5155.6630859375 -191.06419372558594 10.408430099487305
      vertex 5137.2275390625 -59.772666931152344 91.687911987304688
      vertex 5087.8173828125 -188.38911437988281 93.751579284667969
    endloop
  endfacet
  facet normal 0.74129276842467218 -0.27495875135535724 0.6122766666584547
    outer loop
      vertex 5072.32958984375 -318.34310913085938 54.143669128417969
      vertex 5155.6630859375 -191.06419372558594 10.408430099487305
      vertex 5087.8173828125 -188.38911437988281 93.751579284667969
    endloop
  endfacet
  facet normal -0.74129163909360873 0.27495756177270575 0.61227856816478532
    outer loop
      vertex 4593.04833984375 -574.238525390625 95.81512451171875
      vertex 4642.458984375 -445.62200927734375 97.878913879394531
      vertex 4559.12548828125 -572.90081787109375 54.143669128417969
    endloop
  endfacet
  facet normal -0.74129221698025649 0.27495513003323013 0.61227896053425357
    outer loop
      vertex 4543.63818359375 -702.85498046875 93.7513427734375
      vertex 4593.04833984375 -574.238525390625 95.81512451171875
      vertex 4559.12548828125 -572.90081787109375 54.143669128417969
    endloop
  endfacet
  facet normal -0.74129180419255991 0.27495778165879176 0.61227826953291065
    outer loop
      vertex 4494.2275390625 -831.471435546875 91.68756103515625
      vertex 4475.79248046875 -700.1796875 10.408430099487305
      vertex 4392.458984375 -827.45849609375 -33.326812744140625
    endloop
  endfacet
  facet normal -0.7412917903712819 0.27495779128312198 0.61227828194444933
    outer loop
      vertex 4475.79248046875 -700.1796875 10.408430099487305
      vertex 4494.2275390625 -831.471435546875 91.68756103515625
      vertex 4543.63818359375 -702.85498046875 93.7513427734375
    endloop
  endfacet
  facet normal -0.74129243413827328 0.27495508231261995 0.61227871904861653
    outer loop
      vertex 4559.12548828125 -572.90081787109375 54.143669128417969
      vertex 4475.79248046875 -700.1796875 10.408430099487305
      vertex 4543.63818359375 -702.85498046875 93.7513427734375
    endloop
  endfacet
  facet normal -0.74129147351582581 -0.27495822765151778 0.61227846960306553
    outer loop
      vertex 4543.63818359375 -188.38911437988281 93.751579284667969
      vertex 4494.2275390625 -59.772666931152344 91.687911987304688
      vertex 4517.458984375 -254.70364379882812 32.276050567626953
    endloop
  endfacet
  facet normal -0.74129299537993065 -0.27495789322078951 0.61227677724721474
    outer loop
      vertex 4392.458984375 -63.785266876220703 -33.326812744140625
      vertex 4517.458984375 -254.70364379882812 32.276050567626953
      vertex 4494.2275390625 -59.772666931152344 91.687911987304688
    endloop
  endfacet
  facet normal -0.74129413881705952 -0.27495936045127056 0.61227473396809584
    outer loop
      vertex 4593.04833984375 -317.00558471679688 95.81524658203125
      vertex 4517.458984375 -254.70364379882812 32.276050567626953
      vertex 4642.458984375 -445.62200927734375 97.878913879394531
    endloop
  endfacet
  facet normal -0.74129342514570318 -0.2749561370721636 0.61227704556197882
    outer loop
      vertex 4543.63818359375 -188.38911437988281 93.751579284667969
      vertex 4517.458984375 -254.70364379882812 32.276050567626953
      vertex 4593.04833984375 -317.00558471679688 95.81524658203125
    endloop
  endfacet
endsolid OBJECT
